M48
;GenerationSoftware,Autodesk,EAGLE,9.6.2*%
;CreationDate,2022-07-26T23:03:51Z*%
FMAT,2
ICI,OFF
METRIC,TZ,000.000
T6C0.350
T5C0.508
T4C0.750
T3C0.813
T2C1.020
T1C3.200
%
G90
M71
T1
X94234Y33020
X2540Y80010
X94107Y79883
X2540Y33020
T2
X85979Y72644
X83439Y70104
X85979Y70104
X83439Y67564
X85979Y67564
X83439Y65024
X85979Y65024
X83439Y62484
X85979Y62484
X83439Y59944
X85979Y59944
X83439Y57404
X85979Y57404
X44323Y44704
X83439Y54864
X85979Y54864
X83439Y52324
X85979Y52324
X83439Y49784
X85979Y49784
X83439Y47244
X85979Y47244
X83439Y44704
X85979Y44704
X83439Y42164
X83439Y39624
X85979Y39624
X83439Y37084
X85979Y37084
X64643Y65024
X64643Y62484
X64643Y59944
X64643Y57404
X64643Y54864
X64643Y52324
X64643Y49784
X64643Y47244
X64643Y44704
X64643Y42164
X64643Y39624
X64643Y37084
X44323Y75184
X44323Y72644
X44323Y70104
X44323Y67564
X44323Y65024
X44323Y62484
X44323Y59944
X44323Y57404
X44323Y54864
X44323Y52324
X44323Y49784
X44323Y47244
X85979Y42164
X44323Y42164
X44323Y39624
X44323Y37084
X26924Y49784
X29464Y49784
X26924Y47244
X29464Y47244
X26924Y44704
X29464Y44704
X26924Y42164
X29464Y42164
X26924Y39624
X29464Y39624
X26924Y37084
X29464Y37084
X83439Y75184
X85979Y75184
X83439Y72644
T3
X3556Y58547
X69596Y57404
X69596Y59944
X38989Y70231
X38989Y72771
X3556Y61087
T4
X17272Y63444
X17272Y56444
X12700Y63444
X12700Y56444
X8128Y63444
X8128Y56444
X21971Y56444
X21971Y63444
T5
X67335Y36881
X65380Y33528
X68732Y36881
X6426Y45542
X11735Y43586
X11735Y41072
X71526Y37998
X66218Y36322
X61468Y35204
X77114Y41910
X66777Y50013
X47777Y47498
X64262Y34087
T6
X73406Y52451
X11176Y79248
X72009Y40005
X69342Y40386
X62484Y37084
X8636Y42164
X69596Y34036
X64516Y77724
X81407Y36195
X61595Y54737
X72263Y54737
X19304Y70104
M30