M48
;GenerationSoftware,Autodesk,EAGLE,9.6.2*%
;CreationDate,2022-12-04T23:39:50Z*%
FMAT,2
ICI,OFF
METRIC,TZ,000.000
T8C0.350
T7C0.400
T6C0.600
T5C0.930
T4C1.020
T3C1.295
T2C1.300
T1C3.200
%
G90
M71
T1
X2540Y19050
X94742Y19050
X2540Y80010
X94615Y79883
T2
X62230Y29454
X13716Y29454
X13716Y21854
X28956Y29454
X26416Y21854
X62230Y21854
X77470Y29454
X74930Y21854
T3
X87884Y24384
X37084Y24892
X39624Y24892
X85344Y24384
T4
X83439Y57404
X85979Y59944
X83439Y59944
X85979Y62484
X83439Y62484
X85979Y75184
X85979Y65024
X83439Y65024
X85979Y67564
X83439Y67564
X85979Y70104
X83439Y70104
X85979Y72644
X64643Y65024
X64643Y62484
X64643Y59944
X64643Y57404
X64643Y54864
X83439Y72644
X64643Y49784
X64643Y47244
X64643Y44704
X64643Y42164
X64643Y39624
X64643Y37084
X44323Y75184
X44323Y72644
X44323Y70104
X44323Y67564
X44323Y65024
X85979Y57404
X44323Y59944
X44323Y57404
X44323Y54864
X44323Y52324
X44323Y49784
X44323Y47244
X44323Y44704
X44323Y42164
X44323Y39624
X44323Y37084
X27940Y60198
X30480Y60198
X27940Y57658
X30480Y57658
X27940Y55118
X30480Y55118
X27940Y52578
X30480Y52578
X27940Y50038
X30480Y50038
X27940Y47498
X30480Y47498
X64643Y52324
X83439Y42164
X85979Y42164
X83439Y39624
X85979Y39624
X83439Y37084
X85979Y37084
X85979Y44704
X83439Y44704
X85979Y47244
X83439Y47244
X44323Y62484
X85979Y49784
X83439Y49784
X85979Y52324
X27940Y41910
X30480Y41910
X27940Y39370
X30480Y39370
X83439Y52324
X85979Y54864
X83439Y54864
X83439Y75184
T5
X30710Y67246
X27710Y67246
X29210Y67946
T6
X5483Y35578
X5483Y44228
X2103Y35578
X2103Y44228
T7
X6463Y42878
X5113Y40328
X6463Y42028
X6463Y41178
X6463Y40328
X6463Y39478
X6463Y37778
X6463Y36928
X5113Y36928
X5113Y37778
X5113Y38628
X5113Y39478
X5113Y41178
X5113Y42028
X5113Y42878
X6463Y38628
T8
X48260Y19812
X94488Y55372
X4801Y63551
X17374Y68809
X17602Y50063
X21717Y58293
X5258Y53035
X7112Y78740
X13716Y64694
X5258Y54178
X5486Y55093
X13487Y68809
X12344Y67666
X20320Y30734
X71120Y45974
X14986Y56134
X8128Y51816
X24384Y36068
X10922Y64262
X20828Y67056
X9906Y54864
X19812Y61468
X56896Y78740
X22860Y70104
X20574Y51308
M30