M48
;GenerationSoftware,Autodesk,EAGLE,9.6.2*%
;CreationDate,2022-07-26T22:54:05Z*%
FMAT,2
ICI,OFF
METRIC,TZ,000.000
T4C0.350
T3C0.508
T2C1.020
T1C3.200
%
G90
M71
T1
X2540Y80010
X94615Y79375
X2540Y33020
X94742Y32512
T2
X83439Y65024
X85979Y65024
X83439Y62484
X85979Y62484
X83439Y59944
X85979Y59944
X83439Y57404
X85979Y57404
X83439Y54864
X85979Y54864
X83439Y52324
X44323Y49784
X83439Y49784
X85979Y49784
X83439Y47244
X85979Y47244
X83439Y44704
X85979Y44704
X83439Y42164
X85979Y42164
X83439Y39624
X85979Y39624
X83439Y37084
X85979Y37084
X64643Y65024
X64643Y62484
X64643Y59944
X64643Y57404
X64643Y54864
X64643Y52324
X64643Y49784
X64643Y47244
X64643Y44704
X64643Y42164
X64643Y39624
X64643Y37084
X44323Y75184
X44323Y72644
X44323Y70104
X44323Y67564
X44323Y65024
X44323Y62484
X44323Y59944
X44323Y57404
X44323Y54864
X44323Y52324
X85979Y52324
X44323Y47244
X44323Y44704
X44323Y42164
X44323Y39624
X44323Y37084
X26924Y49784
X29464Y49784
X26924Y47244
X29464Y47244
X26924Y44704
X29464Y44704
X26924Y42164
X29464Y42164
X26924Y39624
X29464Y39624
X26924Y37084
X29464Y37084
X83439Y75184
X85979Y75184
X83439Y72644
X85979Y72644
X83439Y70104
X85979Y70104
X83439Y67564
X85979Y67564
T3
X6706Y46660
X47777Y44425
X61189Y35204
X77114Y40792
X63703Y33528
X10617Y59512
X11735Y48336
X13411Y54762
X6147Y41351
X47777Y51130
X80188Y37998
X47777Y41910
X17323Y51968
T4
X20828Y71120
X65532Y78232
X94488Y51308
X17907Y56642
X14351Y58420
X54737Y39243
X62230Y52451
X62103Y54737
X72644Y40386
X73787Y54737
X10160Y79248
M30