M48
;GenerationSoftware,Autodesk,EAGLE,9.6.2*%
;CreationDate,2022-12-17T20:38:56Z*%
FMAT,2
ICI,OFF
METRIC,TZ,000.000
T7C0.200
T6C0.350
T5C0.508
T4C1.020
T3C1.295
T2C1.300
T1C3.200
%
G90
M71
T1
X2540Y80010
X94615Y79883
X2540Y19050
X94742Y19050
T2
X28956Y30470
X13716Y22870
X13716Y30470
X74930Y22870
X77470Y30470
X62230Y22870
X62230Y30470
X26416Y22870
T3
X85344Y25400
X39624Y25908
X37084Y25908
X87884Y25400
T4
X83439Y57404
X85979Y57404
X83439Y54864
X83439Y52324
X85979Y52324
X83439Y49784
X85979Y49784
X83439Y47244
X85979Y47244
X83439Y44704
X85979Y44704
X83439Y42164
X85979Y42164
X83439Y39624
X85979Y39624
X83439Y37084
X85979Y37084
X27940Y41910
X30480Y41910
X27940Y39370
X30480Y39370
X85979Y54864
X64643Y65024
X64643Y62484
X64643Y59944
X64643Y57404
X64643Y54864
X64643Y52324
X64643Y49784
X64643Y47244
X64643Y44704
X64643Y42164
X64643Y39624
X64643Y37084
X44323Y75184
X44323Y72644
X44323Y70104
X44323Y67564
X44323Y65024
X44323Y62484
X44323Y59944
X44323Y57404
X44323Y54864
X44323Y52324
X44323Y49784
X44323Y47244
X44323Y44704
X44323Y42164
X44323Y39624
X44323Y37084
X27940Y60198
X30480Y60198
X27940Y57658
X30480Y57658
X27940Y55118
X30480Y55118
X27940Y52578
X30480Y52578
X27940Y50038
X30480Y50038
X27940Y47498
X30480Y47498
X83439Y75184
X85979Y75184
X83439Y72644
X85979Y72644
X83439Y70104
X85979Y70104
X83439Y67564
X85979Y67564
X83439Y65024
X85979Y65024
X83439Y62484
X85979Y62484
X83439Y59944
X85979Y59944
T5
X64541Y33807
X60350Y51130
X41351Y51410
X62027Y62306
X60350Y53645
X7264Y60630
X67056Y36322
X71806Y37440
X32969Y52527
X8661Y53645
X81585Y36322
X78791Y33528
X41351Y39116
X15088Y60630
X7264Y53645
X9220Y62306
X67615Y50292
T6
X20193Y69977
X64440Y78334
X94869Y56261
X49911Y20828
X75311Y33528
X69215Y33782
X81813Y33350
X33960Y65634
X8661Y40107
X18034Y35839
X93218Y30556
X71323Y44374
X55626Y44958
X73025Y63068
X7366Y79121
X54940Y59893
T7
X7976Y51714
M30