G04 EAGLE Gerber RS-274X export*
G75*
%MOMM*%
%FSLAX34Y34*%
%LPD*%
%INBottom Copper*%
%IPPOS*%
%AMOC8*
5,1,8,0,0,1.08239X$1,22.5*%
G01*
%ADD10R,1.530000X1.530000*%
%ADD11C,1.530000*%
%ADD12R,1.950000X1.950000*%
%ADD13C,1.950000*%
%ADD14C,1.943100*%
%ADD15C,0.650000*%
%ADD16C,1.108000*%
%ADD17C,1.450000*%
%ADD18C,0.756400*%
%ADD19C,0.304800*%

G36*
X925484Y174067D02*
X925484Y174067D01*
X925579Y174076D01*
X925604Y174087D01*
X925632Y174091D01*
X925717Y174136D01*
X925804Y174174D01*
X925825Y174193D01*
X925849Y174206D01*
X925916Y174275D01*
X925986Y174340D01*
X926000Y174364D01*
X926019Y174384D01*
X926060Y174471D01*
X926106Y174555D01*
X926111Y174582D01*
X926123Y174607D01*
X926134Y174702D01*
X926151Y174796D01*
X926147Y174824D01*
X926150Y174851D01*
X926130Y174945D01*
X926117Y175040D01*
X926103Y175072D01*
X926098Y175092D01*
X926082Y175120D01*
X926049Y175194D01*
X923042Y180402D01*
X921259Y187056D01*
X921259Y193944D01*
X923042Y200598D01*
X926486Y206563D01*
X931357Y211434D01*
X937322Y214878D01*
X943976Y216661D01*
X950864Y216661D01*
X957518Y214878D01*
X960757Y213007D01*
X960847Y212974D01*
X960933Y212934D01*
X960961Y212930D01*
X960987Y212920D01*
X961083Y212917D01*
X961177Y212906D01*
X961205Y212912D01*
X961233Y212911D01*
X961325Y212939D01*
X961418Y212959D01*
X961442Y212973D01*
X961469Y212981D01*
X961547Y213036D01*
X961629Y213085D01*
X961647Y213106D01*
X961670Y213123D01*
X961727Y213199D01*
X961789Y213272D01*
X961799Y213298D01*
X961816Y213321D01*
X961845Y213411D01*
X961881Y213500D01*
X961885Y213535D01*
X961891Y213555D01*
X961891Y213588D01*
X961899Y213667D01*
X961899Y776397D01*
X961884Y776491D01*
X961875Y776586D01*
X961864Y776611D01*
X961860Y776639D01*
X961815Y776724D01*
X961777Y776811D01*
X961758Y776832D01*
X961744Y776857D01*
X961675Y776922D01*
X961611Y776993D01*
X961587Y777007D01*
X961566Y777026D01*
X961480Y777066D01*
X961396Y777113D01*
X961369Y777118D01*
X961343Y777130D01*
X961248Y777140D01*
X961155Y777158D01*
X961127Y777154D01*
X961099Y777157D01*
X961005Y777137D01*
X960911Y777123D01*
X960879Y777109D01*
X960858Y777105D01*
X960830Y777088D01*
X960757Y777056D01*
X956248Y774452D01*
X949594Y772669D01*
X942706Y772669D01*
X936052Y774452D01*
X930087Y777896D01*
X925216Y782767D01*
X921772Y788732D01*
X919989Y795386D01*
X919989Y802274D01*
X921772Y808928D01*
X924060Y812891D01*
X924094Y812980D01*
X924134Y813066D01*
X924137Y813094D01*
X924147Y813121D01*
X924151Y813216D01*
X924161Y813310D01*
X924155Y813338D01*
X924156Y813367D01*
X924129Y813458D01*
X924109Y813550D01*
X924095Y813575D01*
X924087Y813603D01*
X924032Y813680D01*
X923983Y813762D01*
X923962Y813780D01*
X923945Y813804D01*
X923869Y813860D01*
X923797Y813922D01*
X923770Y813933D01*
X923747Y813950D01*
X923657Y813979D01*
X923569Y814014D01*
X923533Y814018D01*
X923513Y814025D01*
X923480Y814024D01*
X923402Y814033D01*
X48223Y815176D01*
X48128Y815161D01*
X48033Y815152D01*
X48008Y815141D01*
X47980Y815137D01*
X47895Y815092D01*
X47808Y815054D01*
X47787Y815035D01*
X47763Y815022D01*
X47696Y814953D01*
X47626Y814888D01*
X47612Y814864D01*
X47593Y814844D01*
X47553Y814757D01*
X47506Y814673D01*
X47501Y814646D01*
X47489Y814621D01*
X47479Y814526D01*
X47461Y814432D01*
X47465Y814404D01*
X47462Y814377D01*
X47482Y814283D01*
X47495Y814188D01*
X47509Y814156D01*
X47514Y814136D01*
X47531Y814108D01*
X47563Y814034D01*
X49778Y810198D01*
X51561Y803544D01*
X51561Y796656D01*
X49778Y790002D01*
X46334Y784037D01*
X41463Y779166D01*
X35498Y775722D01*
X28844Y773939D01*
X21956Y773939D01*
X15302Y775722D01*
X11303Y778031D01*
X11214Y778065D01*
X11127Y778105D01*
X11099Y778108D01*
X11073Y778118D01*
X10977Y778122D01*
X10883Y778132D01*
X10855Y778126D01*
X10827Y778127D01*
X10735Y778100D01*
X10642Y778080D01*
X10618Y778066D01*
X10591Y778058D01*
X10513Y778003D01*
X10431Y777954D01*
X10413Y777932D01*
X10390Y777916D01*
X10333Y777840D01*
X10271Y777767D01*
X10261Y777741D01*
X10244Y777718D01*
X10215Y777627D01*
X10179Y777539D01*
X10175Y777504D01*
X10169Y777484D01*
X10169Y777451D01*
X10161Y777372D01*
X10161Y449863D01*
X10180Y449746D01*
X10199Y449626D01*
X10200Y449624D01*
X10200Y449620D01*
X10257Y449514D01*
X10312Y449408D01*
X10314Y449406D01*
X10316Y449403D01*
X10403Y449320D01*
X10489Y449237D01*
X10492Y449236D01*
X10494Y449234D01*
X10603Y449183D01*
X10711Y449132D01*
X10714Y449131D01*
X10717Y449130D01*
X10835Y449117D01*
X10955Y449103D01*
X10958Y449103D01*
X10961Y449103D01*
X11077Y449128D01*
X11196Y449153D01*
X11199Y449155D01*
X11202Y449155D01*
X11211Y449161D01*
X11345Y449230D01*
X11666Y449445D01*
X13137Y450054D01*
X14698Y450365D01*
X19535Y450365D01*
X19535Y443022D01*
X19538Y443003D01*
X19536Y442983D01*
X19558Y442881D01*
X19574Y442779D01*
X19584Y442762D01*
X19588Y442742D01*
X19641Y442653D01*
X19690Y442562D01*
X19704Y442548D01*
X19714Y442531D01*
X19793Y442464D01*
X19868Y442393D01*
X19886Y442384D01*
X19901Y442371D01*
X19997Y442333D01*
X20091Y442289D01*
X20111Y442287D01*
X20129Y442280D01*
X20053Y442267D01*
X20036Y442258D01*
X20016Y442254D01*
X19927Y442201D01*
X19836Y442152D01*
X19822Y442138D01*
X19805Y442128D01*
X19738Y442049D01*
X19666Y441974D01*
X19658Y441956D01*
X19645Y441941D01*
X19606Y441844D01*
X19563Y441751D01*
X19561Y441731D01*
X19553Y441713D01*
X19535Y441546D01*
X19535Y434203D01*
X14698Y434203D01*
X13137Y434514D01*
X11666Y435123D01*
X11345Y435338D01*
X11236Y435387D01*
X11127Y435438D01*
X11124Y435438D01*
X11121Y435440D01*
X11002Y435452D01*
X10883Y435465D01*
X10879Y435464D01*
X10876Y435465D01*
X10761Y435439D01*
X10642Y435413D01*
X10639Y435411D01*
X10636Y435410D01*
X10535Y435349D01*
X10431Y435287D01*
X10429Y435284D01*
X10426Y435283D01*
X10350Y435192D01*
X10271Y435100D01*
X10270Y435097D01*
X10268Y435094D01*
X10225Y434985D01*
X10179Y434871D01*
X10179Y434868D01*
X10178Y434865D01*
X10177Y434855D01*
X10161Y434705D01*
X10161Y363363D01*
X10180Y363246D01*
X10199Y363126D01*
X10200Y363124D01*
X10200Y363120D01*
X10256Y363015D01*
X10312Y362908D01*
X10314Y362906D01*
X10316Y362903D01*
X10403Y362820D01*
X10489Y362737D01*
X10492Y362736D01*
X10494Y362734D01*
X10603Y362683D01*
X10711Y362632D01*
X10714Y362631D01*
X10717Y362630D01*
X10835Y362617D01*
X10955Y362603D01*
X10958Y362603D01*
X10961Y362603D01*
X11077Y362628D01*
X11196Y362653D01*
X11199Y362655D01*
X11202Y362655D01*
X11211Y362661D01*
X11345Y362730D01*
X11666Y362945D01*
X13137Y363554D01*
X14698Y363865D01*
X19535Y363865D01*
X19535Y356522D01*
X19538Y356503D01*
X19536Y356483D01*
X19558Y356381D01*
X19574Y356279D01*
X19584Y356262D01*
X19588Y356242D01*
X19641Y356153D01*
X19690Y356062D01*
X19704Y356048D01*
X19714Y356031D01*
X19793Y355964D01*
X19868Y355893D01*
X19886Y355884D01*
X19901Y355871D01*
X19997Y355833D01*
X20091Y355789D01*
X20111Y355787D01*
X20129Y355780D01*
X20053Y355767D01*
X20036Y355758D01*
X20016Y355754D01*
X19927Y355701D01*
X19836Y355652D01*
X19822Y355638D01*
X19805Y355628D01*
X19738Y355549D01*
X19666Y355474D01*
X19658Y355456D01*
X19645Y355441D01*
X19606Y355344D01*
X19563Y355251D01*
X19561Y355231D01*
X19553Y355213D01*
X19535Y355046D01*
X19535Y347703D01*
X14698Y347703D01*
X13137Y348014D01*
X11666Y348623D01*
X11345Y348838D01*
X11236Y348887D01*
X11127Y348938D01*
X11124Y348938D01*
X11121Y348940D01*
X11002Y348952D01*
X10883Y348965D01*
X10879Y348964D01*
X10876Y348965D01*
X10761Y348939D01*
X10642Y348913D01*
X10639Y348911D01*
X10636Y348910D01*
X10535Y348849D01*
X10431Y348787D01*
X10429Y348784D01*
X10426Y348783D01*
X10350Y348692D01*
X10271Y348600D01*
X10270Y348597D01*
X10268Y348594D01*
X10225Y348485D01*
X10179Y348371D01*
X10179Y348368D01*
X10178Y348365D01*
X10177Y348355D01*
X10161Y348205D01*
X10161Y213228D01*
X10176Y213134D01*
X10185Y213039D01*
X10196Y213013D01*
X10200Y212985D01*
X10245Y212901D01*
X10283Y212814D01*
X10302Y212793D01*
X10316Y212768D01*
X10385Y212702D01*
X10449Y212632D01*
X10473Y212618D01*
X10494Y212598D01*
X10580Y212558D01*
X10664Y212512D01*
X10691Y212507D01*
X10717Y212495D01*
X10812Y212484D01*
X10905Y212467D01*
X10933Y212471D01*
X10961Y212468D01*
X11055Y212488D01*
X11149Y212501D01*
X11181Y212516D01*
X11202Y212520D01*
X11230Y212537D01*
X11303Y212569D01*
X15302Y214878D01*
X21956Y216661D01*
X28844Y216661D01*
X35498Y214878D01*
X41463Y211434D01*
X46334Y206563D01*
X49778Y200598D01*
X51561Y193944D01*
X51561Y187056D01*
X49778Y180402D01*
X47432Y176340D01*
X47399Y176251D01*
X47359Y176165D01*
X47356Y176137D01*
X47345Y176110D01*
X47342Y176015D01*
X47331Y175921D01*
X47337Y175893D01*
X47336Y175864D01*
X47363Y175773D01*
X47383Y175680D01*
X47398Y175656D01*
X47406Y175628D01*
X47461Y175550D01*
X47509Y175469D01*
X47531Y175450D01*
X47548Y175427D01*
X47624Y175371D01*
X47696Y175309D01*
X47723Y175298D01*
X47746Y175281D01*
X47836Y175252D01*
X47924Y175217D01*
X47960Y175213D01*
X47980Y175206D01*
X48013Y175207D01*
X48091Y175198D01*
X925389Y174052D01*
X925484Y174067D01*
G37*
%LPC*%
G36*
X611918Y283265D02*
X611918Y283265D01*
X611025Y284158D01*
X611025Y304922D01*
X611918Y305815D01*
X630372Y305815D01*
X630462Y305829D01*
X630553Y305837D01*
X630583Y305849D01*
X630615Y305854D01*
X630695Y305897D01*
X630779Y305933D01*
X630811Y305959D01*
X630832Y305970D01*
X630854Y305993D01*
X630910Y306038D01*
X709683Y384811D01*
X835098Y384811D01*
X835188Y384825D01*
X835279Y384833D01*
X835309Y384845D01*
X835341Y384850D01*
X835421Y384893D01*
X835505Y384929D01*
X835537Y384955D01*
X835558Y384966D01*
X835580Y384989D01*
X835636Y385034D01*
X836368Y385766D01*
X836410Y385824D01*
X836459Y385876D01*
X836481Y385923D01*
X836512Y385965D01*
X836533Y386034D01*
X836563Y386099D01*
X836569Y386151D01*
X836584Y386201D01*
X836582Y386272D01*
X836590Y386343D01*
X836579Y386394D01*
X836578Y386446D01*
X836553Y386514D01*
X836538Y386584D01*
X836511Y386629D01*
X836493Y386677D01*
X836448Y386733D01*
X836412Y386795D01*
X836372Y386829D01*
X836340Y386869D01*
X836279Y386908D01*
X836225Y386955D01*
X836176Y386974D01*
X836133Y387002D01*
X836063Y387020D01*
X835997Y387047D01*
X835925Y387055D01*
X835894Y387063D01*
X835871Y387061D01*
X835830Y387065D01*
X832565Y387065D01*
X829193Y388462D01*
X826612Y391043D01*
X825215Y394415D01*
X825215Y398065D01*
X826357Y400821D01*
X826383Y400935D01*
X826412Y401048D01*
X826412Y401054D01*
X826413Y401060D01*
X826402Y401177D01*
X826393Y401293D01*
X826391Y401299D01*
X826390Y401305D01*
X826342Y401413D01*
X826297Y401520D01*
X826292Y401525D01*
X826290Y401530D01*
X826277Y401544D01*
X826192Y401651D01*
X821920Y405922D01*
X821846Y405975D01*
X821777Y406035D01*
X821747Y406047D01*
X821720Y406066D01*
X821633Y406093D01*
X821549Y406127D01*
X821508Y406131D01*
X821485Y406138D01*
X821453Y406137D01*
X821382Y406145D01*
X650318Y406145D01*
X650222Y406130D01*
X650125Y406120D01*
X650101Y406110D01*
X650076Y406106D01*
X649990Y406060D01*
X649901Y406020D01*
X649881Y406003D01*
X649858Y405990D01*
X649791Y405920D01*
X649719Y405854D01*
X649707Y405831D01*
X649689Y405812D01*
X649648Y405724D01*
X649601Y405638D01*
X649596Y405613D01*
X649585Y405589D01*
X649574Y405492D01*
X649557Y405396D01*
X649561Y405370D01*
X649558Y405345D01*
X649579Y405249D01*
X649593Y405153D01*
X649605Y405130D01*
X649610Y405104D01*
X649660Y405021D01*
X649704Y404934D01*
X649723Y404915D01*
X649737Y404893D01*
X649810Y404830D01*
X649880Y404762D01*
X649909Y404746D01*
X649923Y404733D01*
X649954Y404721D01*
X650027Y404681D01*
X651627Y404018D01*
X654208Y401437D01*
X655605Y398065D01*
X655605Y394415D01*
X654208Y391043D01*
X651627Y388462D01*
X648255Y387065D01*
X644605Y387065D01*
X641233Y388462D01*
X638652Y391043D01*
X637255Y394415D01*
X637255Y397934D01*
X637244Y398005D01*
X637242Y398076D01*
X637224Y398125D01*
X637216Y398177D01*
X637182Y398240D01*
X637157Y398307D01*
X637125Y398348D01*
X637100Y398394D01*
X637048Y398443D01*
X637004Y398499D01*
X636960Y398528D01*
X636922Y398563D01*
X636857Y398594D01*
X636797Y398632D01*
X636746Y398645D01*
X636699Y398667D01*
X636628Y398675D01*
X636558Y398692D01*
X636506Y398688D01*
X636455Y398694D01*
X636384Y398679D01*
X636313Y398673D01*
X636265Y398653D01*
X636214Y398642D01*
X636153Y398605D01*
X636087Y398577D01*
X636031Y398532D01*
X636003Y398516D01*
X635988Y398498D01*
X635956Y398472D01*
X632199Y394715D01*
X453038Y394715D01*
X452923Y394696D01*
X452807Y394679D01*
X452801Y394677D01*
X452795Y394676D01*
X452692Y394621D01*
X452588Y394568D01*
X452583Y394563D01*
X452578Y394560D01*
X452498Y394476D01*
X452415Y394392D01*
X452412Y394386D01*
X452408Y394382D01*
X452400Y394365D01*
X452334Y394245D01*
X451008Y391043D01*
X448427Y388462D01*
X445055Y387065D01*
X441405Y387065D01*
X438033Y388462D01*
X435452Y391043D01*
X434055Y394415D01*
X434055Y398065D01*
X435452Y401437D01*
X438033Y404018D01*
X441405Y405415D01*
X445055Y405415D01*
X448427Y404018D01*
X451008Y401437D01*
X451072Y401283D01*
X451133Y401183D01*
X451193Y401083D01*
X451198Y401079D01*
X451202Y401074D01*
X451292Y400999D01*
X451380Y400923D01*
X451386Y400921D01*
X451391Y400917D01*
X451499Y400875D01*
X451609Y400831D01*
X451616Y400830D01*
X451621Y400829D01*
X451639Y400828D01*
X451775Y400813D01*
X629358Y400813D01*
X629448Y400827D01*
X629539Y400835D01*
X629569Y400847D01*
X629601Y400852D01*
X629681Y400895D01*
X629765Y400931D01*
X629797Y400957D01*
X629818Y400968D01*
X629840Y400991D01*
X629896Y401036D01*
X641103Y412243D01*
X641315Y412243D01*
X641411Y412258D01*
X641508Y412268D01*
X641532Y412278D01*
X641558Y412282D01*
X641644Y412328D01*
X641733Y412368D01*
X641752Y412385D01*
X641775Y412398D01*
X641842Y412468D01*
X641914Y412534D01*
X641927Y412557D01*
X641945Y412576D01*
X641986Y412664D01*
X642033Y412750D01*
X642037Y412775D01*
X642048Y412799D01*
X642059Y412896D01*
X642076Y412992D01*
X642073Y413018D01*
X642075Y413043D01*
X642055Y413138D01*
X642041Y413235D01*
X642029Y413258D01*
X642023Y413284D01*
X641973Y413367D01*
X641929Y413454D01*
X641910Y413473D01*
X641897Y413495D01*
X641823Y413558D01*
X641754Y413626D01*
X641725Y413642D01*
X641710Y413655D01*
X641679Y413667D01*
X641607Y413707D01*
X641233Y413862D01*
X638652Y416443D01*
X637255Y419815D01*
X637255Y423080D01*
X637244Y423151D01*
X637242Y423222D01*
X637224Y423271D01*
X637216Y423323D01*
X637182Y423386D01*
X637157Y423453D01*
X637125Y423494D01*
X637100Y423540D01*
X637048Y423589D01*
X637004Y423645D01*
X636960Y423674D01*
X636922Y423709D01*
X636857Y423740D01*
X636797Y423778D01*
X636746Y423791D01*
X636699Y423813D01*
X636628Y423821D01*
X636558Y423838D01*
X636506Y423834D01*
X636455Y423840D01*
X636384Y423825D01*
X636313Y423819D01*
X636265Y423799D01*
X636214Y423788D01*
X636153Y423751D01*
X636087Y423723D01*
X636031Y423678D01*
X636003Y423662D01*
X635988Y423644D01*
X635956Y423618D01*
X632199Y419861D01*
X452933Y419861D01*
X452818Y419842D01*
X452702Y419825D01*
X452696Y419823D01*
X452690Y419822D01*
X452587Y419767D01*
X452482Y419714D01*
X452478Y419709D01*
X452472Y419706D01*
X452393Y419622D01*
X452310Y419538D01*
X452306Y419532D01*
X452303Y419528D01*
X452295Y419511D01*
X452229Y419391D01*
X451008Y416443D01*
X448427Y413862D01*
X445055Y412465D01*
X441405Y412465D01*
X438033Y413862D01*
X435452Y416443D01*
X434055Y419815D01*
X434055Y423465D01*
X435452Y426837D01*
X438033Y429418D01*
X441405Y430815D01*
X445055Y430815D01*
X448427Y429418D01*
X451008Y426837D01*
X451177Y426429D01*
X451239Y426330D01*
X451299Y426229D01*
X451303Y426225D01*
X451307Y426220D01*
X451396Y426146D01*
X451486Y426069D01*
X451491Y426067D01*
X451496Y426063D01*
X451604Y426021D01*
X451714Y425977D01*
X451721Y425976D01*
X451726Y425975D01*
X451744Y425974D01*
X451880Y425959D01*
X629358Y425959D01*
X629448Y425973D01*
X629539Y425981D01*
X629569Y425993D01*
X629601Y425998D01*
X629681Y426041D01*
X629765Y426077D01*
X629797Y426103D01*
X629818Y426114D01*
X629840Y426137D01*
X629896Y426182D01*
X641103Y437389D01*
X641928Y437389D01*
X642025Y437404D01*
X642121Y437414D01*
X642145Y437424D01*
X642171Y437428D01*
X642257Y437474D01*
X642346Y437514D01*
X642366Y437531D01*
X642389Y437544D01*
X642456Y437614D01*
X642527Y437680D01*
X642540Y437703D01*
X642558Y437722D01*
X642599Y437810D01*
X642646Y437896D01*
X642651Y437921D01*
X642662Y437945D01*
X642672Y438042D01*
X642690Y438138D01*
X642686Y438164D01*
X642689Y438189D01*
X642668Y438285D01*
X642654Y438381D01*
X642642Y438404D01*
X642636Y438430D01*
X642587Y438513D01*
X642542Y438600D01*
X642524Y438619D01*
X642510Y438641D01*
X642436Y438704D01*
X642367Y438772D01*
X642338Y438788D01*
X642323Y438801D01*
X642293Y438813D01*
X642220Y438853D01*
X641233Y439262D01*
X638652Y441843D01*
X637255Y445215D01*
X637255Y448865D01*
X638652Y452237D01*
X641233Y454818D01*
X641607Y454973D01*
X641689Y455024D01*
X641775Y455070D01*
X641793Y455089D01*
X641816Y455102D01*
X641878Y455177D01*
X641945Y455248D01*
X641956Y455272D01*
X641972Y455292D01*
X642007Y455383D01*
X642048Y455471D01*
X642051Y455497D01*
X642061Y455521D01*
X642065Y455619D01*
X642075Y455715D01*
X642070Y455741D01*
X642071Y455767D01*
X642044Y455861D01*
X642023Y455956D01*
X642010Y455978D01*
X642003Y456003D01*
X641947Y456083D01*
X641897Y456167D01*
X641877Y456184D01*
X641862Y456205D01*
X641784Y456264D01*
X641710Y456327D01*
X641686Y456337D01*
X641665Y456352D01*
X641572Y456382D01*
X641482Y456419D01*
X641450Y456422D01*
X641431Y456428D01*
X641398Y456428D01*
X641315Y456437D01*
X456492Y456437D01*
X456402Y456423D01*
X456311Y456415D01*
X456281Y456403D01*
X456249Y456398D01*
X456169Y456355D01*
X456085Y456319D01*
X456053Y456293D01*
X456032Y456282D01*
X456010Y456259D01*
X455954Y456214D01*
X451651Y451912D01*
X451584Y451817D01*
X451513Y451723D01*
X451511Y451717D01*
X451508Y451712D01*
X451474Y451601D01*
X451437Y451489D01*
X451437Y451483D01*
X451435Y451477D01*
X451438Y451360D01*
X451440Y451243D01*
X451442Y451236D01*
X451442Y451231D01*
X451448Y451214D01*
X451486Y451082D01*
X452405Y448865D01*
X452405Y445215D01*
X451008Y441843D01*
X448427Y439262D01*
X445055Y437865D01*
X441405Y437865D01*
X438033Y439262D01*
X435452Y441843D01*
X434336Y444537D01*
X434274Y444637D01*
X434214Y444737D01*
X434210Y444741D01*
X434206Y444746D01*
X434116Y444821D01*
X434028Y444897D01*
X434022Y444899D01*
X434017Y444903D01*
X433908Y444945D01*
X433799Y444989D01*
X433792Y444990D01*
X433787Y444991D01*
X433769Y444992D01*
X433633Y445007D01*
X346209Y445007D01*
X315274Y475942D01*
X315216Y475984D01*
X315164Y476033D01*
X315117Y476055D01*
X315075Y476086D01*
X315006Y476107D01*
X314941Y476137D01*
X314889Y476143D01*
X314839Y476158D01*
X314768Y476156D01*
X314697Y476164D01*
X314646Y476153D01*
X314594Y476152D01*
X314526Y476127D01*
X314456Y476112D01*
X314411Y476085D01*
X314363Y476067D01*
X314307Y476022D01*
X314245Y475986D01*
X314211Y475946D01*
X314171Y475914D01*
X314132Y475853D01*
X314085Y475799D01*
X314066Y475750D01*
X314038Y475707D01*
X314020Y475637D01*
X313993Y475571D01*
X313985Y475499D01*
X313977Y475468D01*
X313979Y475445D01*
X313975Y475404D01*
X313975Y473155D01*
X312578Y469783D01*
X309997Y467202D01*
X306625Y465805D01*
X302975Y465805D01*
X299603Y467202D01*
X297022Y469783D01*
X295625Y473155D01*
X295625Y476805D01*
X297022Y480177D01*
X299603Y482758D01*
X302975Y484155D01*
X305224Y484155D01*
X305295Y484166D01*
X305366Y484168D01*
X305415Y484186D01*
X305467Y484194D01*
X305530Y484228D01*
X305597Y484253D01*
X305638Y484285D01*
X305684Y484310D01*
X305733Y484362D01*
X305789Y484406D01*
X305817Y484450D01*
X305853Y484488D01*
X305884Y484553D01*
X305922Y484613D01*
X305935Y484664D01*
X305957Y484711D01*
X305965Y484782D01*
X305982Y484852D01*
X305978Y484904D01*
X305984Y484955D01*
X305969Y485026D01*
X305963Y485097D01*
X305943Y485145D01*
X305932Y485196D01*
X305895Y485257D01*
X305867Y485323D01*
X305822Y485379D01*
X305806Y485407D01*
X305788Y485422D01*
X305762Y485454D01*
X305284Y485932D01*
X305210Y485986D01*
X305141Y486045D01*
X305111Y486057D01*
X305084Y486076D01*
X304997Y486103D01*
X304913Y486137D01*
X304872Y486141D01*
X304849Y486148D01*
X304817Y486147D01*
X304746Y486155D01*
X298203Y486155D01*
X288569Y495790D01*
X288531Y495817D01*
X288500Y495850D01*
X288432Y495888D01*
X288369Y495933D01*
X288325Y495947D01*
X288285Y495969D01*
X288208Y495983D01*
X288134Y496006D01*
X288088Y496005D01*
X288043Y496013D01*
X287966Y496001D01*
X287888Y495999D01*
X287845Y495984D01*
X287799Y495977D01*
X287730Y495942D01*
X287657Y495915D01*
X287621Y495886D01*
X287580Y495865D01*
X287526Y495810D01*
X287465Y495761D01*
X287440Y495723D01*
X287408Y495690D01*
X287342Y495570D01*
X287332Y495554D01*
X287331Y495549D01*
X287327Y495543D01*
X287178Y495183D01*
X284597Y492602D01*
X281225Y491205D01*
X277575Y491205D01*
X274203Y492602D01*
X271622Y495183D01*
X270225Y498555D01*
X270225Y502205D01*
X271622Y505577D01*
X274203Y508158D01*
X277575Y509555D01*
X279824Y509555D01*
X279895Y509566D01*
X279966Y509568D01*
X280015Y509586D01*
X280067Y509594D01*
X280130Y509628D01*
X280197Y509653D01*
X280238Y509685D01*
X280284Y509710D01*
X280333Y509761D01*
X280389Y509806D01*
X280418Y509850D01*
X280453Y509888D01*
X280484Y509953D01*
X280522Y510013D01*
X280535Y510064D01*
X280557Y510111D01*
X280565Y510182D01*
X280582Y510252D01*
X280578Y510304D01*
X280584Y510355D01*
X280569Y510426D01*
X280563Y510497D01*
X280543Y510545D01*
X280532Y510596D01*
X280495Y510657D01*
X280467Y510723D01*
X280422Y510779D01*
X280406Y510807D01*
X280388Y510822D01*
X280362Y510854D01*
X280138Y511078D01*
X280064Y511131D01*
X279995Y511191D01*
X279965Y511203D01*
X279938Y511222D01*
X279851Y511249D01*
X279767Y511283D01*
X279726Y511287D01*
X279703Y511294D01*
X279671Y511293D01*
X279600Y511301D01*
X273057Y511301D01*
X267238Y517120D01*
X267180Y517162D01*
X267128Y517211D01*
X267081Y517233D01*
X267039Y517264D01*
X266970Y517285D01*
X266905Y517315D01*
X266853Y517321D01*
X266803Y517336D01*
X266732Y517334D01*
X266661Y517342D01*
X266610Y517331D01*
X266558Y517330D01*
X266490Y517305D01*
X266420Y517290D01*
X266375Y517263D01*
X266327Y517245D01*
X266271Y517200D01*
X266209Y517164D01*
X266175Y517124D01*
X266135Y517092D01*
X266096Y517031D01*
X266049Y516977D01*
X266030Y516928D01*
X266002Y516885D01*
X265984Y516815D01*
X265957Y516749D01*
X265949Y516677D01*
X265941Y516646D01*
X265943Y516623D01*
X265939Y516582D01*
X265939Y477066D01*
X265953Y476976D01*
X265961Y476885D01*
X265973Y476855D01*
X265978Y476823D01*
X266021Y476743D01*
X266057Y476659D01*
X266083Y476627D01*
X266094Y476606D01*
X266117Y476584D01*
X266162Y476528D01*
X268926Y473764D01*
X268984Y473722D01*
X269036Y473673D01*
X269083Y473651D01*
X269125Y473620D01*
X269194Y473599D01*
X269259Y473569D01*
X269311Y473563D01*
X269361Y473548D01*
X269432Y473550D01*
X269503Y473542D01*
X269554Y473553D01*
X269606Y473554D01*
X269674Y473579D01*
X269744Y473594D01*
X269789Y473621D01*
X269837Y473639D01*
X269893Y473684D01*
X269955Y473720D01*
X269989Y473760D01*
X270029Y473792D01*
X270068Y473853D01*
X270115Y473907D01*
X270134Y473956D01*
X270162Y473999D01*
X270180Y474069D01*
X270207Y474135D01*
X270215Y474207D01*
X270223Y474238D01*
X270221Y474261D01*
X270225Y474302D01*
X270225Y476805D01*
X271622Y480177D01*
X274203Y482758D01*
X277575Y484155D01*
X281225Y484155D01*
X284597Y482758D01*
X287178Y480177D01*
X288575Y476805D01*
X288575Y473155D01*
X287178Y469783D01*
X284597Y467202D01*
X281225Y465805D01*
X278722Y465805D01*
X278651Y465794D01*
X278580Y465792D01*
X278531Y465774D01*
X278479Y465766D01*
X278416Y465732D01*
X278349Y465707D01*
X278308Y465675D01*
X278262Y465650D01*
X278213Y465598D01*
X278157Y465554D01*
X278128Y465510D01*
X278093Y465472D01*
X278062Y465407D01*
X278024Y465347D01*
X278011Y465296D01*
X277989Y465249D01*
X277981Y465178D01*
X277964Y465108D01*
X277968Y465056D01*
X277962Y465005D01*
X277977Y464934D01*
X277983Y464863D01*
X278003Y464815D01*
X278014Y464764D01*
X278051Y464703D01*
X278079Y464637D01*
X278124Y464581D01*
X278140Y464553D01*
X278158Y464538D01*
X278184Y464506D01*
X281941Y460749D01*
X281941Y429036D01*
X281944Y429016D01*
X281942Y428997D01*
X281964Y428895D01*
X281980Y428793D01*
X281990Y428776D01*
X281994Y428756D01*
X282047Y428667D01*
X282096Y428576D01*
X282110Y428562D01*
X282120Y428545D01*
X282199Y428478D01*
X282274Y428406D01*
X282292Y428398D01*
X282307Y428385D01*
X282403Y428346D01*
X282497Y428303D01*
X282517Y428301D01*
X282535Y428293D01*
X282702Y428275D01*
X287682Y428275D01*
X288575Y427382D01*
X288575Y410818D01*
X287682Y409925D01*
X271118Y409925D01*
X270225Y410818D01*
X270225Y427382D01*
X271118Y428275D01*
X275082Y428275D01*
X275102Y428278D01*
X275121Y428276D01*
X275223Y428298D01*
X275325Y428314D01*
X275342Y428324D01*
X275362Y428328D01*
X275451Y428381D01*
X275542Y428430D01*
X275556Y428444D01*
X275573Y428454D01*
X275640Y428533D01*
X275712Y428608D01*
X275720Y428626D01*
X275733Y428641D01*
X275772Y428737D01*
X275815Y428831D01*
X275817Y428851D01*
X275825Y428869D01*
X275843Y429036D01*
X275843Y457908D01*
X275829Y457998D01*
X275821Y458089D01*
X275809Y458119D01*
X275804Y458151D01*
X275761Y458231D01*
X275725Y458315D01*
X275699Y458347D01*
X275688Y458368D01*
X275665Y458390D01*
X275620Y458446D01*
X262666Y471400D01*
X262608Y471442D01*
X262556Y471491D01*
X262509Y471513D01*
X262467Y471544D01*
X262398Y471565D01*
X262333Y471595D01*
X262281Y471601D01*
X262231Y471616D01*
X262160Y471614D01*
X262089Y471622D01*
X262038Y471611D01*
X261986Y471610D01*
X261918Y471585D01*
X261848Y471570D01*
X261803Y471543D01*
X261755Y471525D01*
X261699Y471480D01*
X261637Y471444D01*
X261603Y471404D01*
X261563Y471372D01*
X261524Y471311D01*
X261477Y471257D01*
X261458Y471208D01*
X261430Y471165D01*
X261412Y471095D01*
X261385Y471029D01*
X261377Y470957D01*
X261369Y470926D01*
X261371Y470903D01*
X261367Y470862D01*
X261367Y417630D01*
X261369Y417619D01*
X261368Y417612D01*
X261375Y417577D01*
X261381Y417540D01*
X261389Y417449D01*
X261401Y417419D01*
X261406Y417387D01*
X261449Y417307D01*
X261485Y417223D01*
X261511Y417191D01*
X261522Y417170D01*
X261545Y417148D01*
X261590Y417092D01*
X275965Y402717D01*
X276059Y402649D01*
X276154Y402579D01*
X276160Y402577D01*
X276165Y402573D01*
X276276Y402539D01*
X276388Y402502D01*
X276394Y402502D01*
X276400Y402501D01*
X276517Y402504D01*
X276634Y402505D01*
X276641Y402507D01*
X276646Y402507D01*
X276663Y402513D01*
X276795Y402551D01*
X277575Y402875D01*
X281225Y402875D01*
X284597Y401478D01*
X287178Y398897D01*
X288575Y395525D01*
X288575Y391875D01*
X287178Y388503D01*
X284597Y385922D01*
X281225Y384525D01*
X277575Y384525D01*
X274203Y385922D01*
X271622Y388503D01*
X270225Y391875D01*
X270225Y395525D01*
X271292Y398101D01*
X271319Y398215D01*
X271348Y398328D01*
X271347Y398335D01*
X271349Y398341D01*
X271338Y398457D01*
X271329Y398574D01*
X271326Y398579D01*
X271326Y398586D01*
X271278Y398693D01*
X271232Y398800D01*
X271228Y398806D01*
X271226Y398810D01*
X271213Y398824D01*
X271127Y398931D01*
X255269Y414789D01*
X255269Y597909D01*
X284487Y627127D01*
X433738Y627127D01*
X433853Y627146D01*
X433969Y627163D01*
X433974Y627165D01*
X433981Y627166D01*
X434083Y627221D01*
X434188Y627274D01*
X434193Y627279D01*
X434198Y627282D01*
X434278Y627366D01*
X434360Y627450D01*
X434364Y627456D01*
X434367Y627460D01*
X434375Y627477D01*
X434441Y627597D01*
X435452Y630037D01*
X438033Y632618D01*
X441405Y634015D01*
X445055Y634015D01*
X448427Y632618D01*
X450566Y630479D01*
X450624Y630437D01*
X450676Y630388D01*
X450723Y630366D01*
X450765Y630336D01*
X450834Y630315D01*
X450899Y630284D01*
X450951Y630279D01*
X451001Y630263D01*
X451072Y630265D01*
X451143Y630257D01*
X451194Y630268D01*
X451246Y630270D01*
X451314Y630294D01*
X451384Y630310D01*
X451429Y630336D01*
X451477Y630354D01*
X451533Y630399D01*
X451595Y630436D01*
X451629Y630475D01*
X451669Y630508D01*
X451708Y630568D01*
X451755Y630623D01*
X451774Y630671D01*
X451802Y630715D01*
X451820Y630784D01*
X451847Y630851D01*
X451855Y630922D01*
X451863Y630953D01*
X451861Y630977D01*
X451865Y631018D01*
X451865Y636216D01*
X451851Y636306D01*
X451843Y636397D01*
X451831Y636427D01*
X451826Y636459D01*
X451783Y636539D01*
X451747Y636623D01*
X451721Y636655D01*
X451710Y636676D01*
X451687Y636698D01*
X451642Y636754D01*
X447024Y641372D01*
X446930Y641440D01*
X446835Y641510D01*
X446829Y641512D01*
X446824Y641516D01*
X446714Y641550D01*
X446602Y641586D01*
X446595Y641586D01*
X446589Y641588D01*
X446473Y641585D01*
X446356Y641584D01*
X446348Y641582D01*
X446343Y641582D01*
X446326Y641575D01*
X446195Y641537D01*
X445055Y641065D01*
X441405Y641065D01*
X438033Y642462D01*
X435452Y645043D01*
X434055Y648415D01*
X434055Y652065D01*
X435452Y655437D01*
X438033Y658018D01*
X441405Y659415D01*
X445055Y659415D01*
X448427Y658018D01*
X451008Y655437D01*
X452405Y652065D01*
X452405Y648415D01*
X451486Y646198D01*
X451460Y646084D01*
X451431Y645971D01*
X451432Y645964D01*
X451430Y645958D01*
X451441Y645842D01*
X451450Y645725D01*
X451453Y645720D01*
X451453Y645713D01*
X451501Y645606D01*
X451547Y645499D01*
X451551Y645493D01*
X451553Y645489D01*
X451566Y645475D01*
X451651Y645368D01*
X455954Y641066D01*
X456028Y641013D01*
X456097Y640953D01*
X456127Y640941D01*
X456154Y640922D01*
X456241Y640895D01*
X456325Y640861D01*
X456366Y640857D01*
X456389Y640850D01*
X456421Y640851D01*
X456492Y640843D01*
X636533Y640843D01*
X636604Y640854D01*
X636676Y640856D01*
X636725Y640874D01*
X636776Y640882D01*
X636839Y640916D01*
X636907Y640941D01*
X636947Y640973D01*
X636993Y640998D01*
X637043Y641050D01*
X637099Y641095D01*
X637127Y641138D01*
X637163Y641176D01*
X637193Y641241D01*
X637232Y641302D01*
X637244Y641352D01*
X637266Y641399D01*
X637274Y641470D01*
X637292Y641540D01*
X637288Y641592D01*
X637293Y641643D01*
X637278Y641714D01*
X637273Y641785D01*
X637255Y641826D01*
X637255Y658522D01*
X638148Y659415D01*
X654712Y659415D01*
X655605Y658522D01*
X655605Y645752D01*
X655616Y645681D01*
X655618Y645610D01*
X655636Y645561D01*
X655644Y645509D01*
X655678Y645446D01*
X655703Y645379D01*
X655735Y645338D01*
X655760Y645292D01*
X655812Y645243D01*
X655856Y645187D01*
X655900Y645158D01*
X655938Y645123D01*
X656003Y645092D01*
X656063Y645054D01*
X656114Y645041D01*
X656161Y645019D01*
X656232Y645011D01*
X656302Y644994D01*
X656354Y644998D01*
X656405Y644992D01*
X656476Y645007D01*
X656547Y645013D01*
X656595Y645033D01*
X656646Y645044D01*
X656707Y645081D01*
X656773Y645109D01*
X656829Y645154D01*
X656857Y645170D01*
X656872Y645188D01*
X656904Y645214D01*
X663963Y652273D01*
X824793Y652273D01*
X824907Y652292D01*
X825024Y652309D01*
X825029Y652311D01*
X825035Y652312D01*
X825138Y652367D01*
X825243Y652420D01*
X825247Y652425D01*
X825253Y652428D01*
X825333Y652512D01*
X825415Y652596D01*
X825419Y652602D01*
X825422Y652606D01*
X825430Y652623D01*
X825496Y652743D01*
X826612Y655437D01*
X829193Y658018D01*
X832565Y659415D01*
X836215Y659415D01*
X839587Y658018D01*
X842168Y655437D01*
X843565Y652065D01*
X843565Y648415D01*
X842168Y645043D01*
X839587Y642462D01*
X839213Y642307D01*
X839131Y642256D01*
X839045Y642210D01*
X839027Y642191D01*
X839004Y642178D01*
X838942Y642103D01*
X838875Y642032D01*
X838864Y642008D01*
X838848Y641988D01*
X838813Y641897D01*
X838772Y641809D01*
X838769Y641783D01*
X838759Y641759D01*
X838755Y641661D01*
X838745Y641565D01*
X838750Y641539D01*
X838749Y641513D01*
X838776Y641419D01*
X838797Y641324D01*
X838810Y641302D01*
X838817Y641277D01*
X838873Y641197D01*
X838923Y641113D01*
X838943Y641096D01*
X838958Y641075D01*
X839036Y641017D01*
X839110Y640953D01*
X839134Y640943D01*
X839155Y640928D01*
X839248Y640898D01*
X839338Y640861D01*
X839370Y640858D01*
X839389Y640852D01*
X839422Y640852D01*
X839505Y640843D01*
X849369Y640843D01*
X856355Y633857D01*
X856449Y633789D01*
X856544Y633719D01*
X856550Y633717D01*
X856555Y633713D01*
X856666Y633679D01*
X856778Y633642D01*
X856784Y633642D01*
X856790Y633641D01*
X856907Y633644D01*
X857024Y633645D01*
X857031Y633647D01*
X857036Y633647D01*
X857053Y633653D01*
X857185Y633691D01*
X857965Y634015D01*
X861615Y634015D01*
X864987Y632618D01*
X867568Y630037D01*
X868965Y626665D01*
X868965Y623015D01*
X867568Y619643D01*
X864987Y617062D01*
X861615Y615665D01*
X857965Y615665D01*
X854593Y617062D01*
X852012Y619643D01*
X850615Y623015D01*
X850615Y626665D01*
X851682Y629241D01*
X851709Y629355D01*
X851738Y629468D01*
X851737Y629475D01*
X851739Y629481D01*
X851728Y629597D01*
X851719Y629714D01*
X851716Y629719D01*
X851716Y629726D01*
X851668Y629833D01*
X851622Y629940D01*
X851618Y629946D01*
X851616Y629950D01*
X851603Y629964D01*
X851517Y630071D01*
X847066Y634522D01*
X846992Y634575D01*
X846923Y634635D01*
X846893Y634647D01*
X846866Y634666D01*
X846779Y634693D01*
X846695Y634727D01*
X846654Y634731D01*
X846631Y634738D01*
X846599Y634737D01*
X846528Y634745D01*
X838278Y634745D01*
X838182Y634730D01*
X838085Y634720D01*
X838061Y634710D01*
X838036Y634706D01*
X837950Y634660D01*
X837861Y634620D01*
X837841Y634603D01*
X837818Y634590D01*
X837751Y634520D01*
X837679Y634454D01*
X837667Y634431D01*
X837649Y634412D01*
X837608Y634324D01*
X837561Y634238D01*
X837556Y634213D01*
X837545Y634189D01*
X837534Y634092D01*
X837517Y633996D01*
X837521Y633970D01*
X837518Y633945D01*
X837539Y633849D01*
X837553Y633753D01*
X837565Y633730D01*
X837570Y633704D01*
X837620Y633621D01*
X837664Y633534D01*
X837683Y633515D01*
X837697Y633493D01*
X837771Y633430D01*
X837840Y633362D01*
X837869Y633346D01*
X837883Y633333D01*
X837914Y633321D01*
X837987Y633281D01*
X839587Y632618D01*
X842168Y630037D01*
X843565Y626665D01*
X843565Y623015D01*
X842168Y619643D01*
X839587Y617062D01*
X836215Y615665D01*
X832565Y615665D01*
X829193Y617062D01*
X826612Y619643D01*
X825215Y623015D01*
X825215Y624756D01*
X825204Y624827D01*
X825202Y624898D01*
X825184Y624947D01*
X825176Y624999D01*
X825142Y625062D01*
X825117Y625129D01*
X825085Y625170D01*
X825060Y625216D01*
X825008Y625265D01*
X824964Y625321D01*
X824920Y625350D01*
X824882Y625385D01*
X824817Y625416D01*
X824757Y625454D01*
X824706Y625467D01*
X824659Y625489D01*
X824588Y625497D01*
X824518Y625514D01*
X824466Y625510D01*
X824415Y625516D01*
X824344Y625501D01*
X824273Y625495D01*
X824225Y625475D01*
X824174Y625464D01*
X824113Y625427D01*
X824047Y625399D01*
X823991Y625354D01*
X823963Y625338D01*
X823948Y625320D01*
X823916Y625294D01*
X821937Y623315D01*
X656238Y623315D01*
X656123Y623296D01*
X656007Y623279D01*
X656001Y623277D01*
X655995Y623276D01*
X655892Y623221D01*
X655788Y623168D01*
X655783Y623163D01*
X655778Y623160D01*
X655698Y623076D01*
X655615Y622992D01*
X655612Y622986D01*
X655608Y622982D01*
X655600Y622965D01*
X655534Y622845D01*
X654208Y619643D01*
X651627Y617062D01*
X648255Y615665D01*
X644605Y615665D01*
X641233Y617062D01*
X638652Y619643D01*
X637255Y623015D01*
X637255Y626665D01*
X638652Y630037D01*
X641233Y632618D01*
X642833Y633281D01*
X642916Y633332D01*
X643002Y633378D01*
X643020Y633396D01*
X643042Y633410D01*
X643104Y633486D01*
X643171Y633556D01*
X643182Y633580D01*
X643199Y633600D01*
X643234Y633691D01*
X643275Y633779D01*
X643278Y633805D01*
X643287Y633829D01*
X643291Y633927D01*
X643302Y634023D01*
X643296Y634049D01*
X643297Y634075D01*
X643270Y634169D01*
X643250Y634264D01*
X643236Y634286D01*
X643229Y634311D01*
X643173Y634391D01*
X643123Y634475D01*
X643104Y634492D01*
X643089Y634513D01*
X643011Y634572D01*
X642937Y634635D01*
X642912Y634645D01*
X642891Y634660D01*
X642799Y634690D01*
X642708Y634727D01*
X642676Y634730D01*
X642657Y634736D01*
X642624Y634736D01*
X642542Y634745D01*
X458724Y634745D01*
X458704Y634742D01*
X458685Y634744D01*
X458583Y634722D01*
X458481Y634706D01*
X458464Y634696D01*
X458444Y634692D01*
X458355Y634639D01*
X458264Y634590D01*
X458250Y634576D01*
X458233Y634566D01*
X458166Y634487D01*
X458094Y634412D01*
X458086Y634394D01*
X458073Y634379D01*
X458034Y634283D01*
X457991Y634189D01*
X457989Y634169D01*
X457981Y634151D01*
X457963Y633984D01*
X457963Y618243D01*
X449319Y609599D01*
X446505Y609599D01*
X446409Y609584D01*
X446312Y609574D01*
X446288Y609564D01*
X446262Y609560D01*
X446176Y609514D01*
X446087Y609474D01*
X446068Y609457D01*
X446045Y609444D01*
X445978Y609374D01*
X445906Y609308D01*
X445894Y609285D01*
X445876Y609266D01*
X445835Y609178D01*
X445788Y609092D01*
X445783Y609067D01*
X445772Y609043D01*
X445761Y608946D01*
X445744Y608850D01*
X445748Y608824D01*
X445745Y608799D01*
X445766Y608703D01*
X445780Y608607D01*
X445792Y608584D01*
X445797Y608558D01*
X445847Y608475D01*
X445891Y608388D01*
X445910Y608369D01*
X445923Y608347D01*
X445997Y608284D01*
X446067Y608216D01*
X446095Y608200D01*
X446110Y608187D01*
X446141Y608175D01*
X446214Y608135D01*
X448427Y607218D01*
X451059Y604586D01*
X451088Y604537D01*
X451093Y604533D01*
X451096Y604528D01*
X451186Y604453D01*
X451275Y604377D01*
X451281Y604375D01*
X451286Y604371D01*
X451394Y604329D01*
X451503Y604285D01*
X451511Y604284D01*
X451515Y604283D01*
X451533Y604282D01*
X451670Y604267D01*
X629358Y604267D01*
X629448Y604281D01*
X629539Y604289D01*
X629569Y604301D01*
X629601Y604306D01*
X629681Y604349D01*
X629765Y604385D01*
X629797Y604411D01*
X629818Y604422D01*
X629840Y604445D01*
X629896Y604490D01*
X638817Y613411D01*
X826509Y613411D01*
X831314Y608605D01*
X831409Y608538D01*
X831503Y608467D01*
X831509Y608465D01*
X831514Y608462D01*
X831625Y608427D01*
X831737Y608391D01*
X831743Y608391D01*
X831749Y608389D01*
X831866Y608392D01*
X831983Y608394D01*
X831990Y608396D01*
X831995Y608396D01*
X832013Y608402D01*
X832144Y608440D01*
X832565Y608615D01*
X836215Y608615D01*
X839587Y607218D01*
X842168Y604637D01*
X843565Y601265D01*
X843565Y597615D01*
X842168Y594243D01*
X839587Y591662D01*
X836215Y590265D01*
X832565Y590265D01*
X829193Y591662D01*
X826612Y594243D01*
X825215Y597615D01*
X825215Y601265D01*
X826431Y604201D01*
X826458Y604314D01*
X826486Y604428D01*
X826486Y604434D01*
X826487Y604440D01*
X826476Y604557D01*
X826467Y604673D01*
X826465Y604679D01*
X826464Y604685D01*
X826417Y604792D01*
X826371Y604899D01*
X826366Y604905D01*
X826364Y604910D01*
X826352Y604923D01*
X826266Y605030D01*
X824206Y607090D01*
X824132Y607143D01*
X824063Y607203D01*
X824033Y607215D01*
X824006Y607234D01*
X823919Y607261D01*
X823835Y607295D01*
X823794Y607299D01*
X823771Y607306D01*
X823739Y607305D01*
X823668Y607313D01*
X653370Y607313D01*
X653299Y607302D01*
X653227Y607300D01*
X653178Y607282D01*
X653127Y607274D01*
X653063Y607240D01*
X652996Y607215D01*
X652955Y607183D01*
X652909Y607158D01*
X652860Y607106D01*
X652804Y607062D01*
X652776Y607018D01*
X652740Y606980D01*
X652710Y606915D01*
X652671Y606855D01*
X652658Y606804D01*
X652636Y606757D01*
X652629Y606686D01*
X652611Y606616D01*
X652615Y606564D01*
X652609Y606513D01*
X652625Y606442D01*
X652630Y606371D01*
X652651Y606323D01*
X652662Y606272D01*
X652698Y606211D01*
X652726Y606145D01*
X652771Y606089D01*
X652788Y606061D01*
X652806Y606046D01*
X652831Y606014D01*
X654208Y604637D01*
X655605Y601265D01*
X655605Y597615D01*
X654208Y594243D01*
X651627Y591662D01*
X648255Y590265D01*
X644605Y590265D01*
X641233Y591662D01*
X638652Y594243D01*
X637255Y597615D01*
X637255Y601388D01*
X637244Y601459D01*
X637242Y601530D01*
X637224Y601579D01*
X637216Y601631D01*
X637182Y601694D01*
X637157Y601761D01*
X637125Y601802D01*
X637100Y601848D01*
X637048Y601897D01*
X637004Y601953D01*
X636960Y601982D01*
X636922Y602017D01*
X636857Y602048D01*
X636797Y602086D01*
X636746Y602099D01*
X636699Y602121D01*
X636628Y602129D01*
X636558Y602146D01*
X636506Y602142D01*
X636455Y602148D01*
X636384Y602133D01*
X636313Y602127D01*
X636265Y602107D01*
X636214Y602096D01*
X636153Y602059D01*
X636087Y602031D01*
X636031Y601986D01*
X636003Y601970D01*
X635988Y601952D01*
X635956Y601926D01*
X632199Y598169D01*
X453143Y598169D01*
X453028Y598150D01*
X452912Y598133D01*
X452906Y598131D01*
X452900Y598130D01*
X452798Y598075D01*
X452693Y598022D01*
X452688Y598017D01*
X452683Y598014D01*
X452603Y597930D01*
X452521Y597846D01*
X452517Y597840D01*
X452513Y597836D01*
X452506Y597819D01*
X452440Y597699D01*
X451008Y594243D01*
X448427Y591662D01*
X445055Y590265D01*
X441405Y590265D01*
X438033Y591662D01*
X435452Y594243D01*
X434055Y597615D01*
X434055Y601265D01*
X435452Y604637D01*
X438033Y607218D01*
X440246Y608135D01*
X440329Y608186D01*
X440415Y608232D01*
X440433Y608250D01*
X440455Y608264D01*
X440518Y608340D01*
X440584Y608410D01*
X440595Y608434D01*
X440612Y608454D01*
X440647Y608545D01*
X440688Y608633D01*
X440691Y608659D01*
X440700Y608683D01*
X440704Y608781D01*
X440715Y608877D01*
X440710Y608903D01*
X440711Y608929D01*
X440684Y609023D01*
X440663Y609118D01*
X440649Y609140D01*
X440642Y609165D01*
X440587Y609245D01*
X440537Y609329D01*
X440517Y609346D01*
X440502Y609367D01*
X440424Y609426D01*
X440350Y609489D01*
X440325Y609499D01*
X440305Y609514D01*
X440212Y609544D01*
X440122Y609581D01*
X440089Y609584D01*
X440071Y609590D01*
X440038Y609590D01*
X439955Y609599D01*
X437649Y609599D01*
X435586Y611662D01*
X435512Y611715D01*
X435443Y611775D01*
X435413Y611787D01*
X435386Y611806D01*
X435299Y611833D01*
X435215Y611867D01*
X435174Y611871D01*
X435151Y611878D01*
X435119Y611877D01*
X435048Y611885D01*
X308688Y611885D01*
X308592Y611870D01*
X308495Y611860D01*
X308471Y611850D01*
X308446Y611846D01*
X308360Y611800D01*
X308271Y611760D01*
X308251Y611743D01*
X308228Y611730D01*
X308161Y611660D01*
X308089Y611594D01*
X308077Y611571D01*
X308059Y611552D01*
X308018Y611464D01*
X307971Y611378D01*
X307966Y611353D01*
X307955Y611329D01*
X307944Y611232D01*
X307927Y611136D01*
X307931Y611110D01*
X307928Y611085D01*
X307949Y610989D01*
X307963Y610893D01*
X307975Y610870D01*
X307980Y610844D01*
X308030Y610761D01*
X308074Y610674D01*
X308093Y610655D01*
X308107Y610633D01*
X308180Y610570D01*
X308250Y610502D01*
X308279Y610486D01*
X308293Y610473D01*
X308324Y610461D01*
X308397Y610421D01*
X309997Y609758D01*
X312578Y607177D01*
X313975Y603805D01*
X313975Y600155D01*
X312578Y596783D01*
X309997Y594202D01*
X306625Y592805D01*
X302975Y592805D01*
X301297Y593501D01*
X301183Y593527D01*
X301070Y593556D01*
X301063Y593555D01*
X301057Y593557D01*
X300941Y593546D01*
X300824Y593537D01*
X300819Y593534D01*
X300812Y593534D01*
X300705Y593486D01*
X300598Y593440D01*
X300592Y593436D01*
X300588Y593434D01*
X300574Y593421D01*
X300467Y593335D01*
X295880Y588748D01*
X295827Y588674D01*
X295767Y588605D01*
X295755Y588575D01*
X295736Y588548D01*
X295709Y588461D01*
X295675Y588377D01*
X295671Y588336D01*
X295664Y588313D01*
X295665Y588281D01*
X295657Y588210D01*
X295657Y582250D01*
X295668Y582179D01*
X295670Y582107D01*
X295688Y582058D01*
X295696Y582007D01*
X295730Y581943D01*
X295755Y581876D01*
X295787Y581835D01*
X295812Y581789D01*
X295864Y581740D01*
X295908Y581684D01*
X295952Y581656D01*
X295990Y581620D01*
X296055Y581590D01*
X296115Y581551D01*
X296166Y581538D01*
X296213Y581516D01*
X296284Y581509D01*
X296354Y581491D01*
X296406Y581495D01*
X296457Y581489D01*
X296528Y581505D01*
X296599Y581510D01*
X296647Y581531D01*
X296698Y581542D01*
X296759Y581578D01*
X296825Y581606D01*
X296881Y581651D01*
X296909Y581668D01*
X296924Y581686D01*
X296956Y581711D01*
X299603Y584358D01*
X302975Y585755D01*
X306625Y585755D01*
X309997Y584358D01*
X312578Y581777D01*
X313975Y578405D01*
X313975Y574755D01*
X312578Y571383D01*
X309997Y568802D01*
X306625Y567405D01*
X302975Y567405D01*
X299603Y568802D01*
X297022Y571383D01*
X296724Y572102D01*
X296700Y572141D01*
X296684Y572184D01*
X296636Y572245D01*
X296595Y572311D01*
X296559Y572340D01*
X296531Y572376D01*
X296465Y572418D01*
X296405Y572468D01*
X296362Y572484D01*
X296324Y572509D01*
X296248Y572528D01*
X296175Y572556D01*
X296130Y572558D01*
X296085Y572569D01*
X296008Y572563D01*
X295930Y572567D01*
X295886Y572554D01*
X295840Y572550D01*
X295768Y572520D01*
X295693Y572498D01*
X295656Y572472D01*
X295614Y572454D01*
X295507Y572368D01*
X295491Y572358D01*
X295488Y572354D01*
X295483Y572349D01*
X293648Y570514D01*
X286736Y563602D01*
X284727Y561593D01*
X282062Y561593D01*
X281966Y561578D01*
X281869Y561568D01*
X281845Y561558D01*
X281819Y561554D01*
X281733Y561508D01*
X281644Y561468D01*
X281625Y561451D01*
X281602Y561438D01*
X281535Y561368D01*
X281463Y561302D01*
X281450Y561279D01*
X281432Y561260D01*
X281391Y561172D01*
X281344Y561086D01*
X281340Y561061D01*
X281329Y561037D01*
X281318Y560940D01*
X281301Y560844D01*
X281305Y560818D01*
X281302Y560793D01*
X281322Y560697D01*
X281337Y560601D01*
X281348Y560578D01*
X281354Y560552D01*
X281404Y560469D01*
X281448Y560382D01*
X281467Y560363D01*
X281480Y560341D01*
X281554Y560278D01*
X281624Y560210D01*
X281652Y560194D01*
X281667Y560181D01*
X281698Y560169D01*
X281771Y560129D01*
X284597Y558958D01*
X287178Y556377D01*
X288575Y553005D01*
X288575Y549355D01*
X287178Y545983D01*
X284597Y543402D01*
X281225Y542005D01*
X277575Y542005D01*
X274203Y543402D01*
X271810Y545795D01*
X271752Y545837D01*
X271700Y545886D01*
X271653Y545908D01*
X271611Y545938D01*
X271542Y545959D01*
X271477Y545990D01*
X271425Y545995D01*
X271375Y546011D01*
X271304Y546009D01*
X271233Y546017D01*
X271182Y546006D01*
X271130Y546004D01*
X271062Y545980D01*
X270992Y545964D01*
X270947Y545938D01*
X270899Y545920D01*
X270843Y545875D01*
X270781Y545838D01*
X270747Y545799D01*
X270707Y545766D01*
X270668Y545706D01*
X270621Y545651D01*
X270602Y545603D01*
X270574Y545559D01*
X270556Y545490D01*
X270529Y545423D01*
X270521Y545352D01*
X270513Y545321D01*
X270515Y545297D01*
X270511Y545256D01*
X270511Y531704D01*
X270522Y531633D01*
X270524Y531561D01*
X270542Y531512D01*
X270550Y531461D01*
X270584Y531397D01*
X270609Y531330D01*
X270641Y531289D01*
X270666Y531243D01*
X270718Y531194D01*
X270762Y531138D01*
X270806Y531110D01*
X270844Y531074D01*
X270909Y531044D01*
X270969Y531005D01*
X271020Y530992D01*
X271067Y530970D01*
X271138Y530963D01*
X271208Y530945D01*
X271260Y530949D01*
X271311Y530943D01*
X271382Y530959D01*
X271453Y530964D01*
X271501Y530985D01*
X271552Y530996D01*
X271613Y531032D01*
X271679Y531060D01*
X271735Y531105D01*
X271763Y531122D01*
X271778Y531140D01*
X271810Y531165D01*
X274203Y533558D01*
X277575Y534955D01*
X281225Y534955D01*
X284597Y533558D01*
X287178Y530977D01*
X288095Y528764D01*
X288146Y528681D01*
X288192Y528595D01*
X288210Y528577D01*
X288224Y528555D01*
X288300Y528492D01*
X288370Y528426D01*
X288394Y528415D01*
X288414Y528398D01*
X288505Y528363D01*
X288593Y528322D01*
X288619Y528319D01*
X288643Y528310D01*
X288741Y528306D01*
X288837Y528295D01*
X288863Y528300D01*
X288889Y528299D01*
X288983Y528326D01*
X289078Y528347D01*
X289100Y528361D01*
X289125Y528368D01*
X289205Y528423D01*
X289289Y528473D01*
X289306Y528493D01*
X289327Y528508D01*
X289386Y528586D01*
X289449Y528660D01*
X289459Y528684D01*
X289474Y528705D01*
X289504Y528798D01*
X289541Y528888D01*
X289544Y528921D01*
X289550Y528939D01*
X289550Y528972D01*
X289559Y529055D01*
X289559Y540759D01*
X296007Y547206D01*
X296075Y547301D01*
X296145Y547395D01*
X296147Y547401D01*
X296150Y547406D01*
X296184Y547517D01*
X296221Y547629D01*
X296221Y547635D01*
X296223Y547641D01*
X296220Y547758D01*
X296218Y547875D01*
X296216Y547882D01*
X296216Y547887D01*
X296210Y547904D01*
X296172Y548036D01*
X295625Y549355D01*
X295625Y553005D01*
X297022Y556377D01*
X299603Y558958D01*
X302975Y560355D01*
X306625Y560355D01*
X309997Y558958D01*
X312578Y556377D01*
X313975Y553005D01*
X313975Y549355D01*
X312578Y545983D01*
X309997Y543402D01*
X306625Y542005D01*
X302975Y542005D01*
X300937Y542849D01*
X300824Y542876D01*
X300710Y542905D01*
X300704Y542904D01*
X300698Y542905D01*
X300581Y542894D01*
X300465Y542885D01*
X300459Y542883D01*
X300453Y542882D01*
X300346Y542835D01*
X300239Y542789D01*
X300233Y542784D01*
X300228Y542782D01*
X300215Y542770D01*
X300108Y542684D01*
X295880Y538456D01*
X295836Y538396D01*
X295800Y538357D01*
X295793Y538343D01*
X295767Y538313D01*
X295755Y538283D01*
X295736Y538256D01*
X295709Y538169D01*
X295675Y538085D01*
X295671Y538044D01*
X295664Y538021D01*
X295665Y537989D01*
X295657Y537918D01*
X295657Y531450D01*
X295668Y531379D01*
X295670Y531307D01*
X295688Y531258D01*
X295696Y531207D01*
X295730Y531143D01*
X295755Y531076D01*
X295787Y531035D01*
X295812Y530989D01*
X295864Y530940D01*
X295908Y530884D01*
X295952Y530856D01*
X295990Y530820D01*
X296055Y530790D01*
X296115Y530751D01*
X296166Y530738D01*
X296213Y530716D01*
X296284Y530709D01*
X296354Y530691D01*
X296406Y530695D01*
X296457Y530689D01*
X296528Y530705D01*
X296599Y530710D01*
X296647Y530731D01*
X296698Y530742D01*
X296759Y530778D01*
X296825Y530806D01*
X296881Y530851D01*
X296909Y530868D01*
X296924Y530886D01*
X296956Y530911D01*
X299603Y533558D01*
X302975Y534955D01*
X306625Y534955D01*
X309997Y533558D01*
X312578Y530977D01*
X313975Y527605D01*
X313975Y527304D01*
X313978Y527284D01*
X313976Y527265D01*
X313998Y527163D01*
X314014Y527061D01*
X314024Y527044D01*
X314028Y527024D01*
X314081Y526935D01*
X314130Y526844D01*
X314144Y526830D01*
X314154Y526813D01*
X314233Y526746D01*
X314308Y526674D01*
X314326Y526666D01*
X314341Y526653D01*
X314437Y526614D01*
X314531Y526571D01*
X314551Y526569D01*
X314569Y526561D01*
X314736Y526543D01*
X434159Y526543D01*
X434274Y526562D01*
X434390Y526579D01*
X434395Y526581D01*
X434401Y526582D01*
X434504Y526637D01*
X434609Y526690D01*
X434613Y526695D01*
X434619Y526698D01*
X434699Y526782D01*
X434781Y526866D01*
X434785Y526872D01*
X434788Y526876D01*
X434796Y526893D01*
X434862Y527013D01*
X435452Y528437D01*
X438033Y531018D01*
X441405Y532415D01*
X445055Y532415D01*
X448427Y531018D01*
X451008Y528437D01*
X452405Y525065D01*
X452405Y521415D01*
X451189Y518479D01*
X451162Y518366D01*
X451134Y518252D01*
X451134Y518246D01*
X451133Y518240D01*
X451144Y518123D01*
X451153Y518007D01*
X451155Y518001D01*
X451156Y517995D01*
X451203Y517888D01*
X451249Y517781D01*
X451254Y517775D01*
X451256Y517770D01*
X451268Y517757D01*
X451354Y517650D01*
X453668Y515336D01*
X453742Y515283D01*
X453811Y515223D01*
X453841Y515211D01*
X453868Y515192D01*
X453955Y515165D01*
X454039Y515131D01*
X454080Y515127D01*
X454103Y515120D01*
X454135Y515121D01*
X454206Y515113D01*
X639744Y515113D01*
X639815Y515124D01*
X639887Y515126D01*
X639936Y515144D01*
X639987Y515152D01*
X640051Y515186D01*
X640118Y515211D01*
X640159Y515243D01*
X640205Y515268D01*
X640254Y515320D01*
X640310Y515364D01*
X640338Y515408D01*
X640374Y515446D01*
X640404Y515511D01*
X640443Y515571D01*
X640456Y515622D01*
X640478Y515669D01*
X640485Y515740D01*
X640503Y515810D01*
X640499Y515862D01*
X640505Y515913D01*
X640489Y515984D01*
X640484Y516055D01*
X640463Y516103D01*
X640452Y516154D01*
X640416Y516215D01*
X640388Y516281D01*
X640343Y516337D01*
X640326Y516365D01*
X640308Y516380D01*
X640283Y516412D01*
X638652Y518043D01*
X637255Y521415D01*
X637255Y525065D01*
X638652Y528437D01*
X641233Y531018D01*
X644605Y532415D01*
X648255Y532415D01*
X651627Y531018D01*
X654208Y528437D01*
X655605Y525065D01*
X655605Y522308D01*
X655616Y522237D01*
X655618Y522166D01*
X655636Y522117D01*
X655644Y522065D01*
X655678Y522002D01*
X655703Y521935D01*
X655735Y521894D01*
X655760Y521848D01*
X655812Y521799D01*
X655856Y521743D01*
X655900Y521714D01*
X655938Y521679D01*
X656003Y521648D01*
X656063Y521610D01*
X656114Y521597D01*
X656161Y521575D01*
X656232Y521567D01*
X656302Y521550D01*
X656354Y521554D01*
X656405Y521548D01*
X656476Y521563D01*
X656547Y521569D01*
X656595Y521589D01*
X656646Y521600D01*
X656707Y521637D01*
X656773Y521665D01*
X656829Y521710D01*
X656857Y521726D01*
X656872Y521744D01*
X656904Y521770D01*
X659391Y524257D01*
X824454Y524257D01*
X824474Y524260D01*
X824493Y524258D01*
X824595Y524280D01*
X824697Y524296D01*
X824714Y524306D01*
X824734Y524310D01*
X824823Y524363D01*
X824914Y524412D01*
X824928Y524426D01*
X824945Y524436D01*
X825012Y524515D01*
X825084Y524590D01*
X825092Y524608D01*
X825105Y524623D01*
X825144Y524719D01*
X825187Y524813D01*
X825189Y524833D01*
X825197Y524851D01*
X825215Y525018D01*
X825215Y525065D01*
X826612Y528437D01*
X829193Y531018D01*
X832565Y532415D01*
X836215Y532415D01*
X839587Y531018D01*
X842168Y528437D01*
X843565Y525065D01*
X843565Y521415D01*
X842168Y518043D01*
X839587Y515462D01*
X836215Y514065D01*
X832565Y514065D01*
X829193Y515462D01*
X826719Y517936D01*
X826645Y517989D01*
X826575Y518049D01*
X826545Y518061D01*
X826519Y518080D01*
X826432Y518107D01*
X826347Y518141D01*
X826306Y518145D01*
X826284Y518152D01*
X826252Y518151D01*
X826180Y518159D01*
X662232Y518159D01*
X662142Y518145D01*
X662051Y518137D01*
X662021Y518125D01*
X661989Y518120D01*
X661909Y518077D01*
X661825Y518041D01*
X661793Y518015D01*
X661772Y518004D01*
X661752Y517983D01*
X661749Y517982D01*
X661745Y517977D01*
X661694Y517936D01*
X652773Y509015D01*
X451365Y509015D01*
X446306Y514075D01*
X446210Y514143D01*
X446117Y514213D01*
X446111Y514215D01*
X446106Y514218D01*
X445995Y514253D01*
X445883Y514289D01*
X445877Y514289D01*
X445871Y514291D01*
X445754Y514288D01*
X445637Y514286D01*
X445630Y514284D01*
X445625Y514284D01*
X445608Y514278D01*
X445476Y514240D01*
X445055Y514065D01*
X441405Y514065D01*
X438033Y515462D01*
X435452Y518043D01*
X434652Y519975D01*
X434590Y520075D01*
X434530Y520175D01*
X434525Y520179D01*
X434522Y520184D01*
X434432Y520259D01*
X434343Y520335D01*
X434337Y520337D01*
X434332Y520341D01*
X434224Y520383D01*
X434115Y520427D01*
X434107Y520428D01*
X434103Y520429D01*
X434085Y520430D01*
X433948Y520445D01*
X312756Y520445D01*
X312666Y520431D01*
X312575Y520423D01*
X312545Y520411D01*
X312513Y520406D01*
X312432Y520363D01*
X312348Y520327D01*
X312316Y520301D01*
X312296Y520290D01*
X312273Y520267D01*
X312271Y520266D01*
X312268Y520263D01*
X312217Y520222D01*
X309997Y518002D01*
X308919Y517555D01*
X308880Y517531D01*
X308837Y517515D01*
X308776Y517467D01*
X308710Y517426D01*
X308680Y517390D01*
X308645Y517362D01*
X308603Y517296D01*
X308553Y517236D01*
X308536Y517193D01*
X308512Y517155D01*
X308493Y517079D01*
X308465Y517007D01*
X308463Y516961D01*
X308452Y516916D01*
X308458Y516839D01*
X308454Y516761D01*
X308467Y516717D01*
X308471Y516671D01*
X308501Y516600D01*
X308523Y516525D01*
X308549Y516487D01*
X308567Y516445D01*
X308652Y516338D01*
X308663Y516323D01*
X308667Y516320D01*
X308672Y516314D01*
X348512Y476474D01*
X348586Y476421D01*
X348655Y476361D01*
X348685Y476349D01*
X348712Y476330D01*
X348799Y476303D01*
X348883Y476269D01*
X348924Y476265D01*
X348947Y476258D01*
X348979Y476259D01*
X349050Y476251D01*
X434369Y476251D01*
X434484Y476270D01*
X434600Y476287D01*
X434606Y476289D01*
X434612Y476290D01*
X434715Y476345D01*
X434819Y476398D01*
X434824Y476403D01*
X434829Y476406D01*
X434909Y476490D01*
X434992Y476574D01*
X434995Y476580D01*
X434999Y476584D01*
X435006Y476601D01*
X435072Y476721D01*
X435452Y477637D01*
X438033Y480218D01*
X441405Y481615D01*
X445055Y481615D01*
X448427Y480218D01*
X451008Y477637D01*
X452405Y474265D01*
X452405Y470615D01*
X451008Y467243D01*
X448427Y464662D01*
X445055Y463265D01*
X441405Y463265D01*
X438033Y464662D01*
X435452Y467243D01*
X434441Y469683D01*
X434380Y469783D01*
X434320Y469883D01*
X434315Y469887D01*
X434312Y469892D01*
X434222Y469967D01*
X434133Y470043D01*
X434127Y470045D01*
X434122Y470049D01*
X434014Y470091D01*
X433905Y470135D01*
X433897Y470136D01*
X433892Y470137D01*
X433874Y470138D01*
X433738Y470153D01*
X346209Y470153D01*
X315274Y501088D01*
X315216Y501130D01*
X315164Y501179D01*
X315117Y501201D01*
X315075Y501232D01*
X315006Y501253D01*
X314941Y501283D01*
X314889Y501289D01*
X314839Y501304D01*
X314768Y501302D01*
X314697Y501310D01*
X314646Y501299D01*
X314594Y501298D01*
X314526Y501273D01*
X314456Y501258D01*
X314411Y501231D01*
X314363Y501213D01*
X314307Y501168D01*
X314245Y501132D01*
X314211Y501092D01*
X314171Y501060D01*
X314132Y500999D01*
X314085Y500945D01*
X314066Y500896D01*
X314038Y500853D01*
X314020Y500783D01*
X313993Y500717D01*
X313985Y500645D01*
X313977Y500614D01*
X313979Y500591D01*
X313975Y500550D01*
X313975Y498555D01*
X312578Y495183D01*
X309997Y492602D01*
X309098Y492230D01*
X309059Y492206D01*
X309016Y492190D01*
X308955Y492141D01*
X308889Y492100D01*
X308860Y492065D01*
X308824Y492036D01*
X308782Y491971D01*
X308732Y491911D01*
X308716Y491868D01*
X308691Y491829D01*
X308672Y491754D01*
X308644Y491681D01*
X308642Y491635D01*
X308631Y491591D01*
X308637Y491513D01*
X308634Y491435D01*
X308647Y491391D01*
X308650Y491345D01*
X308681Y491274D01*
X308702Y491199D01*
X308729Y491161D01*
X308747Y491119D01*
X308832Y491013D01*
X308843Y490997D01*
X308847Y490994D01*
X308851Y490988D01*
X348512Y451328D01*
X348586Y451275D01*
X348655Y451215D01*
X348685Y451203D01*
X348712Y451184D01*
X348799Y451157D01*
X348883Y451123D01*
X348924Y451119D01*
X348947Y451112D01*
X348979Y451113D01*
X349050Y451105D01*
X434474Y451105D01*
X434589Y451124D01*
X434705Y451141D01*
X434711Y451143D01*
X434717Y451144D01*
X434819Y451199D01*
X434925Y451252D01*
X434929Y451257D01*
X434934Y451260D01*
X435014Y451344D01*
X435097Y451428D01*
X435100Y451434D01*
X435104Y451438D01*
X435112Y451455D01*
X435178Y451575D01*
X435452Y452237D01*
X438033Y454818D01*
X441405Y456215D01*
X445055Y456215D01*
X446195Y455743D01*
X446308Y455716D01*
X446422Y455687D01*
X446428Y455688D01*
X446434Y455687D01*
X446551Y455698D01*
X446667Y455707D01*
X446673Y455709D01*
X446679Y455710D01*
X446786Y455757D01*
X446893Y455803D01*
X446899Y455808D01*
X446904Y455810D01*
X446917Y455822D01*
X447024Y455908D01*
X453651Y462535D01*
X642542Y462535D01*
X642638Y462550D01*
X642735Y462560D01*
X642759Y462570D01*
X642784Y462574D01*
X642870Y462620D01*
X642959Y462660D01*
X642979Y462677D01*
X643002Y462690D01*
X643069Y462760D01*
X643141Y462826D01*
X643153Y462849D01*
X643171Y462868D01*
X643212Y462956D01*
X643259Y463042D01*
X643264Y463067D01*
X643275Y463091D01*
X643286Y463188D01*
X643303Y463284D01*
X643299Y463310D01*
X643302Y463335D01*
X643281Y463431D01*
X643267Y463527D01*
X643255Y463550D01*
X643250Y463576D01*
X643200Y463659D01*
X643156Y463746D01*
X643137Y463765D01*
X643123Y463787D01*
X643050Y463850D01*
X642980Y463918D01*
X642951Y463934D01*
X642937Y463947D01*
X642906Y463959D01*
X642833Y463999D01*
X641233Y464662D01*
X638652Y467243D01*
X637255Y470615D01*
X637255Y474265D01*
X638652Y477637D01*
X641233Y480218D01*
X644605Y481615D01*
X648255Y481615D01*
X651627Y480218D01*
X654208Y477637D01*
X655534Y474435D01*
X655596Y474335D01*
X655656Y474235D01*
X655661Y474231D01*
X655664Y474226D01*
X655754Y474151D01*
X655843Y474075D01*
X655849Y474073D01*
X655854Y474069D01*
X655962Y474027D01*
X656071Y473983D01*
X656079Y473982D01*
X656083Y473981D01*
X656101Y473980D01*
X656238Y473965D01*
X821937Y473965D01*
X823916Y471986D01*
X823974Y471944D01*
X824026Y471895D01*
X824073Y471873D01*
X824115Y471842D01*
X824184Y471821D01*
X824249Y471791D01*
X824301Y471785D01*
X824351Y471770D01*
X824422Y471772D01*
X824493Y471764D01*
X824544Y471775D01*
X824596Y471776D01*
X824664Y471801D01*
X824734Y471816D01*
X824779Y471843D01*
X824827Y471861D01*
X824883Y471906D01*
X824945Y471942D01*
X824979Y471982D01*
X825019Y472014D01*
X825058Y472075D01*
X825105Y472129D01*
X825124Y472178D01*
X825152Y472221D01*
X825170Y472291D01*
X825197Y472357D01*
X825205Y472429D01*
X825213Y472460D01*
X825211Y472483D01*
X825215Y472524D01*
X825215Y474265D01*
X826612Y477637D01*
X829193Y480218D01*
X832565Y481615D01*
X836215Y481615D01*
X839587Y480218D01*
X842168Y477637D01*
X843565Y474265D01*
X843565Y470615D01*
X842168Y467243D01*
X839587Y464662D01*
X837987Y463999D01*
X837904Y463948D01*
X837818Y463902D01*
X837800Y463884D01*
X837778Y463870D01*
X837716Y463794D01*
X837649Y463724D01*
X837638Y463700D01*
X837621Y463680D01*
X837586Y463589D01*
X837545Y463501D01*
X837542Y463475D01*
X837533Y463451D01*
X837529Y463353D01*
X837518Y463257D01*
X837524Y463231D01*
X837523Y463205D01*
X837550Y463111D01*
X837570Y463016D01*
X837584Y462994D01*
X837591Y462969D01*
X837647Y462889D01*
X837697Y462805D01*
X837716Y462788D01*
X837731Y462767D01*
X837809Y462708D01*
X837883Y462645D01*
X837908Y462635D01*
X837929Y462620D01*
X838021Y462590D01*
X838112Y462553D01*
X838144Y462550D01*
X838163Y462544D01*
X838196Y462544D01*
X838278Y462535D01*
X846528Y462535D01*
X846618Y462549D01*
X846709Y462557D01*
X846739Y462569D01*
X846771Y462574D01*
X846851Y462617D01*
X846935Y462653D01*
X846967Y462679D01*
X846988Y462690D01*
X847010Y462713D01*
X847066Y462758D01*
X851517Y467209D01*
X851585Y467303D01*
X851655Y467398D01*
X851657Y467404D01*
X851661Y467409D01*
X851695Y467520D01*
X851732Y467632D01*
X851731Y467638D01*
X851733Y467644D01*
X851730Y467761D01*
X851729Y467878D01*
X851727Y467885D01*
X851727Y467890D01*
X851721Y467907D01*
X851682Y468039D01*
X850615Y470615D01*
X850615Y474265D01*
X852012Y477637D01*
X854593Y480218D01*
X857965Y481615D01*
X861615Y481615D01*
X864987Y480218D01*
X866618Y478587D01*
X866676Y478545D01*
X866728Y478496D01*
X866775Y478474D01*
X866817Y478444D01*
X866886Y478423D01*
X866951Y478392D01*
X867003Y478387D01*
X867053Y478371D01*
X867124Y478373D01*
X867195Y478365D01*
X867246Y478376D01*
X867298Y478378D01*
X867366Y478402D01*
X867436Y478418D01*
X867481Y478444D01*
X867529Y478462D01*
X867585Y478507D01*
X867647Y478544D01*
X867681Y478583D01*
X867721Y478616D01*
X867760Y478676D01*
X867807Y478731D01*
X867826Y478779D01*
X867854Y478823D01*
X867872Y478892D01*
X867899Y478959D01*
X867907Y479030D01*
X867915Y479061D01*
X867913Y479085D01*
X867917Y479126D01*
X867917Y491154D01*
X867906Y491225D01*
X867904Y491297D01*
X867886Y491346D01*
X867878Y491397D01*
X867844Y491461D01*
X867819Y491528D01*
X867787Y491569D01*
X867762Y491615D01*
X867710Y491664D01*
X867666Y491720D01*
X867622Y491748D01*
X867584Y491784D01*
X867519Y491814D01*
X867459Y491853D01*
X867408Y491866D01*
X867361Y491888D01*
X867290Y491895D01*
X867220Y491913D01*
X867168Y491909D01*
X867117Y491915D01*
X867046Y491899D01*
X866975Y491894D01*
X866927Y491873D01*
X866876Y491862D01*
X866815Y491826D01*
X866749Y491798D01*
X866693Y491753D01*
X866665Y491736D01*
X866650Y491718D01*
X866618Y491693D01*
X864987Y490062D01*
X861615Y488665D01*
X857965Y488665D01*
X857364Y488914D01*
X857251Y488941D01*
X857137Y488969D01*
X857131Y488969D01*
X857125Y488970D01*
X857008Y488959D01*
X856892Y488950D01*
X856886Y488948D01*
X856880Y488947D01*
X856772Y488899D01*
X856666Y488854D01*
X856660Y488849D01*
X856655Y488847D01*
X856641Y488834D01*
X856535Y488749D01*
X851655Y483869D01*
X828555Y483869D01*
X819634Y492790D01*
X819560Y492843D01*
X819491Y492903D01*
X819461Y492915D01*
X819434Y492934D01*
X819347Y492961D01*
X819263Y492995D01*
X819222Y492999D01*
X819199Y493006D01*
X819167Y493005D01*
X819096Y493013D01*
X654870Y493013D01*
X654755Y492994D01*
X654639Y492977D01*
X654633Y492975D01*
X654627Y492974D01*
X654524Y492919D01*
X654420Y492866D01*
X654415Y492861D01*
X654410Y492858D01*
X654330Y492774D01*
X654247Y492690D01*
X654244Y492684D01*
X654241Y492680D01*
X654237Y492671D01*
X651627Y490062D01*
X648255Y488665D01*
X644605Y488665D01*
X641233Y490062D01*
X638652Y492643D01*
X637255Y496015D01*
X637255Y499665D01*
X638652Y503037D01*
X641233Y505618D01*
X644605Y507015D01*
X648255Y507015D01*
X651627Y505618D01*
X654208Y503037D01*
X655640Y499581D01*
X655701Y499481D01*
X655761Y499381D01*
X655766Y499377D01*
X655769Y499372D01*
X655859Y499297D01*
X655948Y499221D01*
X655954Y499219D01*
X655959Y499215D01*
X656067Y499173D01*
X656176Y499129D01*
X656184Y499128D01*
X656188Y499127D01*
X656207Y499126D01*
X656343Y499111D01*
X821937Y499111D01*
X823916Y497132D01*
X823974Y497090D01*
X824026Y497041D01*
X824073Y497019D01*
X824115Y496988D01*
X824184Y496967D01*
X824249Y496937D01*
X824301Y496931D01*
X824351Y496916D01*
X824422Y496918D01*
X824493Y496910D01*
X824544Y496921D01*
X824596Y496922D01*
X824664Y496947D01*
X824734Y496962D01*
X824779Y496989D01*
X824827Y497007D01*
X824883Y497052D01*
X824945Y497088D01*
X824979Y497128D01*
X825019Y497160D01*
X825058Y497221D01*
X825105Y497275D01*
X825124Y497324D01*
X825152Y497367D01*
X825170Y497437D01*
X825197Y497503D01*
X825205Y497575D01*
X825213Y497606D01*
X825211Y497629D01*
X825215Y497670D01*
X825215Y499665D01*
X826612Y503037D01*
X829193Y505618D01*
X832565Y507015D01*
X836215Y507015D01*
X839587Y505618D01*
X842168Y503037D01*
X843565Y499665D01*
X843565Y496015D01*
X842168Y492643D01*
X840791Y491266D01*
X840749Y491208D01*
X840700Y491156D01*
X840678Y491109D01*
X840648Y491067D01*
X840627Y490998D01*
X840596Y490933D01*
X840591Y490881D01*
X840575Y490831D01*
X840577Y490760D01*
X840569Y490689D01*
X840580Y490638D01*
X840582Y490586D01*
X840606Y490518D01*
X840622Y490448D01*
X840648Y490403D01*
X840666Y490355D01*
X840711Y490299D01*
X840748Y490237D01*
X840787Y490203D01*
X840820Y490163D01*
X840880Y490124D01*
X840935Y490077D01*
X840983Y490058D01*
X841027Y490030D01*
X841096Y490012D01*
X841163Y489985D01*
X841234Y489977D01*
X841265Y489969D01*
X841289Y489971D01*
X841330Y489967D01*
X848814Y489967D01*
X848904Y489981D01*
X848995Y489989D01*
X849025Y490001D01*
X849057Y490006D01*
X849137Y490049D01*
X849221Y490085D01*
X849253Y490111D01*
X849274Y490122D01*
X849277Y490125D01*
X849278Y490125D01*
X849297Y490146D01*
X849352Y490190D01*
X851592Y492429D01*
X851660Y492524D01*
X851730Y492618D01*
X851732Y492624D01*
X851735Y492629D01*
X851770Y492740D01*
X851806Y492852D01*
X851806Y492858D01*
X851808Y492864D01*
X851805Y492981D01*
X851804Y493098D01*
X851801Y493105D01*
X851801Y493110D01*
X851795Y493128D01*
X851757Y493259D01*
X850615Y496015D01*
X850615Y499665D01*
X852012Y503037D01*
X854593Y505618D01*
X857965Y507015D01*
X861615Y507015D01*
X864987Y505618D01*
X866618Y503987D01*
X866676Y503945D01*
X866728Y503896D01*
X866775Y503874D01*
X866817Y503844D01*
X866886Y503823D01*
X866951Y503792D01*
X867003Y503787D01*
X867053Y503771D01*
X867124Y503773D01*
X867195Y503765D01*
X867246Y503776D01*
X867298Y503778D01*
X867366Y503802D01*
X867436Y503818D01*
X867481Y503844D01*
X867529Y503862D01*
X867585Y503907D01*
X867647Y503944D01*
X867681Y503983D01*
X867721Y504016D01*
X867760Y504076D01*
X867807Y504131D01*
X867826Y504179D01*
X867854Y504223D01*
X867872Y504292D01*
X867899Y504359D01*
X867907Y504430D01*
X867915Y504461D01*
X867913Y504485D01*
X867917Y504526D01*
X867917Y516554D01*
X867906Y516625D01*
X867904Y516697D01*
X867886Y516746D01*
X867878Y516797D01*
X867844Y516861D01*
X867819Y516928D01*
X867787Y516969D01*
X867762Y517015D01*
X867710Y517064D01*
X867666Y517120D01*
X867622Y517148D01*
X867584Y517184D01*
X867519Y517214D01*
X867459Y517253D01*
X867408Y517266D01*
X867361Y517288D01*
X867290Y517295D01*
X867220Y517313D01*
X867168Y517309D01*
X867117Y517315D01*
X867046Y517299D01*
X866975Y517294D01*
X866927Y517273D01*
X866876Y517262D01*
X866815Y517226D01*
X866749Y517198D01*
X866693Y517153D01*
X866665Y517136D01*
X866650Y517118D01*
X866618Y517093D01*
X864987Y515462D01*
X861615Y514065D01*
X857965Y514065D01*
X854593Y515462D01*
X852012Y518043D01*
X850615Y521415D01*
X850615Y525065D01*
X852012Y528437D01*
X854593Y531018D01*
X857965Y532415D01*
X861615Y532415D01*
X864987Y531018D01*
X866618Y529387D01*
X866676Y529345D01*
X866728Y529296D01*
X866775Y529274D01*
X866817Y529244D01*
X866886Y529223D01*
X866951Y529192D01*
X867003Y529187D01*
X867053Y529171D01*
X867124Y529173D01*
X867195Y529165D01*
X867246Y529176D01*
X867298Y529178D01*
X867366Y529202D01*
X867436Y529218D01*
X867481Y529244D01*
X867529Y529262D01*
X867585Y529307D01*
X867647Y529344D01*
X867681Y529383D01*
X867721Y529416D01*
X867760Y529476D01*
X867807Y529531D01*
X867826Y529579D01*
X867854Y529623D01*
X867872Y529692D01*
X867899Y529759D01*
X867907Y529830D01*
X867915Y529861D01*
X867913Y529885D01*
X867917Y529926D01*
X867917Y541954D01*
X867906Y542025D01*
X867904Y542097D01*
X867886Y542146D01*
X867878Y542197D01*
X867844Y542261D01*
X867819Y542328D01*
X867787Y542369D01*
X867762Y542415D01*
X867710Y542464D01*
X867666Y542520D01*
X867622Y542548D01*
X867584Y542584D01*
X867519Y542614D01*
X867459Y542653D01*
X867408Y542666D01*
X867361Y542688D01*
X867290Y542695D01*
X867220Y542713D01*
X867168Y542709D01*
X867117Y542715D01*
X867046Y542699D01*
X866975Y542694D01*
X866927Y542673D01*
X866876Y542662D01*
X866815Y542626D01*
X866749Y542598D01*
X866693Y542553D01*
X866665Y542536D01*
X866650Y542518D01*
X866618Y542493D01*
X864987Y540862D01*
X861615Y539465D01*
X857965Y539465D01*
X854593Y540862D01*
X852012Y543443D01*
X850615Y546815D01*
X850615Y550465D01*
X852012Y553837D01*
X854593Y556418D01*
X857965Y557815D01*
X861615Y557815D01*
X864987Y556418D01*
X866618Y554787D01*
X866676Y554745D01*
X866728Y554696D01*
X866775Y554674D01*
X866817Y554644D01*
X866886Y554623D01*
X866951Y554592D01*
X867003Y554587D01*
X867053Y554571D01*
X867124Y554573D01*
X867195Y554565D01*
X867246Y554576D01*
X867298Y554578D01*
X867366Y554602D01*
X867436Y554618D01*
X867481Y554644D01*
X867529Y554662D01*
X867585Y554707D01*
X867647Y554744D01*
X867681Y554783D01*
X867721Y554816D01*
X867760Y554876D01*
X867807Y554931D01*
X867826Y554979D01*
X867854Y555023D01*
X867872Y555092D01*
X867899Y555159D01*
X867907Y555230D01*
X867915Y555261D01*
X867913Y555285D01*
X867917Y555326D01*
X867917Y567354D01*
X867906Y567425D01*
X867904Y567497D01*
X867886Y567546D01*
X867878Y567597D01*
X867844Y567661D01*
X867819Y567728D01*
X867787Y567769D01*
X867762Y567815D01*
X867710Y567864D01*
X867666Y567920D01*
X867622Y567948D01*
X867584Y567984D01*
X867519Y568014D01*
X867459Y568053D01*
X867408Y568066D01*
X867361Y568088D01*
X867290Y568095D01*
X867220Y568113D01*
X867168Y568109D01*
X867117Y568115D01*
X867046Y568099D01*
X866975Y568094D01*
X866927Y568073D01*
X866876Y568062D01*
X866815Y568026D01*
X866749Y567998D01*
X866693Y567953D01*
X866665Y567936D01*
X866650Y567918D01*
X866618Y567893D01*
X864987Y566262D01*
X861615Y564865D01*
X857965Y564865D01*
X854593Y566262D01*
X852012Y568843D01*
X850615Y572215D01*
X850615Y575865D01*
X852012Y579237D01*
X854593Y581818D01*
X857965Y583215D01*
X859960Y583215D01*
X860031Y583226D01*
X860102Y583228D01*
X860151Y583246D01*
X860203Y583254D01*
X860266Y583288D01*
X860333Y583313D01*
X860374Y583345D01*
X860420Y583370D01*
X860469Y583422D01*
X860525Y583466D01*
X860554Y583510D01*
X860589Y583548D01*
X860620Y583613D01*
X860658Y583673D01*
X860671Y583724D01*
X860693Y583771D01*
X860701Y583842D01*
X860718Y583912D01*
X860714Y583964D01*
X860720Y584015D01*
X860705Y584086D01*
X860699Y584157D01*
X860679Y584205D01*
X860668Y584256D01*
X860631Y584317D01*
X860603Y584383D01*
X860558Y584439D01*
X860542Y584467D01*
X860524Y584482D01*
X860498Y584514D01*
X858773Y586239D01*
X858773Y589504D01*
X858770Y589524D01*
X858772Y589543D01*
X858750Y589645D01*
X858734Y589747D01*
X858724Y589764D01*
X858720Y589784D01*
X858667Y589873D01*
X858618Y589964D01*
X858604Y589978D01*
X858594Y589995D01*
X858515Y590062D01*
X858440Y590134D01*
X858422Y590142D01*
X858407Y590155D01*
X858311Y590194D01*
X858217Y590237D01*
X858197Y590239D01*
X858179Y590247D01*
X858012Y590265D01*
X857965Y590265D01*
X854593Y591662D01*
X852012Y594243D01*
X850615Y597615D01*
X850615Y601265D01*
X852012Y604637D01*
X854593Y607218D01*
X857965Y608615D01*
X861615Y608615D01*
X864987Y607218D01*
X867568Y604637D01*
X868965Y601265D01*
X868965Y597615D01*
X867568Y594243D01*
X865094Y591769D01*
X865041Y591695D01*
X864981Y591625D01*
X864969Y591595D01*
X864950Y591569D01*
X864923Y591482D01*
X864901Y591426D01*
X864899Y591422D01*
X864899Y591421D01*
X864889Y591397D01*
X864885Y591356D01*
X864878Y591334D01*
X864879Y591302D01*
X864871Y591230D01*
X864871Y589080D01*
X864885Y588990D01*
X864893Y588899D01*
X864905Y588869D01*
X864910Y588837D01*
X864953Y588757D01*
X864989Y588673D01*
X865015Y588641D01*
X865026Y588620D01*
X865049Y588598D01*
X865094Y588542D01*
X874015Y579621D01*
X874015Y414789D01*
X865371Y406145D01*
X863678Y406145D01*
X863582Y406130D01*
X863485Y406120D01*
X863461Y406110D01*
X863436Y406106D01*
X863350Y406060D01*
X863261Y406020D01*
X863241Y406003D01*
X863218Y405990D01*
X863151Y405920D01*
X863079Y405854D01*
X863067Y405831D01*
X863049Y405812D01*
X863008Y405724D01*
X862961Y405638D01*
X862956Y405613D01*
X862945Y405589D01*
X862934Y405492D01*
X862917Y405396D01*
X862921Y405370D01*
X862918Y405345D01*
X862939Y405249D01*
X862953Y405153D01*
X862965Y405130D01*
X862970Y405104D01*
X863020Y405021D01*
X863064Y404934D01*
X863083Y404915D01*
X863097Y404893D01*
X863170Y404830D01*
X863240Y404762D01*
X863269Y404746D01*
X863283Y404733D01*
X863314Y404721D01*
X863387Y404681D01*
X864987Y404018D01*
X867568Y401437D01*
X868965Y398065D01*
X868965Y394415D01*
X867568Y391043D01*
X864987Y388462D01*
X861615Y387065D01*
X857965Y387065D01*
X854593Y388462D01*
X852012Y391043D01*
X850615Y394415D01*
X850615Y396410D01*
X850604Y396481D01*
X850602Y396552D01*
X850584Y396601D01*
X850576Y396653D01*
X850542Y396716D01*
X850517Y396783D01*
X850485Y396824D01*
X850460Y396870D01*
X850409Y396919D01*
X850364Y396975D01*
X850320Y397004D01*
X850282Y397039D01*
X850217Y397070D01*
X850157Y397108D01*
X850106Y397121D01*
X850059Y397143D01*
X849988Y397151D01*
X849918Y397168D01*
X849866Y397164D01*
X849815Y397170D01*
X849744Y397155D01*
X849673Y397149D01*
X849625Y397129D01*
X849574Y397118D01*
X849513Y397081D01*
X849447Y397053D01*
X849391Y397008D01*
X849363Y396992D01*
X849348Y396974D01*
X849316Y396948D01*
X849092Y396724D01*
X849039Y396650D01*
X848979Y396581D01*
X848967Y396551D01*
X848948Y396524D01*
X848921Y396437D01*
X848887Y396353D01*
X848883Y396312D01*
X848876Y396289D01*
X848877Y396257D01*
X848869Y396186D01*
X848869Y389643D01*
X839948Y380722D01*
X839160Y379934D01*
X839133Y379897D01*
X839099Y379866D01*
X839062Y379798D01*
X839016Y379735D01*
X839003Y379691D01*
X838981Y379650D01*
X838967Y379574D01*
X838944Y379499D01*
X838945Y379454D01*
X838937Y379408D01*
X838948Y379331D01*
X838950Y379254D01*
X838966Y379210D01*
X838973Y379165D01*
X839008Y379096D01*
X839035Y379023D01*
X839063Y378987D01*
X839084Y378946D01*
X839140Y378891D01*
X839188Y378830D01*
X839227Y378806D01*
X839260Y378774D01*
X839379Y378708D01*
X839395Y378697D01*
X839400Y378696D01*
X839407Y378693D01*
X839587Y378618D01*
X842168Y376037D01*
X843565Y372665D01*
X843565Y369015D01*
X842168Y365643D01*
X839587Y363062D01*
X836215Y361665D01*
X832565Y361665D01*
X829193Y363062D01*
X826612Y365643D01*
X825215Y369015D01*
X825215Y372665D01*
X826612Y376037D01*
X827989Y377414D01*
X828031Y377472D01*
X828080Y377524D01*
X828102Y377571D01*
X828132Y377613D01*
X828153Y377682D01*
X828184Y377747D01*
X828189Y377799D01*
X828205Y377849D01*
X828203Y377920D01*
X828211Y377991D01*
X828200Y378042D01*
X828198Y378094D01*
X828174Y378162D01*
X828158Y378232D01*
X828132Y378277D01*
X828114Y378325D01*
X828069Y378381D01*
X828032Y378443D01*
X827993Y378477D01*
X827960Y378517D01*
X827900Y378556D01*
X827845Y378603D01*
X827797Y378622D01*
X827753Y378650D01*
X827684Y378668D01*
X827617Y378695D01*
X827546Y378703D01*
X827515Y378711D01*
X827491Y378709D01*
X827450Y378713D01*
X712524Y378713D01*
X712434Y378699D01*
X712343Y378691D01*
X712313Y378679D01*
X712281Y378674D01*
X712201Y378631D01*
X712117Y378595D01*
X712085Y378569D01*
X712064Y378558D01*
X712042Y378535D01*
X711986Y378490D01*
X633798Y300302D01*
X633745Y300228D01*
X633685Y300159D01*
X633673Y300129D01*
X633654Y300102D01*
X633627Y300015D01*
X633593Y299931D01*
X633589Y299890D01*
X633582Y299867D01*
X633583Y299835D01*
X633575Y299764D01*
X633575Y284158D01*
X632682Y283265D01*
X611918Y283265D01*
G37*
%LPD*%
%LPC*%
G36*
X50380Y525045D02*
X50380Y525045D01*
X47271Y528154D01*
X47271Y532550D01*
X50250Y535529D01*
X50261Y535545D01*
X50277Y535557D01*
X50333Y535645D01*
X50393Y535728D01*
X50399Y535747D01*
X50410Y535764D01*
X50435Y535865D01*
X50466Y535964D01*
X50465Y535983D01*
X50470Y536003D01*
X50462Y536106D01*
X50459Y536209D01*
X50453Y536228D01*
X50451Y536248D01*
X50411Y536343D01*
X50375Y536440D01*
X50362Y536456D01*
X50355Y536474D01*
X50250Y536605D01*
X47271Y539584D01*
X47271Y542462D01*
X47257Y542552D01*
X47249Y542643D01*
X47237Y542673D01*
X47232Y542705D01*
X47189Y542785D01*
X47153Y542869D01*
X47127Y542901D01*
X47116Y542922D01*
X47093Y542944D01*
X47048Y543000D01*
X44957Y545091D01*
X44957Y630737D01*
X44943Y630827D01*
X44935Y630918D01*
X44923Y630947D01*
X44918Y630979D01*
X44875Y631060D01*
X44839Y631144D01*
X44813Y631176D01*
X44802Y631197D01*
X44779Y631219D01*
X44734Y631275D01*
X42699Y633310D01*
X42699Y637706D01*
X45808Y640815D01*
X50204Y640815D01*
X53313Y637706D01*
X53313Y633310D01*
X51278Y631275D01*
X51225Y631201D01*
X51165Y631131D01*
X51153Y631101D01*
X51134Y631075D01*
X51107Y630988D01*
X51073Y630903D01*
X51069Y630862D01*
X51062Y630840D01*
X51063Y630808D01*
X51055Y630737D01*
X51055Y610416D01*
X51066Y610345D01*
X51068Y610274D01*
X51086Y610225D01*
X51094Y610173D01*
X51128Y610110D01*
X51153Y610043D01*
X51185Y610002D01*
X51210Y609956D01*
X51262Y609907D01*
X51306Y609851D01*
X51350Y609822D01*
X51388Y609787D01*
X51453Y609756D01*
X51513Y609718D01*
X51564Y609705D01*
X51611Y609683D01*
X51682Y609675D01*
X51752Y609658D01*
X51804Y609662D01*
X51855Y609656D01*
X51926Y609671D01*
X51997Y609677D01*
X52045Y609697D01*
X52096Y609708D01*
X52157Y609745D01*
X52223Y609773D01*
X52279Y609818D01*
X52307Y609834D01*
X52322Y609852D01*
X52354Y609878D01*
X117914Y675438D01*
X117967Y675512D01*
X118027Y675581D01*
X118039Y675611D01*
X118058Y675638D01*
X118085Y675725D01*
X118119Y675809D01*
X118123Y675850D01*
X118130Y675873D01*
X118129Y675905D01*
X118137Y675976D01*
X118137Y678854D01*
X121246Y681963D01*
X124124Y681963D01*
X124214Y681977D01*
X124305Y681985D01*
X124335Y681997D01*
X124367Y682002D01*
X124447Y682045D01*
X124531Y682081D01*
X124563Y682107D01*
X124584Y682118D01*
X124606Y682141D01*
X124662Y682186D01*
X129344Y686868D01*
X129397Y686942D01*
X129457Y687011D01*
X129469Y687041D01*
X129488Y687068D01*
X129515Y687155D01*
X129549Y687239D01*
X129553Y687280D01*
X129560Y687303D01*
X129559Y687335D01*
X129567Y687406D01*
X129567Y690284D01*
X132676Y693393D01*
X137072Y693393D01*
X139107Y691358D01*
X139181Y691305D01*
X139251Y691245D01*
X139281Y691233D01*
X139307Y691214D01*
X139394Y691187D01*
X139479Y691153D01*
X139520Y691149D01*
X139542Y691142D01*
X139574Y691143D01*
X139645Y691135D01*
X168965Y691135D01*
X169055Y691149D01*
X169146Y691157D01*
X169175Y691169D01*
X169207Y691174D01*
X169288Y691217D01*
X169372Y691253D01*
X169404Y691279D01*
X169425Y691290D01*
X169447Y691313D01*
X169503Y691358D01*
X171538Y693393D01*
X175934Y693393D01*
X179043Y690284D01*
X179043Y685888D01*
X175934Y682779D01*
X171538Y682779D01*
X169503Y684814D01*
X169429Y684867D01*
X169359Y684927D01*
X169329Y684939D01*
X169303Y684958D01*
X169216Y684985D01*
X169131Y685019D01*
X169090Y685023D01*
X169068Y685030D01*
X169036Y685029D01*
X168965Y685037D01*
X139645Y685037D01*
X139555Y685023D01*
X139464Y685015D01*
X139435Y685003D01*
X139403Y684998D01*
X139322Y684955D01*
X139238Y684919D01*
X139206Y684893D01*
X139185Y684882D01*
X139163Y684859D01*
X139107Y684814D01*
X137072Y682779D01*
X134194Y682779D01*
X134104Y682765D01*
X134013Y682757D01*
X133983Y682745D01*
X133951Y682740D01*
X133871Y682697D01*
X133787Y682661D01*
X133755Y682635D01*
X133734Y682624D01*
X133712Y682601D01*
X133656Y682556D01*
X128974Y677874D01*
X128921Y677800D01*
X128861Y677731D01*
X128849Y677701D01*
X128830Y677674D01*
X128803Y677587D01*
X128769Y677503D01*
X128765Y677462D01*
X128758Y677439D01*
X128759Y677407D01*
X128751Y677336D01*
X128751Y674458D01*
X125642Y671349D01*
X122764Y671349D01*
X122674Y671335D01*
X122583Y671327D01*
X122553Y671315D01*
X122521Y671310D01*
X122441Y671267D01*
X122357Y671231D01*
X122325Y671205D01*
X122304Y671194D01*
X122282Y671171D01*
X122226Y671126D01*
X58136Y607036D01*
X58083Y606962D01*
X58023Y606893D01*
X58011Y606863D01*
X57992Y606836D01*
X57965Y606749D01*
X57931Y606665D01*
X57927Y606624D01*
X57920Y606601D01*
X57921Y606569D01*
X57913Y606498D01*
X57913Y555697D01*
X57927Y555607D01*
X57935Y555516D01*
X57947Y555487D01*
X57952Y555455D01*
X57995Y555374D01*
X58031Y555290D01*
X58057Y555258D01*
X58068Y555237D01*
X58091Y555215D01*
X58136Y555159D01*
X60171Y553124D01*
X60171Y548728D01*
X57192Y545749D01*
X57181Y545733D01*
X57165Y545721D01*
X57109Y545633D01*
X57049Y545550D01*
X57043Y545531D01*
X57032Y545514D01*
X57007Y545413D01*
X56976Y545314D01*
X56977Y545295D01*
X56972Y545275D01*
X56980Y545172D01*
X56983Y545069D01*
X56989Y545050D01*
X56991Y545030D01*
X57031Y544935D01*
X57067Y544838D01*
X57080Y544822D01*
X57087Y544804D01*
X57192Y544673D01*
X57885Y543980D01*
X57885Y541808D01*
X57896Y541737D01*
X57898Y541666D01*
X57916Y541617D01*
X57924Y541565D01*
X57958Y541502D01*
X57983Y541435D01*
X58015Y541394D01*
X58040Y541348D01*
X58092Y541299D01*
X58136Y541243D01*
X58180Y541214D01*
X58218Y541179D01*
X58283Y541148D01*
X58343Y541110D01*
X58394Y541097D01*
X58441Y541075D01*
X58512Y541067D01*
X58582Y541050D01*
X58634Y541054D01*
X58685Y541048D01*
X58756Y541063D01*
X58827Y541069D01*
X58875Y541089D01*
X58926Y541100D01*
X58987Y541137D01*
X59053Y541165D01*
X59109Y541210D01*
X59137Y541226D01*
X59152Y541244D01*
X59184Y541270D01*
X133888Y615974D01*
X133941Y616048D01*
X134001Y616117D01*
X134013Y616147D01*
X134032Y616174D01*
X134059Y616261D01*
X134093Y616345D01*
X134097Y616386D01*
X134104Y616409D01*
X134103Y616441D01*
X134111Y616512D01*
X134111Y642167D01*
X134097Y642257D01*
X134089Y642348D01*
X134077Y642377D01*
X134072Y642409D01*
X134029Y642490D01*
X133993Y642574D01*
X133967Y642606D01*
X133956Y642627D01*
X133933Y642649D01*
X133888Y642705D01*
X131853Y644740D01*
X131853Y649136D01*
X134962Y652245D01*
X139358Y652245D01*
X142467Y649136D01*
X142467Y644740D01*
X140432Y642705D01*
X140379Y642631D01*
X140319Y642561D01*
X140307Y642531D01*
X140288Y642505D01*
X140261Y642418D01*
X140227Y642333D01*
X140223Y642292D01*
X140216Y642270D01*
X140217Y642238D01*
X140209Y642167D01*
X140209Y613671D01*
X58108Y531570D01*
X58055Y531496D01*
X57995Y531427D01*
X57983Y531397D01*
X57964Y531370D01*
X57937Y531283D01*
X57903Y531199D01*
X57899Y531158D01*
X57892Y531135D01*
X57893Y531103D01*
X57885Y531032D01*
X57885Y528154D01*
X54776Y525045D01*
X50380Y525045D01*
G37*
%LPD*%
%LPC*%
G36*
X441405Y539465D02*
X441405Y539465D01*
X438033Y540862D01*
X435452Y543443D01*
X434055Y546815D01*
X434055Y550465D01*
X435452Y553837D01*
X438033Y556418D01*
X441405Y557815D01*
X445055Y557815D01*
X446913Y557045D01*
X447027Y557018D01*
X447140Y556990D01*
X447146Y556990D01*
X447152Y556989D01*
X447269Y557000D01*
X447385Y557009D01*
X447391Y557011D01*
X447397Y557012D01*
X447505Y557060D01*
X447612Y557105D01*
X447617Y557110D01*
X447622Y557112D01*
X447636Y557125D01*
X447743Y557210D01*
X453651Y563119D01*
X652773Y563119D01*
X663980Y551912D01*
X664054Y551859D01*
X664123Y551799D01*
X664153Y551787D01*
X664180Y551768D01*
X664267Y551741D01*
X664351Y551707D01*
X664392Y551703D01*
X664415Y551696D01*
X664447Y551697D01*
X664518Y551689D01*
X825214Y551689D01*
X825328Y551708D01*
X825444Y551725D01*
X825450Y551727D01*
X825456Y551728D01*
X825559Y551783D01*
X825664Y551836D01*
X825668Y551841D01*
X825674Y551844D01*
X825753Y551928D01*
X825836Y552012D01*
X825840Y552018D01*
X825843Y552022D01*
X825851Y552039D01*
X825917Y552159D01*
X826612Y553837D01*
X829193Y556418D01*
X832565Y557815D01*
X836215Y557815D01*
X839587Y556418D01*
X842168Y553837D01*
X843565Y550465D01*
X843565Y546815D01*
X842168Y543443D01*
X839587Y540862D01*
X836215Y539465D01*
X832565Y539465D01*
X829193Y540862D01*
X826612Y543443D01*
X825917Y545121D01*
X825855Y545221D01*
X825795Y545321D01*
X825791Y545325D01*
X825787Y545330D01*
X825697Y545405D01*
X825608Y545481D01*
X825603Y545483D01*
X825598Y545487D01*
X825489Y545529D01*
X825380Y545573D01*
X825373Y545574D01*
X825368Y545575D01*
X825350Y545576D01*
X825214Y545591D01*
X661677Y545591D01*
X656904Y550364D01*
X656846Y550406D01*
X656794Y550455D01*
X656747Y550477D01*
X656705Y550508D01*
X656636Y550529D01*
X656571Y550559D01*
X656519Y550565D01*
X656469Y550580D01*
X656398Y550578D01*
X656327Y550586D01*
X656276Y550575D01*
X656224Y550574D01*
X656156Y550549D01*
X656086Y550534D01*
X656041Y550507D01*
X655993Y550489D01*
X655937Y550444D01*
X655875Y550408D01*
X655841Y550368D01*
X655801Y550336D01*
X655762Y550275D01*
X655715Y550221D01*
X655696Y550172D01*
X655668Y550129D01*
X655650Y550059D01*
X655623Y549993D01*
X655615Y549921D01*
X655607Y549890D01*
X655609Y549867D01*
X655605Y549826D01*
X655605Y546815D01*
X654208Y543443D01*
X651627Y540862D01*
X648255Y539465D01*
X644605Y539465D01*
X641233Y540862D01*
X638652Y543443D01*
X637255Y546815D01*
X637255Y550465D01*
X638652Y553837D01*
X640537Y555722D01*
X640579Y555780D01*
X640628Y555832D01*
X640650Y555879D01*
X640680Y555921D01*
X640701Y555990D01*
X640732Y556055D01*
X640737Y556107D01*
X640753Y556157D01*
X640751Y556228D01*
X640759Y556299D01*
X640748Y556350D01*
X640746Y556402D01*
X640722Y556470D01*
X640706Y556540D01*
X640680Y556585D01*
X640662Y556633D01*
X640617Y556689D01*
X640580Y556751D01*
X640541Y556785D01*
X640508Y556825D01*
X640448Y556864D01*
X640393Y556911D01*
X640345Y556930D01*
X640301Y556958D01*
X640232Y556976D01*
X640165Y557003D01*
X640094Y557011D01*
X640063Y557019D01*
X640039Y557017D01*
X639998Y557021D01*
X456492Y557021D01*
X456402Y557007D01*
X456311Y556999D01*
X456281Y556987D01*
X456249Y556982D01*
X456169Y556939D01*
X456085Y556903D01*
X456053Y556877D01*
X456032Y556866D01*
X456010Y556843D01*
X455954Y556798D01*
X451949Y552793D01*
X451881Y552699D01*
X451811Y552605D01*
X451809Y552599D01*
X451805Y552594D01*
X451771Y552483D01*
X451735Y552371D01*
X451735Y552365D01*
X451733Y552359D01*
X451736Y552242D01*
X451737Y552125D01*
X451739Y552118D01*
X451739Y552113D01*
X451746Y552095D01*
X451784Y551964D01*
X452405Y550465D01*
X452405Y546815D01*
X451008Y543443D01*
X448427Y540862D01*
X445055Y539465D01*
X441405Y539465D01*
G37*
%LPD*%
%LPC*%
G36*
X441405Y564865D02*
X441405Y564865D01*
X438033Y566262D01*
X435452Y568843D01*
X434055Y572215D01*
X434055Y575865D01*
X435452Y579237D01*
X438033Y581818D01*
X441405Y583215D01*
X445055Y583215D01*
X448427Y581818D01*
X450901Y579344D01*
X450975Y579291D01*
X451045Y579231D01*
X451075Y579219D01*
X451101Y579200D01*
X451188Y579173D01*
X451273Y579139D01*
X451314Y579135D01*
X451336Y579128D01*
X451368Y579129D01*
X451440Y579121D01*
X631644Y579121D01*
X631734Y579135D01*
X631825Y579143D01*
X631855Y579155D01*
X631887Y579160D01*
X631967Y579203D01*
X632051Y579239D01*
X632083Y579265D01*
X632104Y579276D01*
X632126Y579299D01*
X632182Y579344D01*
X641103Y588265D01*
X826509Y588265D01*
X831494Y583280D01*
X831589Y583211D01*
X831683Y583142D01*
X831689Y583140D01*
X831694Y583136D01*
X831805Y583102D01*
X831916Y583066D01*
X831923Y583066D01*
X831929Y583064D01*
X832045Y583067D01*
X832162Y583068D01*
X832170Y583070D01*
X832175Y583070D01*
X832192Y583076D01*
X832324Y583115D01*
X832565Y583215D01*
X836215Y583215D01*
X839587Y581818D01*
X842168Y579237D01*
X843565Y575865D01*
X843565Y572215D01*
X842168Y568843D01*
X839587Y566262D01*
X836215Y564865D01*
X832565Y564865D01*
X829193Y566262D01*
X826612Y568843D01*
X825215Y572215D01*
X825215Y575865D01*
X826506Y578980D01*
X826532Y579094D01*
X826561Y579207D01*
X826560Y579214D01*
X826562Y579220D01*
X826551Y579336D01*
X826542Y579453D01*
X826539Y579458D01*
X826539Y579465D01*
X826491Y579572D01*
X826445Y579679D01*
X826441Y579685D01*
X826439Y579689D01*
X826426Y579703D01*
X826341Y579810D01*
X824206Y581944D01*
X824132Y581997D01*
X824063Y582057D01*
X824033Y582069D01*
X824006Y582088D01*
X823919Y582115D01*
X823835Y582149D01*
X823794Y582153D01*
X823771Y582160D01*
X823739Y582159D01*
X823668Y582167D01*
X653116Y582167D01*
X653045Y582156D01*
X652973Y582154D01*
X652924Y582136D01*
X652873Y582128D01*
X652809Y582094D01*
X652742Y582069D01*
X652701Y582037D01*
X652655Y582012D01*
X652606Y581960D01*
X652550Y581916D01*
X652522Y581872D01*
X652486Y581834D01*
X652456Y581769D01*
X652417Y581709D01*
X652404Y581658D01*
X652382Y581611D01*
X652375Y581540D01*
X652357Y581470D01*
X652361Y581418D01*
X652355Y581367D01*
X652371Y581296D01*
X652376Y581225D01*
X652397Y581177D01*
X652408Y581126D01*
X652444Y581065D01*
X652472Y580999D01*
X652517Y580943D01*
X652534Y580915D01*
X652552Y580900D01*
X652577Y580868D01*
X654208Y579237D01*
X655605Y575865D01*
X655605Y572215D01*
X654208Y568843D01*
X651627Y566262D01*
X648255Y564865D01*
X644605Y564865D01*
X641233Y566262D01*
X638652Y568843D01*
X637255Y572215D01*
X637255Y573956D01*
X637244Y574027D01*
X637242Y574098D01*
X637224Y574147D01*
X637216Y574199D01*
X637182Y574262D01*
X637157Y574329D01*
X637125Y574370D01*
X637100Y574416D01*
X637048Y574465D01*
X637004Y574521D01*
X636960Y574550D01*
X636922Y574585D01*
X636857Y574616D01*
X636797Y574654D01*
X636746Y574667D01*
X636699Y574689D01*
X636628Y574697D01*
X636558Y574714D01*
X636506Y574710D01*
X636455Y574716D01*
X636384Y574701D01*
X636313Y574695D01*
X636265Y574675D01*
X636214Y574664D01*
X636153Y574627D01*
X636087Y574599D01*
X636031Y574554D01*
X636003Y574538D01*
X635988Y574520D01*
X635956Y574494D01*
X634485Y573023D01*
X453166Y573023D01*
X453146Y573020D01*
X453127Y573022D01*
X453025Y573000D01*
X452923Y572984D01*
X452906Y572974D01*
X452886Y572970D01*
X452797Y572917D01*
X452706Y572868D01*
X452692Y572854D01*
X452675Y572844D01*
X452608Y572765D01*
X452536Y572690D01*
X452528Y572672D01*
X452515Y572657D01*
X452476Y572561D01*
X452433Y572467D01*
X452431Y572447D01*
X452423Y572429D01*
X452405Y572262D01*
X452405Y572215D01*
X451008Y568843D01*
X448427Y566262D01*
X445055Y564865D01*
X441405Y564865D01*
G37*
%LPD*%
G36*
X825749Y451124D02*
X825749Y451124D01*
X825865Y451141D01*
X825871Y451143D01*
X825877Y451144D01*
X825979Y451199D01*
X826085Y451252D01*
X826089Y451257D01*
X826094Y451260D01*
X826174Y451344D01*
X826257Y451428D01*
X826260Y451434D01*
X826264Y451438D01*
X826272Y451455D01*
X826338Y451575D01*
X826612Y452237D01*
X829193Y454818D01*
X830451Y455339D01*
X830490Y455363D01*
X830533Y455379D01*
X830594Y455428D01*
X830660Y455469D01*
X830689Y455504D01*
X830725Y455533D01*
X830767Y455598D01*
X830817Y455658D01*
X830833Y455701D01*
X830858Y455740D01*
X830877Y455815D01*
X830905Y455888D01*
X830907Y455934D01*
X830918Y455978D01*
X830912Y456056D01*
X830915Y456133D01*
X830903Y456178D01*
X830899Y456223D01*
X830868Y456295D01*
X830847Y456370D01*
X830821Y456407D01*
X830803Y456450D01*
X830717Y456556D01*
X830707Y456572D01*
X830702Y456575D01*
X830698Y456581D01*
X828832Y458446D01*
X819634Y467644D01*
X819560Y467697D01*
X819491Y467757D01*
X819461Y467769D01*
X819434Y467788D01*
X819347Y467815D01*
X819263Y467849D01*
X819222Y467853D01*
X819199Y467860D01*
X819167Y467859D01*
X819096Y467867D01*
X654975Y467867D01*
X654860Y467848D01*
X654744Y467831D01*
X654739Y467829D01*
X654732Y467828D01*
X654630Y467773D01*
X654525Y467720D01*
X654521Y467715D01*
X654515Y467712D01*
X654435Y467628D01*
X654353Y467544D01*
X654349Y467538D01*
X654346Y467534D01*
X654338Y467517D01*
X654272Y467397D01*
X654208Y467243D01*
X651627Y464662D01*
X650027Y463999D01*
X649944Y463948D01*
X649858Y463902D01*
X649840Y463884D01*
X649818Y463870D01*
X649756Y463794D01*
X649689Y463724D01*
X649678Y463700D01*
X649661Y463680D01*
X649626Y463589D01*
X649585Y463501D01*
X649582Y463475D01*
X649573Y463451D01*
X649569Y463353D01*
X649558Y463257D01*
X649564Y463231D01*
X649563Y463205D01*
X649590Y463111D01*
X649610Y463016D01*
X649624Y462994D01*
X649631Y462969D01*
X649687Y462889D01*
X649737Y462805D01*
X649756Y462788D01*
X649771Y462767D01*
X649849Y462708D01*
X649923Y462645D01*
X649948Y462635D01*
X649969Y462620D01*
X650061Y462590D01*
X650152Y462553D01*
X650184Y462550D01*
X650203Y462544D01*
X650236Y462544D01*
X650318Y462535D01*
X650487Y462535D01*
X661694Y451328D01*
X661768Y451275D01*
X661837Y451215D01*
X661867Y451203D01*
X661894Y451184D01*
X661981Y451157D01*
X662065Y451123D01*
X662106Y451119D01*
X662129Y451112D01*
X662161Y451113D01*
X662232Y451105D01*
X825634Y451105D01*
X825749Y451124D01*
G37*
%LPC*%
G36*
X173824Y495327D02*
X173824Y495327D01*
X170715Y498436D01*
X170715Y502832D01*
X172750Y504867D01*
X172803Y504941D01*
X172863Y505011D01*
X172875Y505041D01*
X172894Y505067D01*
X172921Y505154D01*
X172955Y505239D01*
X172959Y505280D01*
X172966Y505302D01*
X172965Y505334D01*
X172973Y505405D01*
X172973Y543045D01*
X211640Y581712D01*
X211693Y581786D01*
X211753Y581855D01*
X211765Y581885D01*
X211784Y581912D01*
X211811Y581999D01*
X211845Y582083D01*
X211849Y582124D01*
X211856Y582147D01*
X211855Y582179D01*
X211863Y582250D01*
X211863Y585128D01*
X214972Y588237D01*
X217850Y588237D01*
X217940Y588251D01*
X218031Y588259D01*
X218061Y588271D01*
X218093Y588276D01*
X218173Y588319D01*
X218257Y588355D01*
X218289Y588381D01*
X218310Y588392D01*
X218332Y588415D01*
X218388Y588460D01*
X298644Y668716D01*
X298712Y668810D01*
X298782Y668905D01*
X298784Y668911D01*
X298788Y668916D01*
X298822Y669027D01*
X298859Y669139D01*
X298859Y669145D01*
X298860Y669151D01*
X298857Y669268D01*
X298856Y669385D01*
X298854Y669392D01*
X298854Y669397D01*
X298848Y669414D01*
X298809Y669546D01*
X298325Y670715D01*
X298325Y671438D01*
X298314Y671509D01*
X298312Y671581D01*
X298294Y671630D01*
X298286Y671681D01*
X298252Y671744D01*
X298227Y671812D01*
X298195Y671852D01*
X298170Y671898D01*
X298118Y671948D01*
X298074Y672004D01*
X298030Y672032D01*
X297992Y672068D01*
X297927Y672098D01*
X297867Y672137D01*
X297816Y672149D01*
X297769Y672171D01*
X297698Y672179D01*
X297628Y672197D01*
X297576Y672193D01*
X297525Y672198D01*
X297454Y672183D01*
X297383Y672177D01*
X297335Y672157D01*
X297284Y672146D01*
X297223Y672109D01*
X297157Y672081D01*
X297101Y672036D01*
X297086Y672027D01*
X293845Y670685D01*
X290355Y670685D01*
X287847Y671724D01*
X287741Y671749D01*
X287635Y671778D01*
X287621Y671777D01*
X287607Y671780D01*
X287499Y671770D01*
X287390Y671764D01*
X287377Y671758D01*
X287363Y671757D01*
X287263Y671713D01*
X287162Y671672D01*
X287151Y671663D01*
X287138Y671657D01*
X287057Y671583D01*
X286974Y671513D01*
X286967Y671500D01*
X286957Y671491D01*
X286904Y671395D01*
X286848Y671302D01*
X286843Y671285D01*
X286838Y671275D01*
X286833Y671246D01*
X286804Y671140D01*
X286650Y670167D01*
X286173Y668702D01*
X285474Y667328D01*
X284568Y666082D01*
X283478Y664992D01*
X282232Y664086D01*
X280858Y663387D01*
X279393Y662910D01*
X278623Y662788D01*
X278623Y671698D01*
X278620Y671718D01*
X278622Y671737D01*
X278600Y671839D01*
X278583Y671941D01*
X278574Y671958D01*
X278570Y671978D01*
X278517Y672067D01*
X278468Y672158D01*
X278454Y672172D01*
X278444Y672189D01*
X278365Y672256D01*
X278290Y672327D01*
X278272Y672336D01*
X278257Y672349D01*
X278161Y672387D01*
X278067Y672431D01*
X278047Y672433D01*
X278029Y672441D01*
X277862Y672459D01*
X277099Y672459D01*
X277099Y672461D01*
X277862Y672461D01*
X277882Y672464D01*
X277901Y672462D01*
X278003Y672484D01*
X278105Y672501D01*
X278122Y672510D01*
X278142Y672514D01*
X278231Y672567D01*
X278322Y672616D01*
X278336Y672630D01*
X278353Y672640D01*
X278420Y672719D01*
X278491Y672794D01*
X278500Y672812D01*
X278513Y672827D01*
X278552Y672923D01*
X278595Y673017D01*
X278597Y673037D01*
X278605Y673055D01*
X278623Y673222D01*
X278623Y682132D01*
X279393Y682010D01*
X280858Y681533D01*
X282274Y680812D01*
X282321Y680797D01*
X282365Y680773D01*
X282438Y680760D01*
X282508Y680737D01*
X282558Y680738D01*
X282607Y680729D01*
X282680Y680740D01*
X282754Y680741D01*
X282801Y680758D01*
X282850Y680765D01*
X282916Y680799D01*
X282986Y680823D01*
X283025Y680854D01*
X283070Y680877D01*
X283121Y680929D01*
X283180Y680975D01*
X283207Y681017D01*
X283242Y681052D01*
X283301Y681160D01*
X283315Y681180D01*
X283317Y681188D01*
X283323Y681199D01*
X284661Y684431D01*
X287129Y686899D01*
X290355Y688235D01*
X293845Y688235D01*
X297071Y686899D01*
X299539Y684431D01*
X300875Y681205D01*
X300875Y680482D01*
X300886Y680411D01*
X300888Y680339D01*
X300906Y680290D01*
X300914Y680239D01*
X300948Y680176D01*
X300973Y680108D01*
X301005Y680068D01*
X301030Y680022D01*
X301082Y679972D01*
X301126Y679916D01*
X301170Y679888D01*
X301208Y679852D01*
X301273Y679822D01*
X301333Y679783D01*
X301384Y679771D01*
X301431Y679749D01*
X301502Y679741D01*
X301572Y679723D01*
X301624Y679727D01*
X301675Y679722D01*
X301746Y679737D01*
X301817Y679743D01*
X301865Y679763D01*
X301916Y679774D01*
X301977Y679811D01*
X302043Y679839D01*
X302099Y679884D01*
X302114Y679893D01*
X305355Y681235D01*
X308845Y681235D01*
X312071Y679899D01*
X314539Y677431D01*
X315875Y674205D01*
X315875Y670715D01*
X314539Y667489D01*
X312071Y665021D01*
X308845Y663685D01*
X305355Y663685D01*
X303620Y664404D01*
X303506Y664430D01*
X303393Y664459D01*
X303387Y664459D01*
X303380Y664460D01*
X303264Y664449D01*
X303148Y664440D01*
X303142Y664437D01*
X303136Y664437D01*
X303028Y664389D01*
X302921Y664344D01*
X302915Y664339D01*
X302911Y664337D01*
X302897Y664324D01*
X302790Y664239D01*
X222700Y584148D01*
X222647Y584074D01*
X222631Y584056D01*
X222608Y584032D01*
X222606Y584027D01*
X222587Y584005D01*
X222575Y583975D01*
X222556Y583948D01*
X222530Y583863D01*
X222505Y583809D01*
X222504Y583797D01*
X222495Y583777D01*
X222491Y583736D01*
X222484Y583713D01*
X222485Y583681D01*
X222477Y583610D01*
X222477Y580732D01*
X219368Y577623D01*
X216490Y577623D01*
X216400Y577609D01*
X216309Y577601D01*
X216279Y577589D01*
X216247Y577584D01*
X216167Y577541D01*
X216083Y577505D01*
X216051Y577479D01*
X216030Y577468D01*
X216008Y577445D01*
X215952Y577400D01*
X179294Y540742D01*
X179250Y540682D01*
X179212Y540641D01*
X179205Y540626D01*
X179181Y540599D01*
X179169Y540569D01*
X179150Y540542D01*
X179123Y540455D01*
X179110Y540423D01*
X179108Y540418D01*
X179108Y540417D01*
X179089Y540371D01*
X179085Y540330D01*
X179078Y540307D01*
X179079Y540275D01*
X179071Y540204D01*
X179071Y505405D01*
X179085Y505315D01*
X179093Y505224D01*
X179105Y505195D01*
X179110Y505163D01*
X179153Y505082D01*
X179189Y504998D01*
X179215Y504966D01*
X179226Y504945D01*
X179249Y504923D01*
X179294Y504867D01*
X181329Y502832D01*
X181329Y498436D01*
X178220Y495327D01*
X173824Y495327D01*
G37*
%LPD*%
%LPC*%
G36*
X64601Y370255D02*
X64601Y370255D01*
X64581Y370257D01*
X64563Y370265D01*
X64396Y370283D01*
X58929Y370283D01*
X59066Y370973D01*
X59502Y372027D01*
X60136Y372975D01*
X60875Y373714D01*
X60886Y373730D01*
X60902Y373743D01*
X60958Y373830D01*
X61018Y373914D01*
X61024Y373933D01*
X61035Y373950D01*
X61060Y374050D01*
X61091Y374149D01*
X61090Y374169D01*
X61095Y374188D01*
X61087Y374288D01*
X61089Y374300D01*
X61087Y374310D01*
X61084Y374395D01*
X61077Y374414D01*
X61076Y374433D01*
X61043Y374512D01*
X61036Y374540D01*
X61023Y374563D01*
X61000Y374626D01*
X60987Y374641D01*
X60980Y374660D01*
X60922Y374732D01*
X60910Y374751D01*
X60898Y374762D01*
X60875Y374791D01*
X59859Y375806D01*
X59859Y379762D01*
X61593Y381496D01*
X61605Y381512D01*
X61620Y381524D01*
X61677Y381612D01*
X61737Y381695D01*
X61743Y381714D01*
X61753Y381731D01*
X61779Y381832D01*
X61809Y381931D01*
X61809Y381950D01*
X61813Y381970D01*
X61805Y382073D01*
X61803Y382176D01*
X61796Y382195D01*
X61794Y382215D01*
X61754Y382310D01*
X61718Y382407D01*
X61706Y382423D01*
X61698Y382441D01*
X61593Y382572D01*
X59859Y384306D01*
X59859Y388262D01*
X61593Y389996D01*
X61605Y390012D01*
X61620Y390024D01*
X61677Y390112D01*
X61737Y390195D01*
X61743Y390214D01*
X61753Y390231D01*
X61779Y390332D01*
X61809Y390431D01*
X61809Y390450D01*
X61813Y390470D01*
X61805Y390573D01*
X61803Y390676D01*
X61796Y390695D01*
X61794Y390715D01*
X61754Y390810D01*
X61718Y390907D01*
X61706Y390923D01*
X61698Y390941D01*
X61593Y391072D01*
X59859Y392806D01*
X59859Y396610D01*
X59848Y396681D01*
X59846Y396752D01*
X59828Y396801D01*
X59820Y396853D01*
X59786Y396916D01*
X59761Y396983D01*
X59729Y397024D01*
X59704Y397070D01*
X59652Y397119D01*
X59608Y397175D01*
X59564Y397204D01*
X59526Y397239D01*
X59461Y397270D01*
X59401Y397308D01*
X59350Y397321D01*
X59303Y397343D01*
X59232Y397351D01*
X59162Y397368D01*
X59110Y397364D01*
X59059Y397370D01*
X58988Y397355D01*
X58917Y397349D01*
X58869Y397329D01*
X58818Y397318D01*
X58757Y397281D01*
X58691Y397253D01*
X58635Y397208D01*
X58607Y397192D01*
X58592Y397174D01*
X58560Y397148D01*
X56132Y394720D01*
X56079Y394646D01*
X56019Y394577D01*
X56007Y394547D01*
X55988Y394520D01*
X55961Y394433D01*
X55927Y394349D01*
X55923Y394308D01*
X55916Y394285D01*
X55917Y394253D01*
X55909Y394182D01*
X55909Y392806D01*
X54175Y391072D01*
X54163Y391056D01*
X54148Y391044D01*
X54091Y390956D01*
X54031Y390873D01*
X54025Y390854D01*
X54015Y390837D01*
X53989Y390736D01*
X53959Y390637D01*
X53959Y390618D01*
X53955Y390598D01*
X53963Y390495D01*
X53965Y390392D01*
X53972Y390373D01*
X53974Y390353D01*
X54014Y390258D01*
X54050Y390161D01*
X54062Y390145D01*
X54070Y390127D01*
X54175Y389996D01*
X55909Y388262D01*
X55909Y384306D01*
X54175Y382572D01*
X54163Y382556D01*
X54148Y382544D01*
X54091Y382456D01*
X54031Y382373D01*
X54025Y382354D01*
X54015Y382337D01*
X53989Y382236D01*
X53959Y382137D01*
X53959Y382118D01*
X53955Y382098D01*
X53963Y381995D01*
X53965Y381892D01*
X53972Y381873D01*
X53974Y381853D01*
X54014Y381758D01*
X54050Y381661D01*
X54062Y381645D01*
X54070Y381627D01*
X54175Y381496D01*
X55909Y379762D01*
X55909Y375806D01*
X54893Y374791D01*
X54882Y374775D01*
X54866Y374762D01*
X54837Y374717D01*
X54810Y374689D01*
X54792Y374650D01*
X54750Y374591D01*
X54744Y374572D01*
X54733Y374555D01*
X54715Y374484D01*
X54706Y374465D01*
X54704Y374442D01*
X54677Y374356D01*
X54678Y374336D01*
X54673Y374317D01*
X54680Y374227D01*
X54679Y374221D01*
X54681Y374213D01*
X54684Y374110D01*
X54691Y374091D01*
X54692Y374071D01*
X54732Y373976D01*
X54768Y373879D01*
X54781Y373863D01*
X54788Y373845D01*
X54893Y373714D01*
X55632Y372975D01*
X56266Y372027D01*
X56702Y370973D01*
X56839Y370283D01*
X51372Y370283D01*
X51353Y370280D01*
X51333Y370282D01*
X51231Y370260D01*
X51129Y370244D01*
X51128Y370243D01*
X51101Y370255D01*
X51081Y370257D01*
X51063Y370265D01*
X50896Y370283D01*
X45429Y370283D01*
X45566Y370973D01*
X46002Y372027D01*
X46636Y372975D01*
X47375Y373714D01*
X47386Y373730D01*
X47402Y373743D01*
X47458Y373830D01*
X47518Y373914D01*
X47524Y373933D01*
X47535Y373950D01*
X47560Y374050D01*
X47591Y374149D01*
X47590Y374169D01*
X47595Y374188D01*
X47587Y374288D01*
X47589Y374300D01*
X47587Y374310D01*
X47584Y374395D01*
X47577Y374414D01*
X47576Y374433D01*
X47543Y374512D01*
X47536Y374540D01*
X47523Y374563D01*
X47500Y374626D01*
X47487Y374641D01*
X47480Y374660D01*
X47422Y374732D01*
X47410Y374751D01*
X47398Y374762D01*
X47375Y374791D01*
X46359Y375806D01*
X46359Y376496D01*
X46345Y376586D01*
X46337Y376677D01*
X46325Y376707D01*
X46320Y376739D01*
X46277Y376819D01*
X46241Y376903D01*
X46215Y376935D01*
X46204Y376956D01*
X46181Y376978D01*
X46136Y377034D01*
X40385Y382785D01*
X40385Y415029D01*
X46136Y420780D01*
X46189Y420854D01*
X46249Y420923D01*
X46261Y420953D01*
X46280Y420980D01*
X46307Y421067D01*
X46341Y421151D01*
X46345Y421192D01*
X46352Y421215D01*
X46351Y421247D01*
X46359Y421318D01*
X46359Y422262D01*
X47375Y423277D01*
X47386Y423293D01*
X47402Y423306D01*
X47458Y423393D01*
X47518Y423477D01*
X47524Y423496D01*
X47535Y423513D01*
X47560Y423613D01*
X47591Y423712D01*
X47590Y423732D01*
X47595Y423751D01*
X47587Y423854D01*
X47584Y423958D01*
X47577Y423977D01*
X47576Y423997D01*
X47536Y424092D01*
X47500Y424189D01*
X47487Y424205D01*
X47480Y424223D01*
X47375Y424354D01*
X46636Y425093D01*
X46002Y426041D01*
X45566Y427095D01*
X45429Y427785D01*
X50896Y427785D01*
X50915Y427788D01*
X50935Y427786D01*
X51037Y427808D01*
X51139Y427824D01*
X51140Y427825D01*
X51167Y427813D01*
X51187Y427811D01*
X51205Y427803D01*
X51372Y427785D01*
X56839Y427785D01*
X56702Y427095D01*
X56266Y426041D01*
X55632Y425093D01*
X54893Y424354D01*
X54882Y424338D01*
X54866Y424325D01*
X54810Y424238D01*
X54750Y424154D01*
X54744Y424135D01*
X54733Y424118D01*
X54708Y424018D01*
X54677Y423919D01*
X54678Y423899D01*
X54673Y423880D01*
X54681Y423777D01*
X54684Y423673D01*
X54691Y423654D01*
X54692Y423635D01*
X54732Y423540D01*
X54768Y423442D01*
X54781Y423427D01*
X54788Y423408D01*
X54893Y423277D01*
X55909Y422262D01*
X55909Y418306D01*
X54175Y416572D01*
X54163Y416556D01*
X54148Y416544D01*
X54091Y416456D01*
X54031Y416373D01*
X54025Y416354D01*
X54015Y416337D01*
X53989Y416236D01*
X53959Y416137D01*
X53959Y416118D01*
X53955Y416098D01*
X53963Y415995D01*
X53965Y415892D01*
X53972Y415873D01*
X53974Y415853D01*
X54014Y415758D01*
X54050Y415661D01*
X54062Y415645D01*
X54070Y415627D01*
X54175Y415496D01*
X55909Y413762D01*
X55909Y409806D01*
X54175Y408072D01*
X54163Y408056D01*
X54148Y408044D01*
X54091Y407956D01*
X54031Y407873D01*
X54025Y407854D01*
X54015Y407837D01*
X53989Y407736D01*
X53959Y407637D01*
X53959Y407618D01*
X53955Y407598D01*
X53963Y407495D01*
X53965Y407392D01*
X53972Y407373D01*
X53974Y407353D01*
X54014Y407258D01*
X54050Y407161D01*
X54062Y407145D01*
X54070Y407127D01*
X54175Y406996D01*
X55909Y405262D01*
X55909Y404958D01*
X55920Y404887D01*
X55922Y404816D01*
X55940Y404767D01*
X55948Y404715D01*
X55982Y404652D01*
X56007Y404585D01*
X56039Y404544D01*
X56064Y404498D01*
X56116Y404449D01*
X56160Y404393D01*
X56204Y404364D01*
X56242Y404329D01*
X56307Y404298D01*
X56367Y404260D01*
X56418Y404247D01*
X56465Y404225D01*
X56536Y404217D01*
X56606Y404200D01*
X56658Y404204D01*
X56709Y404198D01*
X56780Y404213D01*
X56851Y404219D01*
X56899Y404239D01*
X56950Y404250D01*
X57011Y404287D01*
X57077Y404315D01*
X57133Y404360D01*
X57161Y404376D01*
X57176Y404394D01*
X57208Y404420D01*
X58173Y405385D01*
X59667Y405385D01*
X59757Y405399D01*
X59848Y405407D01*
X59878Y405419D01*
X59910Y405424D01*
X59990Y405467D01*
X60074Y405503D01*
X60106Y405529D01*
X60127Y405540D01*
X60149Y405563D01*
X60205Y405608D01*
X61593Y406996D01*
X61605Y407012D01*
X61620Y407024D01*
X61676Y407111D01*
X61737Y407195D01*
X61743Y407215D01*
X61753Y407231D01*
X61779Y407332D01*
X61809Y407431D01*
X61809Y407450D01*
X61813Y407470D01*
X61805Y407573D01*
X61803Y407676D01*
X61796Y407695D01*
X61794Y407715D01*
X61754Y407810D01*
X61718Y407907D01*
X61706Y407923D01*
X61698Y407941D01*
X61593Y408072D01*
X59859Y409806D01*
X59859Y413762D01*
X61593Y415496D01*
X61605Y415512D01*
X61620Y415524D01*
X61677Y415612D01*
X61737Y415695D01*
X61743Y415714D01*
X61753Y415731D01*
X61779Y415832D01*
X61809Y415931D01*
X61809Y415950D01*
X61813Y415970D01*
X61805Y416073D01*
X61803Y416176D01*
X61796Y416195D01*
X61794Y416215D01*
X61754Y416310D01*
X61718Y416407D01*
X61706Y416423D01*
X61698Y416441D01*
X61593Y416572D01*
X59859Y418306D01*
X59859Y422262D01*
X60875Y423277D01*
X60886Y423293D01*
X60902Y423306D01*
X60958Y423393D01*
X61018Y423477D01*
X61024Y423496D01*
X61035Y423513D01*
X61060Y423613D01*
X61091Y423712D01*
X61090Y423732D01*
X61095Y423751D01*
X61087Y423854D01*
X61084Y423958D01*
X61077Y423977D01*
X61076Y423997D01*
X61036Y424092D01*
X61000Y424189D01*
X60987Y424205D01*
X60980Y424223D01*
X60875Y424354D01*
X60136Y425093D01*
X59502Y426041D01*
X59066Y427095D01*
X58929Y427785D01*
X64396Y427785D01*
X64415Y427788D01*
X64435Y427786D01*
X64537Y427808D01*
X64639Y427824D01*
X64640Y427825D01*
X64667Y427813D01*
X64687Y427811D01*
X64705Y427803D01*
X64872Y427785D01*
X70339Y427785D01*
X70202Y427095D01*
X69766Y426041D01*
X69132Y425093D01*
X68393Y424354D01*
X68382Y424338D01*
X68366Y424325D01*
X68310Y424238D01*
X68250Y424154D01*
X68244Y424135D01*
X68233Y424118D01*
X68208Y424018D01*
X68177Y423919D01*
X68178Y423899D01*
X68173Y423880D01*
X68181Y423777D01*
X68184Y423673D01*
X68191Y423654D01*
X68192Y423635D01*
X68232Y423540D01*
X68268Y423442D01*
X68281Y423427D01*
X68288Y423408D01*
X68393Y423277D01*
X69409Y422262D01*
X69409Y422136D01*
X69423Y422046D01*
X69431Y421955D01*
X69443Y421925D01*
X69448Y421893D01*
X69491Y421813D01*
X69527Y421729D01*
X69553Y421697D01*
X69564Y421676D01*
X69587Y421654D01*
X69632Y421598D01*
X76201Y415029D01*
X76201Y382785D01*
X69632Y376216D01*
X69579Y376142D01*
X69519Y376073D01*
X69507Y376043D01*
X69488Y376016D01*
X69461Y375929D01*
X69427Y375845D01*
X69425Y375822D01*
X68393Y374791D01*
X68382Y374775D01*
X68366Y374762D01*
X68337Y374717D01*
X68310Y374689D01*
X68292Y374650D01*
X68250Y374591D01*
X68244Y374572D01*
X68233Y374555D01*
X68215Y374484D01*
X68206Y374465D01*
X68204Y374442D01*
X68177Y374356D01*
X68178Y374336D01*
X68173Y374317D01*
X68180Y374227D01*
X68179Y374221D01*
X68181Y374213D01*
X68184Y374110D01*
X68191Y374091D01*
X68192Y374071D01*
X68232Y373976D01*
X68268Y373879D01*
X68281Y373863D01*
X68288Y373845D01*
X68393Y373714D01*
X69132Y372975D01*
X69766Y372027D01*
X70202Y370973D01*
X70339Y370283D01*
X64872Y370283D01*
X64853Y370280D01*
X64833Y370282D01*
X64731Y370260D01*
X64629Y370244D01*
X64628Y370243D01*
X64601Y370255D01*
G37*
%LPD*%
%LPC*%
G36*
X126778Y283265D02*
X126778Y283265D01*
X125885Y284158D01*
X125885Y304922D01*
X126778Y305815D01*
X147542Y305815D01*
X148435Y304922D01*
X148435Y284158D01*
X147542Y283265D01*
X126778Y283265D01*
G37*
%LPD*%
%LPC*%
G36*
X772457Y283265D02*
X772457Y283265D01*
X768313Y284982D01*
X765142Y288153D01*
X763425Y292297D01*
X763425Y296783D01*
X765142Y300927D01*
X768313Y304098D01*
X772457Y305815D01*
X776943Y305815D01*
X781087Y304098D01*
X784258Y300927D01*
X785975Y296783D01*
X785975Y292297D01*
X784258Y288153D01*
X781087Y284982D01*
X776943Y283265D01*
X772457Y283265D01*
G37*
%LPD*%
%LPC*%
G36*
X134917Y207265D02*
X134917Y207265D01*
X130773Y208982D01*
X127602Y212153D01*
X125885Y216297D01*
X125885Y220783D01*
X127602Y224927D01*
X130773Y228098D01*
X134917Y229815D01*
X139403Y229815D01*
X143547Y228098D01*
X146718Y224927D01*
X148435Y220783D01*
X148435Y216297D01*
X146718Y212153D01*
X143547Y208982D01*
X139403Y207265D01*
X134917Y207265D01*
G37*
%LPD*%
%LPC*%
G36*
X287317Y283265D02*
X287317Y283265D01*
X283173Y284982D01*
X280002Y288153D01*
X278285Y292297D01*
X278285Y296783D01*
X280002Y300927D01*
X283173Y304098D01*
X287317Y305815D01*
X291803Y305815D01*
X295947Y304098D01*
X299118Y300927D01*
X300835Y296783D01*
X300835Y292297D01*
X299118Y288153D01*
X295947Y284982D01*
X291803Y283265D01*
X287317Y283265D01*
G37*
%LPD*%
%LPC*%
G36*
X747057Y207265D02*
X747057Y207265D01*
X742913Y208982D01*
X739742Y212153D01*
X738025Y216297D01*
X738025Y220783D01*
X739742Y224927D01*
X742913Y228098D01*
X747057Y229815D01*
X751543Y229815D01*
X755687Y228098D01*
X758858Y224927D01*
X760575Y220783D01*
X760575Y216297D01*
X758858Y212153D01*
X755687Y208982D01*
X751543Y207265D01*
X747057Y207265D01*
G37*
%LPD*%
%LPC*%
G36*
X620057Y207265D02*
X620057Y207265D01*
X615913Y208982D01*
X612742Y212153D01*
X611025Y216297D01*
X611025Y220783D01*
X612742Y224927D01*
X615913Y228098D01*
X620057Y229815D01*
X624543Y229815D01*
X628687Y228098D01*
X631858Y224927D01*
X633575Y220783D01*
X633575Y216297D01*
X631858Y212153D01*
X628687Y208982D01*
X624543Y207265D01*
X620057Y207265D01*
G37*
%LPD*%
%LPC*%
G36*
X261917Y207265D02*
X261917Y207265D01*
X257773Y208982D01*
X254602Y212153D01*
X252885Y216297D01*
X252885Y220783D01*
X254602Y224927D01*
X257773Y228098D01*
X261917Y229815D01*
X266403Y229815D01*
X270547Y228098D01*
X273718Y224927D01*
X275435Y220783D01*
X275435Y216297D01*
X273718Y212153D01*
X270547Y208982D01*
X266403Y207265D01*
X261917Y207265D01*
G37*
%LPD*%
%LPC*%
G36*
X368604Y237680D02*
X368604Y237680D01*
X364473Y239391D01*
X361311Y242553D01*
X359600Y246684D01*
X359600Y251156D01*
X361311Y255287D01*
X364473Y258449D01*
X368604Y260160D01*
X373076Y260160D01*
X377207Y258449D01*
X380369Y255287D01*
X382080Y251156D01*
X382080Y246684D01*
X380369Y242553D01*
X377207Y239391D01*
X373076Y237680D01*
X368604Y237680D01*
G37*
%LPD*%
%LPC*%
G36*
X394004Y237680D02*
X394004Y237680D01*
X389873Y239391D01*
X386711Y242553D01*
X385000Y246684D01*
X385000Y251156D01*
X386711Y255287D01*
X389873Y258449D01*
X394004Y260160D01*
X398476Y260160D01*
X402607Y258449D01*
X405769Y255287D01*
X407480Y251156D01*
X407480Y246684D01*
X405769Y242553D01*
X402607Y239391D01*
X398476Y237680D01*
X394004Y237680D01*
G37*
%LPD*%
%LPC*%
G36*
X876604Y232600D02*
X876604Y232600D01*
X872473Y234311D01*
X869311Y237473D01*
X867600Y241604D01*
X867600Y246076D01*
X869311Y250207D01*
X872473Y253369D01*
X876604Y255080D01*
X881076Y255080D01*
X885207Y253369D01*
X888369Y250207D01*
X890080Y246076D01*
X890080Y241604D01*
X888369Y237473D01*
X885207Y234311D01*
X881076Y232600D01*
X876604Y232600D01*
G37*
%LPD*%
%LPC*%
G36*
X851204Y232600D02*
X851204Y232600D01*
X847073Y234311D01*
X843911Y237473D01*
X842200Y241604D01*
X842200Y246076D01*
X843911Y250207D01*
X847073Y253369D01*
X851204Y255080D01*
X855676Y255080D01*
X859807Y253369D01*
X862969Y250207D01*
X864680Y246076D01*
X864680Y241604D01*
X862969Y237473D01*
X859807Y234311D01*
X855676Y232600D01*
X851204Y232600D01*
G37*
%LPD*%
%LPC*%
G36*
X434948Y742665D02*
X434948Y742665D01*
X434055Y743558D01*
X434055Y760122D01*
X434948Y761015D01*
X451512Y761015D01*
X452405Y760122D01*
X452405Y743558D01*
X451512Y742665D01*
X434948Y742665D01*
G37*
%LPD*%
%LPC*%
G36*
X826108Y742665D02*
X826108Y742665D01*
X825215Y743558D01*
X825215Y760122D01*
X826108Y761015D01*
X842672Y761015D01*
X843565Y760122D01*
X843565Y743558D01*
X842672Y742665D01*
X826108Y742665D01*
G37*
%LPD*%
%LPC*%
G36*
X302975Y384525D02*
X302975Y384525D01*
X299603Y385922D01*
X297022Y388503D01*
X295625Y391875D01*
X295625Y395525D01*
X297022Y398897D01*
X299603Y401478D01*
X302975Y402875D01*
X306625Y402875D01*
X309997Y401478D01*
X312578Y398897D01*
X313975Y395525D01*
X313975Y391875D01*
X312578Y388503D01*
X309997Y385922D01*
X306625Y384525D01*
X302975Y384525D01*
G37*
%LPD*%
%LPC*%
G36*
X302975Y409925D02*
X302975Y409925D01*
X299603Y411322D01*
X297022Y413903D01*
X295625Y417275D01*
X295625Y420925D01*
X297022Y424297D01*
X299603Y426878D01*
X302975Y428275D01*
X306625Y428275D01*
X309997Y426878D01*
X312578Y424297D01*
X313975Y420925D01*
X313975Y417275D01*
X312578Y413903D01*
X309997Y411322D01*
X306625Y409925D01*
X302975Y409925D01*
G37*
%LPD*%
%LPC*%
G36*
X857965Y641065D02*
X857965Y641065D01*
X854593Y642462D01*
X852012Y645043D01*
X850615Y648415D01*
X850615Y652065D01*
X852012Y655437D01*
X854593Y658018D01*
X857965Y659415D01*
X861615Y659415D01*
X864987Y658018D01*
X867568Y655437D01*
X868965Y652065D01*
X868965Y648415D01*
X867568Y645043D01*
X864987Y642462D01*
X861615Y641065D01*
X857965Y641065D01*
G37*
%LPD*%
%LPC*%
G36*
X441405Y488665D02*
X441405Y488665D01*
X438033Y490062D01*
X435452Y492643D01*
X434055Y496015D01*
X434055Y499665D01*
X435452Y503037D01*
X438033Y505618D01*
X441405Y507015D01*
X445055Y507015D01*
X448427Y505618D01*
X451008Y503037D01*
X452405Y499665D01*
X452405Y496015D01*
X451008Y492643D01*
X448427Y490062D01*
X445055Y488665D01*
X441405Y488665D01*
G37*
%LPD*%
%LPC*%
G36*
X857965Y742665D02*
X857965Y742665D01*
X854593Y744062D01*
X852012Y746643D01*
X850615Y750015D01*
X850615Y753665D01*
X852012Y757037D01*
X854593Y759618D01*
X857965Y761015D01*
X861615Y761015D01*
X864987Y759618D01*
X867568Y757037D01*
X868965Y753665D01*
X868965Y750015D01*
X867568Y746643D01*
X864987Y744062D01*
X861615Y742665D01*
X857965Y742665D01*
G37*
%LPD*%
%LPC*%
G36*
X857965Y717265D02*
X857965Y717265D01*
X854593Y718662D01*
X852012Y721243D01*
X850615Y724615D01*
X850615Y728265D01*
X852012Y731637D01*
X854593Y734218D01*
X857965Y735615D01*
X861615Y735615D01*
X864987Y734218D01*
X867568Y731637D01*
X868965Y728265D01*
X868965Y724615D01*
X867568Y721243D01*
X864987Y718662D01*
X861615Y717265D01*
X857965Y717265D01*
G37*
%LPD*%
%LPC*%
G36*
X441405Y717265D02*
X441405Y717265D01*
X438033Y718662D01*
X435452Y721243D01*
X434055Y724615D01*
X434055Y728265D01*
X435452Y731637D01*
X438033Y734218D01*
X441405Y735615D01*
X445055Y735615D01*
X448427Y734218D01*
X451008Y731637D01*
X452405Y728265D01*
X452405Y724615D01*
X451008Y721243D01*
X448427Y718662D01*
X445055Y717265D01*
X441405Y717265D01*
G37*
%LPD*%
%LPC*%
G36*
X832565Y717265D02*
X832565Y717265D01*
X829193Y718662D01*
X826612Y721243D01*
X825215Y724615D01*
X825215Y728265D01*
X826612Y731637D01*
X829193Y734218D01*
X832565Y735615D01*
X836215Y735615D01*
X839587Y734218D01*
X842168Y731637D01*
X843565Y728265D01*
X843565Y724615D01*
X842168Y721243D01*
X839587Y718662D01*
X836215Y717265D01*
X832565Y717265D01*
G37*
%LPD*%
%LPC*%
G36*
X832565Y691865D02*
X832565Y691865D01*
X829193Y693262D01*
X826612Y695843D01*
X825215Y699215D01*
X825215Y702865D01*
X826612Y706237D01*
X829193Y708818D01*
X832565Y710215D01*
X836215Y710215D01*
X839587Y708818D01*
X842168Y706237D01*
X843565Y702865D01*
X843565Y699215D01*
X842168Y695843D01*
X839587Y693262D01*
X836215Y691865D01*
X832565Y691865D01*
G37*
%LPD*%
%LPC*%
G36*
X441405Y691865D02*
X441405Y691865D01*
X438033Y693262D01*
X435452Y695843D01*
X434055Y699215D01*
X434055Y702865D01*
X435452Y706237D01*
X438033Y708818D01*
X441405Y710215D01*
X445055Y710215D01*
X448427Y708818D01*
X451008Y706237D01*
X452405Y702865D01*
X452405Y699215D01*
X451008Y695843D01*
X448427Y693262D01*
X445055Y691865D01*
X441405Y691865D01*
G37*
%LPD*%
%LPC*%
G36*
X441405Y361665D02*
X441405Y361665D01*
X438033Y363062D01*
X435452Y365643D01*
X434055Y369015D01*
X434055Y372665D01*
X435452Y376037D01*
X438033Y378618D01*
X441405Y380015D01*
X445055Y380015D01*
X448427Y378618D01*
X451008Y376037D01*
X452405Y372665D01*
X452405Y369015D01*
X451008Y365643D01*
X448427Y363062D01*
X445055Y361665D01*
X441405Y361665D01*
G37*
%LPD*%
%LPC*%
G36*
X644605Y361665D02*
X644605Y361665D01*
X641233Y363062D01*
X638652Y365643D01*
X637255Y369015D01*
X637255Y372665D01*
X638652Y376037D01*
X641233Y378618D01*
X644605Y380015D01*
X648255Y380015D01*
X651627Y378618D01*
X654208Y376037D01*
X655605Y372665D01*
X655605Y369015D01*
X654208Y365643D01*
X651627Y363062D01*
X648255Y361665D01*
X644605Y361665D01*
G37*
%LPD*%
%LPC*%
G36*
X857965Y361665D02*
X857965Y361665D01*
X854593Y363062D01*
X852012Y365643D01*
X850615Y369015D01*
X850615Y372665D01*
X852012Y376037D01*
X854593Y378618D01*
X857965Y380015D01*
X861615Y380015D01*
X864987Y378618D01*
X867568Y376037D01*
X868965Y372665D01*
X868965Y369015D01*
X867568Y365643D01*
X864987Y363062D01*
X861615Y361665D01*
X857965Y361665D01*
G37*
%LPD*%
%LPC*%
G36*
X54817Y356765D02*
X54817Y356765D01*
X54808Y356782D01*
X54804Y356802D01*
X54751Y356891D01*
X54702Y356982D01*
X54688Y356996D01*
X54678Y357013D01*
X54599Y357080D01*
X54524Y357152D01*
X54506Y357160D01*
X54491Y357173D01*
X54394Y357212D01*
X54301Y357255D01*
X54281Y357257D01*
X54263Y357265D01*
X54096Y357283D01*
X41353Y357283D01*
X41524Y358141D01*
X42133Y359612D01*
X43017Y360935D01*
X44143Y362061D01*
X45466Y362945D01*
X46937Y363554D01*
X46989Y363565D01*
X47101Y363607D01*
X47214Y363648D01*
X47217Y363650D01*
X47220Y363651D01*
X47312Y363726D01*
X47406Y363802D01*
X47408Y363804D01*
X47410Y363806D01*
X47472Y363904D01*
X47539Y364008D01*
X47540Y364011D01*
X47542Y364014D01*
X47570Y364131D01*
X47599Y364247D01*
X47599Y364250D01*
X47600Y364253D01*
X47589Y364375D01*
X47580Y364492D01*
X47579Y364495D01*
X47579Y364498D01*
X47530Y364611D01*
X47484Y364719D01*
X47482Y364721D01*
X47481Y364724D01*
X47473Y364732D01*
X47379Y364850D01*
X46636Y365593D01*
X46002Y366541D01*
X45566Y367595D01*
X45429Y368285D01*
X50896Y368285D01*
X50915Y368288D01*
X50935Y368286D01*
X51037Y368308D01*
X51139Y368324D01*
X51140Y368325D01*
X51167Y368313D01*
X51187Y368311D01*
X51205Y368303D01*
X51372Y368285D01*
X56839Y368285D01*
X56702Y367595D01*
X56266Y366541D01*
X55632Y365593D01*
X55204Y365164D01*
X55162Y365106D01*
X55112Y365054D01*
X55090Y365007D01*
X55060Y364965D01*
X55039Y364896D01*
X55009Y364831D01*
X55003Y364779D01*
X54988Y364729D01*
X54990Y364658D01*
X54982Y364587D01*
X54993Y364536D01*
X54994Y364484D01*
X55019Y364416D01*
X55034Y364346D01*
X55061Y364301D01*
X55078Y364253D01*
X55123Y364197D01*
X55160Y364135D01*
X55200Y364101D01*
X55232Y364061D01*
X55292Y364022D01*
X55347Y363975D01*
X55395Y363956D01*
X55439Y363928D01*
X55508Y363910D01*
X55575Y363883D01*
X55646Y363875D01*
X55678Y363867D01*
X55701Y363869D01*
X55742Y363865D01*
X60026Y363865D01*
X60097Y363876D01*
X60169Y363878D01*
X60218Y363896D01*
X60269Y363904D01*
X60332Y363938D01*
X60400Y363963D01*
X60440Y363995D01*
X60486Y364020D01*
X60536Y364072D01*
X60592Y364116D01*
X60620Y364160D01*
X60656Y364198D01*
X60686Y364263D01*
X60725Y364323D01*
X60737Y364374D01*
X60759Y364421D01*
X60767Y364492D01*
X60785Y364562D01*
X60781Y364614D01*
X60786Y364665D01*
X60771Y364736D01*
X60766Y364807D01*
X60745Y364855D01*
X60734Y364906D01*
X60697Y364967D01*
X60669Y365033D01*
X60624Y365089D01*
X60608Y365117D01*
X60590Y365132D01*
X60564Y365164D01*
X60136Y365593D01*
X59502Y366541D01*
X59066Y367595D01*
X58929Y368285D01*
X64396Y368285D01*
X64415Y368288D01*
X64435Y368286D01*
X64537Y368308D01*
X64639Y368324D01*
X64640Y368325D01*
X64667Y368313D01*
X64687Y368311D01*
X64705Y368303D01*
X64872Y368285D01*
X70339Y368285D01*
X70202Y367595D01*
X69766Y366541D01*
X69132Y365593D01*
X68325Y364786D01*
X67377Y364152D01*
X66323Y363716D01*
X65602Y363572D01*
X65535Y363547D01*
X65465Y363531D01*
X65420Y363504D01*
X65372Y363486D01*
X65316Y363441D01*
X65255Y363403D01*
X65221Y363364D01*
X65181Y363331D01*
X65143Y363270D01*
X65096Y363215D01*
X65077Y363167D01*
X65050Y363123D01*
X65033Y363053D01*
X65006Y362986D01*
X65004Y362934D01*
X64991Y362884D01*
X64998Y362812D01*
X64994Y362741D01*
X65008Y362691D01*
X65012Y362639D01*
X65041Y362573D01*
X65061Y362504D01*
X65090Y362461D01*
X65111Y362413D01*
X65159Y362360D01*
X65199Y362301D01*
X65254Y362255D01*
X65276Y362231D01*
X65296Y362219D01*
X65328Y362193D01*
X65525Y362061D01*
X66651Y360935D01*
X67535Y359612D01*
X68144Y358141D01*
X68315Y357283D01*
X55572Y357283D01*
X55553Y357280D01*
X55533Y357282D01*
X55431Y357260D01*
X55329Y357244D01*
X55312Y357234D01*
X55292Y357230D01*
X55203Y357177D01*
X55112Y357128D01*
X55098Y357114D01*
X55081Y357104D01*
X55014Y357025D01*
X54943Y356950D01*
X54934Y356932D01*
X54921Y356917D01*
X54883Y356821D01*
X54839Y356727D01*
X54837Y356707D01*
X54830Y356689D01*
X54817Y356765D01*
G37*
%LPD*%
%LPC*%
G36*
X64601Y429755D02*
X64601Y429755D01*
X64581Y429757D01*
X64563Y429765D01*
X64396Y429783D01*
X58929Y429783D01*
X59066Y430473D01*
X59502Y431527D01*
X60136Y432475D01*
X60564Y432904D01*
X60606Y432962D01*
X60656Y433014D01*
X60678Y433061D01*
X60708Y433103D01*
X60729Y433172D01*
X60759Y433237D01*
X60765Y433289D01*
X60780Y433339D01*
X60778Y433410D01*
X60786Y433481D01*
X60775Y433532D01*
X60774Y433584D01*
X60749Y433652D01*
X60734Y433722D01*
X60707Y433767D01*
X60690Y433815D01*
X60645Y433871D01*
X60608Y433933D01*
X60568Y433967D01*
X60536Y434007D01*
X60476Y434046D01*
X60421Y434093D01*
X60373Y434112D01*
X60329Y434140D01*
X60260Y434158D01*
X60193Y434185D01*
X60122Y434193D01*
X60090Y434201D01*
X60067Y434199D01*
X60026Y434203D01*
X55742Y434203D01*
X55671Y434192D01*
X55599Y434190D01*
X55550Y434172D01*
X55499Y434164D01*
X55436Y434130D01*
X55368Y434105D01*
X55328Y434073D01*
X55282Y434048D01*
X55232Y433996D01*
X55176Y433952D01*
X55148Y433908D01*
X55112Y433870D01*
X55082Y433805D01*
X55043Y433745D01*
X55031Y433694D01*
X55009Y433647D01*
X55001Y433576D01*
X54983Y433506D01*
X54987Y433454D01*
X54982Y433403D01*
X54997Y433332D01*
X55002Y433261D01*
X55023Y433213D01*
X55034Y433162D01*
X55071Y433101D01*
X55099Y433035D01*
X55144Y432979D01*
X55160Y432951D01*
X55178Y432936D01*
X55204Y432904D01*
X55632Y432475D01*
X56266Y431527D01*
X56702Y430473D01*
X56839Y429783D01*
X51372Y429783D01*
X51353Y429780D01*
X51333Y429782D01*
X51231Y429760D01*
X51129Y429744D01*
X51128Y429743D01*
X51101Y429755D01*
X51081Y429757D01*
X51063Y429765D01*
X50896Y429783D01*
X45429Y429783D01*
X45566Y430473D01*
X46002Y431527D01*
X46636Y432475D01*
X47379Y433218D01*
X47449Y433316D01*
X47520Y433413D01*
X47521Y433416D01*
X47523Y433418D01*
X47558Y433533D01*
X47594Y433647D01*
X47594Y433650D01*
X47595Y433653D01*
X47592Y433774D01*
X47590Y433893D01*
X47589Y433896D01*
X47589Y433899D01*
X47547Y434013D01*
X47507Y434125D01*
X47505Y434127D01*
X47504Y434130D01*
X47430Y434223D01*
X47355Y434318D01*
X47352Y434320D01*
X47351Y434322D01*
X47251Y434386D01*
X47149Y434453D01*
X47146Y434454D01*
X47144Y434455D01*
X47133Y434458D01*
X46989Y434503D01*
X46937Y434514D01*
X45466Y435123D01*
X44143Y436007D01*
X43017Y437133D01*
X42133Y438456D01*
X41524Y439927D01*
X41353Y440785D01*
X54096Y440785D01*
X54115Y440788D01*
X54135Y440786D01*
X54237Y440808D01*
X54339Y440824D01*
X54356Y440834D01*
X54376Y440838D01*
X54465Y440891D01*
X54556Y440940D01*
X54570Y440954D01*
X54587Y440964D01*
X54654Y441043D01*
X54725Y441118D01*
X54734Y441136D01*
X54747Y441151D01*
X54785Y441247D01*
X54829Y441341D01*
X54831Y441361D01*
X54838Y441379D01*
X54851Y441303D01*
X54860Y441286D01*
X54864Y441266D01*
X54917Y441177D01*
X54966Y441086D01*
X54980Y441072D01*
X54990Y441055D01*
X55069Y440988D01*
X55144Y440916D01*
X55162Y440908D01*
X55177Y440895D01*
X55274Y440856D01*
X55367Y440813D01*
X55387Y440811D01*
X55405Y440803D01*
X55572Y440785D01*
X68315Y440785D01*
X68144Y439927D01*
X67535Y438456D01*
X66651Y437133D01*
X65525Y436007D01*
X65328Y435875D01*
X65275Y435826D01*
X65217Y435785D01*
X65186Y435743D01*
X65148Y435707D01*
X65114Y435644D01*
X65071Y435586D01*
X65056Y435537D01*
X65031Y435491D01*
X65019Y435420D01*
X64997Y435352D01*
X64998Y435300D01*
X64989Y435249D01*
X65000Y435178D01*
X65001Y435106D01*
X65019Y435057D01*
X65027Y435005D01*
X65060Y434942D01*
X65084Y434874D01*
X65116Y434833D01*
X65140Y434787D01*
X65192Y434737D01*
X65236Y434681D01*
X65280Y434652D01*
X65317Y434616D01*
X65382Y434586D01*
X65442Y434546D01*
X65510Y434525D01*
X65539Y434511D01*
X65563Y434508D01*
X65602Y434496D01*
X66323Y434352D01*
X67377Y433916D01*
X68325Y433282D01*
X69132Y432475D01*
X69766Y431527D01*
X70202Y430473D01*
X70339Y429783D01*
X64872Y429783D01*
X64853Y429780D01*
X64833Y429782D01*
X64731Y429760D01*
X64629Y429744D01*
X64628Y429743D01*
X64601Y429755D01*
G37*
%LPD*%
%LPC*%
G36*
X56333Y443783D02*
X56333Y443783D01*
X56333Y450365D01*
X61170Y450365D01*
X62731Y450054D01*
X64202Y449445D01*
X65525Y448561D01*
X66651Y447435D01*
X67535Y446112D01*
X68144Y444641D01*
X68315Y443783D01*
X56333Y443783D01*
G37*
%LPD*%
%LPC*%
G36*
X22533Y443783D02*
X22533Y443783D01*
X22533Y450365D01*
X27370Y450365D01*
X28931Y450054D01*
X30402Y449445D01*
X31725Y448561D01*
X32851Y447435D01*
X33735Y446112D01*
X34344Y444641D01*
X34515Y443783D01*
X22533Y443783D01*
G37*
%LPD*%
%LPC*%
G36*
X22533Y357283D02*
X22533Y357283D01*
X22533Y363865D01*
X27370Y363865D01*
X28931Y363554D01*
X30402Y362945D01*
X31725Y362061D01*
X32851Y360935D01*
X33735Y359612D01*
X34344Y358141D01*
X34515Y357283D01*
X22533Y357283D01*
G37*
%LPD*%
%LPC*%
G36*
X41353Y443783D02*
X41353Y443783D01*
X41524Y444641D01*
X42133Y446112D01*
X43017Y447435D01*
X44143Y448561D01*
X45466Y449445D01*
X46937Y450054D01*
X48498Y450365D01*
X53335Y450365D01*
X53335Y443783D01*
X41353Y443783D01*
G37*
%LPD*%
%LPC*%
G36*
X22533Y434203D02*
X22533Y434203D01*
X22533Y440785D01*
X34515Y440785D01*
X34344Y439927D01*
X33735Y438456D01*
X32851Y437133D01*
X31725Y436007D01*
X30402Y435123D01*
X28931Y434514D01*
X27370Y434203D01*
X22533Y434203D01*
G37*
%LPD*%
%LPC*%
G36*
X56333Y347703D02*
X56333Y347703D01*
X56333Y354285D01*
X68315Y354285D01*
X68144Y353427D01*
X67535Y351956D01*
X66651Y350633D01*
X65525Y349507D01*
X64202Y348623D01*
X62731Y348014D01*
X61170Y347703D01*
X56333Y347703D01*
G37*
%LPD*%
%LPC*%
G36*
X22533Y347703D02*
X22533Y347703D01*
X22533Y354285D01*
X34515Y354285D01*
X34344Y353427D01*
X33735Y351956D01*
X32851Y350633D01*
X31725Y349507D01*
X30402Y348623D01*
X28931Y348014D01*
X27370Y347703D01*
X22533Y347703D01*
G37*
%LPD*%
%LPC*%
G36*
X48498Y347703D02*
X48498Y347703D01*
X46937Y348014D01*
X45466Y348623D01*
X44143Y349507D01*
X43017Y350633D01*
X42133Y351956D01*
X41524Y353427D01*
X41353Y354285D01*
X53335Y354285D01*
X53335Y347703D01*
X48498Y347703D01*
G37*
%LPD*%
%LPC*%
G36*
X835913Y677163D02*
X835913Y677163D01*
X835913Y685717D01*
X836776Y685580D01*
X838302Y685084D01*
X839731Y684356D01*
X841029Y683413D01*
X842163Y682279D01*
X843106Y680981D01*
X843834Y679552D01*
X844330Y678026D01*
X844467Y677163D01*
X835913Y677163D01*
G37*
%LPD*%
%LPC*%
G36*
X861313Y677163D02*
X861313Y677163D01*
X861313Y685717D01*
X862176Y685580D01*
X863702Y685084D01*
X865131Y684356D01*
X866429Y683413D01*
X867563Y682279D01*
X868506Y680981D01*
X869234Y679552D01*
X869730Y678026D01*
X869867Y677163D01*
X861313Y677163D01*
G37*
%LPD*%
%LPC*%
G36*
X444753Y677163D02*
X444753Y677163D01*
X444753Y685717D01*
X445616Y685580D01*
X447142Y685084D01*
X448571Y684356D01*
X449869Y683413D01*
X451003Y682279D01*
X451946Y680981D01*
X452674Y679552D01*
X453170Y678026D01*
X453307Y677163D01*
X444753Y677163D01*
G37*
%LPD*%
%LPC*%
G36*
X861313Y702563D02*
X861313Y702563D01*
X861313Y711117D01*
X862176Y710980D01*
X863702Y710484D01*
X865131Y709756D01*
X866429Y708813D01*
X867563Y707679D01*
X868506Y706381D01*
X869234Y704952D01*
X869730Y703426D01*
X869867Y702563D01*
X861313Y702563D01*
G37*
%LPD*%
%LPC*%
G36*
X444753Y674117D02*
X444753Y674117D01*
X453307Y674117D01*
X453170Y673254D01*
X452674Y671728D01*
X451946Y670299D01*
X451003Y669001D01*
X449869Y667867D01*
X448571Y666924D01*
X447142Y666196D01*
X445616Y665700D01*
X444753Y665563D01*
X444753Y674117D01*
G37*
%LPD*%
%LPC*%
G36*
X433153Y677163D02*
X433153Y677163D01*
X433290Y678026D01*
X433786Y679552D01*
X434514Y680981D01*
X435457Y682279D01*
X436591Y683413D01*
X437889Y684356D01*
X439318Y685084D01*
X440844Y685580D01*
X441707Y685717D01*
X441707Y677163D01*
X433153Y677163D01*
G37*
%LPD*%
%LPC*%
G36*
X849713Y677163D02*
X849713Y677163D01*
X849850Y678026D01*
X850346Y679552D01*
X851074Y680981D01*
X852017Y682279D01*
X853151Y683413D01*
X854449Y684356D01*
X855878Y685084D01*
X857404Y685580D01*
X858267Y685717D01*
X858267Y677163D01*
X849713Y677163D01*
G37*
%LPD*%
%LPC*%
G36*
X824313Y677163D02*
X824313Y677163D01*
X824450Y678026D01*
X824946Y679552D01*
X825674Y680981D01*
X826617Y682279D01*
X827751Y683413D01*
X829049Y684356D01*
X830478Y685084D01*
X832004Y685580D01*
X832867Y685717D01*
X832867Y677163D01*
X824313Y677163D01*
G37*
%LPD*%
%LPC*%
G36*
X861313Y699517D02*
X861313Y699517D01*
X869867Y699517D01*
X869730Y698654D01*
X869234Y697128D01*
X868506Y695699D01*
X867563Y694401D01*
X866429Y693267D01*
X865131Y692324D01*
X863702Y691596D01*
X862176Y691100D01*
X861313Y690963D01*
X861313Y699517D01*
G37*
%LPD*%
%LPC*%
G36*
X849713Y702563D02*
X849713Y702563D01*
X849850Y703426D01*
X850346Y704952D01*
X851074Y706381D01*
X852017Y707679D01*
X853151Y708813D01*
X854449Y709756D01*
X855878Y710484D01*
X857404Y710980D01*
X858267Y711117D01*
X858267Y702563D01*
X849713Y702563D01*
G37*
%LPD*%
%LPC*%
G36*
X835913Y674117D02*
X835913Y674117D01*
X844467Y674117D01*
X844330Y673254D01*
X843834Y671728D01*
X843106Y670299D01*
X842163Y669001D01*
X841029Y667867D01*
X839731Y666924D01*
X838302Y666196D01*
X836776Y665700D01*
X835913Y665563D01*
X835913Y674117D01*
G37*
%LPD*%
%LPC*%
G36*
X861313Y674117D02*
X861313Y674117D01*
X869867Y674117D01*
X869730Y673254D01*
X869234Y671728D01*
X868506Y670299D01*
X867563Y669001D01*
X866429Y667867D01*
X865131Y666924D01*
X863702Y666196D01*
X862176Y665700D01*
X861313Y665563D01*
X861313Y674117D01*
G37*
%LPD*%
%LPC*%
G36*
X857404Y691100D02*
X857404Y691100D01*
X855878Y691596D01*
X854449Y692324D01*
X853151Y693267D01*
X852017Y694401D01*
X851074Y695699D01*
X850346Y697128D01*
X849850Y698654D01*
X849713Y699517D01*
X858267Y699517D01*
X858267Y690963D01*
X857404Y691100D01*
G37*
%LPD*%
%LPC*%
G36*
X857404Y665700D02*
X857404Y665700D01*
X855878Y666196D01*
X854449Y666924D01*
X853151Y667867D01*
X852017Y669001D01*
X851074Y670299D01*
X850346Y671728D01*
X849850Y673254D01*
X849713Y674117D01*
X858267Y674117D01*
X858267Y665563D01*
X857404Y665700D01*
G37*
%LPD*%
%LPC*%
G36*
X440844Y665700D02*
X440844Y665700D01*
X439318Y666196D01*
X437889Y666924D01*
X436591Y667867D01*
X435457Y669001D01*
X434514Y670299D01*
X433786Y671728D01*
X433290Y673254D01*
X433153Y674117D01*
X441707Y674117D01*
X441707Y665563D01*
X440844Y665700D01*
G37*
%LPD*%
%LPC*%
G36*
X832004Y665700D02*
X832004Y665700D01*
X830478Y666196D01*
X829049Y666924D01*
X827751Y667867D01*
X826617Y669001D01*
X825674Y670299D01*
X824946Y671728D01*
X824450Y673254D01*
X824313Y674117D01*
X832867Y674117D01*
X832867Y665563D01*
X832004Y665700D01*
G37*
%LPD*%
%LPC*%
G36*
X267428Y673983D02*
X267428Y673983D01*
X267550Y674753D01*
X268027Y676218D01*
X268726Y677592D01*
X269632Y678838D01*
X270722Y679928D01*
X271968Y680834D01*
X273342Y681533D01*
X274807Y682010D01*
X275577Y682132D01*
X275577Y673983D01*
X267428Y673983D01*
G37*
%LPD*%
%LPC*%
G36*
X274807Y662910D02*
X274807Y662910D01*
X273342Y663387D01*
X271968Y664086D01*
X270722Y664992D01*
X269632Y666082D01*
X268726Y667328D01*
X268027Y668702D01*
X267550Y670167D01*
X267428Y670937D01*
X275577Y670937D01*
X275577Y662788D01*
X274807Y662910D01*
G37*
%LPD*%
%LPC*%
G36*
X443229Y675639D02*
X443229Y675639D01*
X443229Y675641D01*
X443231Y675641D01*
X443231Y675639D01*
X443229Y675639D01*
G37*
%LPD*%
%LPC*%
G36*
X834389Y675639D02*
X834389Y675639D01*
X834389Y675641D01*
X834391Y675641D01*
X834391Y675639D01*
X834389Y675639D01*
G37*
%LPD*%
%LPC*%
G36*
X859789Y675639D02*
X859789Y675639D01*
X859789Y675641D01*
X859791Y675641D01*
X859791Y675639D01*
X859789Y675639D01*
G37*
%LPD*%
%LPC*%
G36*
X859789Y701039D02*
X859789Y701039D01*
X859789Y701041D01*
X859791Y701041D01*
X859791Y701039D01*
X859789Y701039D01*
G37*
%LPD*%
D10*
X646430Y650240D03*
D11*
X646430Y624840D03*
X646430Y599440D03*
X646430Y574040D03*
X646430Y548640D03*
X646430Y523240D03*
X646430Y497840D03*
X646430Y472440D03*
X646430Y447040D03*
X646430Y421640D03*
X646430Y396240D03*
X646430Y370840D03*
D10*
X443230Y751840D03*
D11*
X443230Y726440D03*
X443230Y701040D03*
X443230Y675640D03*
X443230Y650240D03*
X443230Y624840D03*
X443230Y599440D03*
X443230Y574040D03*
X443230Y548640D03*
X443230Y523240D03*
X443230Y497840D03*
X443230Y472440D03*
X443230Y447040D03*
X443230Y421640D03*
X443230Y396240D03*
X443230Y370840D03*
X279400Y601980D03*
X304800Y601980D03*
X279400Y576580D03*
X304800Y576580D03*
X279400Y551180D03*
X304800Y551180D03*
X279400Y525780D03*
X304800Y525780D03*
X279400Y500380D03*
X304800Y500380D03*
X279400Y474980D03*
X304800Y474980D03*
D10*
X834390Y751840D03*
D11*
X859790Y751840D03*
X834390Y726440D03*
X859790Y726440D03*
X834390Y701040D03*
X859790Y701040D03*
X834390Y675640D03*
X859790Y675640D03*
X834390Y650240D03*
X859790Y650240D03*
X834390Y624840D03*
X859790Y624840D03*
X834390Y599440D03*
X859790Y599440D03*
X834390Y574040D03*
X859790Y574040D03*
X834390Y548640D03*
X859790Y548640D03*
X834390Y523240D03*
X859790Y523240D03*
X834390Y497840D03*
X859790Y497840D03*
X834390Y472440D03*
X859790Y472440D03*
X834390Y447040D03*
X859790Y447040D03*
X834390Y421640D03*
X859790Y421640D03*
X834390Y396240D03*
X859790Y396240D03*
X834390Y370840D03*
X859790Y370840D03*
D12*
X137160Y294540D03*
D13*
X137160Y218540D03*
X289560Y294540D03*
X264160Y218540D03*
D12*
X622300Y294540D03*
D13*
X622300Y218540D03*
X774700Y294540D03*
X749300Y218540D03*
D10*
X279400Y419100D03*
D11*
X304800Y419100D03*
X279400Y393700D03*
X304800Y393700D03*
D14*
X370840Y248920D03*
X396240Y248920D03*
X853440Y243840D03*
X878840Y243840D03*
D15*
X64634Y428784D03*
X64634Y420284D03*
X64634Y411784D03*
X64634Y403284D03*
X64634Y394784D03*
X64634Y386284D03*
X64634Y377784D03*
X64634Y369284D03*
X51134Y369284D03*
X51134Y377784D03*
X51134Y386284D03*
X51134Y394784D03*
X51134Y403284D03*
X51134Y411784D03*
X51134Y420284D03*
X51134Y428784D03*
D16*
X49294Y442284D02*
X60374Y442284D01*
X60374Y355784D02*
X49294Y355784D01*
X26574Y355784D02*
X15494Y355784D01*
X15494Y442284D02*
X26574Y442284D01*
D17*
X277100Y672460D03*
X292100Y679460D03*
X307100Y672460D03*
D18*
X71120Y787400D03*
X228600Y701040D03*
X568960Y787400D03*
X944880Y553720D03*
X482600Y198120D03*
X205740Y513080D03*
X198120Y614680D03*
X208280Y670560D03*
X99060Y548640D03*
X109220Y642620D03*
X243840Y360680D03*
X81280Y518160D03*
X149860Y561340D03*
X711200Y459740D03*
X203200Y307340D03*
D19*
X123444Y676656D02*
X134874Y688086D01*
X173736Y688086D01*
X54864Y608076D02*
X54864Y550926D01*
X54864Y608076D02*
X123444Y676656D01*
D18*
X123444Y676656D03*
X134874Y688086D03*
X173736Y688086D03*
X54864Y550926D03*
D19*
X347472Y473202D02*
X441198Y473202D01*
X347472Y473202D02*
X306324Y514350D01*
X299466Y514350D01*
X292608Y521208D01*
X292608Y539496D01*
X304038Y550926D01*
X441198Y473202D02*
X443230Y472440D01*
X304800Y551180D02*
X304038Y550926D01*
X278892Y459486D02*
X278892Y420624D01*
X278892Y459486D02*
X262890Y475488D01*
X262890Y576072D01*
X276606Y589788D01*
X283464Y589788D01*
X292608Y598932D01*
X292608Y605790D01*
X301752Y614934D01*
X436626Y614934D01*
X438912Y612648D01*
X448056Y612648D01*
X454914Y619506D01*
X454914Y637794D01*
X443484Y649224D01*
X278892Y420624D02*
X279400Y419100D01*
X443484Y649224D02*
X443230Y650240D01*
X665226Y649224D02*
X834390Y649224D01*
X665226Y649224D02*
X653796Y637794D01*
X454914Y637794D01*
X834390Y649224D02*
X834390Y650240D01*
X278892Y395478D02*
X258318Y416052D01*
X258318Y596646D01*
X285750Y624078D01*
X441198Y624078D01*
X278892Y395478D02*
X279400Y393700D01*
X441198Y624078D02*
X443230Y624840D01*
X443484Y601218D02*
X630936Y601218D01*
X640080Y610362D01*
X825246Y610362D01*
X834390Y601218D01*
X443484Y601218D02*
X443230Y599440D01*
X834390Y599440D02*
X834390Y601218D01*
X633222Y576072D02*
X443484Y576072D01*
X633222Y576072D02*
X642366Y585216D01*
X825246Y585216D01*
X834390Y576072D01*
X443484Y576072D02*
X443230Y574040D01*
X834390Y574040D02*
X834390Y576072D01*
X834390Y548640D02*
X662940Y548640D01*
X651510Y560070D01*
X454914Y560070D01*
X443484Y548640D01*
X443230Y548640D01*
X646938Y626364D02*
X820674Y626364D01*
X832104Y637794D01*
X848106Y637794D01*
X859536Y626364D01*
X646938Y626364D02*
X646430Y624840D01*
X859536Y626364D02*
X859790Y624840D01*
X861822Y598932D02*
X861822Y587502D01*
X870966Y578358D01*
X870966Y416052D01*
X864108Y409194D01*
X857250Y409194D01*
X845820Y397764D01*
X845820Y390906D01*
X836676Y381762D01*
X710946Y381762D01*
X624078Y294894D01*
X859790Y599440D02*
X861822Y598932D01*
X624078Y294894D02*
X622300Y294540D01*
X646938Y470916D02*
X820674Y470916D01*
X832104Y459486D01*
X848106Y459486D01*
X859536Y470916D01*
X646938Y470916D02*
X646430Y472440D01*
X859536Y470916D02*
X859790Y472440D01*
X630936Y397764D02*
X443484Y397764D01*
X630936Y397764D02*
X642366Y409194D01*
X822960Y409194D01*
X834390Y397764D01*
X443484Y397764D02*
X443230Y396240D01*
X834390Y396240D02*
X834390Y397764D01*
X52578Y541782D02*
X48006Y546354D01*
X48006Y635508D01*
D18*
X52578Y541782D03*
X48006Y635508D03*
D19*
X137160Y646938D02*
X137160Y614934D01*
X52578Y530352D01*
D18*
X137160Y646938D03*
X52578Y530352D03*
D19*
X308610Y523494D02*
X441198Y523494D01*
X308610Y523494D02*
X306324Y525780D01*
X441198Y523494D02*
X443230Y523240D01*
X306324Y525780D02*
X304800Y525780D01*
X660654Y521208D02*
X834390Y521208D01*
X660654Y521208D02*
X651510Y512064D01*
X452628Y512064D01*
X443484Y521208D01*
X834390Y521208D02*
X834390Y523240D01*
X443484Y521208D02*
X443230Y523240D01*
X441198Y448056D02*
X347472Y448056D01*
X306324Y489204D01*
X299466Y489204D01*
X290322Y498348D01*
X290322Y505206D01*
X281178Y514350D01*
X274320Y514350D01*
X267462Y521208D01*
X267462Y555498D01*
X276606Y564642D01*
X283464Y564642D01*
X292608Y573786D01*
X292608Y589788D01*
X304800Y601980D01*
X441198Y448056D02*
X443230Y447040D01*
X660654Y448056D02*
X834390Y448056D01*
X660654Y448056D02*
X649224Y459486D01*
X454914Y459486D01*
X443484Y448056D01*
X834390Y448056D02*
X834390Y447040D01*
X443484Y448056D02*
X443230Y447040D01*
X443484Y422910D02*
X630936Y422910D01*
X642366Y434340D01*
X822960Y434340D01*
X834390Y422910D01*
X443484Y422910D02*
X443230Y421640D01*
X834390Y421640D02*
X834390Y422910D01*
X820674Y496062D02*
X646938Y496062D01*
X820674Y496062D02*
X829818Y486918D01*
X850392Y486918D01*
X859536Y496062D01*
X646938Y496062D02*
X646430Y497840D01*
X859536Y496062D02*
X859790Y497840D01*
X50292Y379476D02*
X48006Y379476D01*
X43434Y384048D01*
X43434Y413766D01*
X50292Y420624D01*
X50292Y379476D02*
X51134Y377784D01*
X51134Y420284D02*
X50292Y420624D01*
X66294Y379476D02*
X68580Y379476D01*
X73152Y384048D01*
X73152Y413766D01*
X66294Y420624D01*
X66294Y379476D02*
X64634Y377784D01*
X64634Y420284D02*
X66294Y420624D01*
X59436Y402336D02*
X52578Y395478D01*
X59436Y402336D02*
X64008Y402336D01*
X52578Y395478D02*
X51134Y394784D01*
X64008Y402336D02*
X64634Y403284D01*
X217170Y582930D02*
X306324Y672084D01*
X307100Y672460D01*
X176022Y541782D02*
X176022Y500634D01*
X176022Y541782D02*
X217170Y582930D01*
D18*
X217170Y582930D03*
X176022Y500634D03*
M02*
