G04 EAGLE Gerber RS-274X export*
G75*
%MOMM*%
%FSLAX34Y34*%
%LPD*%
%INSolderpaste Top*%
%IPPOS*%
%AMOC8*
5,1,8,0,0,1.08239X$1,22.5*%
G01*
%ADD10R,2.000000X0.700000*%
%ADD11R,2.600000X1.000000*%
%ADD12R,2.600000X1.500000*%
%ADD13R,1.400000X2.700000*%
%ADD14R,1.200000X1.200000*%
%ADD15R,1.500000X1.300000*%
%ADD16R,1.400000X1.000000*%
%ADD17R,0.800000X0.800000*%
%ADD18R,1.800000X1.400000*%
%ADD19R,1.300000X1.500000*%
%ADD20R,1.400000X1.800000*%

G36*
X290297Y591167D02*
X290297Y591167D01*
X290292Y591174D01*
X290299Y591180D01*
X290299Y612780D01*
X290263Y612827D01*
X290256Y612822D01*
X290250Y612829D01*
X274850Y612829D01*
X274803Y612793D01*
X274808Y612786D01*
X274801Y612780D01*
X274801Y608198D01*
X271677Y604579D01*
X264100Y604579D01*
X264053Y604543D01*
X264054Y604541D01*
X264053Y604540D01*
X264057Y604535D01*
X264051Y604530D01*
X264051Y599430D01*
X264087Y599383D01*
X264094Y599388D01*
X264100Y599381D01*
X271677Y599381D01*
X274801Y595762D01*
X274801Y591180D01*
X274837Y591133D01*
X274844Y591138D01*
X274850Y591131D01*
X290250Y591131D01*
X290297Y591167D01*
G37*
G36*
X290297Y565767D02*
X290297Y565767D01*
X290292Y565774D01*
X290299Y565780D01*
X290299Y587380D01*
X290263Y587427D01*
X290256Y587422D01*
X290250Y587429D01*
X274850Y587429D01*
X274803Y587393D01*
X274808Y587386D01*
X274801Y587380D01*
X274801Y582798D01*
X271677Y579179D01*
X264100Y579179D01*
X264053Y579143D01*
X264054Y579141D01*
X264053Y579140D01*
X264057Y579135D01*
X264051Y579130D01*
X264051Y574030D01*
X264087Y573983D01*
X264094Y573988D01*
X264100Y573981D01*
X271677Y573981D01*
X274801Y570362D01*
X274801Y565780D01*
X274837Y565733D01*
X274844Y565738D01*
X274850Y565731D01*
X290250Y565731D01*
X290297Y565767D01*
G37*
G36*
X290297Y540367D02*
X290297Y540367D01*
X290292Y540374D01*
X290299Y540380D01*
X290299Y561980D01*
X290263Y562027D01*
X290256Y562022D01*
X290250Y562029D01*
X274850Y562029D01*
X274803Y561993D01*
X274808Y561986D01*
X274801Y561980D01*
X274801Y557398D01*
X271677Y553779D01*
X264100Y553779D01*
X264053Y553743D01*
X264054Y553741D01*
X264053Y553740D01*
X264057Y553735D01*
X264051Y553730D01*
X264051Y548630D01*
X264087Y548583D01*
X264094Y548588D01*
X264100Y548581D01*
X271677Y548581D01*
X274801Y544962D01*
X274801Y540380D01*
X274837Y540333D01*
X274844Y540338D01*
X274850Y540331D01*
X290250Y540331D01*
X290297Y540367D01*
G37*
G36*
X290297Y514967D02*
X290297Y514967D01*
X290292Y514974D01*
X290299Y514980D01*
X290299Y536580D01*
X290263Y536627D01*
X290256Y536622D01*
X290250Y536629D01*
X274850Y536629D01*
X274803Y536593D01*
X274808Y536586D01*
X274801Y536580D01*
X274801Y531998D01*
X271677Y528379D01*
X264100Y528379D01*
X264053Y528343D01*
X264054Y528341D01*
X264053Y528340D01*
X264057Y528335D01*
X264051Y528330D01*
X264051Y523230D01*
X264087Y523183D01*
X264094Y523188D01*
X264100Y523181D01*
X271677Y523181D01*
X274801Y519562D01*
X274801Y514980D01*
X274837Y514933D01*
X274844Y514938D01*
X274850Y514931D01*
X290250Y514931D01*
X290297Y514967D01*
G37*
G36*
X290297Y489567D02*
X290297Y489567D01*
X290292Y489574D01*
X290299Y489580D01*
X290299Y511180D01*
X290263Y511227D01*
X290256Y511222D01*
X290250Y511229D01*
X274850Y511229D01*
X274803Y511193D01*
X274808Y511186D01*
X274801Y511180D01*
X274801Y506598D01*
X271677Y502979D01*
X264100Y502979D01*
X264053Y502943D01*
X264054Y502941D01*
X264053Y502940D01*
X264057Y502935D01*
X264051Y502930D01*
X264051Y497830D01*
X264087Y497783D01*
X264094Y497788D01*
X264100Y497781D01*
X271677Y497781D01*
X274801Y494162D01*
X274801Y489580D01*
X274837Y489533D01*
X274844Y489538D01*
X274850Y489531D01*
X290250Y489531D01*
X290297Y489567D01*
G37*
G36*
X290297Y464167D02*
X290297Y464167D01*
X290292Y464174D01*
X290299Y464180D01*
X290299Y485780D01*
X290263Y485827D01*
X290256Y485822D01*
X290250Y485829D01*
X274850Y485829D01*
X274803Y485793D01*
X274808Y485786D01*
X274801Y485780D01*
X274801Y481198D01*
X271677Y477579D01*
X264100Y477579D01*
X264053Y477543D01*
X264054Y477541D01*
X264053Y477540D01*
X264057Y477535D01*
X264051Y477530D01*
X264051Y472430D01*
X264087Y472383D01*
X264094Y472388D01*
X264100Y472381D01*
X271677Y472381D01*
X274801Y468762D01*
X274801Y464180D01*
X274837Y464133D01*
X274844Y464138D01*
X274850Y464131D01*
X290250Y464131D01*
X290297Y464167D01*
G37*
G36*
X309397Y591167D02*
X309397Y591167D01*
X309392Y591174D01*
X309399Y591180D01*
X309399Y595762D01*
X312523Y599381D01*
X320100Y599381D01*
X320147Y599417D01*
X320142Y599424D01*
X320149Y599430D01*
X320149Y604530D01*
X320113Y604577D01*
X320106Y604572D01*
X320100Y604579D01*
X312523Y604579D01*
X309399Y608198D01*
X309399Y612780D01*
X309363Y612827D01*
X309356Y612822D01*
X309350Y612829D01*
X293950Y612829D01*
X293903Y612793D01*
X293908Y612786D01*
X293901Y612780D01*
X293901Y591180D01*
X293937Y591133D01*
X293944Y591138D01*
X293950Y591131D01*
X309350Y591131D01*
X309397Y591167D01*
G37*
G36*
X309397Y565767D02*
X309397Y565767D01*
X309392Y565774D01*
X309399Y565780D01*
X309399Y570362D01*
X312523Y573981D01*
X320100Y573981D01*
X320147Y574017D01*
X320142Y574024D01*
X320149Y574030D01*
X320149Y579130D01*
X320113Y579177D01*
X320106Y579172D01*
X320100Y579179D01*
X312523Y579179D01*
X309399Y582798D01*
X309399Y587380D01*
X309363Y587427D01*
X309356Y587422D01*
X309350Y587429D01*
X293950Y587429D01*
X293903Y587393D01*
X293908Y587386D01*
X293901Y587380D01*
X293901Y565780D01*
X293937Y565733D01*
X293944Y565738D01*
X293950Y565731D01*
X309350Y565731D01*
X309397Y565767D01*
G37*
G36*
X309397Y540367D02*
X309397Y540367D01*
X309392Y540374D01*
X309399Y540380D01*
X309399Y544962D01*
X312523Y548581D01*
X320100Y548581D01*
X320147Y548617D01*
X320142Y548624D01*
X320149Y548630D01*
X320149Y553730D01*
X320113Y553777D01*
X320106Y553772D01*
X320100Y553779D01*
X312523Y553779D01*
X309399Y557398D01*
X309399Y561980D01*
X309363Y562027D01*
X309356Y562022D01*
X309350Y562029D01*
X293950Y562029D01*
X293903Y561993D01*
X293908Y561986D01*
X293901Y561980D01*
X293901Y540380D01*
X293937Y540333D01*
X293944Y540338D01*
X293950Y540331D01*
X309350Y540331D01*
X309397Y540367D01*
G37*
G36*
X309397Y514967D02*
X309397Y514967D01*
X309392Y514974D01*
X309399Y514980D01*
X309399Y519562D01*
X312523Y523181D01*
X320100Y523181D01*
X320147Y523217D01*
X320142Y523224D01*
X320149Y523230D01*
X320149Y528330D01*
X320113Y528377D01*
X320106Y528372D01*
X320100Y528379D01*
X312523Y528379D01*
X309399Y531998D01*
X309399Y536580D01*
X309363Y536627D01*
X309356Y536622D01*
X309350Y536629D01*
X293950Y536629D01*
X293903Y536593D01*
X293908Y536586D01*
X293901Y536580D01*
X293901Y514980D01*
X293937Y514933D01*
X293944Y514938D01*
X293950Y514931D01*
X309350Y514931D01*
X309397Y514967D01*
G37*
G36*
X309397Y489567D02*
X309397Y489567D01*
X309392Y489574D01*
X309399Y489580D01*
X309399Y494162D01*
X312523Y497781D01*
X320100Y497781D01*
X320147Y497817D01*
X320142Y497824D01*
X320149Y497830D01*
X320149Y502930D01*
X320113Y502977D01*
X320106Y502972D01*
X320100Y502979D01*
X312523Y502979D01*
X309399Y506598D01*
X309399Y511180D01*
X309363Y511227D01*
X309356Y511222D01*
X309350Y511229D01*
X293950Y511229D01*
X293903Y511193D01*
X293908Y511186D01*
X293901Y511180D01*
X293901Y489580D01*
X293937Y489533D01*
X293944Y489538D01*
X293950Y489531D01*
X309350Y489531D01*
X309397Y489567D01*
G37*
G36*
X309397Y464167D02*
X309397Y464167D01*
X309392Y464174D01*
X309399Y464180D01*
X309399Y468762D01*
X312523Y472381D01*
X320100Y472381D01*
X320147Y472417D01*
X320142Y472424D01*
X320149Y472430D01*
X320149Y477530D01*
X320113Y477577D01*
X320106Y477572D01*
X320100Y477579D01*
X312523Y477579D01*
X309399Y481198D01*
X309399Y485780D01*
X309363Y485827D01*
X309356Y485822D01*
X309350Y485829D01*
X293950Y485829D01*
X293903Y485793D01*
X293908Y485786D01*
X293901Y485780D01*
X293901Y464180D01*
X293937Y464133D01*
X293944Y464138D01*
X293950Y464131D01*
X309350Y464131D01*
X309397Y464167D01*
G37*
D10*
X35560Y594910D03*
X35560Y583910D03*
X35560Y572910D03*
X35560Y561910D03*
X35560Y550910D03*
X35560Y539910D03*
X35560Y528910D03*
X35560Y517910D03*
D11*
X40560Y615910D03*
D12*
X40560Y482410D03*
D13*
X162560Y531910D03*
X162560Y580910D03*
D14*
X163560Y501410D03*
D15*
X401320Y726542D03*
X401320Y707542D03*
X691134Y599542D03*
X691134Y580542D03*
X71120Y658520D03*
X71120Y677520D03*
X109220Y658520D03*
X109220Y677520D03*
X147320Y658520D03*
X147320Y677520D03*
D16*
X78310Y218440D03*
X56310Y208940D03*
X56310Y227940D03*
X557100Y218440D03*
X535100Y208940D03*
X535100Y227940D03*
D15*
X185420Y658520D03*
X185420Y677520D03*
X45720Y271170D03*
X45720Y290170D03*
X528320Y271170D03*
X528320Y290170D03*
D17*
X202050Y322580D03*
X217050Y322580D03*
X696080Y322580D03*
X711080Y322580D03*
D18*
X87630Y295130D03*
X87630Y261130D03*
X570230Y295130D03*
X570230Y261130D03*
D15*
X33020Y677520D03*
X33020Y658520D03*
D19*
X238150Y322580D03*
X257150Y322580D03*
X180950Y322580D03*
X161950Y322580D03*
X655980Y322580D03*
X674980Y322580D03*
X732180Y322580D03*
X751180Y322580D03*
D20*
X124442Y434594D03*
X90442Y434594D03*
D19*
X98704Y395478D03*
X117704Y395478D03*
X98704Y361950D03*
X117704Y361950D03*
M02*
