G04 EAGLE Gerber RS-274X export*
G75*
%MOMM*%
%FSLAX34Y34*%
%LPD*%
%INSoldermask Bottom*%
%IPPOS*%
%AMOC8*
5,1,8,0,0,1.08239X$1,22.5*%
G01*
%ADD10C,3.403200*%
%ADD11R,1.733200X1.733200*%
%ADD12C,1.733200*%
%ADD13R,2.153200X2.153200*%
%ADD14C,2.153200*%
%ADD15C,2.146300*%
%ADD16C,0.853200*%
%ADD17C,1.311200*%
%ADD18C,1.653200*%
%ADD19C,0.959600*%


D10*
X25400Y800100D03*
X946150Y798830D03*
X25400Y190500D03*
X947420Y190500D03*
D11*
X646430Y650240D03*
D12*
X646430Y624840D03*
X646430Y599440D03*
X646430Y574040D03*
X646430Y548640D03*
X646430Y523240D03*
X646430Y497840D03*
X646430Y472440D03*
X646430Y447040D03*
X646430Y421640D03*
X646430Y396240D03*
X646430Y370840D03*
D11*
X443230Y751840D03*
D12*
X443230Y726440D03*
X443230Y701040D03*
X443230Y675640D03*
X443230Y650240D03*
X443230Y624840D03*
X443230Y599440D03*
X443230Y574040D03*
X443230Y548640D03*
X443230Y523240D03*
X443230Y497840D03*
X443230Y472440D03*
X443230Y447040D03*
X443230Y421640D03*
X443230Y396240D03*
X443230Y370840D03*
X279400Y601980D03*
X304800Y601980D03*
X279400Y576580D03*
X304800Y576580D03*
X279400Y551180D03*
X304800Y551180D03*
X279400Y525780D03*
X304800Y525780D03*
X279400Y500380D03*
X304800Y500380D03*
X279400Y474980D03*
X304800Y474980D03*
D11*
X834390Y751840D03*
D12*
X859790Y751840D03*
X834390Y726440D03*
X859790Y726440D03*
X834390Y701040D03*
X859790Y701040D03*
X834390Y675640D03*
X859790Y675640D03*
X834390Y650240D03*
X859790Y650240D03*
X834390Y624840D03*
X859790Y624840D03*
X834390Y599440D03*
X859790Y599440D03*
X834390Y574040D03*
X859790Y574040D03*
X834390Y548640D03*
X859790Y548640D03*
X834390Y523240D03*
X859790Y523240D03*
X834390Y497840D03*
X859790Y497840D03*
X834390Y472440D03*
X859790Y472440D03*
X834390Y447040D03*
X859790Y447040D03*
X834390Y421640D03*
X859790Y421640D03*
X834390Y396240D03*
X859790Y396240D03*
X834390Y370840D03*
X859790Y370840D03*
D13*
X137160Y294540D03*
D14*
X137160Y218540D03*
X289560Y294540D03*
X264160Y218540D03*
D13*
X622300Y294540D03*
D14*
X622300Y218540D03*
X774700Y294540D03*
X749300Y218540D03*
D11*
X279400Y419100D03*
D12*
X304800Y419100D03*
X279400Y393700D03*
X304800Y393700D03*
D15*
X370840Y248920D03*
X396240Y248920D03*
X853440Y243840D03*
X878840Y243840D03*
D16*
X64634Y428784D03*
X64634Y420284D03*
X64634Y411784D03*
X64634Y403284D03*
X64634Y394784D03*
X64634Y386284D03*
X64634Y377784D03*
X64634Y369284D03*
X51134Y369284D03*
X51134Y377784D03*
X51134Y386284D03*
X51134Y394784D03*
X51134Y403284D03*
X51134Y411784D03*
X51134Y420284D03*
X51134Y428784D03*
D17*
X49294Y442284D02*
X60374Y442284D01*
X60374Y355784D02*
X49294Y355784D01*
X26574Y355784D02*
X15494Y355784D01*
X15494Y442284D02*
X26574Y442284D01*
D18*
X277100Y672460D03*
X292100Y679460D03*
X307100Y672460D03*
D19*
X71120Y787400D03*
X228600Y701040D03*
X568960Y787400D03*
X944880Y553720D03*
X482600Y198120D03*
X205740Y513080D03*
X198120Y614680D03*
X208280Y670560D03*
X99060Y548640D03*
X109220Y642620D03*
X243840Y360680D03*
X81280Y518160D03*
X149860Y561340D03*
X711200Y459740D03*
X203200Y307340D03*
X123444Y676656D03*
X134874Y688086D03*
X173736Y688086D03*
X54864Y550926D03*
X52578Y541782D03*
X48006Y635508D03*
X137160Y646938D03*
X52578Y530352D03*
X217170Y582930D03*
X176022Y500634D03*
M02*
