G04 EAGLE Gerber RS-274X export*
G75*
%MOMM*%
%FSLAX34Y34*%
%LPD*%
%IN*%
%IPPOS*%
%AMOC8*
5,1,8,0,0,1.08239X$1,22.5*%
G01*
%ADD10C,0.254000*%


D10*
X0Y165100D02*
X972060Y163830D01*
X972060Y824130D01*
X0Y825400D01*
X0Y165100D01*
X41400Y799576D02*
X41332Y798531D01*
X41195Y797492D01*
X40990Y796465D01*
X40719Y795453D01*
X40383Y794461D01*
X39982Y793493D01*
X39518Y792554D01*
X38995Y791646D01*
X38413Y790775D01*
X37775Y789944D01*
X37084Y789157D01*
X36343Y788416D01*
X35556Y787725D01*
X34725Y787088D01*
X33854Y786506D01*
X32946Y785982D01*
X32007Y785518D01*
X31039Y785117D01*
X30047Y784781D01*
X29035Y784510D01*
X28008Y784305D01*
X26969Y784169D01*
X25924Y784100D01*
X24876Y784100D01*
X23831Y784169D01*
X22792Y784305D01*
X21765Y784510D01*
X20753Y784781D01*
X19761Y785117D01*
X18793Y785518D01*
X17854Y785982D01*
X16946Y786506D01*
X16075Y787088D01*
X15244Y787725D01*
X14457Y788416D01*
X13716Y789157D01*
X13025Y789944D01*
X12388Y790775D01*
X11806Y791646D01*
X11282Y792554D01*
X10818Y793493D01*
X10417Y794461D01*
X10081Y795453D01*
X9810Y796465D01*
X9605Y797492D01*
X9469Y798531D01*
X9400Y799576D01*
X9400Y800624D01*
X9469Y801669D01*
X9605Y802708D01*
X9810Y803735D01*
X10081Y804747D01*
X10417Y805739D01*
X10818Y806707D01*
X11282Y807646D01*
X11806Y808554D01*
X12388Y809425D01*
X13025Y810256D01*
X13716Y811043D01*
X14457Y811784D01*
X15244Y812475D01*
X16075Y813113D01*
X16946Y813695D01*
X17854Y814218D01*
X18793Y814682D01*
X19761Y815083D01*
X20753Y815419D01*
X21765Y815690D01*
X22792Y815895D01*
X23831Y816032D01*
X24876Y816100D01*
X25924Y816100D01*
X26969Y816032D01*
X28008Y815895D01*
X29035Y815690D01*
X30047Y815419D01*
X31039Y815083D01*
X32007Y814682D01*
X32946Y814218D01*
X33854Y813695D01*
X34725Y813113D01*
X35556Y812475D01*
X36343Y811784D01*
X37084Y811043D01*
X37775Y810256D01*
X38413Y809425D01*
X38995Y808554D01*
X39518Y807646D01*
X39982Y806707D01*
X40383Y805739D01*
X40719Y804747D01*
X40990Y803735D01*
X41195Y802708D01*
X41332Y801669D01*
X41400Y800624D01*
X41400Y799576D01*
X962150Y798306D02*
X962082Y797261D01*
X961945Y796222D01*
X961740Y795195D01*
X961469Y794183D01*
X961133Y793191D01*
X960732Y792223D01*
X960268Y791284D01*
X959745Y790376D01*
X959163Y789505D01*
X958525Y788674D01*
X957834Y787887D01*
X957093Y787146D01*
X956306Y786455D01*
X955475Y785818D01*
X954604Y785236D01*
X953696Y784712D01*
X952757Y784248D01*
X951789Y783847D01*
X950797Y783511D01*
X949785Y783240D01*
X948758Y783035D01*
X947719Y782899D01*
X946674Y782830D01*
X945626Y782830D01*
X944581Y782899D01*
X943542Y783035D01*
X942515Y783240D01*
X941503Y783511D01*
X940511Y783847D01*
X939543Y784248D01*
X938604Y784712D01*
X937696Y785236D01*
X936825Y785818D01*
X935994Y786455D01*
X935207Y787146D01*
X934466Y787887D01*
X933775Y788674D01*
X933138Y789505D01*
X932556Y790376D01*
X932032Y791284D01*
X931568Y792223D01*
X931167Y793191D01*
X930831Y794183D01*
X930560Y795195D01*
X930355Y796222D01*
X930219Y797261D01*
X930150Y798306D01*
X930150Y799354D01*
X930219Y800399D01*
X930355Y801438D01*
X930560Y802465D01*
X930831Y803477D01*
X931167Y804469D01*
X931568Y805437D01*
X932032Y806376D01*
X932556Y807284D01*
X933138Y808155D01*
X933775Y808986D01*
X934466Y809773D01*
X935207Y810514D01*
X935994Y811205D01*
X936825Y811843D01*
X937696Y812425D01*
X938604Y812948D01*
X939543Y813412D01*
X940511Y813813D01*
X941503Y814149D01*
X942515Y814420D01*
X943542Y814625D01*
X944581Y814762D01*
X945626Y814830D01*
X946674Y814830D01*
X947719Y814762D01*
X948758Y814625D01*
X949785Y814420D01*
X950797Y814149D01*
X951789Y813813D01*
X952757Y813412D01*
X953696Y812948D01*
X954604Y812425D01*
X955475Y811843D01*
X956306Y811205D01*
X957093Y810514D01*
X957834Y809773D01*
X958525Y808986D01*
X959163Y808155D01*
X959745Y807284D01*
X960268Y806376D01*
X960732Y805437D01*
X961133Y804469D01*
X961469Y803477D01*
X961740Y802465D01*
X961945Y801438D01*
X962082Y800399D01*
X962150Y799354D01*
X962150Y798306D01*
X41400Y189976D02*
X41332Y188931D01*
X41195Y187892D01*
X40990Y186865D01*
X40719Y185853D01*
X40383Y184861D01*
X39982Y183893D01*
X39518Y182954D01*
X38995Y182046D01*
X38413Y181175D01*
X37775Y180344D01*
X37084Y179557D01*
X36343Y178816D01*
X35556Y178125D01*
X34725Y177488D01*
X33854Y176906D01*
X32946Y176382D01*
X32007Y175918D01*
X31039Y175517D01*
X30047Y175181D01*
X29035Y174910D01*
X28008Y174705D01*
X26969Y174569D01*
X25924Y174500D01*
X24876Y174500D01*
X23831Y174569D01*
X22792Y174705D01*
X21765Y174910D01*
X20753Y175181D01*
X19761Y175517D01*
X18793Y175918D01*
X17854Y176382D01*
X16946Y176906D01*
X16075Y177488D01*
X15244Y178125D01*
X14457Y178816D01*
X13716Y179557D01*
X13025Y180344D01*
X12388Y181175D01*
X11806Y182046D01*
X11282Y182954D01*
X10818Y183893D01*
X10417Y184861D01*
X10081Y185853D01*
X9810Y186865D01*
X9605Y187892D01*
X9469Y188931D01*
X9400Y189976D01*
X9400Y191024D01*
X9469Y192069D01*
X9605Y193108D01*
X9810Y194135D01*
X10081Y195147D01*
X10417Y196139D01*
X10818Y197107D01*
X11282Y198046D01*
X11806Y198954D01*
X12388Y199825D01*
X13025Y200656D01*
X13716Y201443D01*
X14457Y202184D01*
X15244Y202875D01*
X16075Y203513D01*
X16946Y204095D01*
X17854Y204618D01*
X18793Y205082D01*
X19761Y205483D01*
X20753Y205819D01*
X21765Y206090D01*
X22792Y206295D01*
X23831Y206432D01*
X24876Y206500D01*
X25924Y206500D01*
X26969Y206432D01*
X28008Y206295D01*
X29035Y206090D01*
X30047Y205819D01*
X31039Y205483D01*
X32007Y205082D01*
X32946Y204618D01*
X33854Y204095D01*
X34725Y203513D01*
X35556Y202875D01*
X36343Y202184D01*
X37084Y201443D01*
X37775Y200656D01*
X38413Y199825D01*
X38995Y198954D01*
X39518Y198046D01*
X39982Y197107D01*
X40383Y196139D01*
X40719Y195147D01*
X40990Y194135D01*
X41195Y193108D01*
X41332Y192069D01*
X41400Y191024D01*
X41400Y189976D01*
X963420Y189976D02*
X963352Y188931D01*
X963215Y187892D01*
X963010Y186865D01*
X962739Y185853D01*
X962403Y184861D01*
X962002Y183893D01*
X961538Y182954D01*
X961015Y182046D01*
X960433Y181175D01*
X959795Y180344D01*
X959104Y179557D01*
X958363Y178816D01*
X957576Y178125D01*
X956745Y177488D01*
X955874Y176906D01*
X954966Y176382D01*
X954027Y175918D01*
X953059Y175517D01*
X952067Y175181D01*
X951055Y174910D01*
X950028Y174705D01*
X948989Y174569D01*
X947944Y174500D01*
X946896Y174500D01*
X945851Y174569D01*
X944812Y174705D01*
X943785Y174910D01*
X942773Y175181D01*
X941781Y175517D01*
X940813Y175918D01*
X939874Y176382D01*
X938966Y176906D01*
X938095Y177488D01*
X937264Y178125D01*
X936477Y178816D01*
X935736Y179557D01*
X935045Y180344D01*
X934408Y181175D01*
X933826Y182046D01*
X933302Y182954D01*
X932838Y183893D01*
X932437Y184861D01*
X932101Y185853D01*
X931830Y186865D01*
X931625Y187892D01*
X931489Y188931D01*
X931420Y189976D01*
X931420Y191024D01*
X931489Y192069D01*
X931625Y193108D01*
X931830Y194135D01*
X932101Y195147D01*
X932437Y196139D01*
X932838Y197107D01*
X933302Y198046D01*
X933826Y198954D01*
X934408Y199825D01*
X935045Y200656D01*
X935736Y201443D01*
X936477Y202184D01*
X937264Y202875D01*
X938095Y203513D01*
X938966Y204095D01*
X939874Y204618D01*
X940813Y205082D01*
X941781Y205483D01*
X942773Y205819D01*
X943785Y206090D01*
X944812Y206295D01*
X945851Y206432D01*
X946896Y206500D01*
X947944Y206500D01*
X948989Y206432D01*
X950028Y206295D01*
X951055Y206090D01*
X952067Y205819D01*
X953059Y205483D01*
X954027Y205082D01*
X954966Y204618D01*
X955874Y204095D01*
X956745Y203513D01*
X957576Y202875D01*
X958363Y202184D01*
X959104Y201443D01*
X959795Y200656D01*
X960433Y199825D01*
X961015Y198954D01*
X961538Y198046D01*
X962002Y197107D01*
X962403Y196139D01*
X962739Y195147D01*
X963010Y194135D01*
X963215Y193108D01*
X963352Y192069D01*
X963420Y191024D01*
X963420Y189976D01*
M02*
