G04 EAGLE Gerber RS-274X export*
G75*
%MOMM*%
%FSLAX34Y34*%
%LPD*%
%INSilkscreen Bottom*%
%IPPOS*%
%AMOC8*
5,1,8,0,0,1.08239X$1,22.5*%
G01*
%ADD10C,0.152400*%
%ADD11C,0.508000*%


D10*
X911126Y191403D02*
X908417Y191403D01*
X908417Y182372D01*
X913836Y182372D01*
X913954Y182374D01*
X914072Y182380D01*
X914190Y182389D01*
X914307Y182403D01*
X914424Y182420D01*
X914541Y182441D01*
X914656Y182466D01*
X914771Y182495D01*
X914885Y182528D01*
X914997Y182564D01*
X915108Y182604D01*
X915218Y182647D01*
X915327Y182694D01*
X915434Y182744D01*
X915539Y182799D01*
X915642Y182856D01*
X915743Y182917D01*
X915843Y182981D01*
X915940Y183048D01*
X916035Y183118D01*
X916127Y183192D01*
X916218Y183268D01*
X916305Y183348D01*
X916390Y183430D01*
X916472Y183515D01*
X916552Y183602D01*
X916628Y183693D01*
X916702Y183785D01*
X916772Y183880D01*
X916839Y183977D01*
X916903Y184077D01*
X916964Y184178D01*
X917021Y184281D01*
X917076Y184386D01*
X917126Y184493D01*
X917173Y184602D01*
X917216Y184712D01*
X917256Y184823D01*
X917292Y184935D01*
X917325Y185049D01*
X917354Y185164D01*
X917379Y185279D01*
X917400Y185396D01*
X917417Y185513D01*
X917431Y185630D01*
X917440Y185748D01*
X917446Y185866D01*
X917448Y185984D01*
X917448Y195016D01*
X917446Y195134D01*
X917440Y195252D01*
X917431Y195370D01*
X917417Y195487D01*
X917400Y195604D01*
X917379Y195721D01*
X917354Y195836D01*
X917325Y195951D01*
X917292Y196065D01*
X917256Y196177D01*
X917216Y196288D01*
X917173Y196398D01*
X917126Y196507D01*
X917076Y196614D01*
X917021Y196719D01*
X916964Y196822D01*
X916903Y196923D01*
X916839Y197023D01*
X916772Y197120D01*
X916702Y197215D01*
X916628Y197307D01*
X916552Y197398D01*
X916472Y197485D01*
X916390Y197570D01*
X916305Y197652D01*
X916218Y197732D01*
X916127Y197808D01*
X916035Y197882D01*
X915940Y197952D01*
X915843Y198019D01*
X915743Y198083D01*
X915642Y198144D01*
X915539Y198201D01*
X915434Y198256D01*
X915327Y198306D01*
X915218Y198353D01*
X915108Y198396D01*
X914997Y198436D01*
X914885Y198472D01*
X914771Y198505D01*
X914656Y198534D01*
X914541Y198559D01*
X914424Y198580D01*
X914307Y198597D01*
X914190Y198611D01*
X914072Y198620D01*
X913954Y198626D01*
X913836Y198628D01*
X908417Y198628D01*
X900829Y193209D02*
X900829Y182372D01*
X900829Y193209D02*
X895410Y193209D01*
X895410Y191403D01*
X891014Y193209D02*
X883789Y193209D01*
X891014Y182372D01*
X883789Y182372D01*
X875279Y182372D02*
X870763Y182372D01*
X875279Y182372D02*
X875380Y182374D01*
X875481Y182380D01*
X875582Y182389D01*
X875683Y182402D01*
X875783Y182419D01*
X875882Y182440D01*
X875980Y182464D01*
X876077Y182492D01*
X876174Y182524D01*
X876269Y182559D01*
X876362Y182598D01*
X876454Y182640D01*
X876545Y182686D01*
X876634Y182735D01*
X876720Y182787D01*
X876805Y182843D01*
X876888Y182901D01*
X876968Y182963D01*
X877046Y183028D01*
X877122Y183095D01*
X877195Y183165D01*
X877265Y183238D01*
X877332Y183314D01*
X877397Y183392D01*
X877459Y183472D01*
X877517Y183555D01*
X877573Y183640D01*
X877625Y183726D01*
X877674Y183815D01*
X877720Y183906D01*
X877762Y183998D01*
X877801Y184091D01*
X877836Y184186D01*
X877868Y184283D01*
X877896Y184380D01*
X877920Y184478D01*
X877941Y184577D01*
X877958Y184677D01*
X877971Y184778D01*
X877980Y184879D01*
X877986Y184980D01*
X877988Y185081D01*
X877988Y189597D01*
X877987Y189597D02*
X877985Y189716D01*
X877979Y189836D01*
X877969Y189955D01*
X877955Y190073D01*
X877938Y190192D01*
X877916Y190309D01*
X877891Y190426D01*
X877861Y190541D01*
X877828Y190656D01*
X877791Y190770D01*
X877751Y190882D01*
X877706Y190993D01*
X877658Y191102D01*
X877607Y191210D01*
X877552Y191316D01*
X877493Y191420D01*
X877431Y191522D01*
X877366Y191622D01*
X877297Y191720D01*
X877225Y191816D01*
X877150Y191909D01*
X877073Y191999D01*
X876992Y192087D01*
X876908Y192172D01*
X876821Y192254D01*
X876732Y192334D01*
X876640Y192410D01*
X876546Y192484D01*
X876449Y192554D01*
X876351Y192621D01*
X876250Y192685D01*
X876146Y192745D01*
X876041Y192802D01*
X875934Y192855D01*
X875826Y192905D01*
X875716Y192951D01*
X875604Y192993D01*
X875491Y193032D01*
X875377Y193067D01*
X875262Y193098D01*
X875145Y193126D01*
X875028Y193149D01*
X874911Y193169D01*
X874792Y193185D01*
X874673Y193197D01*
X874554Y193205D01*
X874435Y193209D01*
X874315Y193209D01*
X874196Y193205D01*
X874077Y193197D01*
X873958Y193185D01*
X873839Y193169D01*
X873722Y193149D01*
X873605Y193126D01*
X873488Y193098D01*
X873373Y193067D01*
X873259Y193032D01*
X873146Y192993D01*
X873034Y192951D01*
X872924Y192905D01*
X872816Y192855D01*
X872709Y192802D01*
X872604Y192745D01*
X872500Y192685D01*
X872399Y192621D01*
X872301Y192554D01*
X872204Y192484D01*
X872110Y192410D01*
X872018Y192334D01*
X871929Y192254D01*
X871842Y192172D01*
X871758Y192087D01*
X871677Y191999D01*
X871600Y191909D01*
X871525Y191816D01*
X871453Y191720D01*
X871384Y191622D01*
X871319Y191522D01*
X871257Y191420D01*
X871198Y191316D01*
X871143Y191210D01*
X871092Y191102D01*
X871044Y190993D01*
X870999Y190882D01*
X870959Y190770D01*
X870922Y190656D01*
X870889Y190541D01*
X870859Y190426D01*
X870834Y190309D01*
X870812Y190192D01*
X870795Y190073D01*
X870781Y189955D01*
X870771Y189836D01*
X870765Y189716D01*
X870763Y189597D01*
X870763Y187791D01*
X877988Y187791D01*
X861805Y182372D02*
X857289Y182372D01*
X861805Y182372D02*
X861906Y182374D01*
X862007Y182380D01*
X862108Y182389D01*
X862209Y182402D01*
X862309Y182419D01*
X862408Y182440D01*
X862506Y182464D01*
X862603Y182492D01*
X862700Y182524D01*
X862795Y182559D01*
X862888Y182598D01*
X862980Y182640D01*
X863071Y182686D01*
X863160Y182735D01*
X863246Y182787D01*
X863331Y182843D01*
X863414Y182901D01*
X863494Y182963D01*
X863572Y183028D01*
X863648Y183095D01*
X863721Y183165D01*
X863791Y183238D01*
X863858Y183314D01*
X863923Y183392D01*
X863985Y183472D01*
X864043Y183555D01*
X864099Y183640D01*
X864151Y183726D01*
X864200Y183815D01*
X864246Y183906D01*
X864288Y183998D01*
X864327Y184091D01*
X864362Y184186D01*
X864394Y184283D01*
X864422Y184380D01*
X864446Y184478D01*
X864467Y184577D01*
X864484Y184677D01*
X864497Y184778D01*
X864506Y184879D01*
X864512Y184980D01*
X864514Y185081D01*
X864514Y190500D01*
X864512Y190601D01*
X864506Y190702D01*
X864497Y190803D01*
X864484Y190904D01*
X864467Y191004D01*
X864446Y191103D01*
X864422Y191201D01*
X864394Y191298D01*
X864362Y191395D01*
X864327Y191490D01*
X864288Y191583D01*
X864246Y191675D01*
X864200Y191766D01*
X864151Y191855D01*
X864099Y191941D01*
X864043Y192026D01*
X863985Y192109D01*
X863923Y192189D01*
X863858Y192267D01*
X863791Y192343D01*
X863721Y192416D01*
X863648Y192486D01*
X863572Y192553D01*
X863494Y192618D01*
X863414Y192680D01*
X863331Y192738D01*
X863246Y192794D01*
X863160Y192846D01*
X863071Y192895D01*
X862980Y192941D01*
X862888Y192983D01*
X862795Y193022D01*
X862700Y193057D01*
X862603Y193089D01*
X862506Y193117D01*
X862408Y193141D01*
X862309Y193162D01*
X862209Y193179D01*
X862108Y193192D01*
X862007Y193201D01*
X861906Y193207D01*
X861805Y193209D01*
X857289Y193209D01*
X857289Y179663D01*
X857290Y179663D02*
X857292Y179562D01*
X857298Y179461D01*
X857307Y179360D01*
X857320Y179259D01*
X857337Y179159D01*
X857358Y179060D01*
X857382Y178962D01*
X857410Y178865D01*
X857442Y178768D01*
X857477Y178673D01*
X857516Y178580D01*
X857558Y178488D01*
X857604Y178397D01*
X857653Y178309D01*
X857705Y178222D01*
X857761Y178137D01*
X857819Y178054D01*
X857881Y177974D01*
X857946Y177896D01*
X858013Y177820D01*
X858083Y177747D01*
X858156Y177677D01*
X858232Y177610D01*
X858310Y177545D01*
X858390Y177483D01*
X858473Y177425D01*
X858558Y177369D01*
X858645Y177317D01*
X858733Y177268D01*
X858824Y177222D01*
X858916Y177180D01*
X859009Y177141D01*
X859104Y177106D01*
X859201Y177074D01*
X859298Y177046D01*
X859396Y177022D01*
X859495Y177001D01*
X859595Y176984D01*
X859696Y176971D01*
X859797Y176962D01*
X859898Y176956D01*
X859999Y176954D01*
X859999Y176953D02*
X863611Y176953D01*
X850373Y185984D02*
X850373Y189597D01*
X850372Y189597D02*
X850370Y189716D01*
X850364Y189836D01*
X850354Y189955D01*
X850340Y190073D01*
X850323Y190192D01*
X850301Y190309D01*
X850276Y190426D01*
X850246Y190541D01*
X850213Y190656D01*
X850176Y190770D01*
X850136Y190882D01*
X850091Y190993D01*
X850043Y191102D01*
X849992Y191210D01*
X849937Y191316D01*
X849878Y191420D01*
X849816Y191522D01*
X849751Y191622D01*
X849682Y191720D01*
X849610Y191816D01*
X849535Y191909D01*
X849458Y191999D01*
X849377Y192087D01*
X849293Y192172D01*
X849206Y192254D01*
X849117Y192334D01*
X849025Y192410D01*
X848931Y192484D01*
X848834Y192554D01*
X848736Y192621D01*
X848635Y192685D01*
X848531Y192745D01*
X848426Y192802D01*
X848319Y192855D01*
X848211Y192905D01*
X848101Y192951D01*
X847989Y192993D01*
X847876Y193032D01*
X847762Y193067D01*
X847647Y193098D01*
X847530Y193126D01*
X847413Y193149D01*
X847296Y193169D01*
X847177Y193185D01*
X847058Y193197D01*
X846939Y193205D01*
X846820Y193209D01*
X846700Y193209D01*
X846581Y193205D01*
X846462Y193197D01*
X846343Y193185D01*
X846224Y193169D01*
X846107Y193149D01*
X845990Y193126D01*
X845873Y193098D01*
X845758Y193067D01*
X845644Y193032D01*
X845531Y192993D01*
X845419Y192951D01*
X845309Y192905D01*
X845201Y192855D01*
X845094Y192802D01*
X844989Y192745D01*
X844885Y192685D01*
X844784Y192621D01*
X844686Y192554D01*
X844589Y192484D01*
X844495Y192410D01*
X844403Y192334D01*
X844314Y192254D01*
X844227Y192172D01*
X844143Y192087D01*
X844062Y191999D01*
X843985Y191909D01*
X843910Y191816D01*
X843838Y191720D01*
X843769Y191622D01*
X843704Y191522D01*
X843642Y191420D01*
X843583Y191316D01*
X843528Y191210D01*
X843477Y191102D01*
X843429Y190993D01*
X843384Y190882D01*
X843344Y190770D01*
X843307Y190656D01*
X843274Y190541D01*
X843244Y190426D01*
X843219Y190309D01*
X843197Y190192D01*
X843180Y190073D01*
X843166Y189955D01*
X843156Y189836D01*
X843150Y189716D01*
X843148Y189597D01*
X843148Y185984D01*
X843150Y185865D01*
X843156Y185745D01*
X843166Y185626D01*
X843180Y185508D01*
X843197Y185389D01*
X843219Y185272D01*
X843244Y185155D01*
X843274Y185040D01*
X843307Y184925D01*
X843344Y184811D01*
X843384Y184699D01*
X843429Y184588D01*
X843477Y184479D01*
X843528Y184371D01*
X843583Y184265D01*
X843642Y184161D01*
X843704Y184059D01*
X843769Y183959D01*
X843838Y183861D01*
X843910Y183765D01*
X843985Y183672D01*
X844062Y183582D01*
X844143Y183494D01*
X844227Y183409D01*
X844314Y183327D01*
X844403Y183247D01*
X844495Y183171D01*
X844589Y183097D01*
X844686Y183027D01*
X844784Y182960D01*
X844885Y182896D01*
X844989Y182836D01*
X845094Y182779D01*
X845201Y182726D01*
X845309Y182676D01*
X845419Y182630D01*
X845531Y182588D01*
X845644Y182549D01*
X845758Y182514D01*
X845873Y182483D01*
X845990Y182455D01*
X846107Y182432D01*
X846224Y182412D01*
X846343Y182396D01*
X846462Y182384D01*
X846581Y182376D01*
X846700Y182372D01*
X846820Y182372D01*
X846939Y182376D01*
X847058Y182384D01*
X847177Y182396D01*
X847296Y182412D01*
X847413Y182432D01*
X847530Y182455D01*
X847647Y182483D01*
X847762Y182514D01*
X847876Y182549D01*
X847989Y182588D01*
X848101Y182630D01*
X848211Y182676D01*
X848319Y182726D01*
X848426Y182779D01*
X848531Y182836D01*
X848635Y182896D01*
X848736Y182960D01*
X848834Y183027D01*
X848931Y183097D01*
X849025Y183171D01*
X849117Y183247D01*
X849206Y183327D01*
X849293Y183409D01*
X849377Y183494D01*
X849458Y183582D01*
X849535Y183672D01*
X849610Y183765D01*
X849682Y183861D01*
X849751Y183959D01*
X849816Y184059D01*
X849878Y184161D01*
X849937Y184265D01*
X849992Y184371D01*
X850043Y184479D01*
X850091Y184588D01*
X850136Y184699D01*
X850176Y184811D01*
X850213Y184925D01*
X850246Y185040D01*
X850276Y185155D01*
X850301Y185272D01*
X850323Y185389D01*
X850340Y185508D01*
X850354Y185626D01*
X850364Y185745D01*
X850370Y185865D01*
X850372Y185984D01*
X836220Y182372D02*
X836220Y193209D01*
X830801Y193209D01*
X830801Y191403D01*
X826405Y193209D02*
X819180Y193209D01*
X826405Y182372D01*
X819180Y182372D01*
X804171Y191403D02*
X799656Y191403D01*
X799656Y191404D02*
X799523Y191402D01*
X799391Y191396D01*
X799259Y191386D01*
X799127Y191373D01*
X798995Y191355D01*
X798865Y191334D01*
X798734Y191309D01*
X798605Y191280D01*
X798477Y191247D01*
X798349Y191211D01*
X798223Y191171D01*
X798098Y191127D01*
X797974Y191079D01*
X797852Y191028D01*
X797731Y190973D01*
X797612Y190915D01*
X797494Y190853D01*
X797379Y190788D01*
X797265Y190719D01*
X797154Y190648D01*
X797045Y190572D01*
X796938Y190494D01*
X796833Y190413D01*
X796731Y190328D01*
X796631Y190241D01*
X796534Y190151D01*
X796439Y190058D01*
X796348Y189962D01*
X796259Y189864D01*
X796173Y189763D01*
X796090Y189659D01*
X796010Y189553D01*
X795934Y189445D01*
X795860Y189335D01*
X795790Y189222D01*
X795723Y189108D01*
X795660Y188991D01*
X795600Y188873D01*
X795543Y188753D01*
X795490Y188631D01*
X795441Y188508D01*
X795395Y188384D01*
X795353Y188258D01*
X795315Y188131D01*
X795280Y188003D01*
X795249Y187874D01*
X795222Y187745D01*
X795199Y187614D01*
X795179Y187483D01*
X795164Y187351D01*
X795152Y187219D01*
X795144Y187087D01*
X795140Y186954D01*
X795140Y186822D01*
X795144Y186689D01*
X795152Y186557D01*
X795164Y186425D01*
X795179Y186293D01*
X795199Y186162D01*
X795222Y186031D01*
X795249Y185902D01*
X795280Y185773D01*
X795315Y185645D01*
X795353Y185518D01*
X795395Y185392D01*
X795441Y185268D01*
X795490Y185145D01*
X795543Y185023D01*
X795600Y184903D01*
X795660Y184785D01*
X795723Y184668D01*
X795790Y184554D01*
X795860Y184441D01*
X795934Y184331D01*
X796010Y184223D01*
X796090Y184117D01*
X796173Y184013D01*
X796259Y183912D01*
X796348Y183814D01*
X796439Y183718D01*
X796534Y183625D01*
X796631Y183535D01*
X796731Y183448D01*
X796833Y183363D01*
X796938Y183282D01*
X797045Y183204D01*
X797154Y183128D01*
X797265Y183057D01*
X797379Y182988D01*
X797494Y182923D01*
X797612Y182861D01*
X797731Y182803D01*
X797852Y182748D01*
X797974Y182697D01*
X798098Y182649D01*
X798223Y182605D01*
X798349Y182565D01*
X798477Y182529D01*
X798605Y182496D01*
X798734Y182467D01*
X798865Y182442D01*
X798995Y182421D01*
X799127Y182403D01*
X799259Y182390D01*
X799391Y182380D01*
X799523Y182374D01*
X799656Y182372D01*
X804171Y182372D01*
X804171Y198628D01*
X799656Y198628D01*
X799537Y198626D01*
X799417Y198620D01*
X799298Y198610D01*
X799180Y198596D01*
X799061Y198579D01*
X798944Y198557D01*
X798827Y198532D01*
X798712Y198502D01*
X798597Y198469D01*
X798483Y198432D01*
X798371Y198392D01*
X798260Y198347D01*
X798151Y198299D01*
X798043Y198248D01*
X797937Y198193D01*
X797833Y198134D01*
X797731Y198072D01*
X797631Y198007D01*
X797533Y197938D01*
X797437Y197866D01*
X797344Y197791D01*
X797254Y197714D01*
X797166Y197633D01*
X797081Y197549D01*
X796999Y197462D01*
X796919Y197373D01*
X796843Y197281D01*
X796769Y197187D01*
X796699Y197090D01*
X796632Y196992D01*
X796568Y196891D01*
X796508Y196787D01*
X796451Y196682D01*
X796398Y196575D01*
X796348Y196467D01*
X796302Y196357D01*
X796260Y196245D01*
X796221Y196132D01*
X796186Y196018D01*
X796155Y195903D01*
X796127Y195786D01*
X796104Y195669D01*
X796084Y195552D01*
X796068Y195433D01*
X796056Y195314D01*
X796048Y195195D01*
X796044Y195076D01*
X796044Y194956D01*
X796048Y194837D01*
X796056Y194718D01*
X796068Y194599D01*
X796084Y194480D01*
X796104Y194363D01*
X796127Y194246D01*
X796155Y194129D01*
X796186Y194014D01*
X796221Y193900D01*
X796260Y193787D01*
X796302Y193675D01*
X796348Y193565D01*
X796398Y193457D01*
X796451Y193350D01*
X796508Y193245D01*
X796568Y193141D01*
X796632Y193040D01*
X796699Y192942D01*
X796769Y192845D01*
X796843Y192751D01*
X796919Y192659D01*
X796999Y192570D01*
X797081Y192483D01*
X797166Y192399D01*
X797254Y192318D01*
X797344Y192241D01*
X797437Y192166D01*
X797533Y192094D01*
X797631Y192025D01*
X797731Y191960D01*
X797833Y191898D01*
X797937Y191839D01*
X798043Y191784D01*
X798151Y191733D01*
X798260Y191685D01*
X798371Y191640D01*
X798483Y191600D01*
X798597Y191563D01*
X798712Y191530D01*
X798827Y191500D01*
X798944Y191475D01*
X799061Y191453D01*
X799180Y191436D01*
X799298Y191422D01*
X799417Y191412D01*
X799537Y191406D01*
X799656Y191404D01*
X788805Y193209D02*
X788805Y182372D01*
X788805Y193209D02*
X783386Y193209D01*
X783386Y191403D01*
X778990Y193209D02*
X771765Y193209D01*
X778990Y182372D01*
X771765Y182372D01*
X759191Y176953D02*
X758739Y176953D01*
X759191Y176954D02*
X759280Y176956D01*
X759369Y176962D01*
X759458Y176971D01*
X759546Y176985D01*
X759633Y177002D01*
X759720Y177023D01*
X759806Y177048D01*
X759890Y177076D01*
X759973Y177108D01*
X760055Y177144D01*
X760135Y177183D01*
X760214Y177226D01*
X760290Y177272D01*
X760364Y177321D01*
X760437Y177373D01*
X760506Y177429D01*
X760574Y177487D01*
X760639Y177548D01*
X760701Y177612D01*
X760760Y177679D01*
X760816Y177748D01*
X760869Y177820D01*
X760920Y177893D01*
X760966Y177969D01*
X761010Y178047D01*
X761050Y178127D01*
X761087Y178208D01*
X761120Y178291D01*
X761149Y178375D01*
X761175Y178460D01*
X761197Y178547D01*
X761216Y178634D01*
X761230Y178722D01*
X761241Y178810D01*
X761248Y178899D01*
X761251Y178988D01*
X761250Y179077D01*
X761245Y179167D01*
X761237Y179255D01*
X761224Y179344D01*
X761208Y179431D01*
X761188Y179518D01*
X761165Y179604D01*
X761137Y179689D01*
X761106Y179773D01*
X761072Y179855D01*
X761033Y179935D01*
X760992Y180014D01*
X760947Y180091D01*
X760899Y180166D01*
X760847Y180239D01*
X760793Y180309D01*
X760735Y180378D01*
X760675Y180443D01*
X760611Y180506D01*
X760546Y180566D01*
X758739Y182372D01*
X763255Y182372D01*
X763356Y182374D01*
X763457Y182380D01*
X763558Y182389D01*
X763659Y182402D01*
X763759Y182419D01*
X763858Y182440D01*
X763956Y182464D01*
X764053Y182492D01*
X764150Y182524D01*
X764245Y182559D01*
X764338Y182598D01*
X764430Y182640D01*
X764521Y182686D01*
X764610Y182735D01*
X764696Y182787D01*
X764781Y182843D01*
X764864Y182901D01*
X764944Y182963D01*
X765022Y183028D01*
X765098Y183095D01*
X765171Y183165D01*
X765241Y183238D01*
X765308Y183314D01*
X765373Y183392D01*
X765435Y183472D01*
X765493Y183555D01*
X765549Y183640D01*
X765601Y183726D01*
X765650Y183815D01*
X765696Y183906D01*
X765738Y183998D01*
X765777Y184091D01*
X765812Y184186D01*
X765844Y184283D01*
X765872Y184380D01*
X765896Y184478D01*
X765917Y184577D01*
X765934Y184677D01*
X765947Y184778D01*
X765956Y184879D01*
X765962Y184980D01*
X765964Y185081D01*
X765964Y189597D01*
X765962Y189716D01*
X765956Y189836D01*
X765946Y189955D01*
X765932Y190073D01*
X765915Y190192D01*
X765893Y190309D01*
X765868Y190426D01*
X765838Y190541D01*
X765805Y190656D01*
X765768Y190770D01*
X765728Y190882D01*
X765683Y190993D01*
X765635Y191102D01*
X765584Y191210D01*
X765529Y191316D01*
X765470Y191420D01*
X765408Y191522D01*
X765343Y191622D01*
X765274Y191720D01*
X765202Y191816D01*
X765127Y191909D01*
X765050Y191999D01*
X764969Y192087D01*
X764885Y192172D01*
X764798Y192254D01*
X764709Y192334D01*
X764617Y192410D01*
X764523Y192484D01*
X764426Y192554D01*
X764328Y192621D01*
X764227Y192685D01*
X764123Y192745D01*
X764018Y192802D01*
X763911Y192855D01*
X763803Y192905D01*
X763693Y192951D01*
X763581Y192993D01*
X763468Y193032D01*
X763354Y193067D01*
X763239Y193098D01*
X763122Y193126D01*
X763005Y193149D01*
X762888Y193169D01*
X762769Y193185D01*
X762650Y193197D01*
X762531Y193205D01*
X762412Y193209D01*
X762292Y193209D01*
X762173Y193205D01*
X762054Y193197D01*
X761935Y193185D01*
X761816Y193169D01*
X761699Y193149D01*
X761582Y193126D01*
X761465Y193098D01*
X761350Y193067D01*
X761236Y193032D01*
X761123Y192993D01*
X761011Y192951D01*
X760901Y192905D01*
X760793Y192855D01*
X760686Y192802D01*
X760581Y192745D01*
X760477Y192685D01*
X760376Y192621D01*
X760278Y192554D01*
X760181Y192484D01*
X760087Y192410D01*
X759995Y192334D01*
X759906Y192254D01*
X759819Y192172D01*
X759735Y192087D01*
X759654Y191999D01*
X759577Y191909D01*
X759502Y191816D01*
X759430Y191720D01*
X759361Y191622D01*
X759296Y191522D01*
X759234Y191420D01*
X759175Y191316D01*
X759120Y191210D01*
X759069Y191102D01*
X759021Y190993D01*
X758976Y190882D01*
X758936Y190770D01*
X758899Y190656D01*
X758866Y190541D01*
X758836Y190426D01*
X758811Y190309D01*
X758789Y190192D01*
X758772Y190073D01*
X758758Y189955D01*
X758748Y189836D01*
X758742Y189716D01*
X758740Y189597D01*
X758739Y189597D02*
X758739Y187791D01*
X765964Y187791D01*
X749690Y182372D02*
X746078Y182372D01*
X749690Y182372D02*
X749791Y182374D01*
X749892Y182380D01*
X749993Y182389D01*
X750094Y182402D01*
X750194Y182419D01*
X750293Y182440D01*
X750391Y182464D01*
X750488Y182492D01*
X750585Y182524D01*
X750680Y182559D01*
X750773Y182598D01*
X750865Y182640D01*
X750956Y182686D01*
X751045Y182735D01*
X751131Y182787D01*
X751216Y182843D01*
X751299Y182901D01*
X751379Y182963D01*
X751457Y183028D01*
X751533Y183095D01*
X751606Y183165D01*
X751676Y183238D01*
X751743Y183314D01*
X751808Y183392D01*
X751870Y183472D01*
X751928Y183555D01*
X751984Y183640D01*
X752036Y183726D01*
X752085Y183815D01*
X752131Y183906D01*
X752173Y183998D01*
X752212Y184091D01*
X752247Y184186D01*
X752279Y184283D01*
X752307Y184380D01*
X752331Y184478D01*
X752352Y184577D01*
X752369Y184677D01*
X752382Y184778D01*
X752391Y184879D01*
X752397Y184980D01*
X752399Y185081D01*
X752400Y185081D02*
X752400Y190500D01*
X752399Y190500D02*
X752397Y190601D01*
X752391Y190702D01*
X752382Y190803D01*
X752369Y190904D01*
X752352Y191004D01*
X752331Y191103D01*
X752307Y191201D01*
X752279Y191298D01*
X752247Y191395D01*
X752212Y191490D01*
X752173Y191583D01*
X752131Y191675D01*
X752085Y191766D01*
X752036Y191855D01*
X751984Y191941D01*
X751928Y192026D01*
X751870Y192109D01*
X751808Y192189D01*
X751743Y192267D01*
X751676Y192343D01*
X751606Y192416D01*
X751533Y192486D01*
X751457Y192553D01*
X751379Y192618D01*
X751299Y192680D01*
X751216Y192738D01*
X751131Y192794D01*
X751045Y192846D01*
X750956Y192895D01*
X750865Y192941D01*
X750773Y192983D01*
X750680Y193022D01*
X750585Y193057D01*
X750488Y193089D01*
X750391Y193117D01*
X750293Y193141D01*
X750194Y193162D01*
X750094Y193179D01*
X749993Y193192D01*
X749892Y193201D01*
X749791Y193207D01*
X749690Y193209D01*
X746078Y193209D01*
X740954Y193209D02*
X733729Y193209D01*
X740954Y182372D01*
X733729Y182372D01*
X728449Y176953D02*
X726643Y176953D01*
X721224Y193209D01*
X728449Y193209D02*
X724837Y182372D01*
X714069Y188694D02*
X709553Y186888D01*
X714069Y188694D02*
X714157Y188731D01*
X714243Y188772D01*
X714328Y188816D01*
X714411Y188864D01*
X714491Y188915D01*
X714570Y188969D01*
X714646Y189027D01*
X714720Y189087D01*
X714792Y189151D01*
X714860Y189217D01*
X714926Y189287D01*
X714989Y189358D01*
X715050Y189433D01*
X715107Y189509D01*
X715160Y189588D01*
X715211Y189669D01*
X715258Y189752D01*
X715302Y189837D01*
X715342Y189924D01*
X715379Y190012D01*
X715412Y190102D01*
X715442Y190193D01*
X715467Y190285D01*
X715489Y190378D01*
X715507Y190472D01*
X715522Y190566D01*
X715532Y190661D01*
X715538Y190757D01*
X715541Y190852D01*
X715540Y190948D01*
X715534Y191043D01*
X715525Y191139D01*
X715512Y191233D01*
X715496Y191327D01*
X715475Y191421D01*
X715450Y191513D01*
X715422Y191604D01*
X715390Y191694D01*
X715355Y191783D01*
X715316Y191870D01*
X715273Y191956D01*
X715227Y192040D01*
X715177Y192121D01*
X715125Y192201D01*
X715069Y192279D01*
X715009Y192354D01*
X714947Y192426D01*
X714882Y192496D01*
X714814Y192564D01*
X714744Y192628D01*
X714671Y192690D01*
X714595Y192748D01*
X714517Y192804D01*
X714437Y192856D01*
X714355Y192905D01*
X714271Y192950D01*
X714185Y192992D01*
X714098Y193031D01*
X714009Y193066D01*
X713918Y193097D01*
X713827Y193124D01*
X713734Y193148D01*
X713641Y193168D01*
X713547Y193184D01*
X713452Y193196D01*
X713357Y193205D01*
X713261Y193209D01*
X713166Y193210D01*
X712919Y193203D01*
X712673Y193191D01*
X712427Y193173D01*
X712181Y193148D01*
X711937Y193118D01*
X711693Y193082D01*
X711450Y193041D01*
X711208Y192993D01*
X710967Y192939D01*
X710728Y192880D01*
X710490Y192815D01*
X710254Y192744D01*
X710019Y192668D01*
X709786Y192586D01*
X709556Y192498D01*
X709328Y192405D01*
X709101Y192307D01*
X709553Y186887D02*
X709465Y186850D01*
X709379Y186809D01*
X709294Y186765D01*
X709211Y186717D01*
X709131Y186666D01*
X709052Y186612D01*
X708976Y186554D01*
X708902Y186494D01*
X708830Y186430D01*
X708762Y186364D01*
X708696Y186294D01*
X708633Y186223D01*
X708572Y186148D01*
X708515Y186072D01*
X708462Y185993D01*
X708411Y185912D01*
X708364Y185829D01*
X708320Y185744D01*
X708280Y185657D01*
X708243Y185569D01*
X708210Y185479D01*
X708180Y185388D01*
X708155Y185296D01*
X708133Y185203D01*
X708115Y185109D01*
X708100Y185015D01*
X708090Y184920D01*
X708084Y184824D01*
X708081Y184729D01*
X708082Y184633D01*
X708088Y184538D01*
X708097Y184442D01*
X708110Y184348D01*
X708126Y184254D01*
X708147Y184160D01*
X708172Y184068D01*
X708200Y183977D01*
X708232Y183887D01*
X708267Y183798D01*
X708306Y183711D01*
X708349Y183625D01*
X708395Y183541D01*
X708445Y183460D01*
X708497Y183380D01*
X708553Y183302D01*
X708613Y183227D01*
X708675Y183155D01*
X708740Y183085D01*
X708808Y183017D01*
X708878Y182953D01*
X708951Y182891D01*
X709027Y182833D01*
X709105Y182777D01*
X709185Y182725D01*
X709267Y182676D01*
X709351Y182631D01*
X709437Y182589D01*
X709524Y182550D01*
X709613Y182515D01*
X709704Y182484D01*
X709795Y182457D01*
X709888Y182433D01*
X709981Y182413D01*
X710075Y182397D01*
X710170Y182385D01*
X710265Y182376D01*
X710361Y182372D01*
X710456Y182371D01*
X710457Y182372D02*
X710819Y182381D01*
X711181Y182399D01*
X711542Y182426D01*
X711902Y182461D01*
X712262Y182504D01*
X712621Y182556D01*
X712978Y182617D01*
X713333Y182686D01*
X713687Y182763D01*
X714039Y182849D01*
X714389Y182943D01*
X714737Y183046D01*
X715082Y183156D01*
X715424Y183275D01*
X702397Y193209D02*
X695172Y193209D01*
X702397Y182372D01*
X695172Y182372D01*
X686644Y182372D02*
X683032Y182372D01*
X686644Y182372D02*
X686745Y182374D01*
X686846Y182380D01*
X686947Y182389D01*
X687048Y182402D01*
X687148Y182419D01*
X687247Y182440D01*
X687345Y182464D01*
X687442Y182492D01*
X687539Y182524D01*
X687634Y182559D01*
X687727Y182598D01*
X687819Y182640D01*
X687910Y182686D01*
X687999Y182735D01*
X688085Y182787D01*
X688170Y182843D01*
X688253Y182901D01*
X688333Y182963D01*
X688411Y183028D01*
X688487Y183095D01*
X688560Y183165D01*
X688630Y183238D01*
X688697Y183314D01*
X688762Y183392D01*
X688824Y183472D01*
X688882Y183555D01*
X688938Y183640D01*
X688990Y183726D01*
X689039Y183815D01*
X689085Y183906D01*
X689127Y183998D01*
X689166Y184091D01*
X689201Y184186D01*
X689233Y184283D01*
X689261Y184380D01*
X689285Y184478D01*
X689306Y184577D01*
X689323Y184677D01*
X689336Y184778D01*
X689345Y184879D01*
X689351Y184980D01*
X689353Y185081D01*
X689354Y185081D02*
X689354Y190500D01*
X689353Y190500D02*
X689351Y190601D01*
X689345Y190702D01*
X689336Y190803D01*
X689323Y190904D01*
X689306Y191004D01*
X689285Y191103D01*
X689261Y191201D01*
X689233Y191298D01*
X689201Y191395D01*
X689166Y191490D01*
X689127Y191583D01*
X689085Y191675D01*
X689039Y191766D01*
X688990Y191855D01*
X688938Y191941D01*
X688882Y192026D01*
X688824Y192109D01*
X688762Y192189D01*
X688697Y192267D01*
X688630Y192343D01*
X688560Y192416D01*
X688487Y192486D01*
X688411Y192553D01*
X688333Y192618D01*
X688253Y192680D01*
X688170Y192738D01*
X688085Y192794D01*
X687999Y192846D01*
X687910Y192895D01*
X687819Y192941D01*
X687727Y192983D01*
X687634Y193022D01*
X687539Y193057D01*
X687442Y193089D01*
X687345Y193117D01*
X687247Y193141D01*
X687148Y193162D01*
X687048Y193179D01*
X686947Y193192D01*
X686846Y193201D01*
X686745Y193207D01*
X686644Y193209D01*
X683032Y193209D01*
X677908Y193209D02*
X670684Y193209D01*
X677908Y182372D01*
X670684Y182372D01*
X665404Y176953D02*
X663597Y176953D01*
X658179Y193209D01*
X665404Y193209D02*
X661791Y182372D01*
X651688Y182372D02*
X651688Y198628D01*
X644463Y193209D02*
X651688Y187791D01*
X648527Y190048D02*
X644463Y182372D01*
X638865Y182372D02*
X638865Y193209D01*
X639317Y197725D02*
X639317Y198628D01*
X638414Y198628D01*
X638414Y197725D01*
X639317Y197725D01*
X629869Y182372D02*
X625353Y182372D01*
X629869Y182372D02*
X629970Y182374D01*
X630071Y182380D01*
X630172Y182389D01*
X630273Y182402D01*
X630373Y182419D01*
X630472Y182440D01*
X630570Y182464D01*
X630667Y182492D01*
X630764Y182524D01*
X630859Y182559D01*
X630952Y182598D01*
X631044Y182640D01*
X631135Y182686D01*
X631224Y182735D01*
X631310Y182787D01*
X631395Y182843D01*
X631478Y182901D01*
X631558Y182963D01*
X631636Y183028D01*
X631712Y183095D01*
X631785Y183165D01*
X631855Y183238D01*
X631922Y183314D01*
X631987Y183392D01*
X632049Y183472D01*
X632107Y183555D01*
X632163Y183640D01*
X632215Y183726D01*
X632264Y183815D01*
X632310Y183906D01*
X632352Y183998D01*
X632391Y184091D01*
X632426Y184186D01*
X632458Y184283D01*
X632486Y184380D01*
X632510Y184478D01*
X632531Y184577D01*
X632548Y184677D01*
X632561Y184778D01*
X632570Y184879D01*
X632576Y184980D01*
X632578Y185081D01*
X632578Y189597D01*
X632576Y189716D01*
X632570Y189836D01*
X632560Y189955D01*
X632546Y190073D01*
X632529Y190192D01*
X632507Y190309D01*
X632482Y190426D01*
X632452Y190541D01*
X632419Y190656D01*
X632382Y190770D01*
X632342Y190882D01*
X632297Y190993D01*
X632249Y191102D01*
X632198Y191210D01*
X632143Y191316D01*
X632084Y191420D01*
X632022Y191522D01*
X631957Y191622D01*
X631888Y191720D01*
X631816Y191816D01*
X631741Y191909D01*
X631664Y191999D01*
X631583Y192087D01*
X631499Y192172D01*
X631412Y192254D01*
X631323Y192334D01*
X631231Y192410D01*
X631137Y192484D01*
X631040Y192554D01*
X630942Y192621D01*
X630841Y192685D01*
X630737Y192745D01*
X630632Y192802D01*
X630525Y192855D01*
X630417Y192905D01*
X630307Y192951D01*
X630195Y192993D01*
X630082Y193032D01*
X629968Y193067D01*
X629853Y193098D01*
X629736Y193126D01*
X629619Y193149D01*
X629502Y193169D01*
X629383Y193185D01*
X629264Y193197D01*
X629145Y193205D01*
X629026Y193209D01*
X628906Y193209D01*
X628787Y193205D01*
X628668Y193197D01*
X628549Y193185D01*
X628430Y193169D01*
X628313Y193149D01*
X628196Y193126D01*
X628079Y193098D01*
X627964Y193067D01*
X627850Y193032D01*
X627737Y192993D01*
X627625Y192951D01*
X627515Y192905D01*
X627407Y192855D01*
X627300Y192802D01*
X627195Y192745D01*
X627091Y192685D01*
X626990Y192621D01*
X626892Y192554D01*
X626795Y192484D01*
X626701Y192410D01*
X626609Y192334D01*
X626520Y192254D01*
X626433Y192172D01*
X626349Y192087D01*
X626268Y191999D01*
X626191Y191909D01*
X626116Y191816D01*
X626044Y191720D01*
X625975Y191622D01*
X625910Y191522D01*
X625848Y191420D01*
X625789Y191316D01*
X625734Y191210D01*
X625683Y191102D01*
X625635Y190993D01*
X625590Y190882D01*
X625550Y190770D01*
X625513Y190656D01*
X625480Y190541D01*
X625450Y190426D01*
X625425Y190309D01*
X625403Y190192D01*
X625386Y190073D01*
X625372Y189955D01*
X625362Y189836D01*
X625356Y189716D01*
X625354Y189597D01*
X625353Y189597D02*
X625353Y187791D01*
X632578Y187791D01*
X619274Y193209D02*
X616565Y182372D01*
X613855Y189597D01*
X611146Y182372D01*
X608437Y193209D01*
X602392Y193209D02*
X602392Y182372D01*
X602844Y197725D02*
X602844Y198628D01*
X601941Y198628D01*
X601941Y197725D01*
X602844Y197725D01*
X593378Y182372D02*
X589766Y182372D01*
X593378Y182372D02*
X593479Y182374D01*
X593580Y182380D01*
X593681Y182389D01*
X593782Y182402D01*
X593882Y182419D01*
X593981Y182440D01*
X594079Y182464D01*
X594176Y182492D01*
X594273Y182524D01*
X594368Y182559D01*
X594461Y182598D01*
X594553Y182640D01*
X594644Y182686D01*
X594733Y182735D01*
X594819Y182787D01*
X594904Y182843D01*
X594987Y182901D01*
X595067Y182963D01*
X595145Y183028D01*
X595221Y183095D01*
X595294Y183165D01*
X595364Y183238D01*
X595431Y183314D01*
X595496Y183392D01*
X595558Y183472D01*
X595616Y183555D01*
X595672Y183640D01*
X595724Y183726D01*
X595773Y183815D01*
X595819Y183906D01*
X595861Y183998D01*
X595900Y184091D01*
X595935Y184186D01*
X595967Y184283D01*
X595995Y184380D01*
X596019Y184478D01*
X596040Y184577D01*
X596057Y184677D01*
X596070Y184778D01*
X596079Y184879D01*
X596085Y184980D01*
X596087Y185081D01*
X596088Y185081D02*
X596088Y190500D01*
X596087Y190500D02*
X596085Y190601D01*
X596079Y190702D01*
X596070Y190803D01*
X596057Y190904D01*
X596040Y191004D01*
X596019Y191103D01*
X595995Y191201D01*
X595967Y191298D01*
X595935Y191395D01*
X595900Y191490D01*
X595861Y191583D01*
X595819Y191675D01*
X595773Y191766D01*
X595724Y191855D01*
X595672Y191941D01*
X595616Y192026D01*
X595558Y192109D01*
X595496Y192189D01*
X595431Y192267D01*
X595364Y192343D01*
X595294Y192416D01*
X595221Y192486D01*
X595145Y192553D01*
X595067Y192618D01*
X594987Y192680D01*
X594904Y192738D01*
X594819Y192794D01*
X594733Y192846D01*
X594644Y192895D01*
X594553Y192941D01*
X594461Y192983D01*
X594368Y193022D01*
X594273Y193057D01*
X594176Y193089D01*
X594079Y193117D01*
X593981Y193141D01*
X593882Y193162D01*
X593782Y193179D01*
X593681Y193192D01*
X593580Y193201D01*
X593479Y193207D01*
X593378Y193209D01*
X589766Y193209D01*
X584642Y193209D02*
X577417Y193209D01*
X584642Y182372D01*
X577417Y182372D01*
X560813Y182372D02*
X563523Y193209D01*
X558104Y189597D02*
X560813Y182372D01*
X555395Y182372D02*
X558104Y189597D01*
X552685Y193209D02*
X555395Y182372D01*
X543519Y188694D02*
X539455Y188694D01*
X543519Y188694D02*
X543631Y188692D01*
X543742Y188686D01*
X543853Y188676D01*
X543964Y188663D01*
X544074Y188645D01*
X544183Y188623D01*
X544292Y188598D01*
X544400Y188569D01*
X544506Y188536D01*
X544612Y188499D01*
X544716Y188459D01*
X544818Y188415D01*
X544919Y188367D01*
X545018Y188316D01*
X545116Y188261D01*
X545211Y188203D01*
X545304Y188142D01*
X545395Y188077D01*
X545484Y188009D01*
X545570Y187938D01*
X545653Y187865D01*
X545734Y187788D01*
X545813Y187708D01*
X545888Y187626D01*
X545960Y187541D01*
X546030Y187454D01*
X546096Y187364D01*
X546159Y187272D01*
X546219Y187177D01*
X546275Y187081D01*
X546328Y186983D01*
X546377Y186883D01*
X546423Y186781D01*
X546465Y186678D01*
X546504Y186573D01*
X546539Y186467D01*
X546570Y186360D01*
X546597Y186252D01*
X546621Y186143D01*
X546640Y186033D01*
X546656Y185923D01*
X546668Y185812D01*
X546676Y185700D01*
X546680Y185589D01*
X546680Y185477D01*
X546676Y185366D01*
X546668Y185254D01*
X546656Y185143D01*
X546640Y185033D01*
X546621Y184923D01*
X546597Y184814D01*
X546570Y184706D01*
X546539Y184599D01*
X546504Y184493D01*
X546465Y184388D01*
X546423Y184285D01*
X546377Y184183D01*
X546328Y184083D01*
X546275Y183985D01*
X546219Y183889D01*
X546159Y183794D01*
X546096Y183702D01*
X546030Y183612D01*
X545960Y183525D01*
X545888Y183440D01*
X545813Y183358D01*
X545734Y183278D01*
X545653Y183201D01*
X545570Y183128D01*
X545484Y183057D01*
X545395Y182989D01*
X545304Y182924D01*
X545211Y182863D01*
X545116Y182805D01*
X545018Y182750D01*
X544919Y182699D01*
X544818Y182651D01*
X544716Y182607D01*
X544612Y182567D01*
X544506Y182530D01*
X544400Y182497D01*
X544292Y182468D01*
X544183Y182443D01*
X544074Y182421D01*
X543964Y182403D01*
X543853Y182390D01*
X543742Y182380D01*
X543631Y182374D01*
X543519Y182372D01*
X539455Y182372D01*
X539455Y190500D01*
X539457Y190601D01*
X539463Y190702D01*
X539472Y190803D01*
X539485Y190904D01*
X539502Y191004D01*
X539523Y191103D01*
X539547Y191201D01*
X539575Y191298D01*
X539607Y191395D01*
X539642Y191490D01*
X539681Y191583D01*
X539723Y191675D01*
X539769Y191766D01*
X539818Y191855D01*
X539870Y191941D01*
X539926Y192026D01*
X539984Y192109D01*
X540046Y192189D01*
X540111Y192267D01*
X540178Y192343D01*
X540248Y192416D01*
X540321Y192486D01*
X540397Y192553D01*
X540475Y192618D01*
X540555Y192680D01*
X540638Y192738D01*
X540723Y192794D01*
X540810Y192846D01*
X540898Y192895D01*
X540989Y192941D01*
X541081Y192983D01*
X541174Y193022D01*
X541269Y193057D01*
X541366Y193089D01*
X541463Y193117D01*
X541561Y193141D01*
X541660Y193162D01*
X541760Y193179D01*
X541861Y193192D01*
X541962Y193201D01*
X542063Y193207D01*
X542164Y193209D01*
X545776Y193209D01*
X531184Y188694D02*
X526668Y186888D01*
X531184Y188694D02*
X531272Y188731D01*
X531358Y188772D01*
X531443Y188816D01*
X531526Y188864D01*
X531606Y188915D01*
X531685Y188969D01*
X531761Y189027D01*
X531835Y189087D01*
X531907Y189151D01*
X531975Y189217D01*
X532041Y189287D01*
X532104Y189358D01*
X532165Y189433D01*
X532222Y189509D01*
X532275Y189588D01*
X532326Y189669D01*
X532373Y189752D01*
X532417Y189837D01*
X532457Y189924D01*
X532494Y190012D01*
X532527Y190102D01*
X532557Y190193D01*
X532582Y190285D01*
X532604Y190378D01*
X532622Y190472D01*
X532637Y190566D01*
X532647Y190661D01*
X532653Y190757D01*
X532656Y190852D01*
X532655Y190948D01*
X532649Y191043D01*
X532640Y191139D01*
X532627Y191233D01*
X532611Y191327D01*
X532590Y191421D01*
X532565Y191513D01*
X532537Y191604D01*
X532505Y191694D01*
X532470Y191783D01*
X532431Y191870D01*
X532388Y191956D01*
X532342Y192040D01*
X532292Y192121D01*
X532240Y192201D01*
X532184Y192279D01*
X532124Y192354D01*
X532062Y192426D01*
X531997Y192496D01*
X531929Y192564D01*
X531859Y192628D01*
X531786Y192690D01*
X531710Y192748D01*
X531632Y192804D01*
X531552Y192856D01*
X531470Y192905D01*
X531386Y192950D01*
X531300Y192992D01*
X531213Y193031D01*
X531124Y193066D01*
X531033Y193097D01*
X530942Y193124D01*
X530849Y193148D01*
X530756Y193168D01*
X530662Y193184D01*
X530567Y193196D01*
X530472Y193205D01*
X530376Y193209D01*
X530281Y193210D01*
X530034Y193203D01*
X529788Y193191D01*
X529542Y193173D01*
X529296Y193148D01*
X529052Y193118D01*
X528808Y193082D01*
X528565Y193041D01*
X528323Y192993D01*
X528082Y192939D01*
X527843Y192880D01*
X527605Y192815D01*
X527369Y192744D01*
X527134Y192668D01*
X526901Y192586D01*
X526671Y192498D01*
X526443Y192405D01*
X526216Y192307D01*
X526668Y186887D02*
X526580Y186850D01*
X526494Y186809D01*
X526409Y186765D01*
X526326Y186717D01*
X526246Y186666D01*
X526167Y186612D01*
X526091Y186554D01*
X526017Y186494D01*
X525945Y186430D01*
X525877Y186364D01*
X525811Y186294D01*
X525748Y186223D01*
X525687Y186148D01*
X525630Y186072D01*
X525577Y185993D01*
X525526Y185912D01*
X525479Y185829D01*
X525435Y185744D01*
X525395Y185657D01*
X525358Y185569D01*
X525325Y185479D01*
X525295Y185388D01*
X525270Y185296D01*
X525248Y185203D01*
X525230Y185109D01*
X525215Y185015D01*
X525205Y184920D01*
X525199Y184824D01*
X525196Y184729D01*
X525197Y184633D01*
X525203Y184538D01*
X525212Y184442D01*
X525225Y184348D01*
X525241Y184254D01*
X525262Y184160D01*
X525287Y184068D01*
X525315Y183977D01*
X525347Y183887D01*
X525382Y183798D01*
X525421Y183711D01*
X525464Y183625D01*
X525510Y183541D01*
X525560Y183460D01*
X525612Y183380D01*
X525668Y183302D01*
X525728Y183227D01*
X525790Y183155D01*
X525855Y183085D01*
X525923Y183017D01*
X525993Y182953D01*
X526066Y182891D01*
X526142Y182833D01*
X526220Y182777D01*
X526300Y182725D01*
X526382Y182676D01*
X526466Y182631D01*
X526552Y182589D01*
X526639Y182550D01*
X526728Y182515D01*
X526819Y182484D01*
X526910Y182457D01*
X527003Y182433D01*
X527096Y182413D01*
X527190Y182397D01*
X527285Y182385D01*
X527380Y182376D01*
X527476Y182372D01*
X527571Y182371D01*
X527571Y182372D02*
X527933Y182381D01*
X528295Y182399D01*
X528656Y182426D01*
X529016Y182461D01*
X529376Y182504D01*
X529735Y182556D01*
X530092Y182617D01*
X530447Y182686D01*
X530801Y182763D01*
X531153Y182849D01*
X531503Y182943D01*
X531851Y183046D01*
X532196Y183156D01*
X532538Y183275D01*
X510133Y182372D02*
X510133Y198628D01*
X510133Y193209D02*
X505618Y193209D01*
X505514Y193207D01*
X505411Y193201D01*
X505307Y193191D01*
X505204Y193177D01*
X505102Y193159D01*
X505001Y193138D01*
X504900Y193112D01*
X504801Y193083D01*
X504702Y193050D01*
X504605Y193013D01*
X504510Y192972D01*
X504416Y192928D01*
X504324Y192880D01*
X504234Y192829D01*
X504145Y192774D01*
X504059Y192716D01*
X503976Y192654D01*
X503894Y192590D01*
X503816Y192522D01*
X503740Y192452D01*
X503666Y192379D01*
X503596Y192302D01*
X503528Y192224D01*
X503464Y192142D01*
X503402Y192059D01*
X503344Y191973D01*
X503289Y191884D01*
X503238Y191794D01*
X503190Y191702D01*
X503146Y191608D01*
X503105Y191513D01*
X503068Y191416D01*
X503035Y191317D01*
X503006Y191218D01*
X502980Y191117D01*
X502959Y191016D01*
X502941Y190914D01*
X502927Y190811D01*
X502917Y190707D01*
X502911Y190604D01*
X502909Y190500D01*
X502909Y182372D01*
X493356Y182372D02*
X488841Y182372D01*
X493356Y182372D02*
X493457Y182374D01*
X493558Y182380D01*
X493659Y182389D01*
X493760Y182402D01*
X493860Y182419D01*
X493959Y182440D01*
X494057Y182464D01*
X494154Y182492D01*
X494251Y182524D01*
X494346Y182559D01*
X494439Y182598D01*
X494531Y182640D01*
X494622Y182686D01*
X494711Y182735D01*
X494797Y182787D01*
X494882Y182843D01*
X494965Y182901D01*
X495045Y182963D01*
X495123Y183028D01*
X495199Y183095D01*
X495272Y183165D01*
X495342Y183238D01*
X495409Y183314D01*
X495474Y183392D01*
X495536Y183472D01*
X495594Y183555D01*
X495650Y183640D01*
X495702Y183726D01*
X495751Y183815D01*
X495797Y183906D01*
X495839Y183998D01*
X495878Y184091D01*
X495913Y184186D01*
X495945Y184283D01*
X495973Y184380D01*
X495997Y184478D01*
X496018Y184577D01*
X496035Y184677D01*
X496048Y184778D01*
X496057Y184879D01*
X496063Y184980D01*
X496065Y185081D01*
X496065Y189597D01*
X496063Y189716D01*
X496057Y189836D01*
X496047Y189955D01*
X496033Y190073D01*
X496016Y190192D01*
X495994Y190309D01*
X495969Y190426D01*
X495939Y190541D01*
X495906Y190656D01*
X495869Y190770D01*
X495829Y190882D01*
X495784Y190993D01*
X495736Y191102D01*
X495685Y191210D01*
X495630Y191316D01*
X495571Y191420D01*
X495509Y191522D01*
X495444Y191622D01*
X495375Y191720D01*
X495303Y191816D01*
X495228Y191909D01*
X495151Y191999D01*
X495070Y192087D01*
X494986Y192172D01*
X494899Y192254D01*
X494810Y192334D01*
X494718Y192410D01*
X494624Y192484D01*
X494527Y192554D01*
X494429Y192621D01*
X494328Y192685D01*
X494224Y192745D01*
X494119Y192802D01*
X494012Y192855D01*
X493904Y192905D01*
X493794Y192951D01*
X493682Y192993D01*
X493569Y193032D01*
X493455Y193067D01*
X493340Y193098D01*
X493223Y193126D01*
X493106Y193149D01*
X492989Y193169D01*
X492870Y193185D01*
X492751Y193197D01*
X492632Y193205D01*
X492513Y193209D01*
X492393Y193209D01*
X492274Y193205D01*
X492155Y193197D01*
X492036Y193185D01*
X491917Y193169D01*
X491800Y193149D01*
X491683Y193126D01*
X491566Y193098D01*
X491451Y193067D01*
X491337Y193032D01*
X491224Y192993D01*
X491112Y192951D01*
X491002Y192905D01*
X490894Y192855D01*
X490787Y192802D01*
X490682Y192745D01*
X490578Y192685D01*
X490477Y192621D01*
X490379Y192554D01*
X490282Y192484D01*
X490188Y192410D01*
X490096Y192334D01*
X490007Y192254D01*
X489920Y192172D01*
X489836Y192087D01*
X489755Y191999D01*
X489678Y191909D01*
X489603Y191816D01*
X489531Y191720D01*
X489462Y191622D01*
X489397Y191522D01*
X489335Y191420D01*
X489276Y191316D01*
X489221Y191210D01*
X489170Y191102D01*
X489122Y190993D01*
X489077Y190882D01*
X489037Y190770D01*
X489000Y190656D01*
X488967Y190541D01*
X488937Y190426D01*
X488912Y190309D01*
X488890Y190192D01*
X488873Y190073D01*
X488859Y189955D01*
X488849Y189836D01*
X488843Y189716D01*
X488841Y189597D01*
X488841Y187791D01*
X496065Y187791D01*
X481912Y182372D02*
X481912Y193209D01*
X476494Y193209D01*
X476494Y191403D01*
X468867Y182372D02*
X464352Y182372D01*
X468867Y182372D02*
X468968Y182374D01*
X469069Y182380D01*
X469170Y182389D01*
X469271Y182402D01*
X469371Y182419D01*
X469470Y182440D01*
X469568Y182464D01*
X469665Y182492D01*
X469762Y182524D01*
X469857Y182559D01*
X469950Y182598D01*
X470042Y182640D01*
X470133Y182686D01*
X470222Y182735D01*
X470308Y182787D01*
X470393Y182843D01*
X470476Y182901D01*
X470556Y182963D01*
X470634Y183028D01*
X470710Y183095D01*
X470783Y183165D01*
X470853Y183238D01*
X470920Y183314D01*
X470985Y183392D01*
X471047Y183472D01*
X471105Y183555D01*
X471161Y183640D01*
X471213Y183726D01*
X471262Y183815D01*
X471308Y183906D01*
X471350Y183998D01*
X471389Y184091D01*
X471424Y184186D01*
X471456Y184283D01*
X471484Y184380D01*
X471508Y184478D01*
X471529Y184577D01*
X471546Y184677D01*
X471559Y184778D01*
X471568Y184879D01*
X471574Y184980D01*
X471576Y185081D01*
X471576Y189597D01*
X471574Y189716D01*
X471568Y189836D01*
X471558Y189955D01*
X471544Y190073D01*
X471527Y190192D01*
X471505Y190309D01*
X471480Y190426D01*
X471450Y190541D01*
X471417Y190656D01*
X471380Y190770D01*
X471340Y190882D01*
X471295Y190993D01*
X471247Y191102D01*
X471196Y191210D01*
X471141Y191316D01*
X471082Y191420D01*
X471020Y191522D01*
X470955Y191622D01*
X470886Y191720D01*
X470814Y191816D01*
X470739Y191909D01*
X470662Y191999D01*
X470581Y192087D01*
X470497Y192172D01*
X470410Y192254D01*
X470321Y192334D01*
X470229Y192410D01*
X470135Y192484D01*
X470038Y192554D01*
X469940Y192621D01*
X469839Y192685D01*
X469735Y192745D01*
X469630Y192802D01*
X469523Y192855D01*
X469415Y192905D01*
X469305Y192951D01*
X469193Y192993D01*
X469080Y193032D01*
X468966Y193067D01*
X468851Y193098D01*
X468734Y193126D01*
X468617Y193149D01*
X468500Y193169D01*
X468381Y193185D01*
X468262Y193197D01*
X468143Y193205D01*
X468024Y193209D01*
X467904Y193209D01*
X467785Y193205D01*
X467666Y193197D01*
X467547Y193185D01*
X467428Y193169D01*
X467311Y193149D01*
X467194Y193126D01*
X467077Y193098D01*
X466962Y193067D01*
X466848Y193032D01*
X466735Y192993D01*
X466623Y192951D01*
X466513Y192905D01*
X466405Y192855D01*
X466298Y192802D01*
X466193Y192745D01*
X466089Y192685D01*
X465988Y192621D01*
X465890Y192554D01*
X465793Y192484D01*
X465699Y192410D01*
X465607Y192334D01*
X465518Y192254D01*
X465431Y192172D01*
X465347Y192087D01*
X465266Y191999D01*
X465189Y191909D01*
X465114Y191816D01*
X465042Y191720D01*
X464973Y191622D01*
X464908Y191522D01*
X464846Y191420D01*
X464787Y191316D01*
X464732Y191210D01*
X464681Y191102D01*
X464633Y190993D01*
X464588Y190882D01*
X464548Y190770D01*
X464511Y190656D01*
X464478Y190541D01*
X464448Y190426D01*
X464423Y190309D01*
X464401Y190192D01*
X464384Y190073D01*
X464370Y189955D01*
X464360Y189836D01*
X464354Y189716D01*
X464352Y189597D01*
X464352Y187791D01*
X471576Y187791D01*
X915162Y792988D02*
X915162Y809244D01*
X906131Y792988D01*
X906131Y809244D01*
X899149Y800213D02*
X899149Y796600D01*
X899148Y800213D02*
X899146Y800332D01*
X899140Y800452D01*
X899130Y800571D01*
X899116Y800689D01*
X899099Y800808D01*
X899077Y800925D01*
X899052Y801042D01*
X899022Y801157D01*
X898989Y801272D01*
X898952Y801386D01*
X898912Y801498D01*
X898867Y801609D01*
X898819Y801718D01*
X898768Y801826D01*
X898713Y801932D01*
X898654Y802036D01*
X898592Y802138D01*
X898527Y802238D01*
X898458Y802336D01*
X898386Y802432D01*
X898311Y802525D01*
X898234Y802615D01*
X898153Y802703D01*
X898069Y802788D01*
X897982Y802870D01*
X897893Y802950D01*
X897801Y803026D01*
X897707Y803100D01*
X897610Y803170D01*
X897512Y803237D01*
X897411Y803301D01*
X897307Y803361D01*
X897202Y803418D01*
X897095Y803471D01*
X896987Y803521D01*
X896877Y803567D01*
X896765Y803609D01*
X896652Y803648D01*
X896538Y803683D01*
X896423Y803714D01*
X896306Y803742D01*
X896189Y803765D01*
X896072Y803785D01*
X895953Y803801D01*
X895834Y803813D01*
X895715Y803821D01*
X895596Y803825D01*
X895476Y803825D01*
X895357Y803821D01*
X895238Y803813D01*
X895119Y803801D01*
X895000Y803785D01*
X894883Y803765D01*
X894766Y803742D01*
X894649Y803714D01*
X894534Y803683D01*
X894420Y803648D01*
X894307Y803609D01*
X894195Y803567D01*
X894085Y803521D01*
X893977Y803471D01*
X893870Y803418D01*
X893765Y803361D01*
X893661Y803301D01*
X893560Y803237D01*
X893462Y803170D01*
X893365Y803100D01*
X893271Y803026D01*
X893179Y802950D01*
X893090Y802870D01*
X893003Y802788D01*
X892919Y802703D01*
X892838Y802615D01*
X892761Y802525D01*
X892686Y802432D01*
X892614Y802336D01*
X892545Y802238D01*
X892480Y802138D01*
X892418Y802036D01*
X892359Y801932D01*
X892304Y801826D01*
X892253Y801718D01*
X892205Y801609D01*
X892160Y801498D01*
X892120Y801386D01*
X892083Y801272D01*
X892050Y801157D01*
X892020Y801042D01*
X891995Y800925D01*
X891973Y800808D01*
X891956Y800689D01*
X891942Y800571D01*
X891932Y800452D01*
X891926Y800332D01*
X891924Y800213D01*
X891924Y796600D01*
X891926Y796481D01*
X891932Y796361D01*
X891942Y796242D01*
X891956Y796124D01*
X891973Y796005D01*
X891995Y795888D01*
X892020Y795771D01*
X892050Y795656D01*
X892083Y795541D01*
X892120Y795427D01*
X892160Y795315D01*
X892205Y795204D01*
X892253Y795095D01*
X892304Y794987D01*
X892359Y794881D01*
X892418Y794777D01*
X892480Y794675D01*
X892545Y794575D01*
X892614Y794477D01*
X892686Y794381D01*
X892761Y794288D01*
X892838Y794198D01*
X892919Y794110D01*
X893003Y794025D01*
X893090Y793943D01*
X893179Y793863D01*
X893271Y793787D01*
X893365Y793713D01*
X893462Y793643D01*
X893560Y793576D01*
X893661Y793512D01*
X893765Y793452D01*
X893870Y793395D01*
X893977Y793342D01*
X894085Y793292D01*
X894195Y793246D01*
X894307Y793204D01*
X894420Y793165D01*
X894534Y793130D01*
X894649Y793099D01*
X894766Y793071D01*
X894883Y793048D01*
X895000Y793028D01*
X895119Y793012D01*
X895238Y793000D01*
X895357Y792992D01*
X895476Y792988D01*
X895596Y792988D01*
X895715Y792992D01*
X895834Y793000D01*
X895953Y793012D01*
X896072Y793028D01*
X896189Y793048D01*
X896306Y793071D01*
X896423Y793099D01*
X896538Y793130D01*
X896652Y793165D01*
X896765Y793204D01*
X896877Y793246D01*
X896987Y793292D01*
X897095Y793342D01*
X897202Y793395D01*
X897307Y793452D01*
X897411Y793512D01*
X897512Y793576D01*
X897610Y793643D01*
X897707Y793713D01*
X897801Y793787D01*
X897893Y793863D01*
X897982Y793943D01*
X898069Y794025D01*
X898153Y794110D01*
X898234Y794198D01*
X898311Y794288D01*
X898386Y794381D01*
X898458Y794477D01*
X898527Y794575D01*
X898592Y794675D01*
X898654Y794777D01*
X898713Y794881D01*
X898768Y794987D01*
X898819Y795095D01*
X898867Y795204D01*
X898912Y795315D01*
X898952Y795427D01*
X898989Y795541D01*
X899022Y795656D01*
X899052Y795771D01*
X899077Y795888D01*
X899099Y796005D01*
X899116Y796124D01*
X899130Y796242D01*
X899140Y796361D01*
X899146Y796481D01*
X899148Y796600D01*
X885845Y803825D02*
X883135Y792988D01*
X880426Y800213D01*
X877717Y792988D01*
X875007Y803825D01*
X860835Y803825D02*
X858125Y792988D01*
X855416Y800213D01*
X852707Y792988D01*
X849997Y803825D01*
X843953Y803825D02*
X843953Y792988D01*
X844405Y808341D02*
X844405Y809244D01*
X843502Y809244D01*
X843502Y808341D01*
X844405Y808341D01*
X838963Y803825D02*
X833545Y803825D01*
X837157Y809244D02*
X837157Y795697D01*
X837155Y795596D01*
X837149Y795495D01*
X837140Y795394D01*
X837127Y795293D01*
X837110Y795193D01*
X837089Y795094D01*
X837065Y794996D01*
X837037Y794899D01*
X837005Y794802D01*
X836970Y794707D01*
X836931Y794614D01*
X836889Y794522D01*
X836843Y794431D01*
X836794Y794343D01*
X836742Y794256D01*
X836686Y794171D01*
X836628Y794088D01*
X836566Y794008D01*
X836501Y793930D01*
X836434Y793854D01*
X836364Y793781D01*
X836291Y793711D01*
X836215Y793644D01*
X836137Y793579D01*
X836057Y793517D01*
X835974Y793459D01*
X835889Y793403D01*
X835803Y793351D01*
X835714Y793302D01*
X835623Y793256D01*
X835531Y793214D01*
X835438Y793175D01*
X835343Y793140D01*
X835246Y793108D01*
X835149Y793080D01*
X835051Y793056D01*
X834952Y793035D01*
X834852Y793018D01*
X834751Y793005D01*
X834650Y792996D01*
X834549Y792990D01*
X834448Y792988D01*
X833545Y792988D01*
X827245Y792988D02*
X827245Y809244D01*
X827245Y803825D02*
X822730Y803825D01*
X822626Y803823D01*
X822523Y803817D01*
X822419Y803807D01*
X822316Y803793D01*
X822214Y803775D01*
X822113Y803754D01*
X822012Y803728D01*
X821913Y803699D01*
X821814Y803666D01*
X821717Y803629D01*
X821622Y803588D01*
X821528Y803544D01*
X821436Y803496D01*
X821346Y803445D01*
X821257Y803390D01*
X821171Y803332D01*
X821088Y803270D01*
X821006Y803206D01*
X820928Y803138D01*
X820852Y803068D01*
X820778Y802995D01*
X820708Y802918D01*
X820640Y802840D01*
X820576Y802758D01*
X820514Y802675D01*
X820456Y802589D01*
X820401Y802500D01*
X820350Y802410D01*
X820302Y802318D01*
X820258Y802224D01*
X820217Y802129D01*
X820180Y802032D01*
X820147Y801933D01*
X820118Y801834D01*
X820092Y801733D01*
X820071Y801632D01*
X820053Y801530D01*
X820039Y801427D01*
X820029Y801323D01*
X820023Y801220D01*
X820021Y801116D01*
X820020Y801116D02*
X820020Y792988D01*
X804246Y792988D02*
X804246Y809244D01*
X804246Y792988D02*
X799731Y792988D01*
X799627Y792990D01*
X799524Y792996D01*
X799420Y793006D01*
X799317Y793020D01*
X799215Y793038D01*
X799114Y793059D01*
X799013Y793085D01*
X798914Y793114D01*
X798815Y793147D01*
X798718Y793184D01*
X798623Y793225D01*
X798529Y793269D01*
X798437Y793317D01*
X798347Y793368D01*
X798258Y793423D01*
X798172Y793481D01*
X798089Y793543D01*
X798007Y793607D01*
X797929Y793675D01*
X797853Y793745D01*
X797779Y793818D01*
X797709Y793895D01*
X797641Y793973D01*
X797577Y794055D01*
X797515Y794138D01*
X797457Y794224D01*
X797402Y794313D01*
X797351Y794403D01*
X797303Y794495D01*
X797259Y794589D01*
X797218Y794684D01*
X797181Y794781D01*
X797148Y794880D01*
X797119Y794979D01*
X797093Y795080D01*
X797072Y795181D01*
X797054Y795283D01*
X797040Y795386D01*
X797030Y795490D01*
X797024Y795593D01*
X797022Y795697D01*
X797021Y795697D02*
X797021Y801116D01*
X797022Y801116D02*
X797024Y801217D01*
X797030Y801318D01*
X797039Y801419D01*
X797052Y801520D01*
X797069Y801620D01*
X797090Y801719D01*
X797114Y801817D01*
X797142Y801914D01*
X797174Y802011D01*
X797209Y802106D01*
X797248Y802199D01*
X797290Y802291D01*
X797336Y802382D01*
X797385Y802471D01*
X797437Y802557D01*
X797493Y802642D01*
X797551Y802725D01*
X797613Y802805D01*
X797678Y802883D01*
X797745Y802959D01*
X797815Y803032D01*
X797888Y803102D01*
X797964Y803169D01*
X798042Y803234D01*
X798122Y803296D01*
X798205Y803354D01*
X798290Y803410D01*
X798377Y803462D01*
X798465Y803511D01*
X798556Y803557D01*
X798648Y803599D01*
X798741Y803638D01*
X798836Y803673D01*
X798933Y803705D01*
X799030Y803733D01*
X799128Y803757D01*
X799227Y803778D01*
X799327Y803795D01*
X799428Y803808D01*
X799529Y803817D01*
X799630Y803823D01*
X799731Y803825D01*
X804246Y803825D01*
X790251Y803825D02*
X790251Y795697D01*
X790249Y795596D01*
X790243Y795495D01*
X790234Y795394D01*
X790221Y795293D01*
X790204Y795193D01*
X790183Y795094D01*
X790159Y794996D01*
X790131Y794899D01*
X790099Y794802D01*
X790064Y794707D01*
X790025Y794614D01*
X789983Y794522D01*
X789937Y794431D01*
X789888Y794343D01*
X789836Y794256D01*
X789780Y794171D01*
X789722Y794088D01*
X789660Y794008D01*
X789595Y793930D01*
X789528Y793854D01*
X789458Y793781D01*
X789385Y793711D01*
X789309Y793644D01*
X789231Y793579D01*
X789151Y793517D01*
X789068Y793459D01*
X788983Y793403D01*
X788897Y793351D01*
X788808Y793302D01*
X788717Y793256D01*
X788625Y793214D01*
X788532Y793175D01*
X788437Y793140D01*
X788340Y793108D01*
X788243Y793080D01*
X788145Y793056D01*
X788046Y793035D01*
X787946Y793018D01*
X787845Y793005D01*
X787744Y792996D01*
X787643Y792990D01*
X787542Y792988D01*
X783026Y792988D01*
X783026Y803825D01*
X776218Y803825D02*
X776218Y792988D01*
X776670Y808341D02*
X776670Y809244D01*
X775767Y809244D01*
X775767Y808341D01*
X776670Y808341D01*
X769694Y809244D02*
X769694Y795697D01*
X769692Y795596D01*
X769686Y795495D01*
X769677Y795394D01*
X769664Y795293D01*
X769647Y795193D01*
X769626Y795094D01*
X769602Y794996D01*
X769574Y794899D01*
X769542Y794802D01*
X769507Y794707D01*
X769468Y794614D01*
X769426Y794522D01*
X769380Y794431D01*
X769331Y794343D01*
X769279Y794256D01*
X769223Y794171D01*
X769165Y794088D01*
X769103Y794008D01*
X769038Y793930D01*
X768971Y793854D01*
X768901Y793781D01*
X768828Y793711D01*
X768752Y793644D01*
X768674Y793579D01*
X768594Y793517D01*
X768511Y793459D01*
X768426Y793403D01*
X768340Y793351D01*
X768251Y793302D01*
X768160Y793256D01*
X768068Y793214D01*
X767975Y793175D01*
X767880Y793140D01*
X767783Y793108D01*
X767686Y793080D01*
X767588Y793056D01*
X767489Y793035D01*
X767389Y793018D01*
X767288Y793005D01*
X767187Y792996D01*
X767086Y792990D01*
X766985Y792988D01*
X762891Y803825D02*
X757473Y803825D01*
X761085Y809244D02*
X761085Y795697D01*
X761083Y795596D01*
X761077Y795495D01*
X761068Y795394D01*
X761055Y795293D01*
X761038Y795193D01*
X761017Y795094D01*
X760993Y794996D01*
X760965Y794899D01*
X760933Y794802D01*
X760898Y794707D01*
X760859Y794614D01*
X760817Y794522D01*
X760771Y794431D01*
X760722Y794343D01*
X760670Y794256D01*
X760614Y794171D01*
X760556Y794088D01*
X760494Y794008D01*
X760429Y793930D01*
X760362Y793854D01*
X760292Y793781D01*
X760219Y793711D01*
X760143Y793644D01*
X760065Y793579D01*
X759985Y793517D01*
X759902Y793459D01*
X759817Y793403D01*
X759731Y793351D01*
X759642Y793302D01*
X759551Y793256D01*
X759459Y793214D01*
X759366Y793175D01*
X759271Y793140D01*
X759174Y793108D01*
X759077Y793080D01*
X758979Y793056D01*
X758880Y793035D01*
X758780Y793018D01*
X758679Y793005D01*
X758578Y792996D01*
X758477Y792990D01*
X758376Y792988D01*
X757473Y792988D01*
X743393Y792988D02*
X743393Y803825D01*
X743844Y808341D02*
X743844Y809244D01*
X742941Y809244D01*
X742941Y808341D01*
X743844Y808341D01*
X736584Y803825D02*
X736584Y792988D01*
X736584Y803825D02*
X732069Y803825D01*
X731965Y803823D01*
X731862Y803817D01*
X731758Y803807D01*
X731655Y803793D01*
X731553Y803775D01*
X731452Y803754D01*
X731351Y803728D01*
X731252Y803699D01*
X731153Y803666D01*
X731056Y803629D01*
X730961Y803588D01*
X730867Y803544D01*
X730775Y803496D01*
X730685Y803445D01*
X730596Y803390D01*
X730510Y803332D01*
X730427Y803270D01*
X730345Y803206D01*
X730267Y803138D01*
X730191Y803068D01*
X730117Y802995D01*
X730047Y802918D01*
X729979Y802840D01*
X729915Y802758D01*
X729853Y802675D01*
X729795Y802589D01*
X729740Y802500D01*
X729689Y802410D01*
X729641Y802318D01*
X729597Y802224D01*
X729556Y802129D01*
X729519Y802032D01*
X729486Y801933D01*
X729457Y801834D01*
X729431Y801733D01*
X729410Y801632D01*
X729392Y801530D01*
X729378Y801427D01*
X729368Y801323D01*
X729362Y801220D01*
X729360Y801116D01*
X729359Y801116D02*
X729359Y792988D01*
X713574Y792988D02*
X713574Y803825D01*
X708155Y803825D01*
X708155Y802019D01*
X700528Y792988D02*
X696013Y792988D01*
X700528Y792988D02*
X700629Y792990D01*
X700730Y792996D01*
X700831Y793005D01*
X700932Y793018D01*
X701032Y793035D01*
X701131Y793056D01*
X701229Y793080D01*
X701326Y793108D01*
X701423Y793140D01*
X701518Y793175D01*
X701611Y793214D01*
X701703Y793256D01*
X701794Y793302D01*
X701883Y793351D01*
X701969Y793403D01*
X702054Y793459D01*
X702137Y793517D01*
X702217Y793579D01*
X702295Y793644D01*
X702371Y793711D01*
X702444Y793781D01*
X702514Y793854D01*
X702581Y793930D01*
X702646Y794008D01*
X702708Y794088D01*
X702766Y794171D01*
X702822Y794256D01*
X702874Y794343D01*
X702923Y794431D01*
X702969Y794522D01*
X703011Y794614D01*
X703050Y794707D01*
X703085Y794802D01*
X703117Y794899D01*
X703145Y794996D01*
X703169Y795094D01*
X703190Y795193D01*
X703207Y795293D01*
X703220Y795394D01*
X703229Y795495D01*
X703235Y795596D01*
X703237Y795697D01*
X703238Y795697D02*
X703238Y800213D01*
X703237Y800213D02*
X703235Y800332D01*
X703229Y800452D01*
X703219Y800571D01*
X703205Y800689D01*
X703188Y800808D01*
X703166Y800925D01*
X703141Y801042D01*
X703111Y801157D01*
X703078Y801272D01*
X703041Y801386D01*
X703001Y801498D01*
X702956Y801609D01*
X702908Y801718D01*
X702857Y801826D01*
X702802Y801932D01*
X702743Y802036D01*
X702681Y802138D01*
X702616Y802238D01*
X702547Y802336D01*
X702475Y802432D01*
X702400Y802525D01*
X702323Y802615D01*
X702242Y802703D01*
X702158Y802788D01*
X702071Y802870D01*
X701982Y802950D01*
X701890Y803026D01*
X701796Y803100D01*
X701699Y803170D01*
X701601Y803237D01*
X701500Y803301D01*
X701396Y803361D01*
X701291Y803418D01*
X701184Y803471D01*
X701076Y803521D01*
X700966Y803567D01*
X700854Y803609D01*
X700741Y803648D01*
X700627Y803683D01*
X700512Y803714D01*
X700395Y803742D01*
X700278Y803765D01*
X700161Y803785D01*
X700042Y803801D01*
X699923Y803813D01*
X699804Y803821D01*
X699685Y803825D01*
X699565Y803825D01*
X699446Y803821D01*
X699327Y803813D01*
X699208Y803801D01*
X699089Y803785D01*
X698972Y803765D01*
X698855Y803742D01*
X698738Y803714D01*
X698623Y803683D01*
X698509Y803648D01*
X698396Y803609D01*
X698284Y803567D01*
X698174Y803521D01*
X698066Y803471D01*
X697959Y803418D01*
X697854Y803361D01*
X697750Y803301D01*
X697649Y803237D01*
X697551Y803170D01*
X697454Y803100D01*
X697360Y803026D01*
X697268Y802950D01*
X697179Y802870D01*
X697092Y802788D01*
X697008Y802703D01*
X696927Y802615D01*
X696850Y802525D01*
X696775Y802432D01*
X696703Y802336D01*
X696634Y802238D01*
X696569Y802138D01*
X696507Y802036D01*
X696448Y801932D01*
X696393Y801826D01*
X696342Y801718D01*
X696294Y801609D01*
X696249Y801498D01*
X696209Y801386D01*
X696172Y801272D01*
X696139Y801157D01*
X696109Y801042D01*
X696084Y800925D01*
X696062Y800808D01*
X696045Y800689D01*
X696031Y800571D01*
X696021Y800452D01*
X696015Y800332D01*
X696013Y800213D01*
X696013Y798407D01*
X703238Y798407D01*
X689454Y795697D02*
X689454Y809244D01*
X689453Y795697D02*
X689451Y795596D01*
X689445Y795495D01*
X689436Y795394D01*
X689423Y795293D01*
X689406Y795193D01*
X689385Y795094D01*
X689361Y794996D01*
X689333Y794899D01*
X689301Y794802D01*
X689266Y794707D01*
X689227Y794614D01*
X689185Y794522D01*
X689139Y794431D01*
X689090Y794343D01*
X689038Y794256D01*
X688982Y794171D01*
X688924Y794088D01*
X688862Y794008D01*
X688797Y793930D01*
X688730Y793854D01*
X688660Y793781D01*
X688587Y793711D01*
X688511Y793644D01*
X688433Y793579D01*
X688353Y793517D01*
X688270Y793459D01*
X688185Y793403D01*
X688099Y793351D01*
X688010Y793302D01*
X687919Y793256D01*
X687827Y793214D01*
X687734Y793175D01*
X687639Y793140D01*
X687542Y793108D01*
X687445Y793080D01*
X687347Y793056D01*
X687248Y793035D01*
X687148Y793018D01*
X687047Y793005D01*
X686946Y792996D01*
X686845Y792990D01*
X686744Y792988D01*
X678266Y799310D02*
X674202Y799310D01*
X678266Y799310D02*
X678378Y799308D01*
X678489Y799302D01*
X678600Y799292D01*
X678711Y799279D01*
X678821Y799261D01*
X678930Y799239D01*
X679039Y799214D01*
X679147Y799185D01*
X679253Y799152D01*
X679359Y799115D01*
X679463Y799075D01*
X679565Y799031D01*
X679666Y798983D01*
X679765Y798932D01*
X679863Y798877D01*
X679958Y798819D01*
X680051Y798758D01*
X680142Y798693D01*
X680231Y798625D01*
X680317Y798554D01*
X680400Y798481D01*
X680481Y798404D01*
X680560Y798324D01*
X680635Y798242D01*
X680707Y798157D01*
X680777Y798070D01*
X680843Y797980D01*
X680906Y797888D01*
X680966Y797793D01*
X681022Y797697D01*
X681075Y797599D01*
X681124Y797499D01*
X681170Y797397D01*
X681212Y797294D01*
X681251Y797189D01*
X681286Y797083D01*
X681317Y796976D01*
X681344Y796868D01*
X681368Y796759D01*
X681387Y796649D01*
X681403Y796539D01*
X681415Y796428D01*
X681423Y796316D01*
X681427Y796205D01*
X681427Y796093D01*
X681423Y795982D01*
X681415Y795870D01*
X681403Y795759D01*
X681387Y795649D01*
X681368Y795539D01*
X681344Y795430D01*
X681317Y795322D01*
X681286Y795215D01*
X681251Y795109D01*
X681212Y795004D01*
X681170Y794901D01*
X681124Y794799D01*
X681075Y794699D01*
X681022Y794601D01*
X680966Y794505D01*
X680906Y794410D01*
X680843Y794318D01*
X680777Y794228D01*
X680707Y794141D01*
X680635Y794056D01*
X680560Y793974D01*
X680481Y793894D01*
X680400Y793817D01*
X680317Y793744D01*
X680231Y793673D01*
X680142Y793605D01*
X680051Y793540D01*
X679958Y793479D01*
X679863Y793421D01*
X679765Y793366D01*
X679666Y793315D01*
X679565Y793267D01*
X679463Y793223D01*
X679359Y793183D01*
X679253Y793146D01*
X679147Y793113D01*
X679039Y793084D01*
X678930Y793059D01*
X678821Y793037D01*
X678711Y793019D01*
X678600Y793006D01*
X678489Y792996D01*
X678378Y792990D01*
X678266Y792988D01*
X674202Y792988D01*
X674202Y801116D01*
X674203Y801116D02*
X674205Y801217D01*
X674211Y801318D01*
X674220Y801419D01*
X674233Y801520D01*
X674250Y801620D01*
X674271Y801719D01*
X674295Y801817D01*
X674323Y801914D01*
X674355Y802011D01*
X674390Y802106D01*
X674429Y802199D01*
X674471Y802291D01*
X674517Y802382D01*
X674566Y802471D01*
X674618Y802557D01*
X674674Y802642D01*
X674732Y802725D01*
X674794Y802805D01*
X674859Y802883D01*
X674926Y802959D01*
X674996Y803032D01*
X675069Y803102D01*
X675145Y803169D01*
X675223Y803234D01*
X675303Y803296D01*
X675386Y803354D01*
X675471Y803410D01*
X675558Y803462D01*
X675646Y803511D01*
X675737Y803557D01*
X675829Y803599D01*
X675922Y803638D01*
X676017Y803673D01*
X676114Y803705D01*
X676211Y803733D01*
X676309Y803757D01*
X676408Y803778D01*
X676508Y803795D01*
X676609Y803808D01*
X676710Y803817D01*
X676811Y803823D01*
X676912Y803825D01*
X680524Y803825D01*
X667807Y787569D02*
X666001Y787569D01*
X660582Y803825D01*
X667807Y803825D02*
X664194Y792988D01*
X643717Y792988D02*
X640105Y792988D01*
X643717Y792988D02*
X643818Y792990D01*
X643919Y792996D01*
X644020Y793005D01*
X644121Y793018D01*
X644221Y793035D01*
X644320Y793056D01*
X644418Y793080D01*
X644515Y793108D01*
X644612Y793140D01*
X644707Y793175D01*
X644800Y793214D01*
X644892Y793256D01*
X644983Y793302D01*
X645072Y793351D01*
X645158Y793403D01*
X645243Y793459D01*
X645326Y793517D01*
X645406Y793579D01*
X645484Y793644D01*
X645560Y793711D01*
X645633Y793781D01*
X645703Y793854D01*
X645770Y793930D01*
X645835Y794008D01*
X645897Y794088D01*
X645955Y794171D01*
X646011Y794256D01*
X646063Y794343D01*
X646112Y794431D01*
X646158Y794522D01*
X646200Y794614D01*
X646239Y794707D01*
X646274Y794802D01*
X646306Y794899D01*
X646334Y794996D01*
X646358Y795094D01*
X646379Y795193D01*
X646396Y795293D01*
X646409Y795394D01*
X646418Y795495D01*
X646424Y795596D01*
X646426Y795697D01*
X646427Y795697D02*
X646427Y801116D01*
X646426Y801116D02*
X646424Y801217D01*
X646418Y801318D01*
X646409Y801419D01*
X646396Y801520D01*
X646379Y801620D01*
X646358Y801719D01*
X646334Y801817D01*
X646306Y801914D01*
X646274Y802011D01*
X646239Y802106D01*
X646200Y802199D01*
X646158Y802291D01*
X646112Y802382D01*
X646063Y802471D01*
X646011Y802557D01*
X645955Y802642D01*
X645897Y802725D01*
X645835Y802805D01*
X645770Y802883D01*
X645703Y802959D01*
X645633Y803032D01*
X645560Y803102D01*
X645484Y803169D01*
X645406Y803234D01*
X645326Y803296D01*
X645243Y803354D01*
X645158Y803410D01*
X645072Y803462D01*
X644983Y803511D01*
X644892Y803557D01*
X644800Y803599D01*
X644707Y803638D01*
X644612Y803673D01*
X644515Y803705D01*
X644418Y803733D01*
X644320Y803757D01*
X644221Y803778D01*
X644121Y803795D01*
X644020Y803808D01*
X643919Y803817D01*
X643818Y803823D01*
X643717Y803825D01*
X640105Y803825D01*
X634495Y803825D02*
X634495Y792988D01*
X634947Y808341D02*
X634947Y809244D01*
X634044Y809244D01*
X634044Y808341D01*
X634947Y808341D01*
X627602Y803825D02*
X627602Y792988D01*
X627602Y803825D02*
X622183Y803825D01*
X622183Y802019D01*
X614539Y792988D02*
X610927Y792988D01*
X614539Y792988D02*
X614640Y792990D01*
X614741Y792996D01*
X614842Y793005D01*
X614943Y793018D01*
X615043Y793035D01*
X615142Y793056D01*
X615240Y793080D01*
X615337Y793108D01*
X615434Y793140D01*
X615529Y793175D01*
X615622Y793214D01*
X615714Y793256D01*
X615805Y793302D01*
X615894Y793351D01*
X615980Y793403D01*
X616065Y793459D01*
X616148Y793517D01*
X616228Y793579D01*
X616306Y793644D01*
X616382Y793711D01*
X616455Y793781D01*
X616525Y793854D01*
X616592Y793930D01*
X616657Y794008D01*
X616719Y794088D01*
X616777Y794171D01*
X616833Y794256D01*
X616885Y794343D01*
X616934Y794431D01*
X616980Y794522D01*
X617022Y794614D01*
X617061Y794707D01*
X617096Y794802D01*
X617128Y794899D01*
X617156Y794996D01*
X617180Y795094D01*
X617201Y795193D01*
X617218Y795293D01*
X617231Y795394D01*
X617240Y795495D01*
X617246Y795596D01*
X617248Y795697D01*
X617248Y801116D01*
X617246Y801217D01*
X617240Y801318D01*
X617231Y801419D01*
X617218Y801520D01*
X617201Y801620D01*
X617180Y801719D01*
X617156Y801817D01*
X617128Y801914D01*
X617096Y802011D01*
X617061Y802106D01*
X617022Y802199D01*
X616980Y802291D01*
X616934Y802382D01*
X616885Y802471D01*
X616833Y802557D01*
X616777Y802642D01*
X616719Y802725D01*
X616657Y802805D01*
X616592Y802883D01*
X616525Y802959D01*
X616455Y803032D01*
X616382Y803102D01*
X616306Y803169D01*
X616228Y803234D01*
X616148Y803296D01*
X616065Y803354D01*
X615980Y803410D01*
X615894Y803462D01*
X615805Y803511D01*
X615714Y803557D01*
X615622Y803599D01*
X615529Y803638D01*
X615434Y803673D01*
X615337Y803705D01*
X615240Y803733D01*
X615142Y803757D01*
X615043Y803778D01*
X614943Y803795D01*
X614842Y803808D01*
X614741Y803817D01*
X614640Y803823D01*
X614539Y803825D01*
X610927Y803825D01*
X604761Y803825D02*
X604761Y795697D01*
X604759Y795596D01*
X604753Y795495D01*
X604744Y795394D01*
X604731Y795293D01*
X604714Y795193D01*
X604693Y795094D01*
X604669Y794996D01*
X604641Y794899D01*
X604609Y794802D01*
X604574Y794707D01*
X604535Y794614D01*
X604493Y794522D01*
X604447Y794431D01*
X604398Y794343D01*
X604346Y794256D01*
X604290Y794171D01*
X604232Y794088D01*
X604170Y794008D01*
X604105Y793930D01*
X604038Y793854D01*
X603968Y793781D01*
X603895Y793711D01*
X603819Y793644D01*
X603741Y793579D01*
X603661Y793517D01*
X603578Y793459D01*
X603493Y793403D01*
X603407Y793351D01*
X603318Y793302D01*
X603227Y793256D01*
X603135Y793214D01*
X603042Y793175D01*
X602947Y793140D01*
X602850Y793108D01*
X602753Y793080D01*
X602655Y793056D01*
X602556Y793035D01*
X602456Y793018D01*
X602355Y793005D01*
X602254Y792996D01*
X602153Y792990D01*
X602052Y792988D01*
X597536Y792988D01*
X597536Y803825D01*
X590728Y803825D02*
X590728Y792988D01*
X591179Y808341D02*
X591179Y809244D01*
X590276Y809244D01*
X590276Y808341D01*
X591179Y808341D01*
X585738Y803825D02*
X580319Y803825D01*
X583931Y809244D02*
X583931Y795697D01*
X583929Y795596D01*
X583923Y795495D01*
X583914Y795394D01*
X583901Y795293D01*
X583884Y795193D01*
X583863Y795094D01*
X583839Y794996D01*
X583811Y794899D01*
X583779Y794802D01*
X583744Y794707D01*
X583705Y794614D01*
X583663Y794522D01*
X583617Y794431D01*
X583568Y794343D01*
X583516Y794256D01*
X583460Y794171D01*
X583402Y794088D01*
X583340Y794008D01*
X583275Y793930D01*
X583208Y793854D01*
X583138Y793781D01*
X583065Y793711D01*
X582989Y793644D01*
X582911Y793579D01*
X582831Y793517D01*
X582748Y793459D01*
X582663Y793403D01*
X582577Y793351D01*
X582488Y793302D01*
X582397Y793256D01*
X582305Y793214D01*
X582212Y793175D01*
X582117Y793140D01*
X582020Y793108D01*
X581923Y793080D01*
X581825Y793056D01*
X581726Y793035D01*
X581626Y793018D01*
X581525Y793005D01*
X581424Y792996D01*
X581323Y792990D01*
X581222Y792988D01*
X580319Y792988D01*
X574576Y798407D02*
X574576Y809244D01*
X575027Y793891D02*
X575027Y792988D01*
X575027Y793891D02*
X574124Y793891D01*
X574124Y792988D01*
X575027Y792988D01*
D11*
X340868Y259080D02*
X340866Y258958D01*
X340860Y258836D01*
X340850Y258714D01*
X340837Y258593D01*
X340819Y258472D01*
X340798Y258352D01*
X340772Y258232D01*
X340743Y258114D01*
X340711Y257996D01*
X340674Y257879D01*
X340634Y257764D01*
X340590Y257650D01*
X340542Y257538D01*
X340491Y257427D01*
X340436Y257318D01*
X340378Y257210D01*
X340316Y257105D01*
X340251Y257002D01*
X340183Y256900D01*
X340111Y256801D01*
X340037Y256705D01*
X339959Y256610D01*
X339878Y256519D01*
X339795Y256429D01*
X339709Y256343D01*
X339619Y256260D01*
X339528Y256179D01*
X339433Y256101D01*
X339337Y256027D01*
X339238Y255955D01*
X339136Y255887D01*
X339033Y255822D01*
X338928Y255760D01*
X338820Y255702D01*
X338711Y255647D01*
X338600Y255596D01*
X338488Y255548D01*
X338374Y255504D01*
X338259Y255464D01*
X338142Y255427D01*
X338024Y255395D01*
X337906Y255366D01*
X337786Y255340D01*
X337666Y255319D01*
X337545Y255301D01*
X337424Y255288D01*
X337302Y255278D01*
X337180Y255272D01*
X337058Y255270D01*
X336936Y255272D01*
X336814Y255278D01*
X336692Y255288D01*
X336571Y255301D01*
X336450Y255319D01*
X336330Y255340D01*
X336210Y255366D01*
X336092Y255395D01*
X335974Y255427D01*
X335857Y255464D01*
X335742Y255504D01*
X335628Y255548D01*
X335516Y255596D01*
X335405Y255647D01*
X335296Y255702D01*
X335188Y255760D01*
X335083Y255822D01*
X334980Y255887D01*
X334878Y255955D01*
X334779Y256027D01*
X334683Y256101D01*
X334588Y256179D01*
X334497Y256260D01*
X334407Y256343D01*
X334321Y256429D01*
X334238Y256519D01*
X334157Y256610D01*
X334079Y256705D01*
X334005Y256801D01*
X333933Y256900D01*
X333865Y257002D01*
X333800Y257105D01*
X333738Y257210D01*
X333680Y257318D01*
X333625Y257427D01*
X333574Y257538D01*
X333526Y257650D01*
X333482Y257764D01*
X333442Y257879D01*
X333405Y257996D01*
X333373Y258114D01*
X333344Y258232D01*
X333318Y258352D01*
X333297Y258472D01*
X333279Y258593D01*
X333266Y258714D01*
X333256Y258836D01*
X333250Y258958D01*
X333248Y259080D01*
X333250Y259202D01*
X333256Y259324D01*
X333266Y259446D01*
X333279Y259567D01*
X333297Y259688D01*
X333318Y259808D01*
X333344Y259928D01*
X333373Y260046D01*
X333405Y260164D01*
X333442Y260281D01*
X333482Y260396D01*
X333526Y260510D01*
X333574Y260622D01*
X333625Y260733D01*
X333680Y260842D01*
X333738Y260950D01*
X333800Y261055D01*
X333865Y261158D01*
X333933Y261260D01*
X334005Y261359D01*
X334079Y261455D01*
X334157Y261550D01*
X334238Y261641D01*
X334321Y261731D01*
X334407Y261817D01*
X334497Y261900D01*
X334588Y261981D01*
X334683Y262059D01*
X334779Y262133D01*
X334878Y262205D01*
X334980Y262273D01*
X335083Y262338D01*
X335188Y262400D01*
X335296Y262458D01*
X335405Y262513D01*
X335516Y262564D01*
X335628Y262612D01*
X335742Y262656D01*
X335857Y262696D01*
X335974Y262733D01*
X336092Y262765D01*
X336210Y262794D01*
X336330Y262820D01*
X336450Y262841D01*
X336571Y262859D01*
X336692Y262872D01*
X336814Y262882D01*
X336936Y262888D01*
X337058Y262890D01*
X337180Y262888D01*
X337302Y262882D01*
X337424Y262872D01*
X337545Y262859D01*
X337666Y262841D01*
X337786Y262820D01*
X337906Y262794D01*
X338024Y262765D01*
X338142Y262733D01*
X338259Y262696D01*
X338374Y262656D01*
X338488Y262612D01*
X338600Y262564D01*
X338711Y262513D01*
X338820Y262458D01*
X338928Y262400D01*
X339033Y262338D01*
X339136Y262273D01*
X339238Y262205D01*
X339337Y262133D01*
X339433Y262059D01*
X339528Y261981D01*
X339619Y261900D01*
X339709Y261817D01*
X339795Y261731D01*
X339878Y261641D01*
X339959Y261550D01*
X340037Y261455D01*
X340111Y261359D01*
X340183Y261260D01*
X340251Y261158D01*
X340316Y261055D01*
X340378Y260950D01*
X340436Y260842D01*
X340491Y260733D01*
X340542Y260622D01*
X340590Y260510D01*
X340634Y260396D01*
X340674Y260281D01*
X340711Y260164D01*
X340743Y260046D01*
X340772Y259928D01*
X340798Y259808D01*
X340819Y259688D01*
X340837Y259567D01*
X340850Y259446D01*
X340860Y259324D01*
X340866Y259202D01*
X340868Y259080D01*
X815848Y254000D02*
X815850Y253878D01*
X815856Y253756D01*
X815866Y253634D01*
X815879Y253513D01*
X815897Y253392D01*
X815918Y253272D01*
X815944Y253152D01*
X815973Y253034D01*
X816005Y252916D01*
X816042Y252799D01*
X816082Y252684D01*
X816126Y252570D01*
X816174Y252458D01*
X816225Y252347D01*
X816280Y252238D01*
X816338Y252130D01*
X816400Y252025D01*
X816465Y251922D01*
X816533Y251820D01*
X816605Y251721D01*
X816679Y251625D01*
X816757Y251530D01*
X816838Y251439D01*
X816921Y251349D01*
X817007Y251263D01*
X817097Y251180D01*
X817188Y251099D01*
X817283Y251021D01*
X817379Y250947D01*
X817478Y250875D01*
X817580Y250807D01*
X817683Y250742D01*
X817788Y250680D01*
X817896Y250622D01*
X818005Y250567D01*
X818116Y250516D01*
X818228Y250468D01*
X818342Y250424D01*
X818457Y250384D01*
X818574Y250347D01*
X818692Y250315D01*
X818810Y250286D01*
X818930Y250260D01*
X819050Y250239D01*
X819171Y250221D01*
X819292Y250208D01*
X819414Y250198D01*
X819536Y250192D01*
X819658Y250190D01*
X819780Y250192D01*
X819902Y250198D01*
X820024Y250208D01*
X820145Y250221D01*
X820266Y250239D01*
X820386Y250260D01*
X820506Y250286D01*
X820624Y250315D01*
X820742Y250347D01*
X820859Y250384D01*
X820974Y250424D01*
X821088Y250468D01*
X821200Y250516D01*
X821311Y250567D01*
X821420Y250622D01*
X821528Y250680D01*
X821633Y250742D01*
X821736Y250807D01*
X821838Y250875D01*
X821937Y250947D01*
X822033Y251021D01*
X822128Y251099D01*
X822219Y251180D01*
X822309Y251263D01*
X822395Y251349D01*
X822478Y251439D01*
X822559Y251530D01*
X822637Y251625D01*
X822711Y251721D01*
X822783Y251820D01*
X822851Y251922D01*
X822916Y252025D01*
X822978Y252130D01*
X823036Y252238D01*
X823091Y252347D01*
X823142Y252458D01*
X823190Y252570D01*
X823234Y252684D01*
X823274Y252799D01*
X823311Y252916D01*
X823343Y253034D01*
X823372Y253152D01*
X823398Y253272D01*
X823419Y253392D01*
X823437Y253513D01*
X823450Y253634D01*
X823460Y253756D01*
X823466Y253878D01*
X823468Y254000D01*
X823466Y254122D01*
X823460Y254244D01*
X823450Y254366D01*
X823437Y254487D01*
X823419Y254608D01*
X823398Y254728D01*
X823372Y254848D01*
X823343Y254966D01*
X823311Y255084D01*
X823274Y255201D01*
X823234Y255316D01*
X823190Y255430D01*
X823142Y255542D01*
X823091Y255653D01*
X823036Y255762D01*
X822978Y255870D01*
X822916Y255975D01*
X822851Y256078D01*
X822783Y256180D01*
X822711Y256279D01*
X822637Y256375D01*
X822559Y256470D01*
X822478Y256561D01*
X822395Y256651D01*
X822309Y256737D01*
X822219Y256820D01*
X822128Y256901D01*
X822033Y256979D01*
X821937Y257053D01*
X821838Y257125D01*
X821736Y257193D01*
X821633Y257258D01*
X821528Y257320D01*
X821420Y257378D01*
X821311Y257433D01*
X821200Y257484D01*
X821088Y257532D01*
X820974Y257576D01*
X820859Y257616D01*
X820742Y257653D01*
X820624Y257685D01*
X820506Y257714D01*
X820386Y257740D01*
X820266Y257761D01*
X820145Y257779D01*
X820024Y257792D01*
X819902Y257802D01*
X819780Y257808D01*
X819658Y257810D01*
X819536Y257808D01*
X819414Y257802D01*
X819292Y257792D01*
X819171Y257779D01*
X819050Y257761D01*
X818930Y257740D01*
X818810Y257714D01*
X818692Y257685D01*
X818574Y257653D01*
X818457Y257616D01*
X818342Y257576D01*
X818228Y257532D01*
X818116Y257484D01*
X818005Y257433D01*
X817896Y257378D01*
X817788Y257320D01*
X817683Y257258D01*
X817580Y257193D01*
X817478Y257125D01*
X817379Y257053D01*
X817283Y256979D01*
X817188Y256901D01*
X817097Y256820D01*
X817007Y256737D01*
X816921Y256651D01*
X816838Y256561D01*
X816757Y256470D01*
X816679Y256375D01*
X816605Y256279D01*
X816533Y256180D01*
X816465Y256078D01*
X816400Y255975D01*
X816338Y255870D01*
X816280Y255762D01*
X816225Y255653D01*
X816174Y255542D01*
X816126Y255430D01*
X816082Y255316D01*
X816042Y255201D01*
X816005Y255084D01*
X815973Y254966D01*
X815944Y254848D01*
X815918Y254728D01*
X815897Y254608D01*
X815879Y254487D01*
X815866Y254366D01*
X815856Y254244D01*
X815850Y254122D01*
X815848Y254000D01*
M02*
