G04 EAGLE Gerber RS-274X export*
G75*
%MOMM*%
%FSLAX34Y34*%
%LPD*%
%INSoldermask Bottom*%
%IPPOS*%
%AMOC8*
5,1,8,0,0,1.08239X$1,22.5*%
G01*
%ADD10C,3.403200*%
%ADD11R,1.733200X1.733200*%
%ADD12C,1.733200*%
%ADD13R,2.153200X2.153200*%
%ADD14C,2.153200*%
%ADD15C,2.146300*%
%ADD16C,0.959600*%
%ADD17C,0.809600*%
%ADD18C,1.117600*%


D10*
X25400Y800100D03*
X946150Y798830D03*
X25400Y190500D03*
X947420Y190500D03*
D11*
X646430Y650240D03*
D12*
X646430Y624840D03*
X646430Y599440D03*
X646430Y574040D03*
X646430Y548640D03*
X646430Y523240D03*
X646430Y497840D03*
X646430Y472440D03*
X646430Y447040D03*
X646430Y421640D03*
X646430Y396240D03*
X646430Y370840D03*
D11*
X443230Y751840D03*
D12*
X443230Y726440D03*
X443230Y701040D03*
X443230Y675640D03*
X443230Y650240D03*
X443230Y624840D03*
X443230Y599440D03*
X443230Y574040D03*
X443230Y548640D03*
X443230Y523240D03*
X443230Y497840D03*
X443230Y472440D03*
X443230Y447040D03*
X443230Y421640D03*
X443230Y396240D03*
X443230Y370840D03*
X279400Y601980D03*
X304800Y601980D03*
X279400Y576580D03*
X304800Y576580D03*
X279400Y551180D03*
X304800Y551180D03*
X279400Y525780D03*
X304800Y525780D03*
X279400Y500380D03*
X304800Y500380D03*
X279400Y474980D03*
X304800Y474980D03*
D11*
X834390Y751840D03*
D12*
X859790Y751840D03*
X834390Y726440D03*
X859790Y726440D03*
X834390Y701040D03*
X859790Y701040D03*
X834390Y675640D03*
X859790Y675640D03*
X834390Y650240D03*
X859790Y650240D03*
X834390Y624840D03*
X859790Y624840D03*
X834390Y599440D03*
X859790Y599440D03*
X834390Y574040D03*
X859790Y574040D03*
X834390Y548640D03*
X859790Y548640D03*
X834390Y523240D03*
X859790Y523240D03*
X834390Y497840D03*
X859790Y497840D03*
X834390Y472440D03*
X859790Y472440D03*
X834390Y447040D03*
X859790Y447040D03*
X834390Y421640D03*
X859790Y421640D03*
X834390Y396240D03*
X859790Y396240D03*
X834390Y370840D03*
X859790Y370840D03*
D13*
X137160Y304700D03*
D14*
X137160Y228700D03*
X289560Y304700D03*
X264160Y228700D03*
D13*
X622300Y304700D03*
D14*
X622300Y228700D03*
X774700Y304700D03*
X749300Y228700D03*
D11*
X279400Y419100D03*
D12*
X304800Y419100D03*
X279400Y393700D03*
X304800Y393700D03*
D15*
X370840Y259080D03*
X396240Y259080D03*
X853440Y254000D03*
X878840Y254000D03*
D16*
X73660Y791210D03*
X201930Y699770D03*
X644398Y783336D03*
X948690Y562610D03*
X499110Y208280D03*
X753110Y335280D03*
X692150Y337820D03*
D17*
X79756Y517144D03*
D16*
X818134Y333502D03*
X339598Y656336D03*
X86614Y401066D03*
X180340Y358394D03*
X932180Y305562D03*
X713232Y443738D03*
X556260Y449580D03*
X549402Y598932D03*
X730250Y630682D03*
D18*
X676148Y502920D03*
X603504Y511302D03*
X413512Y514096D03*
X620268Y623062D03*
X603504Y536448D03*
X72644Y606298D03*
X92202Y623062D03*
X72644Y536448D03*
X150876Y606298D03*
X86614Y536448D03*
X329692Y525272D03*
X718058Y374396D03*
X670560Y363220D03*
X645414Y338074D03*
X413512Y391160D03*
X787908Y335280D03*
X815848Y363220D03*
M02*
