G04 EAGLE Gerber RS-274X export*
G75*
%MOMM*%
%FSLAX34Y34*%
%LPD*%
%IN*%
%IPPOS*%
%AMOC8*
5,1,8,0,0,1.08239X$1,22.5*%
G01*
%ADD10C,0.254000*%


D10*
X0Y304800D02*
X972060Y298450D01*
X972060Y819050D01*
X0Y825400D01*
X0Y304800D01*
X41400Y799576D02*
X41332Y798531D01*
X41195Y797492D01*
X40990Y796465D01*
X40719Y795453D01*
X40383Y794461D01*
X39982Y793493D01*
X39518Y792554D01*
X38995Y791646D01*
X38413Y790775D01*
X37775Y789944D01*
X37084Y789157D01*
X36343Y788416D01*
X35556Y787725D01*
X34725Y787088D01*
X33854Y786506D01*
X32946Y785982D01*
X32007Y785518D01*
X31039Y785117D01*
X30047Y784781D01*
X29035Y784510D01*
X28008Y784305D01*
X26969Y784169D01*
X25924Y784100D01*
X24876Y784100D01*
X23831Y784169D01*
X22792Y784305D01*
X21765Y784510D01*
X20753Y784781D01*
X19761Y785117D01*
X18793Y785518D01*
X17854Y785982D01*
X16946Y786506D01*
X16075Y787088D01*
X15244Y787725D01*
X14457Y788416D01*
X13716Y789157D01*
X13025Y789944D01*
X12388Y790775D01*
X11806Y791646D01*
X11282Y792554D01*
X10818Y793493D01*
X10417Y794461D01*
X10081Y795453D01*
X9810Y796465D01*
X9605Y797492D01*
X9469Y798531D01*
X9400Y799576D01*
X9400Y800624D01*
X9469Y801669D01*
X9605Y802708D01*
X9810Y803735D01*
X10081Y804747D01*
X10417Y805739D01*
X10818Y806707D01*
X11282Y807646D01*
X11806Y808554D01*
X12388Y809425D01*
X13025Y810256D01*
X13716Y811043D01*
X14457Y811784D01*
X15244Y812475D01*
X16075Y813113D01*
X16946Y813695D01*
X17854Y814218D01*
X18793Y814682D01*
X19761Y815083D01*
X20753Y815419D01*
X21765Y815690D01*
X22792Y815895D01*
X23831Y816032D01*
X24876Y816100D01*
X25924Y816100D01*
X26969Y816032D01*
X28008Y815895D01*
X29035Y815690D01*
X30047Y815419D01*
X31039Y815083D01*
X32007Y814682D01*
X32946Y814218D01*
X33854Y813695D01*
X34725Y813113D01*
X35556Y812475D01*
X36343Y811784D01*
X37084Y811043D01*
X37775Y810256D01*
X38413Y809425D01*
X38995Y808554D01*
X39518Y807646D01*
X39982Y806707D01*
X40383Y805739D01*
X40719Y804747D01*
X40990Y803735D01*
X41195Y802708D01*
X41332Y801669D01*
X41400Y800624D01*
X41400Y799576D01*
X962150Y793226D02*
X962082Y792181D01*
X961945Y791142D01*
X961740Y790115D01*
X961469Y789103D01*
X961133Y788111D01*
X960732Y787143D01*
X960268Y786204D01*
X959745Y785296D01*
X959163Y784425D01*
X958525Y783594D01*
X957834Y782807D01*
X957093Y782066D01*
X956306Y781375D01*
X955475Y780738D01*
X954604Y780156D01*
X953696Y779632D01*
X952757Y779168D01*
X951789Y778767D01*
X950797Y778431D01*
X949785Y778160D01*
X948758Y777955D01*
X947719Y777819D01*
X946674Y777750D01*
X945626Y777750D01*
X944581Y777819D01*
X943542Y777955D01*
X942515Y778160D01*
X941503Y778431D01*
X940511Y778767D01*
X939543Y779168D01*
X938604Y779632D01*
X937696Y780156D01*
X936825Y780738D01*
X935994Y781375D01*
X935207Y782066D01*
X934466Y782807D01*
X933775Y783594D01*
X933138Y784425D01*
X932556Y785296D01*
X932032Y786204D01*
X931568Y787143D01*
X931167Y788111D01*
X930831Y789103D01*
X930560Y790115D01*
X930355Y791142D01*
X930219Y792181D01*
X930150Y793226D01*
X930150Y794274D01*
X930219Y795319D01*
X930355Y796358D01*
X930560Y797385D01*
X930831Y798397D01*
X931167Y799389D01*
X931568Y800357D01*
X932032Y801296D01*
X932556Y802204D01*
X933138Y803075D01*
X933775Y803906D01*
X934466Y804693D01*
X935207Y805434D01*
X935994Y806125D01*
X936825Y806763D01*
X937696Y807345D01*
X938604Y807868D01*
X939543Y808332D01*
X940511Y808733D01*
X941503Y809069D01*
X942515Y809340D01*
X943542Y809545D01*
X944581Y809682D01*
X945626Y809750D01*
X946674Y809750D01*
X947719Y809682D01*
X948758Y809545D01*
X949785Y809340D01*
X950797Y809069D01*
X951789Y808733D01*
X952757Y808332D01*
X953696Y807868D01*
X954604Y807345D01*
X955475Y806763D01*
X956306Y806125D01*
X957093Y805434D01*
X957834Y804693D01*
X958525Y803906D01*
X959163Y803075D01*
X959745Y802204D01*
X960268Y801296D01*
X960732Y800357D01*
X961133Y799389D01*
X961469Y798397D01*
X961740Y797385D01*
X961945Y796358D01*
X962082Y795319D01*
X962150Y794274D01*
X962150Y793226D01*
X41400Y329676D02*
X41332Y328631D01*
X41195Y327592D01*
X40990Y326565D01*
X40719Y325553D01*
X40383Y324561D01*
X39982Y323593D01*
X39518Y322654D01*
X38995Y321746D01*
X38413Y320875D01*
X37775Y320044D01*
X37084Y319257D01*
X36343Y318516D01*
X35556Y317825D01*
X34725Y317188D01*
X33854Y316606D01*
X32946Y316082D01*
X32007Y315618D01*
X31039Y315217D01*
X30047Y314881D01*
X29035Y314610D01*
X28008Y314405D01*
X26969Y314269D01*
X25924Y314200D01*
X24876Y314200D01*
X23831Y314269D01*
X22792Y314405D01*
X21765Y314610D01*
X20753Y314881D01*
X19761Y315217D01*
X18793Y315618D01*
X17854Y316082D01*
X16946Y316606D01*
X16075Y317188D01*
X15244Y317825D01*
X14457Y318516D01*
X13716Y319257D01*
X13025Y320044D01*
X12388Y320875D01*
X11806Y321746D01*
X11282Y322654D01*
X10818Y323593D01*
X10417Y324561D01*
X10081Y325553D01*
X9810Y326565D01*
X9605Y327592D01*
X9469Y328631D01*
X9400Y329676D01*
X9400Y330724D01*
X9469Y331769D01*
X9605Y332808D01*
X9810Y333835D01*
X10081Y334847D01*
X10417Y335839D01*
X10818Y336807D01*
X11282Y337746D01*
X11806Y338654D01*
X12388Y339525D01*
X13025Y340356D01*
X13716Y341143D01*
X14457Y341884D01*
X15244Y342575D01*
X16075Y343213D01*
X16946Y343795D01*
X17854Y344318D01*
X18793Y344782D01*
X19761Y345183D01*
X20753Y345519D01*
X21765Y345790D01*
X22792Y345995D01*
X23831Y346132D01*
X24876Y346200D01*
X25924Y346200D01*
X26969Y346132D01*
X28008Y345995D01*
X29035Y345790D01*
X30047Y345519D01*
X31039Y345183D01*
X32007Y344782D01*
X32946Y344318D01*
X33854Y343795D01*
X34725Y343213D01*
X35556Y342575D01*
X36343Y341884D01*
X37084Y341143D01*
X37775Y340356D01*
X38413Y339525D01*
X38995Y338654D01*
X39518Y337746D01*
X39982Y336807D01*
X40383Y335839D01*
X40719Y334847D01*
X40990Y333835D01*
X41195Y332808D01*
X41332Y331769D01*
X41400Y330724D01*
X41400Y329676D01*
X963420Y324596D02*
X963352Y323551D01*
X963215Y322512D01*
X963010Y321485D01*
X962739Y320473D01*
X962403Y319481D01*
X962002Y318513D01*
X961538Y317574D01*
X961015Y316666D01*
X960433Y315795D01*
X959795Y314964D01*
X959104Y314177D01*
X958363Y313436D01*
X957576Y312745D01*
X956745Y312108D01*
X955874Y311526D01*
X954966Y311002D01*
X954027Y310538D01*
X953059Y310137D01*
X952067Y309801D01*
X951055Y309530D01*
X950028Y309325D01*
X948989Y309189D01*
X947944Y309120D01*
X946896Y309120D01*
X945851Y309189D01*
X944812Y309325D01*
X943785Y309530D01*
X942773Y309801D01*
X941781Y310137D01*
X940813Y310538D01*
X939874Y311002D01*
X938966Y311526D01*
X938095Y312108D01*
X937264Y312745D01*
X936477Y313436D01*
X935736Y314177D01*
X935045Y314964D01*
X934408Y315795D01*
X933826Y316666D01*
X933302Y317574D01*
X932838Y318513D01*
X932437Y319481D01*
X932101Y320473D01*
X931830Y321485D01*
X931625Y322512D01*
X931489Y323551D01*
X931420Y324596D01*
X931420Y325644D01*
X931489Y326689D01*
X931625Y327728D01*
X931830Y328755D01*
X932101Y329767D01*
X932437Y330759D01*
X932838Y331727D01*
X933302Y332666D01*
X933826Y333574D01*
X934408Y334445D01*
X935045Y335276D01*
X935736Y336063D01*
X936477Y336804D01*
X937264Y337495D01*
X938095Y338133D01*
X938966Y338715D01*
X939874Y339238D01*
X940813Y339702D01*
X941781Y340103D01*
X942773Y340439D01*
X943785Y340710D01*
X944812Y340915D01*
X945851Y341052D01*
X946896Y341120D01*
X947944Y341120D01*
X948989Y341052D01*
X950028Y340915D01*
X951055Y340710D01*
X952067Y340439D01*
X953059Y340103D01*
X954027Y339702D01*
X954966Y339238D01*
X955874Y338715D01*
X956745Y338133D01*
X957576Y337495D01*
X958363Y336804D01*
X959104Y336063D01*
X959795Y335276D01*
X960433Y334445D01*
X961015Y333574D01*
X961538Y332666D01*
X962002Y331727D01*
X962403Y330759D01*
X962739Y329767D01*
X963010Y328755D01*
X963215Y327728D01*
X963352Y326689D01*
X963420Y325644D01*
X963420Y324596D01*
M02*
