G04 EAGLE Gerber RS-274X export*
G75*
%MOMM*%
%FSLAX34Y34*%
%LPD*%
%INSilkscreen Bottom*%
%IPPOS*%
%AMOC8*
5,1,8,0,0,1.08239X$1,22.5*%
G01*
%ADD10C,0.152400*%


D10*
X909856Y329833D02*
X907147Y329833D01*
X907147Y320802D01*
X912566Y320802D01*
X912684Y320804D01*
X912802Y320810D01*
X912920Y320819D01*
X913037Y320833D01*
X913154Y320850D01*
X913271Y320871D01*
X913386Y320896D01*
X913501Y320925D01*
X913615Y320958D01*
X913727Y320994D01*
X913838Y321034D01*
X913948Y321077D01*
X914057Y321124D01*
X914164Y321174D01*
X914269Y321229D01*
X914372Y321286D01*
X914473Y321347D01*
X914573Y321411D01*
X914670Y321478D01*
X914765Y321548D01*
X914857Y321622D01*
X914948Y321698D01*
X915035Y321778D01*
X915120Y321860D01*
X915202Y321945D01*
X915282Y322032D01*
X915358Y322123D01*
X915432Y322215D01*
X915502Y322310D01*
X915569Y322407D01*
X915633Y322507D01*
X915694Y322608D01*
X915751Y322711D01*
X915806Y322816D01*
X915856Y322923D01*
X915903Y323032D01*
X915946Y323142D01*
X915986Y323253D01*
X916022Y323365D01*
X916055Y323479D01*
X916084Y323594D01*
X916109Y323709D01*
X916130Y323826D01*
X916147Y323943D01*
X916161Y324060D01*
X916170Y324178D01*
X916176Y324296D01*
X916178Y324414D01*
X916178Y333446D01*
X916176Y333564D01*
X916170Y333682D01*
X916161Y333800D01*
X916147Y333917D01*
X916130Y334034D01*
X916109Y334151D01*
X916084Y334266D01*
X916055Y334381D01*
X916022Y334495D01*
X915986Y334607D01*
X915946Y334718D01*
X915903Y334828D01*
X915856Y334937D01*
X915806Y335044D01*
X915751Y335149D01*
X915694Y335252D01*
X915633Y335353D01*
X915569Y335453D01*
X915502Y335550D01*
X915432Y335645D01*
X915358Y335737D01*
X915282Y335828D01*
X915202Y335915D01*
X915120Y336000D01*
X915035Y336082D01*
X914948Y336162D01*
X914857Y336238D01*
X914765Y336312D01*
X914670Y336382D01*
X914573Y336449D01*
X914473Y336513D01*
X914372Y336574D01*
X914269Y336631D01*
X914164Y336686D01*
X914057Y336736D01*
X913948Y336783D01*
X913838Y336826D01*
X913727Y336866D01*
X913615Y336902D01*
X913501Y336935D01*
X913386Y336964D01*
X913271Y336989D01*
X913154Y337010D01*
X913037Y337027D01*
X912920Y337041D01*
X912802Y337050D01*
X912684Y337056D01*
X912566Y337058D01*
X907147Y337058D01*
X899559Y331639D02*
X899559Y320802D01*
X899559Y331639D02*
X894140Y331639D01*
X894140Y329833D01*
X889744Y331639D02*
X882519Y331639D01*
X889744Y320802D01*
X882519Y320802D01*
X874009Y320802D02*
X869493Y320802D01*
X874009Y320802D02*
X874110Y320804D01*
X874211Y320810D01*
X874312Y320819D01*
X874413Y320832D01*
X874513Y320849D01*
X874612Y320870D01*
X874710Y320894D01*
X874807Y320922D01*
X874904Y320954D01*
X874999Y320989D01*
X875092Y321028D01*
X875184Y321070D01*
X875275Y321116D01*
X875364Y321165D01*
X875450Y321217D01*
X875535Y321273D01*
X875618Y321331D01*
X875698Y321393D01*
X875776Y321458D01*
X875852Y321525D01*
X875925Y321595D01*
X875995Y321668D01*
X876062Y321744D01*
X876127Y321822D01*
X876189Y321902D01*
X876247Y321985D01*
X876303Y322070D01*
X876355Y322157D01*
X876404Y322245D01*
X876450Y322336D01*
X876492Y322428D01*
X876531Y322521D01*
X876566Y322616D01*
X876598Y322713D01*
X876626Y322810D01*
X876650Y322908D01*
X876671Y323007D01*
X876688Y323107D01*
X876701Y323208D01*
X876710Y323309D01*
X876716Y323410D01*
X876718Y323511D01*
X876718Y328027D01*
X876717Y328027D02*
X876715Y328146D01*
X876709Y328266D01*
X876699Y328385D01*
X876685Y328503D01*
X876668Y328622D01*
X876646Y328739D01*
X876621Y328856D01*
X876591Y328971D01*
X876558Y329086D01*
X876521Y329200D01*
X876481Y329312D01*
X876436Y329423D01*
X876388Y329532D01*
X876337Y329640D01*
X876282Y329746D01*
X876223Y329850D01*
X876161Y329952D01*
X876096Y330052D01*
X876027Y330150D01*
X875955Y330246D01*
X875880Y330339D01*
X875803Y330429D01*
X875722Y330517D01*
X875638Y330602D01*
X875551Y330684D01*
X875462Y330764D01*
X875370Y330840D01*
X875276Y330914D01*
X875179Y330984D01*
X875081Y331051D01*
X874980Y331115D01*
X874876Y331175D01*
X874771Y331232D01*
X874664Y331285D01*
X874556Y331335D01*
X874446Y331381D01*
X874334Y331423D01*
X874221Y331462D01*
X874107Y331497D01*
X873992Y331528D01*
X873875Y331556D01*
X873758Y331579D01*
X873641Y331599D01*
X873522Y331615D01*
X873403Y331627D01*
X873284Y331635D01*
X873165Y331639D01*
X873045Y331639D01*
X872926Y331635D01*
X872807Y331627D01*
X872688Y331615D01*
X872569Y331599D01*
X872452Y331579D01*
X872335Y331556D01*
X872218Y331528D01*
X872103Y331497D01*
X871989Y331462D01*
X871876Y331423D01*
X871764Y331381D01*
X871654Y331335D01*
X871546Y331285D01*
X871439Y331232D01*
X871334Y331175D01*
X871230Y331115D01*
X871129Y331051D01*
X871031Y330984D01*
X870934Y330914D01*
X870840Y330840D01*
X870748Y330764D01*
X870659Y330684D01*
X870572Y330602D01*
X870488Y330517D01*
X870407Y330429D01*
X870330Y330339D01*
X870255Y330246D01*
X870183Y330150D01*
X870114Y330052D01*
X870049Y329952D01*
X869987Y329850D01*
X869928Y329746D01*
X869873Y329640D01*
X869822Y329532D01*
X869774Y329423D01*
X869729Y329312D01*
X869689Y329200D01*
X869652Y329086D01*
X869619Y328971D01*
X869589Y328856D01*
X869564Y328739D01*
X869542Y328622D01*
X869525Y328503D01*
X869511Y328385D01*
X869501Y328266D01*
X869495Y328146D01*
X869493Y328027D01*
X869493Y326221D01*
X876718Y326221D01*
X860535Y320802D02*
X856019Y320802D01*
X860535Y320802D02*
X860636Y320804D01*
X860737Y320810D01*
X860838Y320819D01*
X860939Y320832D01*
X861039Y320849D01*
X861138Y320870D01*
X861236Y320894D01*
X861333Y320922D01*
X861430Y320954D01*
X861525Y320989D01*
X861618Y321028D01*
X861710Y321070D01*
X861801Y321116D01*
X861890Y321165D01*
X861976Y321217D01*
X862061Y321273D01*
X862144Y321331D01*
X862224Y321393D01*
X862302Y321458D01*
X862378Y321525D01*
X862451Y321595D01*
X862521Y321668D01*
X862588Y321744D01*
X862653Y321822D01*
X862715Y321902D01*
X862773Y321985D01*
X862829Y322070D01*
X862881Y322157D01*
X862930Y322245D01*
X862976Y322336D01*
X863018Y322428D01*
X863057Y322521D01*
X863092Y322616D01*
X863124Y322713D01*
X863152Y322810D01*
X863176Y322908D01*
X863197Y323007D01*
X863214Y323107D01*
X863227Y323208D01*
X863236Y323309D01*
X863242Y323410D01*
X863244Y323511D01*
X863244Y328930D01*
X863242Y329031D01*
X863236Y329132D01*
X863227Y329233D01*
X863214Y329334D01*
X863197Y329434D01*
X863176Y329533D01*
X863152Y329631D01*
X863124Y329728D01*
X863092Y329825D01*
X863057Y329920D01*
X863018Y330013D01*
X862976Y330105D01*
X862930Y330196D01*
X862881Y330285D01*
X862829Y330371D01*
X862773Y330456D01*
X862715Y330539D01*
X862653Y330619D01*
X862588Y330697D01*
X862521Y330773D01*
X862451Y330846D01*
X862378Y330916D01*
X862302Y330983D01*
X862224Y331048D01*
X862144Y331110D01*
X862061Y331168D01*
X861976Y331224D01*
X861890Y331276D01*
X861801Y331325D01*
X861710Y331371D01*
X861618Y331413D01*
X861525Y331452D01*
X861430Y331487D01*
X861333Y331519D01*
X861236Y331547D01*
X861138Y331571D01*
X861039Y331592D01*
X860939Y331609D01*
X860838Y331622D01*
X860737Y331631D01*
X860636Y331637D01*
X860535Y331639D01*
X856019Y331639D01*
X856019Y318093D01*
X856020Y318093D02*
X856022Y317992D01*
X856028Y317891D01*
X856037Y317790D01*
X856050Y317689D01*
X856067Y317589D01*
X856088Y317490D01*
X856112Y317392D01*
X856140Y317295D01*
X856172Y317198D01*
X856207Y317103D01*
X856246Y317010D01*
X856288Y316918D01*
X856334Y316827D01*
X856383Y316739D01*
X856435Y316652D01*
X856491Y316567D01*
X856549Y316484D01*
X856611Y316404D01*
X856676Y316326D01*
X856743Y316250D01*
X856813Y316177D01*
X856886Y316107D01*
X856962Y316040D01*
X857040Y315975D01*
X857120Y315913D01*
X857203Y315855D01*
X857288Y315799D01*
X857375Y315747D01*
X857463Y315698D01*
X857554Y315652D01*
X857646Y315610D01*
X857739Y315571D01*
X857834Y315536D01*
X857931Y315504D01*
X858028Y315476D01*
X858126Y315452D01*
X858225Y315431D01*
X858325Y315414D01*
X858426Y315401D01*
X858527Y315392D01*
X858628Y315386D01*
X858729Y315384D01*
X858729Y315383D02*
X862341Y315383D01*
X849103Y324414D02*
X849103Y328027D01*
X849102Y328027D02*
X849100Y328146D01*
X849094Y328266D01*
X849084Y328385D01*
X849070Y328503D01*
X849053Y328622D01*
X849031Y328739D01*
X849006Y328856D01*
X848976Y328971D01*
X848943Y329086D01*
X848906Y329200D01*
X848866Y329312D01*
X848821Y329423D01*
X848773Y329532D01*
X848722Y329640D01*
X848667Y329746D01*
X848608Y329850D01*
X848546Y329952D01*
X848481Y330052D01*
X848412Y330150D01*
X848340Y330246D01*
X848265Y330339D01*
X848188Y330429D01*
X848107Y330517D01*
X848023Y330602D01*
X847936Y330684D01*
X847847Y330764D01*
X847755Y330840D01*
X847661Y330914D01*
X847564Y330984D01*
X847466Y331051D01*
X847365Y331115D01*
X847261Y331175D01*
X847156Y331232D01*
X847049Y331285D01*
X846941Y331335D01*
X846831Y331381D01*
X846719Y331423D01*
X846606Y331462D01*
X846492Y331497D01*
X846377Y331528D01*
X846260Y331556D01*
X846143Y331579D01*
X846026Y331599D01*
X845907Y331615D01*
X845788Y331627D01*
X845669Y331635D01*
X845550Y331639D01*
X845430Y331639D01*
X845311Y331635D01*
X845192Y331627D01*
X845073Y331615D01*
X844954Y331599D01*
X844837Y331579D01*
X844720Y331556D01*
X844603Y331528D01*
X844488Y331497D01*
X844374Y331462D01*
X844261Y331423D01*
X844149Y331381D01*
X844039Y331335D01*
X843931Y331285D01*
X843824Y331232D01*
X843719Y331175D01*
X843615Y331115D01*
X843514Y331051D01*
X843416Y330984D01*
X843319Y330914D01*
X843225Y330840D01*
X843133Y330764D01*
X843044Y330684D01*
X842957Y330602D01*
X842873Y330517D01*
X842792Y330429D01*
X842715Y330339D01*
X842640Y330246D01*
X842568Y330150D01*
X842499Y330052D01*
X842434Y329952D01*
X842372Y329850D01*
X842313Y329746D01*
X842258Y329640D01*
X842207Y329532D01*
X842159Y329423D01*
X842114Y329312D01*
X842074Y329200D01*
X842037Y329086D01*
X842004Y328971D01*
X841974Y328856D01*
X841949Y328739D01*
X841927Y328622D01*
X841910Y328503D01*
X841896Y328385D01*
X841886Y328266D01*
X841880Y328146D01*
X841878Y328027D01*
X841878Y324414D01*
X841880Y324295D01*
X841886Y324175D01*
X841896Y324056D01*
X841910Y323938D01*
X841927Y323819D01*
X841949Y323702D01*
X841974Y323585D01*
X842004Y323470D01*
X842037Y323355D01*
X842074Y323241D01*
X842114Y323129D01*
X842159Y323018D01*
X842207Y322909D01*
X842258Y322801D01*
X842313Y322695D01*
X842372Y322591D01*
X842434Y322489D01*
X842499Y322389D01*
X842568Y322291D01*
X842640Y322195D01*
X842715Y322102D01*
X842792Y322012D01*
X842873Y321924D01*
X842957Y321839D01*
X843044Y321757D01*
X843133Y321677D01*
X843225Y321601D01*
X843319Y321527D01*
X843416Y321457D01*
X843514Y321390D01*
X843615Y321326D01*
X843719Y321266D01*
X843824Y321209D01*
X843931Y321156D01*
X844039Y321106D01*
X844149Y321060D01*
X844261Y321018D01*
X844374Y320979D01*
X844488Y320944D01*
X844603Y320913D01*
X844720Y320885D01*
X844837Y320862D01*
X844954Y320842D01*
X845073Y320826D01*
X845192Y320814D01*
X845311Y320806D01*
X845430Y320802D01*
X845550Y320802D01*
X845669Y320806D01*
X845788Y320814D01*
X845907Y320826D01*
X846026Y320842D01*
X846143Y320862D01*
X846260Y320885D01*
X846377Y320913D01*
X846492Y320944D01*
X846606Y320979D01*
X846719Y321018D01*
X846831Y321060D01*
X846941Y321106D01*
X847049Y321156D01*
X847156Y321209D01*
X847261Y321266D01*
X847365Y321326D01*
X847466Y321390D01*
X847564Y321457D01*
X847661Y321527D01*
X847755Y321601D01*
X847847Y321677D01*
X847936Y321757D01*
X848023Y321839D01*
X848107Y321924D01*
X848188Y322012D01*
X848265Y322102D01*
X848340Y322195D01*
X848412Y322291D01*
X848481Y322389D01*
X848546Y322489D01*
X848608Y322591D01*
X848667Y322695D01*
X848722Y322801D01*
X848773Y322909D01*
X848821Y323018D01*
X848866Y323129D01*
X848906Y323241D01*
X848943Y323355D01*
X848976Y323470D01*
X849006Y323585D01*
X849031Y323702D01*
X849053Y323819D01*
X849070Y323938D01*
X849084Y324056D01*
X849094Y324175D01*
X849100Y324295D01*
X849102Y324414D01*
X834950Y320802D02*
X834950Y331639D01*
X829531Y331639D01*
X829531Y329833D01*
X825135Y331639D02*
X817910Y331639D01*
X825135Y320802D01*
X817910Y320802D01*
X802901Y329833D02*
X798386Y329833D01*
X798386Y329834D02*
X798253Y329832D01*
X798121Y329826D01*
X797989Y329816D01*
X797857Y329803D01*
X797725Y329785D01*
X797595Y329764D01*
X797464Y329739D01*
X797335Y329710D01*
X797207Y329677D01*
X797079Y329641D01*
X796953Y329601D01*
X796828Y329557D01*
X796704Y329509D01*
X796582Y329458D01*
X796461Y329403D01*
X796342Y329345D01*
X796224Y329283D01*
X796109Y329218D01*
X795995Y329149D01*
X795884Y329078D01*
X795775Y329002D01*
X795668Y328924D01*
X795563Y328843D01*
X795461Y328758D01*
X795361Y328671D01*
X795264Y328581D01*
X795169Y328488D01*
X795078Y328392D01*
X794989Y328294D01*
X794903Y328193D01*
X794820Y328089D01*
X794740Y327983D01*
X794664Y327875D01*
X794590Y327765D01*
X794520Y327652D01*
X794453Y327538D01*
X794390Y327421D01*
X794330Y327303D01*
X794273Y327183D01*
X794220Y327061D01*
X794171Y326938D01*
X794125Y326814D01*
X794083Y326688D01*
X794045Y326561D01*
X794010Y326433D01*
X793979Y326304D01*
X793952Y326175D01*
X793929Y326044D01*
X793909Y325913D01*
X793894Y325781D01*
X793882Y325649D01*
X793874Y325517D01*
X793870Y325384D01*
X793870Y325252D01*
X793874Y325119D01*
X793882Y324987D01*
X793894Y324855D01*
X793909Y324723D01*
X793929Y324592D01*
X793952Y324461D01*
X793979Y324332D01*
X794010Y324203D01*
X794045Y324075D01*
X794083Y323948D01*
X794125Y323822D01*
X794171Y323698D01*
X794220Y323575D01*
X794273Y323453D01*
X794330Y323333D01*
X794390Y323215D01*
X794453Y323098D01*
X794520Y322984D01*
X794590Y322871D01*
X794664Y322761D01*
X794740Y322653D01*
X794820Y322547D01*
X794903Y322443D01*
X794989Y322342D01*
X795078Y322244D01*
X795169Y322148D01*
X795264Y322055D01*
X795361Y321965D01*
X795461Y321878D01*
X795563Y321793D01*
X795668Y321712D01*
X795775Y321634D01*
X795884Y321558D01*
X795995Y321487D01*
X796109Y321418D01*
X796224Y321353D01*
X796342Y321291D01*
X796461Y321233D01*
X796582Y321178D01*
X796704Y321127D01*
X796828Y321079D01*
X796953Y321035D01*
X797079Y320995D01*
X797207Y320959D01*
X797335Y320926D01*
X797464Y320897D01*
X797595Y320872D01*
X797725Y320851D01*
X797857Y320833D01*
X797989Y320820D01*
X798121Y320810D01*
X798253Y320804D01*
X798386Y320802D01*
X802901Y320802D01*
X802901Y337058D01*
X798386Y337058D01*
X798267Y337056D01*
X798147Y337050D01*
X798028Y337040D01*
X797910Y337026D01*
X797791Y337009D01*
X797674Y336987D01*
X797557Y336962D01*
X797442Y336932D01*
X797327Y336899D01*
X797213Y336862D01*
X797101Y336822D01*
X796990Y336777D01*
X796881Y336729D01*
X796773Y336678D01*
X796667Y336623D01*
X796563Y336564D01*
X796461Y336502D01*
X796361Y336437D01*
X796263Y336368D01*
X796167Y336296D01*
X796074Y336221D01*
X795984Y336144D01*
X795896Y336063D01*
X795811Y335979D01*
X795729Y335892D01*
X795649Y335803D01*
X795573Y335711D01*
X795499Y335617D01*
X795429Y335520D01*
X795362Y335422D01*
X795298Y335321D01*
X795238Y335217D01*
X795181Y335112D01*
X795128Y335005D01*
X795078Y334897D01*
X795032Y334787D01*
X794990Y334675D01*
X794951Y334562D01*
X794916Y334448D01*
X794885Y334333D01*
X794857Y334216D01*
X794834Y334099D01*
X794814Y333982D01*
X794798Y333863D01*
X794786Y333744D01*
X794778Y333625D01*
X794774Y333506D01*
X794774Y333386D01*
X794778Y333267D01*
X794786Y333148D01*
X794798Y333029D01*
X794814Y332910D01*
X794834Y332793D01*
X794857Y332676D01*
X794885Y332559D01*
X794916Y332444D01*
X794951Y332330D01*
X794990Y332217D01*
X795032Y332105D01*
X795078Y331995D01*
X795128Y331887D01*
X795181Y331780D01*
X795238Y331675D01*
X795298Y331571D01*
X795362Y331470D01*
X795429Y331372D01*
X795499Y331275D01*
X795573Y331181D01*
X795649Y331089D01*
X795729Y331000D01*
X795811Y330913D01*
X795896Y330829D01*
X795984Y330748D01*
X796074Y330671D01*
X796167Y330596D01*
X796263Y330524D01*
X796361Y330455D01*
X796461Y330390D01*
X796563Y330328D01*
X796667Y330269D01*
X796773Y330214D01*
X796881Y330163D01*
X796990Y330115D01*
X797101Y330070D01*
X797213Y330030D01*
X797327Y329993D01*
X797442Y329960D01*
X797557Y329930D01*
X797674Y329905D01*
X797791Y329883D01*
X797910Y329866D01*
X798028Y329852D01*
X798147Y329842D01*
X798267Y329836D01*
X798386Y329834D01*
X787535Y331639D02*
X787535Y320802D01*
X787535Y331639D02*
X782116Y331639D01*
X782116Y329833D01*
X777720Y331639D02*
X770495Y331639D01*
X777720Y320802D01*
X770495Y320802D01*
X757921Y315383D02*
X757469Y315383D01*
X757921Y315384D02*
X758010Y315386D01*
X758099Y315392D01*
X758188Y315401D01*
X758276Y315415D01*
X758363Y315432D01*
X758450Y315453D01*
X758536Y315478D01*
X758620Y315506D01*
X758703Y315538D01*
X758785Y315574D01*
X758865Y315613D01*
X758944Y315656D01*
X759020Y315702D01*
X759094Y315751D01*
X759167Y315803D01*
X759236Y315859D01*
X759304Y315917D01*
X759369Y315978D01*
X759431Y316042D01*
X759490Y316109D01*
X759546Y316178D01*
X759599Y316250D01*
X759650Y316323D01*
X759696Y316399D01*
X759740Y316477D01*
X759780Y316557D01*
X759817Y316638D01*
X759850Y316721D01*
X759879Y316805D01*
X759905Y316890D01*
X759927Y316977D01*
X759946Y317064D01*
X759960Y317152D01*
X759971Y317240D01*
X759978Y317329D01*
X759981Y317418D01*
X759980Y317507D01*
X759975Y317597D01*
X759967Y317685D01*
X759954Y317774D01*
X759938Y317861D01*
X759918Y317948D01*
X759895Y318034D01*
X759867Y318119D01*
X759836Y318203D01*
X759802Y318285D01*
X759763Y318365D01*
X759722Y318444D01*
X759677Y318521D01*
X759629Y318596D01*
X759577Y318669D01*
X759523Y318739D01*
X759465Y318808D01*
X759405Y318873D01*
X759341Y318936D01*
X759276Y318996D01*
X757469Y320802D01*
X761985Y320802D01*
X762086Y320804D01*
X762187Y320810D01*
X762288Y320819D01*
X762389Y320832D01*
X762489Y320849D01*
X762588Y320870D01*
X762686Y320894D01*
X762783Y320922D01*
X762880Y320954D01*
X762975Y320989D01*
X763068Y321028D01*
X763160Y321070D01*
X763251Y321116D01*
X763340Y321165D01*
X763426Y321217D01*
X763511Y321273D01*
X763594Y321331D01*
X763674Y321393D01*
X763752Y321458D01*
X763828Y321525D01*
X763901Y321595D01*
X763971Y321668D01*
X764038Y321744D01*
X764103Y321822D01*
X764165Y321902D01*
X764223Y321985D01*
X764279Y322070D01*
X764331Y322157D01*
X764380Y322245D01*
X764426Y322336D01*
X764468Y322428D01*
X764507Y322521D01*
X764542Y322616D01*
X764574Y322713D01*
X764602Y322810D01*
X764626Y322908D01*
X764647Y323007D01*
X764664Y323107D01*
X764677Y323208D01*
X764686Y323309D01*
X764692Y323410D01*
X764694Y323511D01*
X764694Y328027D01*
X764692Y328146D01*
X764686Y328266D01*
X764676Y328385D01*
X764662Y328503D01*
X764645Y328622D01*
X764623Y328739D01*
X764598Y328856D01*
X764568Y328971D01*
X764535Y329086D01*
X764498Y329200D01*
X764458Y329312D01*
X764413Y329423D01*
X764365Y329532D01*
X764314Y329640D01*
X764259Y329746D01*
X764200Y329850D01*
X764138Y329952D01*
X764073Y330052D01*
X764004Y330150D01*
X763932Y330246D01*
X763857Y330339D01*
X763780Y330429D01*
X763699Y330517D01*
X763615Y330602D01*
X763528Y330684D01*
X763439Y330764D01*
X763347Y330840D01*
X763253Y330914D01*
X763156Y330984D01*
X763058Y331051D01*
X762957Y331115D01*
X762853Y331175D01*
X762748Y331232D01*
X762641Y331285D01*
X762533Y331335D01*
X762423Y331381D01*
X762311Y331423D01*
X762198Y331462D01*
X762084Y331497D01*
X761969Y331528D01*
X761852Y331556D01*
X761735Y331579D01*
X761618Y331599D01*
X761499Y331615D01*
X761380Y331627D01*
X761261Y331635D01*
X761142Y331639D01*
X761022Y331639D01*
X760903Y331635D01*
X760784Y331627D01*
X760665Y331615D01*
X760546Y331599D01*
X760429Y331579D01*
X760312Y331556D01*
X760195Y331528D01*
X760080Y331497D01*
X759966Y331462D01*
X759853Y331423D01*
X759741Y331381D01*
X759631Y331335D01*
X759523Y331285D01*
X759416Y331232D01*
X759311Y331175D01*
X759207Y331115D01*
X759106Y331051D01*
X759008Y330984D01*
X758911Y330914D01*
X758817Y330840D01*
X758725Y330764D01*
X758636Y330684D01*
X758549Y330602D01*
X758465Y330517D01*
X758384Y330429D01*
X758307Y330339D01*
X758232Y330246D01*
X758160Y330150D01*
X758091Y330052D01*
X758026Y329952D01*
X757964Y329850D01*
X757905Y329746D01*
X757850Y329640D01*
X757799Y329532D01*
X757751Y329423D01*
X757706Y329312D01*
X757666Y329200D01*
X757629Y329086D01*
X757596Y328971D01*
X757566Y328856D01*
X757541Y328739D01*
X757519Y328622D01*
X757502Y328503D01*
X757488Y328385D01*
X757478Y328266D01*
X757472Y328146D01*
X757470Y328027D01*
X757469Y328027D02*
X757469Y326221D01*
X764694Y326221D01*
X748420Y320802D02*
X744808Y320802D01*
X748420Y320802D02*
X748521Y320804D01*
X748622Y320810D01*
X748723Y320819D01*
X748824Y320832D01*
X748924Y320849D01*
X749023Y320870D01*
X749121Y320894D01*
X749218Y320922D01*
X749315Y320954D01*
X749410Y320989D01*
X749503Y321028D01*
X749595Y321070D01*
X749686Y321116D01*
X749775Y321165D01*
X749861Y321217D01*
X749946Y321273D01*
X750029Y321331D01*
X750109Y321393D01*
X750187Y321458D01*
X750263Y321525D01*
X750336Y321595D01*
X750406Y321668D01*
X750473Y321744D01*
X750538Y321822D01*
X750600Y321902D01*
X750658Y321985D01*
X750714Y322070D01*
X750766Y322157D01*
X750815Y322245D01*
X750861Y322336D01*
X750903Y322428D01*
X750942Y322521D01*
X750977Y322616D01*
X751009Y322713D01*
X751037Y322810D01*
X751061Y322908D01*
X751082Y323007D01*
X751099Y323107D01*
X751112Y323208D01*
X751121Y323309D01*
X751127Y323410D01*
X751129Y323511D01*
X751130Y323511D02*
X751130Y328930D01*
X751129Y328930D02*
X751127Y329031D01*
X751121Y329132D01*
X751112Y329233D01*
X751099Y329334D01*
X751082Y329434D01*
X751061Y329533D01*
X751037Y329631D01*
X751009Y329728D01*
X750977Y329825D01*
X750942Y329920D01*
X750903Y330013D01*
X750861Y330105D01*
X750815Y330196D01*
X750766Y330285D01*
X750714Y330371D01*
X750658Y330456D01*
X750600Y330539D01*
X750538Y330619D01*
X750473Y330697D01*
X750406Y330773D01*
X750336Y330846D01*
X750263Y330916D01*
X750187Y330983D01*
X750109Y331048D01*
X750029Y331110D01*
X749946Y331168D01*
X749861Y331224D01*
X749775Y331276D01*
X749686Y331325D01*
X749595Y331371D01*
X749503Y331413D01*
X749410Y331452D01*
X749315Y331487D01*
X749218Y331519D01*
X749121Y331547D01*
X749023Y331571D01*
X748924Y331592D01*
X748824Y331609D01*
X748723Y331622D01*
X748622Y331631D01*
X748521Y331637D01*
X748420Y331639D01*
X744808Y331639D01*
X739684Y331639D02*
X732459Y331639D01*
X739684Y320802D01*
X732459Y320802D01*
X727179Y315383D02*
X725373Y315383D01*
X719954Y331639D01*
X727179Y331639D02*
X723567Y320802D01*
X712799Y327124D02*
X708283Y325318D01*
X712799Y327124D02*
X712887Y327161D01*
X712973Y327202D01*
X713058Y327246D01*
X713141Y327294D01*
X713221Y327345D01*
X713300Y327399D01*
X713376Y327457D01*
X713450Y327517D01*
X713522Y327581D01*
X713590Y327647D01*
X713656Y327717D01*
X713719Y327788D01*
X713780Y327863D01*
X713837Y327939D01*
X713890Y328018D01*
X713941Y328099D01*
X713988Y328182D01*
X714032Y328267D01*
X714072Y328354D01*
X714109Y328442D01*
X714142Y328532D01*
X714172Y328623D01*
X714197Y328715D01*
X714219Y328808D01*
X714237Y328902D01*
X714252Y328996D01*
X714262Y329091D01*
X714268Y329187D01*
X714271Y329282D01*
X714270Y329378D01*
X714264Y329473D01*
X714255Y329569D01*
X714242Y329663D01*
X714226Y329757D01*
X714205Y329851D01*
X714180Y329943D01*
X714152Y330034D01*
X714120Y330124D01*
X714085Y330213D01*
X714046Y330300D01*
X714003Y330386D01*
X713957Y330470D01*
X713907Y330551D01*
X713855Y330631D01*
X713799Y330709D01*
X713739Y330784D01*
X713677Y330856D01*
X713612Y330926D01*
X713544Y330994D01*
X713474Y331058D01*
X713401Y331120D01*
X713325Y331178D01*
X713247Y331234D01*
X713167Y331286D01*
X713085Y331335D01*
X713001Y331380D01*
X712915Y331422D01*
X712828Y331461D01*
X712739Y331496D01*
X712648Y331527D01*
X712557Y331554D01*
X712464Y331578D01*
X712371Y331598D01*
X712277Y331614D01*
X712182Y331626D01*
X712087Y331635D01*
X711991Y331639D01*
X711896Y331640D01*
X711649Y331633D01*
X711403Y331621D01*
X711157Y331603D01*
X710911Y331578D01*
X710667Y331548D01*
X710423Y331512D01*
X710180Y331471D01*
X709938Y331423D01*
X709697Y331369D01*
X709458Y331310D01*
X709220Y331245D01*
X708984Y331174D01*
X708749Y331098D01*
X708516Y331016D01*
X708286Y330928D01*
X708058Y330835D01*
X707831Y330737D01*
X708283Y325317D02*
X708195Y325280D01*
X708109Y325239D01*
X708024Y325195D01*
X707941Y325147D01*
X707861Y325096D01*
X707782Y325042D01*
X707706Y324984D01*
X707632Y324924D01*
X707560Y324860D01*
X707492Y324794D01*
X707426Y324724D01*
X707363Y324653D01*
X707302Y324578D01*
X707245Y324502D01*
X707192Y324423D01*
X707141Y324342D01*
X707094Y324259D01*
X707050Y324174D01*
X707010Y324087D01*
X706973Y323999D01*
X706940Y323909D01*
X706910Y323818D01*
X706885Y323726D01*
X706863Y323633D01*
X706845Y323539D01*
X706830Y323445D01*
X706820Y323350D01*
X706814Y323254D01*
X706811Y323159D01*
X706812Y323063D01*
X706818Y322968D01*
X706827Y322872D01*
X706840Y322778D01*
X706856Y322684D01*
X706877Y322590D01*
X706902Y322498D01*
X706930Y322407D01*
X706962Y322317D01*
X706997Y322228D01*
X707036Y322141D01*
X707079Y322055D01*
X707125Y321971D01*
X707175Y321890D01*
X707227Y321810D01*
X707283Y321732D01*
X707343Y321657D01*
X707405Y321585D01*
X707470Y321515D01*
X707538Y321447D01*
X707608Y321383D01*
X707681Y321321D01*
X707757Y321263D01*
X707835Y321207D01*
X707915Y321155D01*
X707997Y321106D01*
X708081Y321061D01*
X708167Y321019D01*
X708254Y320980D01*
X708343Y320945D01*
X708434Y320914D01*
X708525Y320887D01*
X708618Y320863D01*
X708711Y320843D01*
X708805Y320827D01*
X708900Y320815D01*
X708995Y320806D01*
X709091Y320802D01*
X709186Y320801D01*
X709187Y320802D02*
X709549Y320811D01*
X709911Y320829D01*
X710272Y320856D01*
X710632Y320891D01*
X710992Y320934D01*
X711351Y320986D01*
X711708Y321047D01*
X712063Y321116D01*
X712417Y321193D01*
X712769Y321279D01*
X713119Y321373D01*
X713467Y321476D01*
X713812Y321586D01*
X714154Y321705D01*
X701127Y331639D02*
X693902Y331639D01*
X701127Y320802D01*
X693902Y320802D01*
X685374Y320802D02*
X681762Y320802D01*
X685374Y320802D02*
X685475Y320804D01*
X685576Y320810D01*
X685677Y320819D01*
X685778Y320832D01*
X685878Y320849D01*
X685977Y320870D01*
X686075Y320894D01*
X686172Y320922D01*
X686269Y320954D01*
X686364Y320989D01*
X686457Y321028D01*
X686549Y321070D01*
X686640Y321116D01*
X686729Y321165D01*
X686815Y321217D01*
X686900Y321273D01*
X686983Y321331D01*
X687063Y321393D01*
X687141Y321458D01*
X687217Y321525D01*
X687290Y321595D01*
X687360Y321668D01*
X687427Y321744D01*
X687492Y321822D01*
X687554Y321902D01*
X687612Y321985D01*
X687668Y322070D01*
X687720Y322157D01*
X687769Y322245D01*
X687815Y322336D01*
X687857Y322428D01*
X687896Y322521D01*
X687931Y322616D01*
X687963Y322713D01*
X687991Y322810D01*
X688015Y322908D01*
X688036Y323007D01*
X688053Y323107D01*
X688066Y323208D01*
X688075Y323309D01*
X688081Y323410D01*
X688083Y323511D01*
X688084Y323511D02*
X688084Y328930D01*
X688083Y328930D02*
X688081Y329031D01*
X688075Y329132D01*
X688066Y329233D01*
X688053Y329334D01*
X688036Y329434D01*
X688015Y329533D01*
X687991Y329631D01*
X687963Y329728D01*
X687931Y329825D01*
X687896Y329920D01*
X687857Y330013D01*
X687815Y330105D01*
X687769Y330196D01*
X687720Y330285D01*
X687668Y330371D01*
X687612Y330456D01*
X687554Y330539D01*
X687492Y330619D01*
X687427Y330697D01*
X687360Y330773D01*
X687290Y330846D01*
X687217Y330916D01*
X687141Y330983D01*
X687063Y331048D01*
X686983Y331110D01*
X686900Y331168D01*
X686815Y331224D01*
X686729Y331276D01*
X686640Y331325D01*
X686549Y331371D01*
X686457Y331413D01*
X686364Y331452D01*
X686269Y331487D01*
X686172Y331519D01*
X686075Y331547D01*
X685977Y331571D01*
X685878Y331592D01*
X685778Y331609D01*
X685677Y331622D01*
X685576Y331631D01*
X685475Y331637D01*
X685374Y331639D01*
X681762Y331639D01*
X676638Y331639D02*
X669414Y331639D01*
X676638Y320802D01*
X669414Y320802D01*
X664134Y315383D02*
X662327Y315383D01*
X656909Y331639D01*
X664134Y331639D02*
X660521Y320802D01*
X650418Y320802D02*
X650418Y337058D01*
X643193Y331639D02*
X650418Y326221D01*
X647257Y328478D02*
X643193Y320802D01*
X637595Y320802D02*
X637595Y331639D01*
X638047Y336155D02*
X638047Y337058D01*
X637144Y337058D01*
X637144Y336155D01*
X638047Y336155D01*
X628599Y320802D02*
X624083Y320802D01*
X628599Y320802D02*
X628700Y320804D01*
X628801Y320810D01*
X628902Y320819D01*
X629003Y320832D01*
X629103Y320849D01*
X629202Y320870D01*
X629300Y320894D01*
X629397Y320922D01*
X629494Y320954D01*
X629589Y320989D01*
X629682Y321028D01*
X629774Y321070D01*
X629865Y321116D01*
X629954Y321165D01*
X630040Y321217D01*
X630125Y321273D01*
X630208Y321331D01*
X630288Y321393D01*
X630366Y321458D01*
X630442Y321525D01*
X630515Y321595D01*
X630585Y321668D01*
X630652Y321744D01*
X630717Y321822D01*
X630779Y321902D01*
X630837Y321985D01*
X630893Y322070D01*
X630945Y322157D01*
X630994Y322245D01*
X631040Y322336D01*
X631082Y322428D01*
X631121Y322521D01*
X631156Y322616D01*
X631188Y322713D01*
X631216Y322810D01*
X631240Y322908D01*
X631261Y323007D01*
X631278Y323107D01*
X631291Y323208D01*
X631300Y323309D01*
X631306Y323410D01*
X631308Y323511D01*
X631308Y328027D01*
X631306Y328146D01*
X631300Y328266D01*
X631290Y328385D01*
X631276Y328503D01*
X631259Y328622D01*
X631237Y328739D01*
X631212Y328856D01*
X631182Y328971D01*
X631149Y329086D01*
X631112Y329200D01*
X631072Y329312D01*
X631027Y329423D01*
X630979Y329532D01*
X630928Y329640D01*
X630873Y329746D01*
X630814Y329850D01*
X630752Y329952D01*
X630687Y330052D01*
X630618Y330150D01*
X630546Y330246D01*
X630471Y330339D01*
X630394Y330429D01*
X630313Y330517D01*
X630229Y330602D01*
X630142Y330684D01*
X630053Y330764D01*
X629961Y330840D01*
X629867Y330914D01*
X629770Y330984D01*
X629672Y331051D01*
X629571Y331115D01*
X629467Y331175D01*
X629362Y331232D01*
X629255Y331285D01*
X629147Y331335D01*
X629037Y331381D01*
X628925Y331423D01*
X628812Y331462D01*
X628698Y331497D01*
X628583Y331528D01*
X628466Y331556D01*
X628349Y331579D01*
X628232Y331599D01*
X628113Y331615D01*
X627994Y331627D01*
X627875Y331635D01*
X627756Y331639D01*
X627636Y331639D01*
X627517Y331635D01*
X627398Y331627D01*
X627279Y331615D01*
X627160Y331599D01*
X627043Y331579D01*
X626926Y331556D01*
X626809Y331528D01*
X626694Y331497D01*
X626580Y331462D01*
X626467Y331423D01*
X626355Y331381D01*
X626245Y331335D01*
X626137Y331285D01*
X626030Y331232D01*
X625925Y331175D01*
X625821Y331115D01*
X625720Y331051D01*
X625622Y330984D01*
X625525Y330914D01*
X625431Y330840D01*
X625339Y330764D01*
X625250Y330684D01*
X625163Y330602D01*
X625079Y330517D01*
X624998Y330429D01*
X624921Y330339D01*
X624846Y330246D01*
X624774Y330150D01*
X624705Y330052D01*
X624640Y329952D01*
X624578Y329850D01*
X624519Y329746D01*
X624464Y329640D01*
X624413Y329532D01*
X624365Y329423D01*
X624320Y329312D01*
X624280Y329200D01*
X624243Y329086D01*
X624210Y328971D01*
X624180Y328856D01*
X624155Y328739D01*
X624133Y328622D01*
X624116Y328503D01*
X624102Y328385D01*
X624092Y328266D01*
X624086Y328146D01*
X624084Y328027D01*
X624083Y328027D02*
X624083Y326221D01*
X631308Y326221D01*
X618004Y331639D02*
X615295Y320802D01*
X612585Y328027D01*
X609876Y320802D01*
X607167Y331639D01*
X601122Y331639D02*
X601122Y320802D01*
X601574Y336155D02*
X601574Y337058D01*
X600671Y337058D01*
X600671Y336155D01*
X601574Y336155D01*
X592108Y320802D02*
X588496Y320802D01*
X592108Y320802D02*
X592209Y320804D01*
X592310Y320810D01*
X592411Y320819D01*
X592512Y320832D01*
X592612Y320849D01*
X592711Y320870D01*
X592809Y320894D01*
X592906Y320922D01*
X593003Y320954D01*
X593098Y320989D01*
X593191Y321028D01*
X593283Y321070D01*
X593374Y321116D01*
X593463Y321165D01*
X593549Y321217D01*
X593634Y321273D01*
X593717Y321331D01*
X593797Y321393D01*
X593875Y321458D01*
X593951Y321525D01*
X594024Y321595D01*
X594094Y321668D01*
X594161Y321744D01*
X594226Y321822D01*
X594288Y321902D01*
X594346Y321985D01*
X594402Y322070D01*
X594454Y322157D01*
X594503Y322245D01*
X594549Y322336D01*
X594591Y322428D01*
X594630Y322521D01*
X594665Y322616D01*
X594697Y322713D01*
X594725Y322810D01*
X594749Y322908D01*
X594770Y323007D01*
X594787Y323107D01*
X594800Y323208D01*
X594809Y323309D01*
X594815Y323410D01*
X594817Y323511D01*
X594818Y323511D02*
X594818Y328930D01*
X594817Y328930D02*
X594815Y329031D01*
X594809Y329132D01*
X594800Y329233D01*
X594787Y329334D01*
X594770Y329434D01*
X594749Y329533D01*
X594725Y329631D01*
X594697Y329728D01*
X594665Y329825D01*
X594630Y329920D01*
X594591Y330013D01*
X594549Y330105D01*
X594503Y330196D01*
X594454Y330285D01*
X594402Y330371D01*
X594346Y330456D01*
X594288Y330539D01*
X594226Y330619D01*
X594161Y330697D01*
X594094Y330773D01*
X594024Y330846D01*
X593951Y330916D01*
X593875Y330983D01*
X593797Y331048D01*
X593717Y331110D01*
X593634Y331168D01*
X593549Y331224D01*
X593463Y331276D01*
X593374Y331325D01*
X593283Y331371D01*
X593191Y331413D01*
X593098Y331452D01*
X593003Y331487D01*
X592906Y331519D01*
X592809Y331547D01*
X592711Y331571D01*
X592612Y331592D01*
X592512Y331609D01*
X592411Y331622D01*
X592310Y331631D01*
X592209Y331637D01*
X592108Y331639D01*
X588496Y331639D01*
X583372Y331639D02*
X576147Y331639D01*
X583372Y320802D01*
X576147Y320802D01*
X559543Y320802D02*
X562253Y331639D01*
X556834Y328027D02*
X559543Y320802D01*
X554125Y320802D02*
X556834Y328027D01*
X551415Y331639D02*
X554125Y320802D01*
X542249Y327124D02*
X538185Y327124D01*
X542249Y327124D02*
X542361Y327122D01*
X542472Y327116D01*
X542583Y327106D01*
X542694Y327093D01*
X542804Y327075D01*
X542913Y327053D01*
X543022Y327028D01*
X543130Y326999D01*
X543236Y326966D01*
X543342Y326929D01*
X543446Y326889D01*
X543548Y326845D01*
X543649Y326797D01*
X543748Y326746D01*
X543846Y326691D01*
X543941Y326633D01*
X544034Y326572D01*
X544125Y326507D01*
X544214Y326439D01*
X544300Y326368D01*
X544383Y326295D01*
X544464Y326218D01*
X544543Y326138D01*
X544618Y326056D01*
X544690Y325971D01*
X544760Y325884D01*
X544826Y325794D01*
X544889Y325702D01*
X544949Y325607D01*
X545005Y325511D01*
X545058Y325413D01*
X545107Y325313D01*
X545153Y325211D01*
X545195Y325108D01*
X545234Y325003D01*
X545269Y324897D01*
X545300Y324790D01*
X545327Y324682D01*
X545351Y324573D01*
X545370Y324463D01*
X545386Y324353D01*
X545398Y324242D01*
X545406Y324130D01*
X545410Y324019D01*
X545410Y323907D01*
X545406Y323796D01*
X545398Y323684D01*
X545386Y323573D01*
X545370Y323463D01*
X545351Y323353D01*
X545327Y323244D01*
X545300Y323136D01*
X545269Y323029D01*
X545234Y322923D01*
X545195Y322818D01*
X545153Y322715D01*
X545107Y322613D01*
X545058Y322513D01*
X545005Y322415D01*
X544949Y322319D01*
X544889Y322224D01*
X544826Y322132D01*
X544760Y322042D01*
X544690Y321955D01*
X544618Y321870D01*
X544543Y321788D01*
X544464Y321708D01*
X544383Y321631D01*
X544300Y321558D01*
X544214Y321487D01*
X544125Y321419D01*
X544034Y321354D01*
X543941Y321293D01*
X543846Y321235D01*
X543748Y321180D01*
X543649Y321129D01*
X543548Y321081D01*
X543446Y321037D01*
X543342Y320997D01*
X543236Y320960D01*
X543130Y320927D01*
X543022Y320898D01*
X542913Y320873D01*
X542804Y320851D01*
X542694Y320833D01*
X542583Y320820D01*
X542472Y320810D01*
X542361Y320804D01*
X542249Y320802D01*
X538185Y320802D01*
X538185Y328930D01*
X538187Y329031D01*
X538193Y329132D01*
X538202Y329233D01*
X538215Y329334D01*
X538232Y329434D01*
X538253Y329533D01*
X538277Y329631D01*
X538305Y329728D01*
X538337Y329825D01*
X538372Y329920D01*
X538411Y330013D01*
X538453Y330105D01*
X538499Y330196D01*
X538548Y330285D01*
X538600Y330371D01*
X538656Y330456D01*
X538714Y330539D01*
X538776Y330619D01*
X538841Y330697D01*
X538908Y330773D01*
X538978Y330846D01*
X539051Y330916D01*
X539127Y330983D01*
X539205Y331048D01*
X539285Y331110D01*
X539368Y331168D01*
X539453Y331224D01*
X539540Y331276D01*
X539628Y331325D01*
X539719Y331371D01*
X539811Y331413D01*
X539904Y331452D01*
X539999Y331487D01*
X540096Y331519D01*
X540193Y331547D01*
X540291Y331571D01*
X540390Y331592D01*
X540490Y331609D01*
X540591Y331622D01*
X540692Y331631D01*
X540793Y331637D01*
X540894Y331639D01*
X544506Y331639D01*
X529914Y327124D02*
X525398Y325318D01*
X529914Y327124D02*
X530002Y327161D01*
X530088Y327202D01*
X530173Y327246D01*
X530256Y327294D01*
X530336Y327345D01*
X530415Y327399D01*
X530491Y327457D01*
X530565Y327517D01*
X530637Y327581D01*
X530705Y327647D01*
X530771Y327717D01*
X530834Y327788D01*
X530895Y327863D01*
X530952Y327939D01*
X531005Y328018D01*
X531056Y328099D01*
X531103Y328182D01*
X531147Y328267D01*
X531187Y328354D01*
X531224Y328442D01*
X531257Y328532D01*
X531287Y328623D01*
X531312Y328715D01*
X531334Y328808D01*
X531352Y328902D01*
X531367Y328996D01*
X531377Y329091D01*
X531383Y329187D01*
X531386Y329282D01*
X531385Y329378D01*
X531379Y329473D01*
X531370Y329569D01*
X531357Y329663D01*
X531341Y329757D01*
X531320Y329851D01*
X531295Y329943D01*
X531267Y330034D01*
X531235Y330124D01*
X531200Y330213D01*
X531161Y330300D01*
X531118Y330386D01*
X531072Y330470D01*
X531022Y330551D01*
X530970Y330631D01*
X530914Y330709D01*
X530854Y330784D01*
X530792Y330856D01*
X530727Y330926D01*
X530659Y330994D01*
X530589Y331058D01*
X530516Y331120D01*
X530440Y331178D01*
X530362Y331234D01*
X530282Y331286D01*
X530200Y331335D01*
X530116Y331380D01*
X530030Y331422D01*
X529943Y331461D01*
X529854Y331496D01*
X529763Y331527D01*
X529672Y331554D01*
X529579Y331578D01*
X529486Y331598D01*
X529392Y331614D01*
X529297Y331626D01*
X529202Y331635D01*
X529106Y331639D01*
X529011Y331640D01*
X528764Y331633D01*
X528518Y331621D01*
X528272Y331603D01*
X528026Y331578D01*
X527782Y331548D01*
X527538Y331512D01*
X527295Y331471D01*
X527053Y331423D01*
X526812Y331369D01*
X526573Y331310D01*
X526335Y331245D01*
X526099Y331174D01*
X525864Y331098D01*
X525631Y331016D01*
X525401Y330928D01*
X525173Y330835D01*
X524946Y330737D01*
X525398Y325317D02*
X525310Y325280D01*
X525224Y325239D01*
X525139Y325195D01*
X525056Y325147D01*
X524976Y325096D01*
X524897Y325042D01*
X524821Y324984D01*
X524747Y324924D01*
X524675Y324860D01*
X524607Y324794D01*
X524541Y324724D01*
X524478Y324653D01*
X524417Y324578D01*
X524360Y324502D01*
X524307Y324423D01*
X524256Y324342D01*
X524209Y324259D01*
X524165Y324174D01*
X524125Y324087D01*
X524088Y323999D01*
X524055Y323909D01*
X524025Y323818D01*
X524000Y323726D01*
X523978Y323633D01*
X523960Y323539D01*
X523945Y323445D01*
X523935Y323350D01*
X523929Y323254D01*
X523926Y323159D01*
X523927Y323063D01*
X523933Y322968D01*
X523942Y322872D01*
X523955Y322778D01*
X523971Y322684D01*
X523992Y322590D01*
X524017Y322498D01*
X524045Y322407D01*
X524077Y322317D01*
X524112Y322228D01*
X524151Y322141D01*
X524194Y322055D01*
X524240Y321971D01*
X524290Y321890D01*
X524342Y321810D01*
X524398Y321732D01*
X524458Y321657D01*
X524520Y321585D01*
X524585Y321515D01*
X524653Y321447D01*
X524723Y321383D01*
X524796Y321321D01*
X524872Y321263D01*
X524950Y321207D01*
X525030Y321155D01*
X525112Y321106D01*
X525196Y321061D01*
X525282Y321019D01*
X525369Y320980D01*
X525458Y320945D01*
X525549Y320914D01*
X525640Y320887D01*
X525733Y320863D01*
X525826Y320843D01*
X525920Y320827D01*
X526015Y320815D01*
X526110Y320806D01*
X526206Y320802D01*
X526301Y320801D01*
X526301Y320802D02*
X526663Y320811D01*
X527025Y320829D01*
X527386Y320856D01*
X527746Y320891D01*
X528106Y320934D01*
X528465Y320986D01*
X528822Y321047D01*
X529177Y321116D01*
X529531Y321193D01*
X529883Y321279D01*
X530233Y321373D01*
X530581Y321476D01*
X530926Y321586D01*
X531268Y321705D01*
X508863Y320802D02*
X508863Y337058D01*
X508863Y331639D02*
X504348Y331639D01*
X504244Y331637D01*
X504141Y331631D01*
X504037Y331621D01*
X503934Y331607D01*
X503832Y331589D01*
X503731Y331568D01*
X503630Y331542D01*
X503531Y331513D01*
X503432Y331480D01*
X503335Y331443D01*
X503240Y331402D01*
X503146Y331358D01*
X503054Y331310D01*
X502964Y331259D01*
X502875Y331204D01*
X502789Y331146D01*
X502706Y331084D01*
X502624Y331020D01*
X502546Y330952D01*
X502470Y330882D01*
X502396Y330809D01*
X502326Y330732D01*
X502258Y330654D01*
X502194Y330572D01*
X502132Y330489D01*
X502074Y330403D01*
X502019Y330314D01*
X501968Y330224D01*
X501920Y330132D01*
X501876Y330038D01*
X501835Y329943D01*
X501798Y329846D01*
X501765Y329747D01*
X501736Y329648D01*
X501710Y329547D01*
X501689Y329446D01*
X501671Y329344D01*
X501657Y329241D01*
X501647Y329137D01*
X501641Y329034D01*
X501639Y328930D01*
X501639Y320802D01*
X492086Y320802D02*
X487571Y320802D01*
X492086Y320802D02*
X492187Y320804D01*
X492288Y320810D01*
X492389Y320819D01*
X492490Y320832D01*
X492590Y320849D01*
X492689Y320870D01*
X492787Y320894D01*
X492884Y320922D01*
X492981Y320954D01*
X493076Y320989D01*
X493169Y321028D01*
X493261Y321070D01*
X493352Y321116D01*
X493441Y321165D01*
X493527Y321217D01*
X493612Y321273D01*
X493695Y321331D01*
X493775Y321393D01*
X493853Y321458D01*
X493929Y321525D01*
X494002Y321595D01*
X494072Y321668D01*
X494139Y321744D01*
X494204Y321822D01*
X494266Y321902D01*
X494324Y321985D01*
X494380Y322070D01*
X494432Y322157D01*
X494481Y322245D01*
X494527Y322336D01*
X494569Y322428D01*
X494608Y322521D01*
X494643Y322616D01*
X494675Y322713D01*
X494703Y322810D01*
X494727Y322908D01*
X494748Y323007D01*
X494765Y323107D01*
X494778Y323208D01*
X494787Y323309D01*
X494793Y323410D01*
X494795Y323511D01*
X494795Y328027D01*
X494793Y328146D01*
X494787Y328266D01*
X494777Y328385D01*
X494763Y328503D01*
X494746Y328622D01*
X494724Y328739D01*
X494699Y328856D01*
X494669Y328971D01*
X494636Y329086D01*
X494599Y329200D01*
X494559Y329312D01*
X494514Y329423D01*
X494466Y329532D01*
X494415Y329640D01*
X494360Y329746D01*
X494301Y329850D01*
X494239Y329952D01*
X494174Y330052D01*
X494105Y330150D01*
X494033Y330246D01*
X493958Y330339D01*
X493881Y330429D01*
X493800Y330517D01*
X493716Y330602D01*
X493629Y330684D01*
X493540Y330764D01*
X493448Y330840D01*
X493354Y330914D01*
X493257Y330984D01*
X493159Y331051D01*
X493058Y331115D01*
X492954Y331175D01*
X492849Y331232D01*
X492742Y331285D01*
X492634Y331335D01*
X492524Y331381D01*
X492412Y331423D01*
X492299Y331462D01*
X492185Y331497D01*
X492070Y331528D01*
X491953Y331556D01*
X491836Y331579D01*
X491719Y331599D01*
X491600Y331615D01*
X491481Y331627D01*
X491362Y331635D01*
X491243Y331639D01*
X491123Y331639D01*
X491004Y331635D01*
X490885Y331627D01*
X490766Y331615D01*
X490647Y331599D01*
X490530Y331579D01*
X490413Y331556D01*
X490296Y331528D01*
X490181Y331497D01*
X490067Y331462D01*
X489954Y331423D01*
X489842Y331381D01*
X489732Y331335D01*
X489624Y331285D01*
X489517Y331232D01*
X489412Y331175D01*
X489308Y331115D01*
X489207Y331051D01*
X489109Y330984D01*
X489012Y330914D01*
X488918Y330840D01*
X488826Y330764D01*
X488737Y330684D01*
X488650Y330602D01*
X488566Y330517D01*
X488485Y330429D01*
X488408Y330339D01*
X488333Y330246D01*
X488261Y330150D01*
X488192Y330052D01*
X488127Y329952D01*
X488065Y329850D01*
X488006Y329746D01*
X487951Y329640D01*
X487900Y329532D01*
X487852Y329423D01*
X487807Y329312D01*
X487767Y329200D01*
X487730Y329086D01*
X487697Y328971D01*
X487667Y328856D01*
X487642Y328739D01*
X487620Y328622D01*
X487603Y328503D01*
X487589Y328385D01*
X487579Y328266D01*
X487573Y328146D01*
X487571Y328027D01*
X487571Y326221D01*
X494795Y326221D01*
X480642Y320802D02*
X480642Y331639D01*
X475224Y331639D01*
X475224Y329833D01*
X467597Y320802D02*
X463082Y320802D01*
X467597Y320802D02*
X467698Y320804D01*
X467799Y320810D01*
X467900Y320819D01*
X468001Y320832D01*
X468101Y320849D01*
X468200Y320870D01*
X468298Y320894D01*
X468395Y320922D01*
X468492Y320954D01*
X468587Y320989D01*
X468680Y321028D01*
X468772Y321070D01*
X468863Y321116D01*
X468952Y321165D01*
X469038Y321217D01*
X469123Y321273D01*
X469206Y321331D01*
X469286Y321393D01*
X469364Y321458D01*
X469440Y321525D01*
X469513Y321595D01*
X469583Y321668D01*
X469650Y321744D01*
X469715Y321822D01*
X469777Y321902D01*
X469835Y321985D01*
X469891Y322070D01*
X469943Y322157D01*
X469992Y322245D01*
X470038Y322336D01*
X470080Y322428D01*
X470119Y322521D01*
X470154Y322616D01*
X470186Y322713D01*
X470214Y322810D01*
X470238Y322908D01*
X470259Y323007D01*
X470276Y323107D01*
X470289Y323208D01*
X470298Y323309D01*
X470304Y323410D01*
X470306Y323511D01*
X470306Y328027D01*
X470304Y328146D01*
X470298Y328266D01*
X470288Y328385D01*
X470274Y328503D01*
X470257Y328622D01*
X470235Y328739D01*
X470210Y328856D01*
X470180Y328971D01*
X470147Y329086D01*
X470110Y329200D01*
X470070Y329312D01*
X470025Y329423D01*
X469977Y329532D01*
X469926Y329640D01*
X469871Y329746D01*
X469812Y329850D01*
X469750Y329952D01*
X469685Y330052D01*
X469616Y330150D01*
X469544Y330246D01*
X469469Y330339D01*
X469392Y330429D01*
X469311Y330517D01*
X469227Y330602D01*
X469140Y330684D01*
X469051Y330764D01*
X468959Y330840D01*
X468865Y330914D01*
X468768Y330984D01*
X468670Y331051D01*
X468569Y331115D01*
X468465Y331175D01*
X468360Y331232D01*
X468253Y331285D01*
X468145Y331335D01*
X468035Y331381D01*
X467923Y331423D01*
X467810Y331462D01*
X467696Y331497D01*
X467581Y331528D01*
X467464Y331556D01*
X467347Y331579D01*
X467230Y331599D01*
X467111Y331615D01*
X466992Y331627D01*
X466873Y331635D01*
X466754Y331639D01*
X466634Y331639D01*
X466515Y331635D01*
X466396Y331627D01*
X466277Y331615D01*
X466158Y331599D01*
X466041Y331579D01*
X465924Y331556D01*
X465807Y331528D01*
X465692Y331497D01*
X465578Y331462D01*
X465465Y331423D01*
X465353Y331381D01*
X465243Y331335D01*
X465135Y331285D01*
X465028Y331232D01*
X464923Y331175D01*
X464819Y331115D01*
X464718Y331051D01*
X464620Y330984D01*
X464523Y330914D01*
X464429Y330840D01*
X464337Y330764D01*
X464248Y330684D01*
X464161Y330602D01*
X464077Y330517D01*
X463996Y330429D01*
X463919Y330339D01*
X463844Y330246D01*
X463772Y330150D01*
X463703Y330052D01*
X463638Y329952D01*
X463576Y329850D01*
X463517Y329746D01*
X463462Y329640D01*
X463411Y329532D01*
X463363Y329423D01*
X463318Y329312D01*
X463278Y329200D01*
X463241Y329086D01*
X463208Y328971D01*
X463178Y328856D01*
X463153Y328739D01*
X463131Y328622D01*
X463114Y328503D01*
X463100Y328385D01*
X463090Y328266D01*
X463084Y328146D01*
X463082Y328027D01*
X463082Y326221D01*
X470306Y326221D01*
X912368Y784352D02*
X912368Y800608D01*
X903337Y784352D01*
X903337Y800608D01*
X896355Y791577D02*
X896355Y787964D01*
X896354Y791577D02*
X896352Y791696D01*
X896346Y791816D01*
X896336Y791935D01*
X896322Y792053D01*
X896305Y792172D01*
X896283Y792289D01*
X896258Y792406D01*
X896228Y792521D01*
X896195Y792636D01*
X896158Y792750D01*
X896118Y792862D01*
X896073Y792973D01*
X896025Y793082D01*
X895974Y793190D01*
X895919Y793296D01*
X895860Y793400D01*
X895798Y793502D01*
X895733Y793602D01*
X895664Y793700D01*
X895592Y793796D01*
X895517Y793889D01*
X895440Y793979D01*
X895359Y794067D01*
X895275Y794152D01*
X895188Y794234D01*
X895099Y794314D01*
X895007Y794390D01*
X894913Y794464D01*
X894816Y794534D01*
X894718Y794601D01*
X894617Y794665D01*
X894513Y794725D01*
X894408Y794782D01*
X894301Y794835D01*
X894193Y794885D01*
X894083Y794931D01*
X893971Y794973D01*
X893858Y795012D01*
X893744Y795047D01*
X893629Y795078D01*
X893512Y795106D01*
X893395Y795129D01*
X893278Y795149D01*
X893159Y795165D01*
X893040Y795177D01*
X892921Y795185D01*
X892802Y795189D01*
X892682Y795189D01*
X892563Y795185D01*
X892444Y795177D01*
X892325Y795165D01*
X892206Y795149D01*
X892089Y795129D01*
X891972Y795106D01*
X891855Y795078D01*
X891740Y795047D01*
X891626Y795012D01*
X891513Y794973D01*
X891401Y794931D01*
X891291Y794885D01*
X891183Y794835D01*
X891076Y794782D01*
X890971Y794725D01*
X890867Y794665D01*
X890766Y794601D01*
X890668Y794534D01*
X890571Y794464D01*
X890477Y794390D01*
X890385Y794314D01*
X890296Y794234D01*
X890209Y794152D01*
X890125Y794067D01*
X890044Y793979D01*
X889967Y793889D01*
X889892Y793796D01*
X889820Y793700D01*
X889751Y793602D01*
X889686Y793502D01*
X889624Y793400D01*
X889565Y793296D01*
X889510Y793190D01*
X889459Y793082D01*
X889411Y792973D01*
X889366Y792862D01*
X889326Y792750D01*
X889289Y792636D01*
X889256Y792521D01*
X889226Y792406D01*
X889201Y792289D01*
X889179Y792172D01*
X889162Y792053D01*
X889148Y791935D01*
X889138Y791816D01*
X889132Y791696D01*
X889130Y791577D01*
X889130Y787964D01*
X889132Y787845D01*
X889138Y787725D01*
X889148Y787606D01*
X889162Y787488D01*
X889179Y787369D01*
X889201Y787252D01*
X889226Y787135D01*
X889256Y787020D01*
X889289Y786905D01*
X889326Y786791D01*
X889366Y786679D01*
X889411Y786568D01*
X889459Y786459D01*
X889510Y786351D01*
X889565Y786245D01*
X889624Y786141D01*
X889686Y786039D01*
X889751Y785939D01*
X889820Y785841D01*
X889892Y785745D01*
X889967Y785652D01*
X890044Y785562D01*
X890125Y785474D01*
X890209Y785389D01*
X890296Y785307D01*
X890385Y785227D01*
X890477Y785151D01*
X890571Y785077D01*
X890668Y785007D01*
X890766Y784940D01*
X890867Y784876D01*
X890971Y784816D01*
X891076Y784759D01*
X891183Y784706D01*
X891291Y784656D01*
X891401Y784610D01*
X891513Y784568D01*
X891626Y784529D01*
X891740Y784494D01*
X891855Y784463D01*
X891972Y784435D01*
X892089Y784412D01*
X892206Y784392D01*
X892325Y784376D01*
X892444Y784364D01*
X892563Y784356D01*
X892682Y784352D01*
X892802Y784352D01*
X892921Y784356D01*
X893040Y784364D01*
X893159Y784376D01*
X893278Y784392D01*
X893395Y784412D01*
X893512Y784435D01*
X893629Y784463D01*
X893744Y784494D01*
X893858Y784529D01*
X893971Y784568D01*
X894083Y784610D01*
X894193Y784656D01*
X894301Y784706D01*
X894408Y784759D01*
X894513Y784816D01*
X894617Y784876D01*
X894718Y784940D01*
X894816Y785007D01*
X894913Y785077D01*
X895007Y785151D01*
X895099Y785227D01*
X895188Y785307D01*
X895275Y785389D01*
X895359Y785474D01*
X895440Y785562D01*
X895517Y785652D01*
X895592Y785745D01*
X895664Y785841D01*
X895733Y785939D01*
X895798Y786039D01*
X895860Y786141D01*
X895919Y786245D01*
X895974Y786351D01*
X896025Y786459D01*
X896073Y786568D01*
X896118Y786679D01*
X896158Y786791D01*
X896195Y786905D01*
X896228Y787020D01*
X896258Y787135D01*
X896283Y787252D01*
X896305Y787369D01*
X896322Y787488D01*
X896336Y787606D01*
X896346Y787725D01*
X896352Y787845D01*
X896354Y787964D01*
X883051Y795189D02*
X880341Y784352D01*
X877632Y791577D01*
X874923Y784352D01*
X872213Y795189D01*
X858041Y795189D02*
X855331Y784352D01*
X852622Y791577D01*
X849913Y784352D01*
X847203Y795189D01*
X841159Y795189D02*
X841159Y784352D01*
X841611Y799705D02*
X841611Y800608D01*
X840708Y800608D01*
X840708Y799705D01*
X841611Y799705D01*
X836169Y795189D02*
X830751Y795189D01*
X834363Y800608D02*
X834363Y787061D01*
X834361Y786960D01*
X834355Y786859D01*
X834346Y786758D01*
X834333Y786657D01*
X834316Y786557D01*
X834295Y786458D01*
X834271Y786360D01*
X834243Y786263D01*
X834211Y786166D01*
X834176Y786071D01*
X834137Y785978D01*
X834095Y785886D01*
X834049Y785795D01*
X834000Y785707D01*
X833948Y785620D01*
X833892Y785535D01*
X833834Y785452D01*
X833772Y785372D01*
X833707Y785294D01*
X833640Y785218D01*
X833570Y785145D01*
X833497Y785075D01*
X833421Y785008D01*
X833343Y784943D01*
X833263Y784881D01*
X833180Y784823D01*
X833095Y784767D01*
X833009Y784715D01*
X832920Y784666D01*
X832829Y784620D01*
X832737Y784578D01*
X832644Y784539D01*
X832549Y784504D01*
X832452Y784472D01*
X832355Y784444D01*
X832257Y784420D01*
X832158Y784399D01*
X832058Y784382D01*
X831957Y784369D01*
X831856Y784360D01*
X831755Y784354D01*
X831654Y784352D01*
X830751Y784352D01*
X824451Y784352D02*
X824451Y800608D01*
X824451Y795189D02*
X819936Y795189D01*
X819832Y795187D01*
X819729Y795181D01*
X819625Y795171D01*
X819522Y795157D01*
X819420Y795139D01*
X819319Y795118D01*
X819218Y795092D01*
X819119Y795063D01*
X819020Y795030D01*
X818923Y794993D01*
X818828Y794952D01*
X818734Y794908D01*
X818642Y794860D01*
X818552Y794809D01*
X818463Y794754D01*
X818377Y794696D01*
X818294Y794634D01*
X818212Y794570D01*
X818134Y794502D01*
X818058Y794432D01*
X817984Y794359D01*
X817914Y794282D01*
X817846Y794204D01*
X817782Y794122D01*
X817720Y794039D01*
X817662Y793953D01*
X817607Y793864D01*
X817556Y793774D01*
X817508Y793682D01*
X817464Y793588D01*
X817423Y793493D01*
X817386Y793396D01*
X817353Y793297D01*
X817324Y793198D01*
X817298Y793097D01*
X817277Y792996D01*
X817259Y792894D01*
X817245Y792791D01*
X817235Y792687D01*
X817229Y792584D01*
X817227Y792480D01*
X817226Y792480D02*
X817226Y784352D01*
X797010Y784352D02*
X796892Y784354D01*
X796774Y784360D01*
X796656Y784369D01*
X796539Y784383D01*
X796422Y784400D01*
X796305Y784421D01*
X796190Y784446D01*
X796075Y784475D01*
X795961Y784508D01*
X795849Y784544D01*
X795738Y784584D01*
X795628Y784627D01*
X795519Y784674D01*
X795412Y784724D01*
X795307Y784779D01*
X795204Y784836D01*
X795103Y784897D01*
X795003Y784961D01*
X794906Y785028D01*
X794811Y785098D01*
X794719Y785172D01*
X794628Y785248D01*
X794541Y785328D01*
X794456Y785410D01*
X794374Y785495D01*
X794294Y785582D01*
X794218Y785673D01*
X794144Y785765D01*
X794074Y785860D01*
X794007Y785957D01*
X793943Y786057D01*
X793882Y786158D01*
X793825Y786261D01*
X793770Y786366D01*
X793720Y786473D01*
X793673Y786582D01*
X793630Y786692D01*
X793590Y786803D01*
X793554Y786915D01*
X793521Y787029D01*
X793492Y787144D01*
X793467Y787259D01*
X793446Y787376D01*
X793429Y787493D01*
X793415Y787610D01*
X793406Y787728D01*
X793400Y787846D01*
X793398Y787964D01*
X797010Y784352D02*
X797193Y784354D01*
X797375Y784361D01*
X797557Y784372D01*
X797739Y784387D01*
X797921Y784407D01*
X798102Y784431D01*
X798282Y784459D01*
X798462Y784491D01*
X798641Y784528D01*
X798818Y784569D01*
X798995Y784615D01*
X799171Y784664D01*
X799346Y784718D01*
X799519Y784776D01*
X799690Y784838D01*
X799861Y784904D01*
X800029Y784975D01*
X800196Y785049D01*
X800361Y785127D01*
X800524Y785209D01*
X800685Y785295D01*
X800844Y785385D01*
X801001Y785479D01*
X801155Y785576D01*
X801307Y785677D01*
X801457Y785782D01*
X801604Y785890D01*
X801748Y786001D01*
X801890Y786116D01*
X802029Y786235D01*
X802165Y786357D01*
X802298Y786482D01*
X802428Y786610D01*
X801976Y796996D02*
X801974Y797114D01*
X801968Y797232D01*
X801959Y797350D01*
X801945Y797467D01*
X801928Y797584D01*
X801907Y797701D01*
X801882Y797816D01*
X801853Y797931D01*
X801820Y798045D01*
X801784Y798157D01*
X801744Y798268D01*
X801701Y798378D01*
X801654Y798487D01*
X801604Y798594D01*
X801549Y798699D01*
X801492Y798802D01*
X801431Y798903D01*
X801367Y799003D01*
X801300Y799100D01*
X801230Y799195D01*
X801156Y799287D01*
X801080Y799378D01*
X801000Y799465D01*
X800918Y799550D01*
X800833Y799632D01*
X800746Y799712D01*
X800655Y799788D01*
X800563Y799862D01*
X800468Y799932D01*
X800371Y799999D01*
X800271Y800063D01*
X800170Y800124D01*
X800067Y800181D01*
X799962Y800236D01*
X799855Y800286D01*
X799746Y800333D01*
X799636Y800376D01*
X799525Y800416D01*
X799413Y800452D01*
X799299Y800485D01*
X799184Y800514D01*
X799069Y800539D01*
X798952Y800560D01*
X798835Y800577D01*
X798718Y800591D01*
X798600Y800600D01*
X798482Y800606D01*
X798364Y800608D01*
X798203Y800606D01*
X798041Y800600D01*
X797880Y800591D01*
X797719Y800577D01*
X797559Y800560D01*
X797399Y800539D01*
X797239Y800514D01*
X797080Y800485D01*
X796922Y800453D01*
X796765Y800417D01*
X796609Y800377D01*
X796453Y800333D01*
X796299Y800285D01*
X796146Y800234D01*
X795994Y800180D01*
X795843Y800121D01*
X795694Y800060D01*
X795547Y799994D01*
X795401Y799925D01*
X795256Y799853D01*
X795114Y799777D01*
X794973Y799698D01*
X794834Y799616D01*
X794698Y799530D01*
X794563Y799441D01*
X794430Y799349D01*
X794300Y799253D01*
X800171Y793835D02*
X800272Y793897D01*
X800372Y793962D01*
X800469Y794031D01*
X800564Y794103D01*
X800657Y794177D01*
X800747Y794255D01*
X800835Y794336D01*
X800920Y794419D01*
X801002Y794505D01*
X801081Y794594D01*
X801158Y794685D01*
X801231Y794779D01*
X801302Y794875D01*
X801369Y794973D01*
X801433Y795073D01*
X801494Y795176D01*
X801551Y795280D01*
X801605Y795386D01*
X801655Y795494D01*
X801702Y795603D01*
X801746Y795714D01*
X801786Y795826D01*
X801822Y795940D01*
X801854Y796054D01*
X801883Y796170D01*
X801908Y796286D01*
X801929Y796403D01*
X801946Y796521D01*
X801960Y796639D01*
X801969Y796758D01*
X801975Y796877D01*
X801977Y796996D01*
X795203Y791125D02*
X795102Y791063D01*
X795002Y790998D01*
X794905Y790929D01*
X794810Y790857D01*
X794717Y790783D01*
X794627Y790705D01*
X794539Y790624D01*
X794454Y790541D01*
X794372Y790455D01*
X794293Y790366D01*
X794216Y790275D01*
X794143Y790181D01*
X794072Y790085D01*
X794005Y789987D01*
X793941Y789887D01*
X793880Y789784D01*
X793823Y789680D01*
X793769Y789574D01*
X793719Y789466D01*
X793672Y789357D01*
X793628Y789246D01*
X793588Y789134D01*
X793552Y789020D01*
X793520Y788906D01*
X793491Y788790D01*
X793466Y788674D01*
X793445Y788557D01*
X793428Y788439D01*
X793414Y788321D01*
X793405Y788202D01*
X793399Y788083D01*
X793397Y787964D01*
X795204Y791125D02*
X800171Y793835D01*
X786658Y800608D02*
X786658Y784352D01*
X781240Y791577D02*
X786658Y800608D01*
X781240Y791577D02*
X775821Y800608D01*
X775821Y784352D01*
X768040Y784352D02*
X768040Y800608D01*
X763524Y800608D01*
X763393Y800606D01*
X763261Y800600D01*
X763130Y800591D01*
X763000Y800577D01*
X762869Y800560D01*
X762740Y800539D01*
X762611Y800515D01*
X762483Y800486D01*
X762355Y800454D01*
X762229Y800418D01*
X762104Y800379D01*
X761979Y800336D01*
X761857Y800289D01*
X761735Y800239D01*
X761615Y800185D01*
X761497Y800128D01*
X761381Y800067D01*
X761266Y800003D01*
X761153Y799936D01*
X761042Y799865D01*
X760934Y799791D01*
X760827Y799714D01*
X760723Y799634D01*
X760621Y799551D01*
X760522Y799466D01*
X760425Y799377D01*
X760331Y799285D01*
X760239Y799191D01*
X760150Y799094D01*
X760065Y798995D01*
X759982Y798893D01*
X759902Y798789D01*
X759825Y798682D01*
X759751Y798574D01*
X759680Y798463D01*
X759613Y798350D01*
X759549Y798235D01*
X759488Y798119D01*
X759431Y798001D01*
X759377Y797881D01*
X759327Y797759D01*
X759280Y797637D01*
X759237Y797512D01*
X759198Y797387D01*
X759162Y797261D01*
X759130Y797133D01*
X759101Y797005D01*
X759077Y796876D01*
X759056Y796747D01*
X759039Y796616D01*
X759025Y796486D01*
X759016Y796355D01*
X759010Y796223D01*
X759008Y796092D01*
X759009Y796092D02*
X759009Y788868D01*
X759008Y788868D02*
X759010Y788737D01*
X759016Y788605D01*
X759025Y788474D01*
X759039Y788344D01*
X759056Y788213D01*
X759077Y788084D01*
X759101Y787955D01*
X759130Y787827D01*
X759162Y787699D01*
X759198Y787573D01*
X759237Y787448D01*
X759280Y787323D01*
X759327Y787201D01*
X759377Y787079D01*
X759431Y786959D01*
X759488Y786841D01*
X759549Y786725D01*
X759613Y786610D01*
X759680Y786497D01*
X759751Y786386D01*
X759825Y786278D01*
X759902Y786171D01*
X759982Y786067D01*
X760065Y785965D01*
X760150Y785866D01*
X760239Y785769D01*
X760331Y785675D01*
X760425Y785583D01*
X760522Y785494D01*
X760621Y785409D01*
X760723Y785326D01*
X760827Y785246D01*
X760934Y785169D01*
X761042Y785095D01*
X761153Y785024D01*
X761266Y784957D01*
X761381Y784893D01*
X761497Y784832D01*
X761615Y784775D01*
X761735Y784721D01*
X761857Y784671D01*
X761979Y784624D01*
X762104Y784581D01*
X762229Y784542D01*
X762355Y784506D01*
X762483Y784474D01*
X762611Y784445D01*
X762740Y784421D01*
X762869Y784400D01*
X763000Y784383D01*
X763130Y784369D01*
X763261Y784360D01*
X763393Y784354D01*
X763524Y784352D01*
X768040Y784352D01*
X743095Y778933D02*
X743095Y795189D01*
X738580Y795189D01*
X738476Y795187D01*
X738373Y795181D01*
X738269Y795171D01*
X738166Y795157D01*
X738064Y795139D01*
X737963Y795118D01*
X737862Y795092D01*
X737763Y795063D01*
X737664Y795030D01*
X737567Y794993D01*
X737472Y794952D01*
X737378Y794908D01*
X737286Y794860D01*
X737196Y794809D01*
X737107Y794754D01*
X737021Y794696D01*
X736938Y794634D01*
X736856Y794570D01*
X736778Y794502D01*
X736702Y794432D01*
X736628Y794359D01*
X736558Y794282D01*
X736490Y794204D01*
X736426Y794122D01*
X736364Y794039D01*
X736306Y793953D01*
X736251Y793864D01*
X736200Y793774D01*
X736152Y793682D01*
X736108Y793588D01*
X736067Y793493D01*
X736030Y793396D01*
X735997Y793297D01*
X735968Y793198D01*
X735942Y793097D01*
X735921Y792996D01*
X735903Y792894D01*
X735889Y792791D01*
X735879Y792687D01*
X735873Y792584D01*
X735871Y792480D01*
X735871Y787061D01*
X735873Y786960D01*
X735879Y786859D01*
X735888Y786758D01*
X735901Y786657D01*
X735918Y786557D01*
X735939Y786458D01*
X735963Y786360D01*
X735991Y786263D01*
X736023Y786166D01*
X736058Y786071D01*
X736097Y785978D01*
X736139Y785886D01*
X736185Y785795D01*
X736234Y785706D01*
X736286Y785620D01*
X736342Y785535D01*
X736400Y785452D01*
X736462Y785372D01*
X736527Y785294D01*
X736594Y785218D01*
X736664Y785145D01*
X736737Y785075D01*
X736813Y785008D01*
X736891Y784943D01*
X736971Y784881D01*
X737054Y784823D01*
X737139Y784767D01*
X737226Y784715D01*
X737314Y784666D01*
X737405Y784620D01*
X737497Y784578D01*
X737590Y784539D01*
X737685Y784504D01*
X737782Y784472D01*
X737879Y784444D01*
X737977Y784420D01*
X738076Y784399D01*
X738176Y784382D01*
X738277Y784369D01*
X738378Y784360D01*
X738479Y784354D01*
X738580Y784352D01*
X743095Y784352D01*
X726534Y790674D02*
X722470Y790674D01*
X726534Y790674D02*
X726646Y790672D01*
X726757Y790666D01*
X726868Y790656D01*
X726979Y790643D01*
X727089Y790625D01*
X727198Y790603D01*
X727307Y790578D01*
X727415Y790549D01*
X727521Y790516D01*
X727627Y790479D01*
X727731Y790439D01*
X727833Y790395D01*
X727934Y790347D01*
X728033Y790296D01*
X728131Y790241D01*
X728226Y790183D01*
X728319Y790122D01*
X728410Y790057D01*
X728499Y789989D01*
X728585Y789918D01*
X728668Y789845D01*
X728749Y789768D01*
X728828Y789688D01*
X728903Y789606D01*
X728975Y789521D01*
X729045Y789434D01*
X729111Y789344D01*
X729174Y789252D01*
X729234Y789157D01*
X729290Y789061D01*
X729343Y788963D01*
X729392Y788863D01*
X729438Y788761D01*
X729480Y788658D01*
X729519Y788553D01*
X729554Y788447D01*
X729585Y788340D01*
X729612Y788232D01*
X729636Y788123D01*
X729655Y788013D01*
X729671Y787903D01*
X729683Y787792D01*
X729691Y787680D01*
X729695Y787569D01*
X729695Y787457D01*
X729691Y787346D01*
X729683Y787234D01*
X729671Y787123D01*
X729655Y787013D01*
X729636Y786903D01*
X729612Y786794D01*
X729585Y786686D01*
X729554Y786579D01*
X729519Y786473D01*
X729480Y786368D01*
X729438Y786265D01*
X729392Y786163D01*
X729343Y786063D01*
X729290Y785965D01*
X729234Y785869D01*
X729174Y785774D01*
X729111Y785682D01*
X729045Y785592D01*
X728975Y785505D01*
X728903Y785420D01*
X728828Y785338D01*
X728749Y785258D01*
X728668Y785181D01*
X728585Y785108D01*
X728499Y785037D01*
X728410Y784969D01*
X728319Y784904D01*
X728226Y784843D01*
X728131Y784785D01*
X728033Y784730D01*
X727934Y784679D01*
X727833Y784631D01*
X727731Y784587D01*
X727627Y784547D01*
X727521Y784510D01*
X727415Y784477D01*
X727307Y784448D01*
X727198Y784423D01*
X727089Y784401D01*
X726979Y784383D01*
X726868Y784370D01*
X726757Y784360D01*
X726646Y784354D01*
X726534Y784352D01*
X722470Y784352D01*
X722470Y792480D01*
X722472Y792581D01*
X722478Y792682D01*
X722487Y792783D01*
X722500Y792884D01*
X722517Y792984D01*
X722538Y793083D01*
X722562Y793181D01*
X722590Y793278D01*
X722622Y793375D01*
X722657Y793470D01*
X722696Y793563D01*
X722738Y793655D01*
X722784Y793746D01*
X722833Y793835D01*
X722885Y793921D01*
X722941Y794006D01*
X722999Y794089D01*
X723061Y794169D01*
X723126Y794247D01*
X723193Y794323D01*
X723263Y794396D01*
X723336Y794466D01*
X723412Y794533D01*
X723490Y794598D01*
X723570Y794660D01*
X723653Y794718D01*
X723738Y794774D01*
X723825Y794826D01*
X723913Y794875D01*
X724004Y794921D01*
X724096Y794963D01*
X724189Y795002D01*
X724284Y795037D01*
X724381Y795069D01*
X724478Y795097D01*
X724576Y795121D01*
X724675Y795142D01*
X724775Y795159D01*
X724876Y795172D01*
X724977Y795181D01*
X725078Y795187D01*
X725179Y795189D01*
X728792Y795189D01*
X714948Y795189D02*
X714948Y784352D01*
X714948Y795189D02*
X709529Y795189D01*
X709529Y793383D01*
X705909Y795189D02*
X700490Y795189D01*
X704103Y800608D02*
X704103Y787061D01*
X704101Y786960D01*
X704095Y786859D01*
X704086Y786758D01*
X704073Y786657D01*
X704056Y786557D01*
X704035Y786458D01*
X704011Y786360D01*
X703983Y786263D01*
X703951Y786166D01*
X703916Y786071D01*
X703877Y785978D01*
X703835Y785886D01*
X703789Y785795D01*
X703740Y785707D01*
X703688Y785620D01*
X703632Y785535D01*
X703574Y785452D01*
X703512Y785372D01*
X703447Y785294D01*
X703380Y785218D01*
X703310Y785145D01*
X703237Y785075D01*
X703161Y785008D01*
X703083Y784943D01*
X703003Y784881D01*
X702920Y784823D01*
X702835Y784767D01*
X702749Y784715D01*
X702660Y784666D01*
X702569Y784620D01*
X702477Y784578D01*
X702384Y784539D01*
X702289Y784504D01*
X702192Y784472D01*
X702095Y784444D01*
X701997Y784420D01*
X701898Y784399D01*
X701798Y784382D01*
X701697Y784369D01*
X701596Y784360D01*
X701495Y784354D01*
X701394Y784352D01*
X700490Y784352D01*
X693357Y790674D02*
X688842Y788868D01*
X693358Y790674D02*
X693446Y790711D01*
X693532Y790752D01*
X693617Y790796D01*
X693700Y790844D01*
X693780Y790895D01*
X693859Y790949D01*
X693935Y791007D01*
X694009Y791067D01*
X694081Y791131D01*
X694149Y791197D01*
X694215Y791267D01*
X694278Y791338D01*
X694339Y791413D01*
X694396Y791489D01*
X694449Y791568D01*
X694500Y791649D01*
X694547Y791732D01*
X694591Y791817D01*
X694631Y791904D01*
X694668Y791992D01*
X694701Y792082D01*
X694731Y792173D01*
X694756Y792265D01*
X694778Y792358D01*
X694796Y792452D01*
X694811Y792546D01*
X694821Y792641D01*
X694827Y792737D01*
X694830Y792832D01*
X694829Y792928D01*
X694823Y793023D01*
X694814Y793119D01*
X694801Y793213D01*
X694785Y793307D01*
X694764Y793401D01*
X694739Y793493D01*
X694711Y793584D01*
X694679Y793674D01*
X694644Y793763D01*
X694605Y793850D01*
X694562Y793936D01*
X694516Y794020D01*
X694466Y794101D01*
X694414Y794181D01*
X694358Y794259D01*
X694298Y794334D01*
X694236Y794406D01*
X694171Y794476D01*
X694103Y794544D01*
X694033Y794608D01*
X693960Y794670D01*
X693884Y794728D01*
X693806Y794784D01*
X693726Y794836D01*
X693644Y794885D01*
X693560Y794930D01*
X693474Y794972D01*
X693387Y795011D01*
X693298Y795046D01*
X693207Y795077D01*
X693116Y795104D01*
X693023Y795128D01*
X692930Y795148D01*
X692836Y795164D01*
X692741Y795176D01*
X692646Y795185D01*
X692550Y795189D01*
X692455Y795190D01*
X692208Y795183D01*
X691962Y795171D01*
X691716Y795153D01*
X691470Y795128D01*
X691226Y795098D01*
X690982Y795062D01*
X690739Y795021D01*
X690497Y794973D01*
X690256Y794919D01*
X690017Y794860D01*
X689779Y794795D01*
X689543Y794724D01*
X689308Y794648D01*
X689075Y794566D01*
X688845Y794478D01*
X688617Y794385D01*
X688390Y794287D01*
X688841Y788867D02*
X688753Y788830D01*
X688667Y788789D01*
X688582Y788745D01*
X688499Y788697D01*
X688419Y788646D01*
X688340Y788592D01*
X688264Y788534D01*
X688190Y788474D01*
X688118Y788410D01*
X688050Y788344D01*
X687984Y788274D01*
X687921Y788203D01*
X687860Y788128D01*
X687803Y788052D01*
X687750Y787973D01*
X687699Y787892D01*
X687652Y787809D01*
X687608Y787724D01*
X687568Y787637D01*
X687531Y787549D01*
X687498Y787459D01*
X687468Y787368D01*
X687443Y787276D01*
X687421Y787183D01*
X687403Y787089D01*
X687388Y786995D01*
X687378Y786900D01*
X687372Y786804D01*
X687369Y786709D01*
X687370Y786613D01*
X687376Y786518D01*
X687385Y786422D01*
X687398Y786328D01*
X687414Y786234D01*
X687435Y786140D01*
X687460Y786048D01*
X687488Y785957D01*
X687520Y785867D01*
X687555Y785778D01*
X687594Y785691D01*
X687637Y785605D01*
X687683Y785521D01*
X687733Y785440D01*
X687785Y785360D01*
X687841Y785282D01*
X687901Y785207D01*
X687963Y785135D01*
X688028Y785065D01*
X688096Y784997D01*
X688166Y784933D01*
X688239Y784871D01*
X688315Y784813D01*
X688393Y784757D01*
X688473Y784705D01*
X688555Y784656D01*
X688639Y784611D01*
X688725Y784569D01*
X688812Y784530D01*
X688901Y784495D01*
X688992Y784464D01*
X689083Y784437D01*
X689176Y784413D01*
X689269Y784393D01*
X689363Y784377D01*
X689458Y784365D01*
X689553Y784356D01*
X689649Y784352D01*
X689744Y784351D01*
X689745Y784352D02*
X690107Y784361D01*
X690469Y784379D01*
X690830Y784406D01*
X691190Y784441D01*
X691550Y784484D01*
X691909Y784536D01*
X692266Y784597D01*
X692621Y784666D01*
X692975Y784743D01*
X693327Y784829D01*
X693677Y784923D01*
X694025Y785026D01*
X694370Y785136D01*
X694712Y785255D01*
X681200Y789771D02*
X681200Y800608D01*
X681651Y785255D02*
X681651Y784352D01*
X681651Y785255D02*
X680748Y785255D01*
X680748Y784352D01*
X681651Y784352D01*
M02*
