G04 EAGLE Gerber RS-274X export*
G75*
%MOMM*%
%FSLAX34Y34*%
%LPD*%
%INSoldermask Bottom*%
%IPPOS*%
%AMOC8*
5,1,8,0,0,1.08239X$1,22.5*%
G01*
%ADD10C,3.403200*%
%ADD11R,1.733200X1.733200*%
%ADD12C,1.733200*%
%ADD13C,0.959600*%
%ADD14C,1.117600*%


D10*
X25400Y800100D03*
X946150Y793750D03*
X25400Y330200D03*
X947420Y325120D03*
D11*
X646430Y650240D03*
D12*
X646430Y624840D03*
X646430Y599440D03*
X646430Y574040D03*
X646430Y548640D03*
X646430Y523240D03*
X646430Y497840D03*
X646430Y472440D03*
X646430Y447040D03*
X646430Y421640D03*
X646430Y396240D03*
X646430Y370840D03*
D11*
X443230Y751840D03*
D12*
X443230Y726440D03*
X443230Y701040D03*
X443230Y675640D03*
X443230Y650240D03*
X443230Y624840D03*
X443230Y599440D03*
X443230Y574040D03*
X443230Y548640D03*
X443230Y523240D03*
X443230Y497840D03*
X443230Y472440D03*
X443230Y447040D03*
X443230Y421640D03*
X443230Y396240D03*
X443230Y370840D03*
X269240Y497840D03*
X294640Y497840D03*
X269240Y472440D03*
X294640Y472440D03*
X269240Y447040D03*
X294640Y447040D03*
X269240Y421640D03*
X294640Y421640D03*
X269240Y396240D03*
X294640Y396240D03*
X269240Y370840D03*
X294640Y370840D03*
D11*
X834390Y751840D03*
D12*
X859790Y751840D03*
X834390Y726440D03*
X859790Y726440D03*
X834390Y701040D03*
X859790Y701040D03*
X834390Y675640D03*
X859790Y675640D03*
X834390Y650240D03*
X859790Y650240D03*
X834390Y624840D03*
X859790Y624840D03*
X834390Y599440D03*
X859790Y599440D03*
X834390Y574040D03*
X859790Y574040D03*
X834390Y548640D03*
X859790Y548640D03*
X834390Y523240D03*
X859790Y523240D03*
X834390Y497840D03*
X859790Y497840D03*
X834390Y472440D03*
X859790Y472440D03*
X834390Y447040D03*
X859790Y447040D03*
X834390Y421640D03*
X859790Y421640D03*
X834390Y396240D03*
X859790Y396240D03*
X834390Y370840D03*
X859790Y370840D03*
D13*
X101600Y792480D03*
X208280Y711200D03*
X655320Y782320D03*
X944880Y513080D03*
X179070Y566420D03*
X143510Y584200D03*
X547370Y392430D03*
X622300Y524510D03*
X621030Y547370D03*
X726440Y403860D03*
X737870Y547370D03*
D14*
X67056Y466598D03*
X173228Y519684D03*
X477774Y444246D03*
X611886Y352044D03*
X771144Y407924D03*
X637032Y335280D03*
X106172Y595122D03*
X117348Y483362D03*
X134112Y547624D03*
X61468Y413512D03*
X477774Y511302D03*
X801878Y379984D03*
X477774Y419100D03*
M02*
