G04 EAGLE Gerber RS-274X export*
G75*
%MOMM*%
%FSLAX34Y34*%
%LPD*%
%INBottom Copper*%
%IPPOS*%
%AMOC8*
5,1,8,0,0,1.08239X$1,22.5*%
G01*
%ADD10P,1.429621X8X292.500000*%
%ADD11R,1.530000X1.530000*%
%ADD12C,1.530000*%
%ADD13C,1.258000*%
%ADD14C,0.756400*%
%ADD15C,0.304800*%
%ADD16C,0.914400*%

G36*
X920404Y313767D02*
X920404Y313767D01*
X920499Y313776D01*
X920524Y313787D01*
X920552Y313791D01*
X920637Y313836D01*
X920724Y313875D01*
X920745Y313893D01*
X920769Y313906D01*
X920835Y313976D01*
X920906Y314040D01*
X920920Y314064D01*
X920939Y314084D01*
X920979Y314171D01*
X921026Y314255D01*
X921031Y314282D01*
X921043Y314307D01*
X921053Y314403D01*
X921071Y314497D01*
X921067Y314524D01*
X921070Y314552D01*
X921050Y314645D01*
X921037Y314740D01*
X921023Y314772D01*
X921018Y314792D01*
X921001Y314820D01*
X920969Y314894D01*
X917962Y320102D01*
X916179Y326756D01*
X916179Y333644D01*
X917962Y340298D01*
X921406Y346263D01*
X926277Y351134D01*
X932242Y354578D01*
X938896Y356361D01*
X945784Y356361D01*
X952438Y354578D01*
X955677Y352707D01*
X955767Y352674D01*
X955853Y352634D01*
X955881Y352630D01*
X955907Y352620D01*
X956003Y352617D01*
X956097Y352606D01*
X956125Y352612D01*
X956153Y352611D01*
X956245Y352639D01*
X956338Y352659D01*
X956362Y352673D01*
X956389Y352681D01*
X956467Y352736D01*
X956549Y352785D01*
X956567Y352806D01*
X956590Y352823D01*
X956647Y352899D01*
X956709Y352972D01*
X956719Y352998D01*
X956736Y353021D01*
X956765Y353111D01*
X956801Y353200D01*
X956805Y353235D01*
X956811Y353255D01*
X956811Y353288D01*
X956819Y353367D01*
X956819Y776397D01*
X956804Y776491D01*
X956795Y776586D01*
X956784Y776611D01*
X956780Y776639D01*
X956735Y776724D01*
X956697Y776811D01*
X956678Y776832D01*
X956664Y776857D01*
X956595Y776922D01*
X956531Y776993D01*
X956507Y777007D01*
X956486Y777026D01*
X956400Y777066D01*
X956316Y777113D01*
X956289Y777118D01*
X956263Y777130D01*
X956168Y777140D01*
X956075Y777158D01*
X956047Y777154D01*
X956019Y777157D01*
X955925Y777137D01*
X955831Y777123D01*
X955799Y777109D01*
X955778Y777105D01*
X955750Y777088D01*
X955677Y777056D01*
X951168Y774452D01*
X944514Y772669D01*
X937626Y772669D01*
X930972Y774452D01*
X925007Y777896D01*
X920136Y782767D01*
X916692Y788732D01*
X914909Y795386D01*
X914909Y802274D01*
X916692Y808928D01*
X918980Y812891D01*
X919014Y812980D01*
X919054Y813066D01*
X919057Y813094D01*
X919067Y813121D01*
X919071Y813216D01*
X919082Y813310D01*
X919075Y813338D01*
X919077Y813367D01*
X919050Y813458D01*
X919030Y813551D01*
X919015Y813575D01*
X919007Y813603D01*
X918952Y813681D01*
X918904Y813762D01*
X918882Y813781D01*
X918865Y813804D01*
X918789Y813860D01*
X918717Y813922D01*
X918690Y813933D01*
X918667Y813950D01*
X918577Y813979D01*
X918489Y814014D01*
X918453Y814019D01*
X918433Y814025D01*
X918400Y814024D01*
X918322Y814033D01*
X48223Y815176D01*
X48129Y815161D01*
X48033Y815152D01*
X48008Y815141D01*
X47980Y815137D01*
X47895Y815092D01*
X47808Y815053D01*
X47787Y815035D01*
X47763Y815022D01*
X47697Y814952D01*
X47626Y814888D01*
X47612Y814864D01*
X47593Y814844D01*
X47553Y814757D01*
X47506Y814673D01*
X47501Y814646D01*
X47489Y814621D01*
X47479Y814525D01*
X47461Y814431D01*
X47465Y814404D01*
X47462Y814376D01*
X47482Y814283D01*
X47496Y814188D01*
X47510Y814156D01*
X47514Y814136D01*
X47531Y814108D01*
X47563Y814034D01*
X49778Y810198D01*
X51561Y803544D01*
X51561Y796656D01*
X49778Y790002D01*
X46334Y784037D01*
X41463Y779166D01*
X35498Y775722D01*
X28844Y773939D01*
X21956Y773939D01*
X15302Y775722D01*
X11303Y778031D01*
X11214Y778065D01*
X11127Y778105D01*
X11099Y778108D01*
X11073Y778118D01*
X10977Y778122D01*
X10883Y778132D01*
X10855Y778126D01*
X10827Y778127D01*
X10735Y778100D01*
X10642Y778080D01*
X10618Y778066D01*
X10591Y778058D01*
X10513Y778003D01*
X10431Y777954D01*
X10413Y777932D01*
X10390Y777916D01*
X10333Y777840D01*
X10271Y777767D01*
X10261Y777741D01*
X10244Y777718D01*
X10215Y777627D01*
X10179Y777539D01*
X10175Y777504D01*
X10169Y777484D01*
X10169Y777451D01*
X10161Y777372D01*
X10161Y352928D01*
X10176Y352834D01*
X10185Y352739D01*
X10196Y352713D01*
X10200Y352685D01*
X10245Y352601D01*
X10283Y352514D01*
X10302Y352493D01*
X10316Y352468D01*
X10385Y352402D01*
X10449Y352332D01*
X10473Y352318D01*
X10494Y352298D01*
X10580Y352258D01*
X10664Y352212D01*
X10691Y352207D01*
X10717Y352195D01*
X10812Y352184D01*
X10905Y352167D01*
X10933Y352171D01*
X10961Y352168D01*
X11055Y352188D01*
X11149Y352201D01*
X11181Y352216D01*
X11202Y352220D01*
X11230Y352237D01*
X11303Y352269D01*
X15302Y354578D01*
X21956Y356361D01*
X28844Y356361D01*
X35498Y354578D01*
X41463Y351134D01*
X46334Y346263D01*
X49778Y340298D01*
X51561Y333644D01*
X51561Y326756D01*
X49778Y320102D01*
X47432Y316039D01*
X47399Y315951D01*
X47359Y315865D01*
X47355Y315836D01*
X47345Y315809D01*
X47342Y315714D01*
X47331Y315620D01*
X47337Y315592D01*
X47336Y315564D01*
X47363Y315472D01*
X47383Y315380D01*
X47398Y315355D01*
X47406Y315328D01*
X47460Y315250D01*
X47509Y315169D01*
X47531Y315150D01*
X47547Y315126D01*
X47624Y315070D01*
X47696Y315009D01*
X47722Y314998D01*
X47746Y314981D01*
X47836Y314952D01*
X47924Y314916D01*
X47960Y314912D01*
X47980Y314906D01*
X48013Y314906D01*
X48090Y314898D01*
X920309Y313752D01*
X920404Y313767D01*
G37*
%LPC*%
G36*
X626966Y320039D02*
X626966Y320039D01*
X599439Y347566D01*
X599439Y406814D01*
X602043Y409418D01*
X636289Y443664D01*
X636357Y443758D01*
X636427Y443853D01*
X636429Y443859D01*
X636433Y443864D01*
X636467Y443975D01*
X636504Y444086D01*
X636504Y444093D01*
X636505Y444099D01*
X636502Y444215D01*
X636501Y444332D01*
X636499Y444340D01*
X636499Y444345D01*
X636493Y444362D01*
X636454Y444493D01*
X636239Y445013D01*
X636239Y449067D01*
X637791Y452813D01*
X640657Y455679D01*
X644403Y457231D01*
X648457Y457231D01*
X652203Y455679D01*
X655069Y452813D01*
X656621Y449067D01*
X656621Y445013D01*
X655069Y441267D01*
X652203Y438401D01*
X648457Y436849D01*
X644403Y436849D01*
X642447Y437660D01*
X642333Y437686D01*
X642219Y437715D01*
X642213Y437714D01*
X642207Y437716D01*
X642091Y437705D01*
X641974Y437696D01*
X641969Y437693D01*
X641962Y437693D01*
X641855Y437645D01*
X641748Y437599D01*
X641742Y437595D01*
X641738Y437593D01*
X641724Y437580D01*
X641617Y437495D01*
X607792Y403669D01*
X607739Y403595D01*
X607679Y403526D01*
X607667Y403496D01*
X607648Y403470D01*
X607621Y403383D01*
X607587Y403298D01*
X607583Y403257D01*
X607576Y403234D01*
X607577Y403202D01*
X607569Y403131D01*
X607569Y356829D01*
X607580Y356759D01*
X607582Y356687D01*
X607600Y356638D01*
X607608Y356587D01*
X607642Y356523D01*
X607667Y356456D01*
X607699Y356415D01*
X607724Y356369D01*
X607776Y356320D01*
X607820Y356264D01*
X607864Y356236D01*
X607902Y356200D01*
X607967Y356170D01*
X608027Y356131D01*
X608078Y356118D01*
X608125Y356096D01*
X608196Y356088D01*
X608266Y356071D01*
X608318Y356075D01*
X608369Y356069D01*
X608440Y356084D01*
X608511Y356090D01*
X608559Y356110D01*
X608610Y356121D01*
X608671Y356158D01*
X608737Y356186D01*
X608793Y356231D01*
X608821Y356248D01*
X608836Y356265D01*
X608868Y356291D01*
X610651Y358074D01*
X613265Y359157D01*
X616095Y359157D01*
X618709Y358074D01*
X620451Y356332D01*
X620525Y356279D01*
X620595Y356219D01*
X620625Y356207D01*
X620651Y356188D01*
X620738Y356161D01*
X620823Y356127D01*
X620864Y356123D01*
X620886Y356116D01*
X620918Y356117D01*
X620989Y356109D01*
X649003Y356109D01*
X649093Y356123D01*
X649184Y356131D01*
X649214Y356143D01*
X649246Y356148D01*
X649326Y356191D01*
X649410Y356227D01*
X649442Y356253D01*
X649463Y356264D01*
X649485Y356287D01*
X649541Y356332D01*
X654842Y361633D01*
X654895Y361707D01*
X654955Y361776D01*
X654967Y361806D01*
X654986Y361832D01*
X655013Y361919D01*
X655047Y362004D01*
X655051Y362045D01*
X655058Y362068D01*
X655057Y362100D01*
X655065Y362171D01*
X655065Y363226D01*
X655054Y363296D01*
X655052Y363368D01*
X655034Y363417D01*
X655026Y363468D01*
X654992Y363532D01*
X654967Y363599D01*
X654935Y363640D01*
X654910Y363686D01*
X654858Y363735D01*
X654814Y363791D01*
X654770Y363819D01*
X654732Y363855D01*
X654667Y363885D01*
X654607Y363924D01*
X654556Y363937D01*
X654509Y363959D01*
X654438Y363967D01*
X654368Y363984D01*
X654316Y363980D01*
X654265Y363986D01*
X654194Y363971D01*
X654123Y363965D01*
X654075Y363945D01*
X654024Y363934D01*
X653963Y363897D01*
X653897Y363869D01*
X653841Y363824D01*
X653813Y363807D01*
X653798Y363790D01*
X653766Y363764D01*
X652203Y362201D01*
X648457Y360649D01*
X644403Y360649D01*
X640657Y362201D01*
X637791Y365067D01*
X636239Y368813D01*
X636239Y372867D01*
X637791Y376613D01*
X640657Y379479D01*
X644403Y381031D01*
X648457Y381031D01*
X652203Y379479D01*
X655069Y376613D01*
X656621Y372867D01*
X656621Y369559D01*
X656632Y369489D01*
X656634Y369417D01*
X656652Y369368D01*
X656660Y369317D01*
X656694Y369253D01*
X656719Y369186D01*
X656751Y369145D01*
X656776Y369099D01*
X656827Y369050D01*
X656872Y368994D01*
X656916Y368966D01*
X656954Y368930D01*
X657019Y368900D01*
X657079Y368861D01*
X657130Y368848D01*
X657177Y368826D01*
X657248Y368818D01*
X657318Y368801D01*
X657370Y368805D01*
X657421Y368799D01*
X657492Y368814D01*
X657563Y368820D01*
X657611Y368840D01*
X657662Y368851D01*
X657723Y368888D01*
X657789Y368916D01*
X657845Y368961D01*
X657873Y368978D01*
X657888Y368995D01*
X657920Y369021D01*
X658149Y369250D01*
X660763Y370333D01*
X663593Y370333D01*
X665189Y369672D01*
X665208Y369667D01*
X665226Y369657D01*
X665328Y369639D01*
X665428Y369615D01*
X665448Y369617D01*
X665468Y369614D01*
X665570Y369629D01*
X665673Y369638D01*
X665692Y369647D01*
X665711Y369649D01*
X665804Y369696D01*
X665898Y369738D01*
X665913Y369752D01*
X665930Y369761D01*
X666003Y369835D01*
X666079Y369905D01*
X666089Y369922D01*
X666103Y369937D01*
X666184Y370084D01*
X667324Y372837D01*
X669325Y374838D01*
X670695Y375406D01*
X670734Y375430D01*
X670778Y375445D01*
X670838Y375494D01*
X670905Y375535D01*
X670934Y375571D01*
X670970Y375599D01*
X671012Y375665D01*
X671061Y375725D01*
X671078Y375767D01*
X671103Y375806D01*
X671122Y375882D01*
X671150Y375954D01*
X671151Y376000D01*
X671163Y376045D01*
X671157Y376122D01*
X671160Y376200D01*
X671147Y376244D01*
X671144Y376290D01*
X671113Y376361D01*
X671091Y376436D01*
X671065Y376474D01*
X671047Y376516D01*
X670962Y376623D01*
X670951Y376638D01*
X670947Y376641D01*
X670942Y376647D01*
X669066Y378523D01*
X656476Y391113D01*
X656439Y391140D01*
X656408Y391174D01*
X656339Y391212D01*
X656276Y391257D01*
X656233Y391270D01*
X656192Y391293D01*
X656116Y391306D01*
X656041Y391329D01*
X655995Y391328D01*
X655950Y391336D01*
X655873Y391325D01*
X655795Y391323D01*
X655752Y391307D01*
X655707Y391301D01*
X655638Y391265D01*
X655564Y391239D01*
X655529Y391210D01*
X655488Y391189D01*
X655433Y391133D01*
X655372Y391085D01*
X655348Y391046D01*
X655315Y391013D01*
X655249Y390894D01*
X655239Y390878D01*
X655238Y390873D01*
X655235Y390866D01*
X655069Y390467D01*
X652203Y387601D01*
X648457Y386049D01*
X644403Y386049D01*
X640657Y387601D01*
X637791Y390467D01*
X636239Y394213D01*
X636239Y398267D01*
X637791Y402013D01*
X640657Y404879D01*
X644403Y406431D01*
X648457Y406431D01*
X652203Y404879D01*
X655069Y402013D01*
X655372Y401283D01*
X655433Y401183D01*
X655493Y401083D01*
X655498Y401079D01*
X655501Y401074D01*
X655591Y400999D01*
X655680Y400923D01*
X655686Y400921D01*
X655691Y400917D01*
X655799Y400875D01*
X655908Y400831D01*
X655916Y400830D01*
X655920Y400829D01*
X655939Y400828D01*
X656075Y400813D01*
X658274Y400813D01*
X674815Y384272D01*
X674889Y384219D01*
X674958Y384159D01*
X674988Y384147D01*
X675014Y384128D01*
X675101Y384101D01*
X675186Y384067D01*
X675227Y384063D01*
X675250Y384056D01*
X675282Y384057D01*
X675353Y384049D01*
X686849Y384049D01*
X686920Y384060D01*
X686992Y384062D01*
X687041Y384080D01*
X687092Y384088D01*
X687155Y384122D01*
X687223Y384147D01*
X687263Y384179D01*
X687309Y384204D01*
X687359Y384255D01*
X687415Y384300D01*
X687443Y384344D01*
X687479Y384382D01*
X687509Y384447D01*
X687548Y384507D01*
X687560Y384558D01*
X687582Y384605D01*
X687590Y384676D01*
X687608Y384746D01*
X687604Y384798D01*
X687609Y384849D01*
X687594Y384919D01*
X687588Y384991D01*
X687568Y385039D01*
X687557Y385090D01*
X687520Y385151D01*
X687492Y385217D01*
X687447Y385273D01*
X687431Y385301D01*
X687413Y385316D01*
X687387Y385348D01*
X656402Y416334D01*
X656365Y416361D01*
X656333Y416394D01*
X656265Y416432D01*
X656202Y416477D01*
X656158Y416491D01*
X656118Y416513D01*
X656041Y416527D01*
X655967Y416550D01*
X655921Y416549D01*
X655876Y416557D01*
X655799Y416545D01*
X655721Y416543D01*
X655678Y416528D01*
X655633Y416521D01*
X655563Y416486D01*
X655490Y416459D01*
X655454Y416430D01*
X655413Y416409D01*
X655359Y416354D01*
X655298Y416305D01*
X655273Y416267D01*
X655241Y416234D01*
X655175Y416114D01*
X655165Y416098D01*
X655164Y416093D01*
X655160Y416087D01*
X655069Y415867D01*
X652203Y413001D01*
X648457Y411449D01*
X644403Y411449D01*
X640657Y413001D01*
X637791Y415867D01*
X636239Y419613D01*
X636239Y423667D01*
X637791Y427413D01*
X640657Y430279D01*
X644403Y431831D01*
X648457Y431831D01*
X652203Y430279D01*
X655069Y427413D01*
X655477Y426429D01*
X655538Y426329D01*
X655598Y426229D01*
X655603Y426225D01*
X655606Y426220D01*
X655696Y426145D01*
X655785Y426069D01*
X655791Y426067D01*
X655796Y426063D01*
X655904Y426021D01*
X656013Y425977D01*
X656021Y425976D01*
X656026Y425975D01*
X656044Y425974D01*
X656180Y425959D01*
X658274Y425959D01*
X707204Y377028D01*
X707283Y376971D01*
X707359Y376909D01*
X707383Y376900D01*
X707404Y376884D01*
X707497Y376856D01*
X707588Y376821D01*
X707614Y376820D01*
X707639Y376812D01*
X707737Y376815D01*
X707834Y376810D01*
X707859Y376818D01*
X707885Y376818D01*
X707977Y376852D01*
X708070Y376879D01*
X708092Y376894D01*
X708116Y376903D01*
X708192Y376964D01*
X708272Y377019D01*
X708288Y377040D01*
X708308Y377057D01*
X708361Y377138D01*
X708419Y377217D01*
X708427Y377241D01*
X708441Y377263D01*
X708465Y377358D01*
X708495Y377450D01*
X708495Y377477D01*
X708501Y377502D01*
X708494Y377599D01*
X708493Y377696D01*
X708484Y377728D01*
X708482Y377747D01*
X708469Y377777D01*
X708446Y377857D01*
X708151Y378569D01*
X708151Y381399D01*
X709234Y384013D01*
X711235Y386014D01*
X713849Y387097D01*
X716313Y387097D01*
X716403Y387111D01*
X716494Y387119D01*
X716524Y387131D01*
X716556Y387136D01*
X716636Y387179D01*
X716720Y387215D01*
X716752Y387241D01*
X716773Y387252D01*
X716795Y387275D01*
X716851Y387320D01*
X824175Y494643D01*
X824243Y494738D01*
X824313Y494832D01*
X824315Y494838D01*
X824319Y494843D01*
X824353Y494954D01*
X824389Y495066D01*
X824389Y495072D01*
X824391Y495078D01*
X824388Y495195D01*
X824387Y495312D01*
X824385Y495319D01*
X824385Y495324D01*
X824378Y495342D01*
X824340Y495473D01*
X824199Y495813D01*
X824199Y499867D01*
X825659Y503391D01*
X825669Y503435D01*
X825689Y503477D01*
X825697Y503554D01*
X825715Y503630D01*
X825711Y503676D01*
X825716Y503721D01*
X825699Y503798D01*
X825692Y503875D01*
X825673Y503917D01*
X825663Y503962D01*
X825624Y504029D01*
X825592Y504100D01*
X825561Y504134D01*
X825537Y504173D01*
X825478Y504224D01*
X825425Y504281D01*
X825385Y504303D01*
X825350Y504333D01*
X825278Y504362D01*
X825210Y504399D01*
X825165Y504408D01*
X825122Y504425D01*
X824986Y504440D01*
X824968Y504443D01*
X824963Y504442D01*
X824956Y504443D01*
X694911Y504443D01*
X694821Y504429D01*
X694730Y504421D01*
X694700Y504409D01*
X694668Y504404D01*
X694588Y504361D01*
X694504Y504325D01*
X694472Y504299D01*
X694451Y504288D01*
X694429Y504265D01*
X694373Y504220D01*
X658274Y468121D01*
X656180Y468121D01*
X656065Y468102D01*
X655949Y468085D01*
X655944Y468083D01*
X655937Y468082D01*
X655835Y468027D01*
X655730Y467974D01*
X655726Y467969D01*
X655720Y467966D01*
X655640Y467882D01*
X655558Y467798D01*
X655554Y467792D01*
X655551Y467788D01*
X655543Y467771D01*
X655477Y467651D01*
X655069Y466667D01*
X652203Y463801D01*
X648457Y462249D01*
X644403Y462249D01*
X640657Y463801D01*
X637791Y466667D01*
X636239Y470413D01*
X636239Y474467D01*
X637791Y478213D01*
X640657Y481079D01*
X644403Y482631D01*
X648457Y482631D01*
X652203Y481079D01*
X655069Y478213D01*
X655160Y477993D01*
X655184Y477954D01*
X655200Y477911D01*
X655249Y477850D01*
X655290Y477784D01*
X655325Y477755D01*
X655354Y477719D01*
X655419Y477677D01*
X655479Y477627D01*
X655522Y477611D01*
X655561Y477586D01*
X655636Y477567D01*
X655709Y477539D01*
X655755Y477537D01*
X655799Y477526D01*
X655877Y477532D01*
X655955Y477529D01*
X655999Y477541D01*
X656044Y477545D01*
X656116Y477575D01*
X656191Y477597D01*
X656229Y477623D01*
X656271Y477641D01*
X656378Y477727D01*
X656393Y477737D01*
X656396Y477741D01*
X656402Y477746D01*
X670722Y492066D01*
X670779Y492145D01*
X670841Y492221D01*
X670850Y492245D01*
X670866Y492266D01*
X670894Y492359D01*
X670929Y492450D01*
X670930Y492476D01*
X670938Y492501D01*
X670935Y492599D01*
X670940Y492696D01*
X670932Y492721D01*
X670932Y492747D01*
X670898Y492839D01*
X670871Y492932D01*
X670856Y492954D01*
X670847Y492978D01*
X670786Y493054D01*
X670731Y493134D01*
X670710Y493150D01*
X670693Y493170D01*
X670612Y493223D01*
X670533Y493281D01*
X670509Y493289D01*
X670487Y493303D01*
X670392Y493327D01*
X670300Y493357D01*
X670273Y493357D01*
X670248Y493363D01*
X670151Y493356D01*
X670054Y493355D01*
X670022Y493346D01*
X670003Y493344D01*
X669973Y493331D01*
X669893Y493308D01*
X669181Y493013D01*
X666351Y493013D01*
X663737Y494096D01*
X661736Y496097D01*
X660653Y498711D01*
X660653Y501175D01*
X660639Y501265D01*
X660631Y501356D01*
X660619Y501386D01*
X660614Y501418D01*
X660571Y501498D01*
X660535Y501582D01*
X660509Y501615D01*
X660498Y501635D01*
X660475Y501657D01*
X660430Y501713D01*
X657923Y504220D01*
X657849Y504273D01*
X657780Y504333D01*
X657750Y504345D01*
X657724Y504364D01*
X657636Y504391D01*
X657552Y504425D01*
X657511Y504429D01*
X657488Y504436D01*
X657456Y504435D01*
X657385Y504443D01*
X655864Y504443D01*
X655819Y504436D01*
X655773Y504438D01*
X655698Y504416D01*
X655622Y504404D01*
X655581Y504382D01*
X655537Y504369D01*
X655473Y504325D01*
X655404Y504288D01*
X655373Y504255D01*
X655335Y504229D01*
X655289Y504166D01*
X655235Y504110D01*
X655216Y504068D01*
X655188Y504032D01*
X655164Y503958D01*
X655131Y503887D01*
X655126Y503841D01*
X655112Y503798D01*
X655113Y503720D01*
X655104Y503643D01*
X655114Y503598D01*
X655114Y503552D01*
X655153Y503420D01*
X655157Y503402D01*
X655159Y503398D01*
X655161Y503391D01*
X656621Y499867D01*
X656621Y495813D01*
X655069Y492067D01*
X652203Y489201D01*
X648457Y487649D01*
X644403Y487649D01*
X640657Y489201D01*
X637791Y492067D01*
X636239Y495813D01*
X636239Y499867D01*
X637791Y503613D01*
X637844Y503665D01*
X637855Y503682D01*
X637871Y503694D01*
X637927Y503781D01*
X637987Y503865D01*
X637993Y503884D01*
X638004Y503901D01*
X638029Y504001D01*
X638060Y504100D01*
X638059Y504120D01*
X638064Y504140D01*
X638056Y504243D01*
X638053Y504346D01*
X638046Y504365D01*
X638045Y504385D01*
X638004Y504480D01*
X637969Y504577D01*
X637956Y504593D01*
X637948Y504611D01*
X637844Y504742D01*
X635571Y507014D01*
X635497Y507067D01*
X635428Y507127D01*
X635398Y507139D01*
X635372Y507158D01*
X635284Y507185D01*
X635200Y507219D01*
X635159Y507223D01*
X635136Y507230D01*
X635104Y507229D01*
X635033Y507237D01*
X516095Y507237D01*
X516005Y507223D01*
X515914Y507215D01*
X515884Y507203D01*
X515852Y507198D01*
X515772Y507155D01*
X515688Y507119D01*
X515656Y507093D01*
X515635Y507082D01*
X515613Y507059D01*
X515557Y507014D01*
X485110Y476567D01*
X485057Y476493D01*
X484997Y476424D01*
X484985Y476394D01*
X484966Y476368D01*
X484939Y476281D01*
X484905Y476196D01*
X484901Y476155D01*
X484894Y476132D01*
X484895Y476100D01*
X484887Y476029D01*
X484887Y473565D01*
X483804Y470951D01*
X481803Y468950D01*
X479189Y467867D01*
X476359Y467867D01*
X473745Y468950D01*
X471962Y470733D01*
X471904Y470775D01*
X471852Y470824D01*
X471805Y470846D01*
X471763Y470876D01*
X471694Y470897D01*
X471629Y470928D01*
X471577Y470933D01*
X471527Y470949D01*
X471456Y470947D01*
X471385Y470955D01*
X471334Y470944D01*
X471282Y470942D01*
X471214Y470918D01*
X471144Y470903D01*
X471099Y470876D01*
X471051Y470858D01*
X470995Y470813D01*
X470933Y470776D01*
X470899Y470737D01*
X470859Y470704D01*
X470820Y470644D01*
X470773Y470589D01*
X470754Y470541D01*
X470726Y470497D01*
X470708Y470428D01*
X470681Y470361D01*
X470673Y470290D01*
X470665Y470259D01*
X470667Y470235D01*
X470663Y470195D01*
X470663Y361536D01*
X451518Y342391D01*
X369918Y342391D01*
X333819Y378490D01*
X333745Y378543D01*
X333676Y378603D01*
X333646Y378615D01*
X333620Y378634D01*
X333533Y378661D01*
X333448Y378695D01*
X333407Y378699D01*
X333384Y378706D01*
X333352Y378705D01*
X333281Y378713D01*
X303016Y378713D01*
X302946Y378702D01*
X302874Y378700D01*
X302825Y378682D01*
X302774Y378674D01*
X302710Y378640D01*
X302643Y378615D01*
X302602Y378583D01*
X302556Y378558D01*
X302507Y378506D01*
X302451Y378462D01*
X302423Y378418D01*
X302387Y378380D01*
X302357Y378315D01*
X302318Y378255D01*
X302305Y378204D01*
X302283Y378157D01*
X302275Y378086D01*
X302258Y378016D01*
X302262Y377964D01*
X302256Y377913D01*
X302271Y377842D01*
X302277Y377771D01*
X302297Y377723D01*
X302308Y377672D01*
X302345Y377611D01*
X302373Y377545D01*
X302418Y377489D01*
X302435Y377461D01*
X302452Y377446D01*
X302478Y377414D01*
X303279Y376613D01*
X304831Y372867D01*
X304831Y368813D01*
X303279Y365067D01*
X300413Y362201D01*
X296667Y360649D01*
X292613Y360649D01*
X288867Y362201D01*
X286001Y365067D01*
X284449Y368813D01*
X284449Y372867D01*
X286001Y376613D01*
X288867Y379479D01*
X292613Y381031D01*
X296667Y381031D01*
X299751Y379753D01*
X299846Y379731D01*
X299939Y379702D01*
X299965Y379703D01*
X299991Y379697D01*
X300087Y379706D01*
X300185Y379709D01*
X300210Y379718D01*
X300236Y379720D01*
X300324Y379760D01*
X300416Y379793D01*
X300436Y379810D01*
X300460Y379820D01*
X300532Y379886D01*
X300608Y379947D01*
X300622Y379969D01*
X300641Y379987D01*
X300688Y380072D01*
X300741Y380154D01*
X300747Y380179D01*
X300760Y380202D01*
X300777Y380298D01*
X300801Y380392D01*
X300799Y380418D01*
X300804Y380444D01*
X300790Y380541D01*
X300782Y380638D01*
X300772Y380662D01*
X300768Y380687D01*
X300724Y380774D01*
X300686Y380864D01*
X300665Y380889D01*
X300656Y380907D01*
X300633Y380930D01*
X300581Y380995D01*
X300258Y381317D01*
X295749Y385826D01*
X295675Y385879D01*
X295606Y385939D01*
X295576Y385951D01*
X295550Y385970D01*
X295463Y385997D01*
X295378Y386031D01*
X295337Y386035D01*
X295315Y386042D01*
X295282Y386041D01*
X295211Y386049D01*
X292613Y386049D01*
X288867Y387601D01*
X286001Y390467D01*
X284449Y394213D01*
X284449Y398267D01*
X286001Y402013D01*
X288867Y404879D01*
X292613Y406431D01*
X296667Y406431D01*
X300413Y404879D01*
X303279Y402013D01*
X304831Y398267D01*
X304831Y394213D01*
X303276Y390461D01*
X303250Y390347D01*
X303221Y390233D01*
X303222Y390227D01*
X303220Y390221D01*
X303231Y390104D01*
X303240Y389988D01*
X303243Y389982D01*
X303243Y389976D01*
X303291Y389869D01*
X303337Y389762D01*
X303341Y389756D01*
X303343Y389751D01*
X303356Y389738D01*
X303441Y389631D01*
X306007Y387066D01*
X306081Y387013D01*
X306150Y386953D01*
X306180Y386941D01*
X306206Y386922D01*
X306294Y386895D01*
X306378Y386861D01*
X306419Y386857D01*
X306442Y386850D01*
X306474Y386851D01*
X306545Y386843D01*
X332011Y386843D01*
X332082Y386854D01*
X332154Y386856D01*
X332203Y386874D01*
X332254Y386882D01*
X332317Y386916D01*
X332385Y386941D01*
X332425Y386973D01*
X332471Y386998D01*
X332521Y387049D01*
X332577Y387094D01*
X332605Y387138D01*
X332641Y387176D01*
X332671Y387241D01*
X332710Y387301D01*
X332722Y387352D01*
X332744Y387399D01*
X332752Y387470D01*
X332770Y387540D01*
X332766Y387592D01*
X332771Y387643D01*
X332756Y387714D01*
X332750Y387785D01*
X332730Y387833D01*
X332719Y387884D01*
X332682Y387945D01*
X332654Y388011D01*
X332609Y388067D01*
X332593Y388095D01*
X332575Y388110D01*
X332549Y388142D01*
X304537Y416154D01*
X304500Y416181D01*
X304469Y416215D01*
X304401Y416253D01*
X304338Y416298D01*
X304294Y416311D01*
X304253Y416333D01*
X304177Y416347D01*
X304103Y416370D01*
X304057Y416369D01*
X304011Y416377D01*
X303934Y416366D01*
X303857Y416364D01*
X303813Y416348D01*
X303768Y416341D01*
X303699Y416306D01*
X303626Y416279D01*
X303590Y416251D01*
X303549Y416230D01*
X303494Y416174D01*
X303434Y416126D01*
X303409Y416087D01*
X303377Y416054D01*
X303311Y415935D01*
X303301Y415919D01*
X303299Y415914D01*
X303296Y415907D01*
X303279Y415867D01*
X300413Y413001D01*
X296667Y411449D01*
X292613Y411449D01*
X288867Y413001D01*
X286001Y415867D01*
X284449Y419613D01*
X284449Y423667D01*
X286001Y427413D01*
X288867Y430279D01*
X292613Y431831D01*
X296667Y431831D01*
X300413Y430279D01*
X303279Y427413D01*
X303687Y426429D01*
X303748Y426329D01*
X303808Y426229D01*
X303813Y426225D01*
X303816Y426220D01*
X303906Y426145D01*
X303995Y426069D01*
X304001Y426067D01*
X304006Y426063D01*
X304114Y426021D01*
X304223Y425977D01*
X304231Y425976D01*
X304236Y425975D01*
X304254Y425974D01*
X304390Y425959D01*
X306230Y425959D01*
X375857Y356332D01*
X375931Y356279D01*
X376000Y356219D01*
X376030Y356207D01*
X376056Y356188D01*
X376143Y356161D01*
X376228Y356127D01*
X376269Y356123D01*
X376292Y356116D01*
X376324Y356117D01*
X376395Y356109D01*
X445041Y356109D01*
X445131Y356123D01*
X445222Y356131D01*
X445252Y356143D01*
X445284Y356148D01*
X445364Y356191D01*
X445448Y356227D01*
X445480Y356253D01*
X445501Y356264D01*
X445523Y356287D01*
X445579Y356332D01*
X456722Y367475D01*
X456775Y367549D01*
X456835Y367618D01*
X456847Y367648D01*
X456866Y367674D01*
X456893Y367761D01*
X456927Y367846D01*
X456931Y367887D01*
X456938Y367910D01*
X456937Y367942D01*
X456945Y368013D01*
X456945Y503715D01*
X456931Y503805D01*
X456923Y503896D01*
X456911Y503926D01*
X456906Y503958D01*
X456863Y504038D01*
X456827Y504122D01*
X456801Y504154D01*
X456790Y504175D01*
X456767Y504197D01*
X456722Y504253D01*
X447504Y513471D01*
X447409Y513540D01*
X447316Y513609D01*
X447310Y513611D01*
X447304Y513615D01*
X447193Y513649D01*
X447082Y513686D01*
X447075Y513685D01*
X447069Y513687D01*
X446953Y513684D01*
X446836Y513683D01*
X446828Y513681D01*
X446824Y513681D01*
X446806Y513675D01*
X446675Y513636D01*
X445257Y513049D01*
X441203Y513049D01*
X437457Y514601D01*
X434591Y517467D01*
X433039Y521213D01*
X433039Y525267D01*
X434591Y529013D01*
X437457Y531879D01*
X441203Y533431D01*
X445257Y533431D01*
X449003Y531879D01*
X451869Y529013D01*
X453421Y525267D01*
X453421Y521213D01*
X452982Y520155D01*
X452956Y520041D01*
X452927Y519928D01*
X452928Y519921D01*
X452926Y519915D01*
X452937Y519799D01*
X452946Y519682D01*
X452949Y519677D01*
X452949Y519670D01*
X452997Y519563D01*
X453043Y519456D01*
X453047Y519450D01*
X453049Y519446D01*
X453062Y519432D01*
X453147Y519325D01*
X461234Y511239D01*
X461292Y511197D01*
X461344Y511147D01*
X461391Y511125D01*
X461433Y511095D01*
X461502Y511074D01*
X461567Y511044D01*
X461619Y511038D01*
X461669Y511023D01*
X461740Y511025D01*
X461811Y511017D01*
X461862Y511028D01*
X461914Y511029D01*
X461982Y511054D01*
X462052Y511069D01*
X462096Y511096D01*
X462145Y511114D01*
X462201Y511158D01*
X462263Y511195D01*
X462297Y511235D01*
X462337Y511267D01*
X462376Y511328D01*
X462423Y511382D01*
X462442Y511430D01*
X462470Y511474D01*
X462488Y511544D01*
X462515Y511610D01*
X462523Y511682D01*
X462531Y511713D01*
X462529Y511736D01*
X462533Y511777D01*
X462533Y523273D01*
X462519Y523363D01*
X462511Y523454D01*
X462499Y523484D01*
X462494Y523516D01*
X462451Y523596D01*
X462415Y523680D01*
X462389Y523712D01*
X462378Y523733D01*
X462355Y523755D01*
X462310Y523811D01*
X447325Y538797D01*
X447231Y538865D01*
X447136Y538935D01*
X447130Y538937D01*
X447125Y538941D01*
X447014Y538975D01*
X446902Y539011D01*
X446896Y539011D01*
X446890Y539013D01*
X446773Y539010D01*
X446656Y539009D01*
X446649Y539007D01*
X446644Y539007D01*
X446626Y539000D01*
X446495Y538962D01*
X445257Y538449D01*
X441203Y538449D01*
X437457Y540001D01*
X434591Y542867D01*
X433039Y546613D01*
X433039Y550667D01*
X434591Y554413D01*
X437457Y557279D01*
X441203Y558831D01*
X445257Y558831D01*
X449003Y557279D01*
X451869Y554413D01*
X453421Y550667D01*
X453421Y546613D01*
X452908Y545375D01*
X452881Y545261D01*
X452853Y545148D01*
X452853Y545142D01*
X452852Y545136D01*
X452863Y545019D01*
X452872Y544903D01*
X452874Y544897D01*
X452875Y544891D01*
X452923Y544783D01*
X452968Y544676D01*
X452973Y544671D01*
X452975Y544666D01*
X452988Y544652D01*
X453073Y544545D01*
X466060Y531559D01*
X466076Y531547D01*
X466088Y531531D01*
X466176Y531475D01*
X466259Y531415D01*
X466278Y531409D01*
X466295Y531398D01*
X466396Y531373D01*
X466495Y531343D01*
X466514Y531343D01*
X466534Y531338D01*
X466637Y531346D01*
X466740Y531349D01*
X466759Y531356D01*
X466779Y531358D01*
X466874Y531398D01*
X466971Y531434D01*
X466987Y531446D01*
X467005Y531454D01*
X467136Y531559D01*
X498442Y562865D01*
X635922Y562865D01*
X636494Y562293D01*
X636510Y562281D01*
X636522Y562265D01*
X636610Y562209D01*
X636693Y562149D01*
X636712Y562143D01*
X636729Y562132D01*
X636830Y562107D01*
X636929Y562077D01*
X636948Y562077D01*
X636968Y562072D01*
X637071Y562080D01*
X637174Y562083D01*
X637193Y562090D01*
X637213Y562092D01*
X637308Y562132D01*
X637405Y562168D01*
X637421Y562180D01*
X637439Y562188D01*
X637570Y562293D01*
X640130Y564852D01*
X640141Y564868D01*
X640157Y564881D01*
X640213Y564968D01*
X640273Y565052D01*
X640279Y565071D01*
X640290Y565088D01*
X640315Y565188D01*
X640346Y565287D01*
X640345Y565307D01*
X640350Y565326D01*
X640342Y565429D01*
X640339Y565533D01*
X640332Y565551D01*
X640331Y565571D01*
X640290Y565666D01*
X640255Y565764D01*
X640242Y565779D01*
X640234Y565798D01*
X640130Y565929D01*
X637791Y568267D01*
X636239Y572013D01*
X636239Y576067D01*
X637791Y579813D01*
X640657Y582679D01*
X644403Y584231D01*
X648457Y584231D01*
X652203Y582679D01*
X655069Y579813D01*
X656621Y576067D01*
X656621Y572013D01*
X655069Y568267D01*
X653760Y566958D01*
X653718Y566900D01*
X653669Y566848D01*
X653647Y566801D01*
X653617Y566759D01*
X653595Y566690D01*
X653565Y566625D01*
X653560Y566573D01*
X653544Y566523D01*
X653546Y566452D01*
X653538Y566381D01*
X653549Y566330D01*
X653551Y566278D01*
X653575Y566210D01*
X653590Y566140D01*
X653617Y566095D01*
X653635Y566047D01*
X653680Y565991D01*
X653717Y565929D01*
X653756Y565895D01*
X653789Y565855D01*
X653849Y565816D01*
X653904Y565769D01*
X653952Y565750D01*
X653996Y565722D01*
X654065Y565704D01*
X654132Y565677D01*
X654203Y565669D01*
X654234Y565661D01*
X654257Y565663D01*
X654298Y565659D01*
X658274Y565659D01*
X660845Y563088D01*
X660919Y563035D01*
X660988Y562975D01*
X661018Y562963D01*
X661044Y562944D01*
X661131Y562917D01*
X661216Y562883D01*
X661257Y562879D01*
X661280Y562872D01*
X661312Y562873D01*
X661383Y562865D01*
X820326Y562865D01*
X822930Y560261D01*
X826726Y556464D01*
X826742Y556453D01*
X826755Y556437D01*
X826842Y556381D01*
X826926Y556321D01*
X826945Y556315D01*
X826962Y556304D01*
X827062Y556279D01*
X827161Y556248D01*
X827181Y556249D01*
X827200Y556244D01*
X827303Y556252D01*
X827407Y556255D01*
X827425Y556262D01*
X827445Y556263D01*
X827540Y556304D01*
X827638Y556339D01*
X827653Y556352D01*
X827672Y556360D01*
X827803Y556464D01*
X828617Y557279D01*
X832363Y558831D01*
X836417Y558831D01*
X840163Y557279D01*
X843029Y554413D01*
X844581Y550667D01*
X844581Y546613D01*
X843029Y542867D01*
X841974Y541812D01*
X841932Y541754D01*
X841883Y541702D01*
X841861Y541655D01*
X841831Y541613D01*
X841809Y541544D01*
X841779Y541479D01*
X841774Y541427D01*
X841758Y541377D01*
X841760Y541306D01*
X841752Y541235D01*
X841763Y541184D01*
X841765Y541132D01*
X841789Y541064D01*
X841804Y540994D01*
X841831Y540949D01*
X841849Y540901D01*
X841894Y540845D01*
X841931Y540783D01*
X841970Y540749D01*
X842003Y540709D01*
X842063Y540670D01*
X842118Y540623D01*
X842166Y540604D01*
X842210Y540576D01*
X842279Y540558D01*
X842346Y540531D01*
X842417Y540523D01*
X842448Y540515D01*
X842471Y540517D01*
X842512Y540513D01*
X844583Y540513D01*
X844673Y540527D01*
X844764Y540535D01*
X844794Y540547D01*
X844826Y540552D01*
X844906Y540595D01*
X844990Y540631D01*
X845022Y540657D01*
X845043Y540668D01*
X845065Y540691D01*
X845121Y540736D01*
X849649Y545264D01*
X849718Y545359D01*
X849787Y545453D01*
X849789Y545458D01*
X849793Y545464D01*
X849827Y545575D01*
X849864Y545686D01*
X849864Y545693D01*
X849865Y545699D01*
X849862Y545815D01*
X849861Y545932D01*
X849859Y545940D01*
X849859Y545945D01*
X849853Y545962D01*
X849814Y546093D01*
X849599Y546613D01*
X849599Y550667D01*
X851151Y554413D01*
X854017Y557279D01*
X857763Y558831D01*
X861817Y558831D01*
X865563Y557279D01*
X868429Y554413D01*
X869981Y550667D01*
X869981Y546613D01*
X868429Y542867D01*
X865563Y540001D01*
X861817Y538449D01*
X857763Y538449D01*
X855807Y539260D01*
X855693Y539286D01*
X855579Y539315D01*
X855573Y539314D01*
X855567Y539316D01*
X855451Y539305D01*
X855334Y539296D01*
X855329Y539293D01*
X855322Y539293D01*
X855215Y539245D01*
X855108Y539199D01*
X855102Y539195D01*
X855098Y539193D01*
X855084Y539180D01*
X854977Y539095D01*
X848266Y532383D01*
X845787Y532383D01*
X845697Y532369D01*
X845606Y532361D01*
X845576Y532349D01*
X845544Y532344D01*
X845464Y532301D01*
X845380Y532265D01*
X845347Y532239D01*
X845327Y532228D01*
X845305Y532205D01*
X845249Y532160D01*
X843103Y530015D01*
X843092Y529999D01*
X843076Y529986D01*
X843020Y529899D01*
X842960Y529815D01*
X842954Y529796D01*
X842943Y529779D01*
X842918Y529679D01*
X842887Y529580D01*
X842888Y529560D01*
X842883Y529541D01*
X842891Y529438D01*
X842894Y529334D01*
X842901Y529315D01*
X842902Y529295D01*
X842943Y529200D01*
X842978Y529103D01*
X842991Y529088D01*
X842999Y529069D01*
X843013Y529051D01*
X844581Y525267D01*
X844581Y521213D01*
X843029Y517467D01*
X840944Y515383D01*
X840933Y515366D01*
X840917Y515354D01*
X840861Y515267D01*
X840801Y515183D01*
X840795Y515164D01*
X840784Y515147D01*
X840759Y515047D01*
X840728Y514948D01*
X840729Y514928D01*
X840724Y514908D01*
X840732Y514806D01*
X840735Y514702D01*
X840742Y514683D01*
X840743Y514663D01*
X840784Y514568D01*
X840819Y514471D01*
X840832Y514455D01*
X840840Y514437D01*
X840944Y514306D01*
X848043Y507208D01*
X850856Y504394D01*
X850872Y504383D01*
X850885Y504367D01*
X850972Y504311D01*
X851056Y504251D01*
X851075Y504245D01*
X851092Y504234D01*
X851192Y504209D01*
X851291Y504178D01*
X851311Y504179D01*
X851330Y504174D01*
X851433Y504182D01*
X851537Y504185D01*
X851555Y504192D01*
X851575Y504193D01*
X851670Y504234D01*
X851768Y504269D01*
X851783Y504282D01*
X851802Y504290D01*
X851933Y504394D01*
X854017Y506479D01*
X857763Y508031D01*
X861817Y508031D01*
X865563Y506479D01*
X868429Y503613D01*
X869981Y499867D01*
X869981Y495813D01*
X868429Y492067D01*
X865563Y489201D01*
X861817Y487649D01*
X857763Y487649D01*
X854493Y489004D01*
X854449Y489014D01*
X854407Y489033D01*
X854330Y489042D01*
X854254Y489060D01*
X854208Y489055D01*
X854163Y489061D01*
X854086Y489044D01*
X854009Y489037D01*
X853967Y489018D01*
X853922Y489008D01*
X853855Y488968D01*
X853784Y488937D01*
X853750Y488906D01*
X853711Y488882D01*
X853660Y488823D01*
X853603Y488770D01*
X853581Y488730D01*
X853551Y488695D01*
X853522Y488623D01*
X853485Y488555D01*
X853476Y488510D01*
X853459Y488467D01*
X853444Y488331D01*
X853441Y488313D01*
X853442Y488308D01*
X853441Y488300D01*
X853441Y488155D01*
X853455Y488065D01*
X853463Y487974D01*
X853475Y487944D01*
X853480Y487912D01*
X853523Y487832D01*
X853559Y487748D01*
X853585Y487716D01*
X853596Y487695D01*
X853619Y487673D01*
X853664Y487617D01*
X858427Y482854D01*
X858501Y482801D01*
X858570Y482741D01*
X858600Y482729D01*
X858626Y482710D01*
X858713Y482683D01*
X858798Y482649D01*
X858839Y482645D01*
X858861Y482638D01*
X858894Y482639D01*
X858965Y482631D01*
X861817Y482631D01*
X865563Y481079D01*
X868429Y478213D01*
X869981Y474467D01*
X869981Y470413D01*
X868429Y466667D01*
X865563Y463801D01*
X861817Y462249D01*
X857763Y462249D01*
X854017Y463801D01*
X851151Y466667D01*
X849599Y470413D01*
X849599Y474467D01*
X851079Y478040D01*
X851106Y478153D01*
X851134Y478267D01*
X851134Y478273D01*
X851135Y478279D01*
X851124Y478396D01*
X851115Y478512D01*
X851113Y478518D01*
X851112Y478524D01*
X851064Y478632D01*
X851019Y478738D01*
X851014Y478744D01*
X851012Y478749D01*
X851000Y478763D01*
X850914Y478869D01*
X845311Y484472D01*
X845311Y486951D01*
X845297Y487041D01*
X845289Y487132D01*
X845277Y487162D01*
X845272Y487194D01*
X845229Y487274D01*
X845193Y487358D01*
X845167Y487391D01*
X845156Y487411D01*
X845133Y487433D01*
X845088Y487489D01*
X842308Y490270D01*
X842292Y490281D01*
X842279Y490297D01*
X842192Y490353D01*
X842108Y490413D01*
X842089Y490419D01*
X842072Y490430D01*
X841972Y490455D01*
X841873Y490486D01*
X841853Y490485D01*
X841834Y490490D01*
X841731Y490482D01*
X841627Y490479D01*
X841609Y490472D01*
X841589Y490471D01*
X841494Y490430D01*
X841396Y490395D01*
X841381Y490382D01*
X841362Y490374D01*
X841231Y490270D01*
X840163Y489201D01*
X836417Y487649D01*
X832363Y487649D01*
X830227Y488534D01*
X830113Y488561D01*
X830000Y488589D01*
X829994Y488589D01*
X829988Y488590D01*
X829871Y488579D01*
X829755Y488570D01*
X829749Y488568D01*
X829743Y488567D01*
X829635Y488519D01*
X829528Y488474D01*
X829523Y488469D01*
X829518Y488467D01*
X829504Y488454D01*
X829397Y488369D01*
X768188Y427160D01*
X768131Y427081D01*
X768069Y427005D01*
X768060Y426981D01*
X768044Y426960D01*
X768016Y426867D01*
X767981Y426776D01*
X767980Y426750D01*
X767972Y426725D01*
X767975Y426627D01*
X767970Y426530D01*
X767978Y426505D01*
X767978Y426479D01*
X768012Y426387D01*
X768039Y426294D01*
X768054Y426272D01*
X768063Y426248D01*
X768124Y426172D01*
X768179Y426092D01*
X768200Y426076D01*
X768217Y426056D01*
X768298Y426003D01*
X768377Y425945D01*
X768401Y425937D01*
X768423Y425923D01*
X768518Y425899D01*
X768610Y425869D01*
X768637Y425869D01*
X768662Y425863D01*
X768759Y425870D01*
X768856Y425871D01*
X768888Y425880D01*
X768907Y425882D01*
X768937Y425895D01*
X769017Y425918D01*
X769729Y426213D01*
X772193Y426213D01*
X772283Y426227D01*
X772374Y426235D01*
X772404Y426247D01*
X772436Y426252D01*
X772516Y426295D01*
X772600Y426331D01*
X772632Y426357D01*
X772653Y426368D01*
X772675Y426391D01*
X772731Y426436D01*
X819942Y473647D01*
X822546Y476251D01*
X824429Y476251D01*
X824544Y476270D01*
X824660Y476287D01*
X824666Y476289D01*
X824672Y476290D01*
X824775Y476345D01*
X824880Y476398D01*
X824884Y476403D01*
X824890Y476406D01*
X824969Y476489D01*
X825052Y476574D01*
X825056Y476580D01*
X825059Y476584D01*
X825067Y476601D01*
X825133Y476721D01*
X825751Y478213D01*
X828617Y481079D01*
X832363Y482631D01*
X836417Y482631D01*
X840163Y481079D01*
X843029Y478213D01*
X844581Y474467D01*
X844581Y470413D01*
X843029Y466667D01*
X840163Y463801D01*
X836417Y462249D01*
X832363Y462249D01*
X828617Y463801D01*
X825644Y466774D01*
X825628Y466786D01*
X825615Y466802D01*
X825553Y466841D01*
X825497Y466889D01*
X825468Y466900D01*
X825444Y466918D01*
X825425Y466924D01*
X825408Y466935D01*
X825337Y466953D01*
X825269Y466980D01*
X825238Y466981D01*
X825209Y466990D01*
X825189Y466990D01*
X825170Y466995D01*
X825096Y466989D01*
X825023Y466993D01*
X824993Y466985D01*
X824963Y466984D01*
X824945Y466977D01*
X824924Y466976D01*
X824857Y466947D01*
X824786Y466928D01*
X824760Y466910D01*
X824732Y466900D01*
X824717Y466887D01*
X824698Y466879D01*
X824604Y466804D01*
X824583Y466790D01*
X824577Y466783D01*
X824567Y466775D01*
X778480Y420687D01*
X778427Y420613D01*
X778367Y420544D01*
X778355Y420514D01*
X778336Y420488D01*
X778309Y420401D01*
X778275Y420316D01*
X778271Y420275D01*
X778264Y420253D01*
X778265Y420220D01*
X778257Y420149D01*
X778257Y417685D01*
X777174Y415071D01*
X775173Y413070D01*
X772559Y411987D01*
X769729Y411987D01*
X767115Y413070D01*
X765114Y415071D01*
X764031Y417685D01*
X764031Y420515D01*
X764326Y421227D01*
X764348Y421321D01*
X764377Y421414D01*
X764376Y421441D01*
X764382Y421466D01*
X764373Y421563D01*
X764371Y421660D01*
X764362Y421685D01*
X764359Y421711D01*
X764320Y421800D01*
X764286Y421891D01*
X764270Y421912D01*
X764259Y421936D01*
X764193Y422007D01*
X764132Y422083D01*
X764110Y422097D01*
X764093Y422117D01*
X764007Y422164D01*
X763926Y422216D01*
X763900Y422223D01*
X763877Y422235D01*
X763781Y422253D01*
X763687Y422276D01*
X763661Y422274D01*
X763635Y422279D01*
X763539Y422265D01*
X763442Y422257D01*
X763418Y422247D01*
X763392Y422243D01*
X763305Y422199D01*
X763215Y422161D01*
X763190Y422141D01*
X763173Y422132D01*
X763149Y422108D01*
X763084Y422056D01*
X722600Y381571D01*
X722547Y381497D01*
X722487Y381428D01*
X722475Y381398D01*
X722456Y381372D01*
X722429Y381285D01*
X722395Y381200D01*
X722391Y381159D01*
X722384Y381136D01*
X722385Y381104D01*
X722377Y381033D01*
X722377Y378569D01*
X721294Y375955D01*
X719511Y374172D01*
X719469Y374114D01*
X719420Y374062D01*
X719398Y374015D01*
X719368Y373973D01*
X719347Y373904D01*
X719316Y373839D01*
X719311Y373787D01*
X719295Y373737D01*
X719297Y373666D01*
X719289Y373595D01*
X719300Y373544D01*
X719302Y373492D01*
X719326Y373424D01*
X719341Y373354D01*
X719368Y373309D01*
X719386Y373261D01*
X719431Y373205D01*
X719468Y373143D01*
X719507Y373109D01*
X719540Y373069D01*
X719600Y373030D01*
X719655Y372983D01*
X719703Y372964D01*
X719747Y372936D01*
X719816Y372918D01*
X719883Y372891D01*
X719954Y372883D01*
X719985Y372875D01*
X720009Y372877D01*
X720049Y372873D01*
X805467Y372873D01*
X805557Y372887D01*
X805648Y372895D01*
X805678Y372907D01*
X805710Y372912D01*
X805790Y372955D01*
X805874Y372991D01*
X805906Y373017D01*
X805927Y373028D01*
X805949Y373051D01*
X806005Y373096D01*
X819752Y386843D01*
X827538Y386843D01*
X827608Y386854D01*
X827680Y386856D01*
X827729Y386874D01*
X827780Y386882D01*
X827844Y386916D01*
X827911Y386941D01*
X827952Y386973D01*
X827998Y386998D01*
X828047Y387050D01*
X828103Y387094D01*
X828131Y387138D01*
X828167Y387176D01*
X828197Y387241D01*
X828236Y387301D01*
X828249Y387352D01*
X828271Y387399D01*
X828279Y387470D01*
X828296Y387540D01*
X828292Y387592D01*
X828298Y387643D01*
X828283Y387714D01*
X828277Y387785D01*
X828257Y387833D01*
X828246Y387884D01*
X828209Y387945D01*
X828181Y388011D01*
X828136Y388067D01*
X828119Y388095D01*
X828102Y388110D01*
X828076Y388142D01*
X825751Y390467D01*
X824199Y394213D01*
X824199Y398267D01*
X825751Y402013D01*
X828617Y404879D01*
X832363Y406431D01*
X836417Y406431D01*
X840163Y404879D01*
X841231Y403810D01*
X841248Y403799D01*
X841260Y403783D01*
X841347Y403727D01*
X841431Y403667D01*
X841450Y403661D01*
X841467Y403650D01*
X841567Y403625D01*
X841666Y403594D01*
X841686Y403595D01*
X841706Y403590D01*
X841808Y403598D01*
X841912Y403601D01*
X841931Y403608D01*
X841951Y403609D01*
X842046Y403650D01*
X842143Y403685D01*
X842159Y403698D01*
X842177Y403706D01*
X842308Y403810D01*
X845088Y406591D01*
X845141Y406665D01*
X845201Y406734D01*
X845213Y406764D01*
X845232Y406790D01*
X845259Y406878D01*
X845293Y406962D01*
X845297Y407003D01*
X845304Y407026D01*
X845303Y407058D01*
X845311Y407129D01*
X845311Y409608D01*
X850914Y415211D01*
X850982Y415305D01*
X851052Y415399D01*
X851054Y415405D01*
X851058Y415410D01*
X851092Y415521D01*
X851098Y415541D01*
X851105Y415555D01*
X851106Y415563D01*
X851128Y415633D01*
X851128Y415639D01*
X851130Y415645D01*
X851127Y415758D01*
X851132Y415799D01*
X851126Y415823D01*
X851126Y415879D01*
X851124Y415886D01*
X851124Y415891D01*
X851117Y415909D01*
X851079Y416040D01*
X849599Y419613D01*
X849599Y423667D01*
X851151Y427413D01*
X854017Y430279D01*
X857763Y431831D01*
X861817Y431831D01*
X865563Y430279D01*
X868429Y427413D01*
X869981Y423667D01*
X869981Y419613D01*
X868429Y415867D01*
X865563Y413001D01*
X861817Y411449D01*
X858965Y411449D01*
X858875Y411435D01*
X858784Y411427D01*
X858754Y411415D01*
X858722Y411410D01*
X858642Y411367D01*
X858558Y411331D01*
X858526Y411305D01*
X858505Y411294D01*
X858483Y411271D01*
X858427Y411226D01*
X853664Y406463D01*
X853611Y406389D01*
X853551Y406320D01*
X853539Y406290D01*
X853520Y406264D01*
X853493Y406176D01*
X853459Y406092D01*
X853455Y406051D01*
X853448Y406028D01*
X853449Y405996D01*
X853441Y405925D01*
X853441Y405780D01*
X853448Y405734D01*
X853446Y405689D01*
X853468Y405614D01*
X853480Y405537D01*
X853502Y405496D01*
X853515Y405452D01*
X853559Y405388D01*
X853596Y405320D01*
X853629Y405288D01*
X853655Y405250D01*
X853718Y405204D01*
X853774Y405150D01*
X853816Y405131D01*
X853852Y405103D01*
X853926Y405079D01*
X853997Y405047D01*
X854043Y405042D01*
X854086Y405027D01*
X854164Y405028D01*
X854241Y405019D01*
X854286Y405029D01*
X854332Y405030D01*
X854464Y405068D01*
X854482Y405072D01*
X854486Y405074D01*
X854493Y405076D01*
X857763Y406431D01*
X861817Y406431D01*
X865563Y404879D01*
X868429Y402013D01*
X869981Y398267D01*
X869981Y396177D01*
X869995Y396087D01*
X870003Y395996D01*
X870015Y395966D01*
X870020Y395934D01*
X870063Y395854D01*
X870099Y395770D01*
X870125Y395737D01*
X870136Y395717D01*
X870159Y395695D01*
X870204Y395639D01*
X870428Y395415D01*
X877540Y388303D01*
X877598Y388261D01*
X877650Y388211D01*
X877697Y388189D01*
X877739Y388159D01*
X877808Y388138D01*
X877873Y388108D01*
X877925Y388102D01*
X877975Y388087D01*
X878046Y388089D01*
X878117Y388081D01*
X878168Y388092D01*
X878220Y388093D01*
X878288Y388118D01*
X878358Y388133D01*
X878403Y388160D01*
X878451Y388178D01*
X878507Y388222D01*
X878569Y388259D01*
X878603Y388299D01*
X878643Y388331D01*
X878682Y388392D01*
X878729Y388446D01*
X878748Y388494D01*
X878776Y388538D01*
X878794Y388608D01*
X878821Y388674D01*
X878829Y388746D01*
X878837Y388777D01*
X878835Y388800D01*
X878839Y388841D01*
X878839Y422689D01*
X878825Y422779D01*
X878817Y422870D01*
X878805Y422900D01*
X878800Y422932D01*
X878757Y423012D01*
X878721Y423096D01*
X878695Y423128D01*
X878684Y423149D01*
X878661Y423171D01*
X878616Y423227D01*
X864423Y437420D01*
X864329Y437488D01*
X864235Y437558D01*
X864229Y437560D01*
X864224Y437564D01*
X864113Y437598D01*
X864001Y437634D01*
X863995Y437634D01*
X863989Y437636D01*
X863872Y437633D01*
X863755Y437632D01*
X863748Y437630D01*
X863743Y437630D01*
X863725Y437623D01*
X863594Y437585D01*
X861817Y436849D01*
X857763Y436849D01*
X854017Y438401D01*
X851151Y441267D01*
X849599Y445013D01*
X849599Y449067D01*
X851151Y452813D01*
X854017Y455679D01*
X857763Y457231D01*
X861817Y457231D01*
X865563Y455679D01*
X868429Y452813D01*
X869981Y449067D01*
X869981Y445013D01*
X869691Y444314D01*
X869665Y444200D01*
X869636Y444087D01*
X869636Y444080D01*
X869635Y444074D01*
X869646Y443958D01*
X869655Y443842D01*
X869657Y443836D01*
X869658Y443829D01*
X869706Y443722D01*
X869751Y443615D01*
X869756Y443609D01*
X869758Y443605D01*
X869771Y443591D01*
X869856Y443484D01*
X886969Y426372D01*
X886969Y361536D01*
X845472Y320039D01*
X626966Y320039D01*
G37*
%LPD*%
%LPC*%
G36*
X832363Y563849D02*
X832363Y563849D01*
X828617Y565401D01*
X825751Y568267D01*
X824199Y572013D01*
X824199Y576067D01*
X825751Y579813D01*
X827314Y581376D01*
X827356Y581434D01*
X827405Y581486D01*
X827427Y581533D01*
X827457Y581575D01*
X827479Y581644D01*
X827509Y581709D01*
X827514Y581761D01*
X827530Y581811D01*
X827528Y581882D01*
X827536Y581953D01*
X827525Y582004D01*
X827523Y582056D01*
X827499Y582124D01*
X827484Y582194D01*
X827457Y582239D01*
X827439Y582287D01*
X827394Y582343D01*
X827357Y582405D01*
X827318Y582439D01*
X827285Y582479D01*
X827225Y582518D01*
X827170Y582565D01*
X827122Y582584D01*
X827078Y582612D01*
X827009Y582630D01*
X826942Y582657D01*
X826871Y582665D01*
X826840Y582673D01*
X826817Y582671D01*
X826776Y582675D01*
X705198Y582675D01*
X697801Y590072D01*
X697727Y590125D01*
X697658Y590185D01*
X697628Y590197D01*
X697602Y590216D01*
X697515Y590243D01*
X697430Y590277D01*
X697389Y590281D01*
X697366Y590288D01*
X697334Y590287D01*
X697263Y590295D01*
X692172Y590295D01*
X686815Y595652D01*
X686815Y603228D01*
X692172Y608585D01*
X699748Y608585D01*
X705105Y603228D01*
X705105Y595652D01*
X704950Y595497D01*
X704938Y595481D01*
X704923Y595469D01*
X704866Y595381D01*
X704806Y595297D01*
X704800Y595278D01*
X704790Y595262D01*
X704764Y595161D01*
X704734Y595062D01*
X704734Y595042D01*
X704730Y595023D01*
X704738Y594920D01*
X704740Y594817D01*
X704747Y594798D01*
X704749Y594778D01*
X704789Y594683D01*
X704825Y594586D01*
X704837Y594570D01*
X704845Y594552D01*
X704950Y594421D01*
X708343Y591028D01*
X708417Y590975D01*
X708486Y590915D01*
X708516Y590903D01*
X708542Y590884D01*
X708629Y590857D01*
X708714Y590823D01*
X708755Y590819D01*
X708778Y590812D01*
X708810Y590813D01*
X708881Y590805D01*
X826776Y590805D01*
X826846Y590816D01*
X826918Y590818D01*
X826967Y590836D01*
X827018Y590844D01*
X827082Y590878D01*
X827149Y590903D01*
X827190Y590935D01*
X827236Y590960D01*
X827285Y591012D01*
X827341Y591056D01*
X827369Y591100D01*
X827405Y591138D01*
X827435Y591203D01*
X827474Y591263D01*
X827487Y591314D01*
X827509Y591361D01*
X827517Y591432D01*
X827534Y591502D01*
X827530Y591554D01*
X827536Y591605D01*
X827521Y591676D01*
X827515Y591747D01*
X827495Y591795D01*
X827484Y591846D01*
X827447Y591907D01*
X827419Y591973D01*
X827374Y592029D01*
X827357Y592057D01*
X827340Y592072D01*
X827314Y592104D01*
X825751Y593667D01*
X824199Y597413D01*
X824199Y601467D01*
X825751Y605213D01*
X827060Y606522D01*
X827102Y606580D01*
X827151Y606632D01*
X827173Y606679D01*
X827203Y606721D01*
X827225Y606790D01*
X827255Y606855D01*
X827260Y606907D01*
X827276Y606957D01*
X827274Y607028D01*
X827282Y607099D01*
X827271Y607150D01*
X827269Y607202D01*
X827245Y607270D01*
X827230Y607340D01*
X827203Y607385D01*
X827185Y607433D01*
X827140Y607489D01*
X827103Y607551D01*
X827064Y607585D01*
X827031Y607625D01*
X826971Y607664D01*
X826916Y607711D01*
X826868Y607730D01*
X826824Y607758D01*
X826755Y607776D01*
X826688Y607803D01*
X826617Y607811D01*
X826586Y607819D01*
X826563Y607817D01*
X826522Y607821D01*
X822546Y607821D01*
X819975Y610392D01*
X819901Y610445D01*
X819832Y610505D01*
X819802Y610517D01*
X819776Y610536D01*
X819689Y610563D01*
X819604Y610597D01*
X819563Y610601D01*
X819540Y610608D01*
X819508Y610607D01*
X819437Y610615D01*
X660494Y610615D01*
X657890Y613219D01*
X654094Y617016D01*
X654078Y617027D01*
X654065Y617043D01*
X653978Y617099D01*
X653894Y617159D01*
X653875Y617165D01*
X653858Y617176D01*
X653758Y617201D01*
X653659Y617232D01*
X653639Y617231D01*
X653620Y617236D01*
X653517Y617228D01*
X653413Y617225D01*
X653395Y617218D01*
X653375Y617217D01*
X653280Y617176D01*
X653182Y617141D01*
X653167Y617128D01*
X653148Y617120D01*
X653017Y617016D01*
X652203Y616201D01*
X648457Y614649D01*
X644403Y614649D01*
X640657Y616201D01*
X637791Y619067D01*
X636239Y622813D01*
X636239Y626867D01*
X637791Y630613D01*
X640657Y633479D01*
X644403Y635031D01*
X648457Y635031D01*
X652203Y633479D01*
X655069Y630613D01*
X656621Y626867D01*
X656621Y626301D01*
X656635Y626211D01*
X656643Y626120D01*
X656655Y626090D01*
X656660Y626058D01*
X656703Y625978D01*
X656739Y625894D01*
X656765Y625862D01*
X656776Y625841D01*
X656799Y625819D01*
X656844Y625763D01*
X663639Y618968D01*
X663713Y618915D01*
X663782Y618855D01*
X663812Y618843D01*
X663838Y618824D01*
X663925Y618797D01*
X664010Y618763D01*
X664051Y618759D01*
X664074Y618752D01*
X664106Y618753D01*
X664177Y618745D01*
X823120Y618745D01*
X825691Y616174D01*
X825765Y616121D01*
X825834Y616061D01*
X825864Y616049D01*
X825890Y616030D01*
X825977Y616003D01*
X826062Y615969D01*
X826103Y615965D01*
X826126Y615958D01*
X826158Y615959D01*
X826229Y615951D01*
X827030Y615951D01*
X827100Y615962D01*
X827172Y615964D01*
X827221Y615982D01*
X827272Y615990D01*
X827336Y616024D01*
X827403Y616049D01*
X827444Y616081D01*
X827490Y616106D01*
X827539Y616158D01*
X827595Y616202D01*
X827623Y616246D01*
X827659Y616284D01*
X827689Y616349D01*
X827728Y616409D01*
X827741Y616460D01*
X827763Y616507D01*
X827771Y616578D01*
X827788Y616648D01*
X827784Y616700D01*
X827790Y616751D01*
X827775Y616822D01*
X827769Y616893D01*
X827749Y616941D01*
X827738Y616992D01*
X827701Y617053D01*
X827673Y617119D01*
X827628Y617175D01*
X827611Y617203D01*
X827597Y617215D01*
X827594Y617220D01*
X827587Y617226D01*
X827568Y617250D01*
X825751Y619067D01*
X824199Y622813D01*
X824199Y626867D01*
X825751Y630613D01*
X826806Y631668D01*
X826848Y631726D01*
X826897Y631778D01*
X826919Y631825D01*
X826949Y631867D01*
X826971Y631936D01*
X827001Y632001D01*
X827006Y632053D01*
X827022Y632103D01*
X827020Y632174D01*
X827028Y632245D01*
X827017Y632296D01*
X827015Y632348D01*
X826991Y632416D01*
X826976Y632486D01*
X826949Y632531D01*
X826931Y632579D01*
X826886Y632635D01*
X826849Y632697D01*
X826810Y632731D01*
X826777Y632771D01*
X826717Y632810D01*
X826662Y632857D01*
X826614Y632876D01*
X826570Y632904D01*
X826501Y632922D01*
X826434Y632949D01*
X826363Y632957D01*
X826332Y632965D01*
X826309Y632963D01*
X826268Y632967D01*
X822546Y632967D01*
X808799Y646714D01*
X808725Y646767D01*
X808656Y646827D01*
X808626Y646839D01*
X808600Y646858D01*
X808513Y646885D01*
X808428Y646919D01*
X808387Y646923D01*
X808364Y646930D01*
X808332Y646929D01*
X808261Y646937D01*
X657382Y646937D01*
X657362Y646934D01*
X657343Y646936D01*
X657241Y646914D01*
X657139Y646898D01*
X657122Y646888D01*
X657102Y646884D01*
X657013Y646831D01*
X656922Y646782D01*
X656908Y646768D01*
X656891Y646758D01*
X656824Y646679D01*
X656752Y646604D01*
X656744Y646586D01*
X656731Y646571D01*
X656692Y646475D01*
X656649Y646381D01*
X656647Y646361D01*
X656639Y646343D01*
X656621Y646176D01*
X656621Y641538D01*
X655132Y640049D01*
X637728Y640049D01*
X636239Y641538D01*
X636239Y658942D01*
X637728Y660431D01*
X655132Y660431D01*
X656621Y658942D01*
X656621Y655828D01*
X656624Y655808D01*
X656622Y655789D01*
X656644Y655687D01*
X656660Y655585D01*
X656670Y655568D01*
X656674Y655548D01*
X656727Y655459D01*
X656776Y655368D01*
X656790Y655354D01*
X656800Y655337D01*
X656879Y655270D01*
X656954Y655198D01*
X656972Y655190D01*
X656987Y655177D01*
X657083Y655138D01*
X657177Y655095D01*
X657197Y655093D01*
X657215Y655085D01*
X657382Y655067D01*
X811944Y655067D01*
X825691Y641320D01*
X825765Y641267D01*
X825834Y641207D01*
X825864Y641195D01*
X825890Y641176D01*
X825977Y641149D01*
X826062Y641115D01*
X826103Y641111D01*
X826126Y641104D01*
X826158Y641105D01*
X826229Y641097D01*
X827284Y641097D01*
X827354Y641108D01*
X827426Y641110D01*
X827475Y641128D01*
X827526Y641136D01*
X827590Y641170D01*
X827657Y641195D01*
X827698Y641227D01*
X827744Y641252D01*
X827793Y641304D01*
X827849Y641348D01*
X827877Y641392D01*
X827913Y641430D01*
X827943Y641495D01*
X827982Y641555D01*
X827995Y641606D01*
X828017Y641653D01*
X828025Y641724D01*
X828042Y641794D01*
X828038Y641846D01*
X828044Y641897D01*
X828029Y641968D01*
X828023Y642039D01*
X828003Y642087D01*
X827992Y642138D01*
X827955Y642199D01*
X827927Y642265D01*
X827882Y642321D01*
X827865Y642349D01*
X827848Y642364D01*
X827822Y642396D01*
X825751Y644467D01*
X824199Y648213D01*
X824199Y652267D01*
X824414Y652787D01*
X824441Y652900D01*
X824470Y653014D01*
X824469Y653020D01*
X824471Y653026D01*
X824460Y653142D01*
X824451Y653259D01*
X824448Y653265D01*
X824448Y653271D01*
X824400Y653379D01*
X824354Y653485D01*
X824350Y653491D01*
X824348Y653496D01*
X824335Y653510D01*
X824249Y653616D01*
X814387Y663478D01*
X814313Y663531D01*
X814244Y663591D01*
X814214Y663603D01*
X814188Y663622D01*
X814101Y663649D01*
X814016Y663683D01*
X813975Y663687D01*
X813952Y663694D01*
X813920Y663693D01*
X813849Y663701D01*
X463009Y663701D01*
X462919Y663687D01*
X462828Y663679D01*
X462798Y663667D01*
X462766Y663662D01*
X462686Y663619D01*
X462602Y663583D01*
X462570Y663557D01*
X462549Y663546D01*
X462527Y663523D01*
X462471Y663478D01*
X453147Y654155D01*
X453079Y654060D01*
X453009Y653966D01*
X453007Y653960D01*
X453004Y653955D01*
X452969Y653844D01*
X452933Y653732D01*
X452933Y653726D01*
X452931Y653720D01*
X452934Y653603D01*
X452936Y653486D01*
X452938Y653479D01*
X452938Y653474D01*
X452944Y653457D01*
X452982Y653325D01*
X453421Y652267D01*
X453421Y648213D01*
X451869Y644467D01*
X449003Y641601D01*
X445257Y640049D01*
X441203Y640049D01*
X437457Y641601D01*
X434591Y644467D01*
X433039Y648213D01*
X433039Y652267D01*
X434591Y656013D01*
X437457Y658879D01*
X441203Y660431D01*
X445257Y660431D01*
X446675Y659844D01*
X446788Y659817D01*
X446902Y659788D01*
X446908Y659789D01*
X446914Y659787D01*
X447031Y659798D01*
X447147Y659807D01*
X447153Y659810D01*
X447159Y659810D01*
X447266Y659858D01*
X447373Y659904D01*
X447379Y659908D01*
X447384Y659910D01*
X447397Y659923D01*
X447504Y660009D01*
X456722Y669227D01*
X459326Y671831D01*
X817532Y671831D01*
X829577Y659785D01*
X829671Y659718D01*
X829766Y659647D01*
X829772Y659645D01*
X829777Y659642D01*
X829888Y659608D01*
X830000Y659571D01*
X830006Y659571D01*
X830012Y659569D01*
X830129Y659573D01*
X830245Y659574D01*
X830253Y659576D01*
X830258Y659576D01*
X830275Y659582D01*
X830407Y659620D01*
X832363Y660431D01*
X836417Y660431D01*
X840163Y658879D01*
X843029Y656013D01*
X844581Y652267D01*
X844581Y648213D01*
X843001Y644399D01*
X842960Y644342D01*
X842954Y644323D01*
X842943Y644306D01*
X842918Y644206D01*
X842888Y644107D01*
X842888Y644087D01*
X842883Y644067D01*
X842891Y643965D01*
X842894Y643861D01*
X842901Y643842D01*
X842902Y643822D01*
X842943Y643727D01*
X842978Y643630D01*
X842991Y643614D01*
X842999Y643596D01*
X843103Y643465D01*
X844647Y641922D01*
X844663Y641910D01*
X844675Y641894D01*
X844763Y641838D01*
X844846Y641778D01*
X844865Y641772D01*
X844882Y641761D01*
X844983Y641736D01*
X845082Y641706D01*
X845101Y641706D01*
X845121Y641701D01*
X845224Y641709D01*
X845327Y641712D01*
X845346Y641719D01*
X845366Y641721D01*
X845461Y641761D01*
X845558Y641797D01*
X845574Y641809D01*
X845592Y641817D01*
X845723Y641922D01*
X849947Y646145D01*
X850015Y646239D01*
X850085Y646334D01*
X850087Y646340D01*
X850091Y646345D01*
X850125Y646456D01*
X850161Y646568D01*
X850161Y646574D01*
X850163Y646580D01*
X850160Y646697D01*
X850159Y646814D01*
X850157Y646821D01*
X850157Y646826D01*
X850150Y646844D01*
X850112Y646975D01*
X849599Y648213D01*
X849599Y652267D01*
X851151Y656013D01*
X854017Y658879D01*
X857763Y660431D01*
X861817Y660431D01*
X865563Y658879D01*
X868429Y656013D01*
X869981Y652267D01*
X869981Y648213D01*
X868429Y644467D01*
X865563Y641601D01*
X861817Y640049D01*
X857763Y640049D01*
X856525Y640562D01*
X856411Y640589D01*
X856298Y640617D01*
X856292Y640617D01*
X856286Y640618D01*
X856169Y640607D01*
X856053Y640598D01*
X856047Y640596D01*
X856041Y640595D01*
X855933Y640547D01*
X855826Y640502D01*
X855821Y640497D01*
X855816Y640495D01*
X855802Y640482D01*
X855695Y640397D01*
X848266Y632967D01*
X842512Y632967D01*
X842442Y632956D01*
X842370Y632954D01*
X842321Y632936D01*
X842270Y632928D01*
X842206Y632894D01*
X842139Y632869D01*
X842098Y632837D01*
X842052Y632812D01*
X842003Y632760D01*
X841947Y632716D01*
X841919Y632672D01*
X841883Y632634D01*
X841853Y632569D01*
X841814Y632509D01*
X841801Y632458D01*
X841779Y632411D01*
X841771Y632340D01*
X841754Y632270D01*
X841758Y632218D01*
X841752Y632167D01*
X841767Y632096D01*
X841773Y632025D01*
X841793Y631977D01*
X841804Y631926D01*
X841841Y631865D01*
X841869Y631799D01*
X841914Y631743D01*
X841931Y631715D01*
X841948Y631700D01*
X841974Y631668D01*
X843029Y630613D01*
X844581Y626867D01*
X844581Y622813D01*
X844489Y622591D01*
X844478Y622547D01*
X844459Y622505D01*
X844451Y622428D01*
X844433Y622352D01*
X844437Y622306D01*
X844432Y622261D01*
X844449Y622184D01*
X844456Y622107D01*
X844474Y622065D01*
X844484Y622020D01*
X844524Y621953D01*
X844556Y621882D01*
X844587Y621848D01*
X844610Y621809D01*
X844670Y621758D01*
X844722Y621701D01*
X844762Y621679D01*
X844797Y621649D01*
X844870Y621620D01*
X844938Y621583D01*
X844983Y621574D01*
X845025Y621557D01*
X845161Y621542D01*
X845180Y621539D01*
X845185Y621540D01*
X845192Y621539D01*
X848988Y621539D01*
X849033Y621546D01*
X849079Y621544D01*
X849154Y621566D01*
X849231Y621578D01*
X849271Y621600D01*
X849315Y621613D01*
X849379Y621657D01*
X849448Y621694D01*
X849480Y621727D01*
X849517Y621753D01*
X849564Y621815D01*
X849617Y621872D01*
X849637Y621914D01*
X849664Y621950D01*
X849688Y622024D01*
X849721Y622095D01*
X849726Y622141D01*
X849740Y622184D01*
X849739Y622262D01*
X849748Y622339D01*
X849738Y622384D01*
X849738Y622430D01*
X849700Y622562D01*
X849696Y622580D01*
X849693Y622584D01*
X849691Y622591D01*
X849599Y622813D01*
X849599Y626867D01*
X851151Y630613D01*
X854017Y633479D01*
X857763Y635031D01*
X861817Y635031D01*
X865563Y633479D01*
X868429Y630613D01*
X869981Y626867D01*
X869981Y622813D01*
X868429Y619067D01*
X865563Y616201D01*
X861817Y614649D01*
X857763Y614649D01*
X856345Y615236D01*
X856232Y615263D01*
X856118Y615292D01*
X856112Y615291D01*
X856106Y615293D01*
X855989Y615282D01*
X855873Y615273D01*
X855867Y615270D01*
X855861Y615270D01*
X855754Y615222D01*
X855647Y615176D01*
X855641Y615172D01*
X855636Y615170D01*
X855623Y615157D01*
X855516Y615071D01*
X853854Y613409D01*
X845787Y613409D01*
X845697Y613395D01*
X845606Y613387D01*
X845576Y613375D01*
X845544Y613370D01*
X845464Y613327D01*
X845380Y613291D01*
X845348Y613265D01*
X845327Y613254D01*
X845305Y613231D01*
X845249Y613186D01*
X840690Y608628D01*
X840679Y608612D01*
X840663Y608599D01*
X840607Y608512D01*
X840547Y608428D01*
X840541Y608409D01*
X840530Y608392D01*
X840505Y608292D01*
X840474Y608193D01*
X840475Y608173D01*
X840470Y608154D01*
X840478Y608051D01*
X840481Y607947D01*
X840488Y607929D01*
X840489Y607909D01*
X840530Y607814D01*
X840565Y607716D01*
X840578Y607701D01*
X840586Y607682D01*
X840690Y607551D01*
X843029Y605213D01*
X844581Y601467D01*
X844581Y597413D01*
X843437Y594651D01*
X843426Y594607D01*
X843407Y594565D01*
X843398Y594488D01*
X843381Y594412D01*
X843385Y594366D01*
X843380Y594321D01*
X843396Y594244D01*
X843404Y594167D01*
X843422Y594125D01*
X843432Y594080D01*
X843472Y594013D01*
X843504Y593942D01*
X843535Y593908D01*
X843558Y593869D01*
X843617Y593818D01*
X843670Y593761D01*
X843710Y593739D01*
X843745Y593709D01*
X843817Y593680D01*
X843886Y593643D01*
X843931Y593634D01*
X843973Y593617D01*
X844109Y593602D01*
X844128Y593599D01*
X844133Y593600D01*
X844140Y593599D01*
X847377Y593599D01*
X847467Y593613D01*
X847558Y593621D01*
X847588Y593633D01*
X847620Y593638D01*
X847700Y593681D01*
X847784Y593717D01*
X847817Y593743D01*
X847837Y593754D01*
X847859Y593777D01*
X847915Y593822D01*
X849798Y595705D01*
X849866Y595799D01*
X849936Y595893D01*
X849938Y595899D01*
X849942Y595904D01*
X849976Y596015D01*
X850012Y596127D01*
X850012Y596133D01*
X850014Y596139D01*
X850011Y596256D01*
X850010Y596373D01*
X850008Y596380D01*
X850008Y596385D01*
X850001Y596403D01*
X849963Y596534D01*
X849599Y597413D01*
X849599Y601467D01*
X851151Y605213D01*
X854017Y608079D01*
X857763Y609631D01*
X861817Y609631D01*
X862696Y609267D01*
X862809Y609240D01*
X862923Y609212D01*
X862929Y609212D01*
X862935Y609211D01*
X863052Y609222D01*
X863168Y609231D01*
X863174Y609233D01*
X863180Y609234D01*
X863288Y609282D01*
X863394Y609327D01*
X863400Y609332D01*
X863405Y609334D01*
X863419Y609346D01*
X863525Y609432D01*
X873028Y618935D01*
X873081Y619009D01*
X873141Y619078D01*
X873153Y619108D01*
X873172Y619134D01*
X873199Y619221D01*
X873233Y619306D01*
X873237Y619347D01*
X873244Y619370D01*
X873243Y619402D01*
X873251Y619473D01*
X873251Y707677D01*
X873237Y707767D01*
X873229Y707858D01*
X873217Y707888D01*
X873212Y707920D01*
X873169Y708000D01*
X873133Y708084D01*
X873107Y708116D01*
X873096Y708137D01*
X873073Y708159D01*
X873028Y708215D01*
X864423Y716820D01*
X864329Y716888D01*
X864235Y716958D01*
X864229Y716960D01*
X864224Y716964D01*
X864113Y716998D01*
X864001Y717034D01*
X863995Y717034D01*
X863989Y717036D01*
X863872Y717033D01*
X863755Y717032D01*
X863748Y717030D01*
X863743Y717030D01*
X863725Y717023D01*
X863594Y716985D01*
X861817Y716249D01*
X857763Y716249D01*
X854017Y717801D01*
X851151Y720667D01*
X849599Y724413D01*
X849599Y728467D01*
X851151Y732213D01*
X854017Y735079D01*
X857763Y736631D01*
X861817Y736631D01*
X865563Y735079D01*
X868429Y732213D01*
X869981Y728467D01*
X869981Y724413D01*
X869691Y723714D01*
X869665Y723600D01*
X869636Y723487D01*
X869636Y723480D01*
X869635Y723474D01*
X869646Y723358D01*
X869655Y723242D01*
X869657Y723236D01*
X869658Y723229D01*
X869706Y723122D01*
X869751Y723015D01*
X869756Y723009D01*
X869758Y723005D01*
X869771Y722991D01*
X869856Y722884D01*
X881381Y711360D01*
X881381Y615790D01*
X878777Y613186D01*
X869484Y603894D01*
X869416Y603798D01*
X869346Y603705D01*
X869344Y603699D01*
X869341Y603694D01*
X869306Y603582D01*
X869270Y603471D01*
X869270Y603465D01*
X869268Y603459D01*
X869271Y603342D01*
X869272Y603225D01*
X869275Y603218D01*
X869275Y603213D01*
X869281Y603196D01*
X869319Y603064D01*
X869981Y601467D01*
X869981Y597413D01*
X868429Y593667D01*
X865563Y590801D01*
X861817Y589249D01*
X857763Y589249D01*
X856166Y589911D01*
X856052Y589938D01*
X855939Y589966D01*
X855932Y589966D01*
X855926Y589967D01*
X855810Y589956D01*
X855693Y589947D01*
X855688Y589945D01*
X855681Y589944D01*
X855574Y589896D01*
X855467Y589851D01*
X855461Y589846D01*
X855457Y589844D01*
X855443Y589831D01*
X855336Y589746D01*
X851060Y585469D01*
X845787Y585469D01*
X845697Y585455D01*
X845606Y585447D01*
X845576Y585435D01*
X845544Y585430D01*
X845464Y585387D01*
X845380Y585351D01*
X845348Y585325D01*
X845327Y585314D01*
X845305Y585291D01*
X845249Y585246D01*
X842678Y582675D01*
X842004Y582675D01*
X841934Y582664D01*
X841862Y582662D01*
X841813Y582644D01*
X841762Y582636D01*
X841698Y582602D01*
X841631Y582577D01*
X841590Y582545D01*
X841544Y582520D01*
X841495Y582468D01*
X841439Y582424D01*
X841411Y582380D01*
X841375Y582342D01*
X841345Y582277D01*
X841306Y582217D01*
X841293Y582166D01*
X841271Y582119D01*
X841263Y582048D01*
X841246Y581978D01*
X841250Y581926D01*
X841244Y581875D01*
X841259Y581804D01*
X841265Y581733D01*
X841285Y581685D01*
X841296Y581634D01*
X841333Y581573D01*
X841361Y581507D01*
X841406Y581451D01*
X841423Y581423D01*
X841440Y581408D01*
X841466Y581376D01*
X843029Y579813D01*
X844581Y576067D01*
X844581Y572013D01*
X843029Y568267D01*
X840163Y565401D01*
X836417Y563849D01*
X832363Y563849D01*
G37*
%LPD*%
G36*
X471534Y479020D02*
X471534Y479020D01*
X471605Y479026D01*
X471653Y479046D01*
X471704Y479057D01*
X471765Y479094D01*
X471831Y479122D01*
X471887Y479167D01*
X471915Y479184D01*
X471930Y479201D01*
X471962Y479227D01*
X473745Y481010D01*
X476359Y482093D01*
X478823Y482093D01*
X478913Y482107D01*
X479004Y482115D01*
X479034Y482127D01*
X479066Y482132D01*
X479146Y482175D01*
X479230Y482211D01*
X479262Y482237D01*
X479283Y482248D01*
X479305Y482271D01*
X479361Y482316D01*
X512412Y515367D01*
X638054Y515367D01*
X638124Y515378D01*
X638196Y515380D01*
X638245Y515398D01*
X638296Y515406D01*
X638360Y515440D01*
X638427Y515465D01*
X638468Y515497D01*
X638514Y515522D01*
X638563Y515574D01*
X638619Y515618D01*
X638647Y515662D01*
X638683Y515700D01*
X638713Y515765D01*
X638752Y515825D01*
X638765Y515876D01*
X638787Y515923D01*
X638795Y515994D01*
X638812Y516064D01*
X638808Y516116D01*
X638814Y516167D01*
X638799Y516238D01*
X638793Y516309D01*
X638773Y516357D01*
X638762Y516408D01*
X638725Y516469D01*
X638697Y516535D01*
X638652Y516591D01*
X638635Y516619D01*
X638618Y516634D01*
X638592Y516666D01*
X637791Y517467D01*
X636239Y521213D01*
X636239Y525267D01*
X637791Y529013D01*
X640657Y531879D01*
X644403Y533431D01*
X648457Y533431D01*
X652203Y531879D01*
X655069Y529013D01*
X656621Y525267D01*
X656621Y521213D01*
X655069Y517467D01*
X653365Y515764D01*
X653354Y515747D01*
X653338Y515735D01*
X653282Y515648D01*
X653222Y515564D01*
X653216Y515545D01*
X653205Y515528D01*
X653180Y515428D01*
X653149Y515329D01*
X653150Y515309D01*
X653145Y515289D01*
X653153Y515187D01*
X653156Y515083D01*
X653163Y515064D01*
X653164Y515044D01*
X653205Y514949D01*
X653240Y514852D01*
X653253Y514836D01*
X653261Y514818D01*
X653365Y514687D01*
X655257Y512796D01*
X655331Y512743D01*
X655400Y512683D01*
X655430Y512671D01*
X655456Y512652D01*
X655544Y512625D01*
X655628Y512591D01*
X655669Y512587D01*
X655692Y512580D01*
X655724Y512581D01*
X655795Y512573D01*
X661068Y512573D01*
X663672Y509969D01*
X666179Y507462D01*
X666253Y507409D01*
X666322Y507349D01*
X666352Y507337D01*
X666378Y507318D01*
X666465Y507291D01*
X666550Y507257D01*
X666591Y507253D01*
X666613Y507246D01*
X666646Y507247D01*
X666717Y507239D01*
X669181Y507239D01*
X671795Y506156D01*
X673796Y504155D01*
X674879Y501541D01*
X674879Y498711D01*
X674584Y497999D01*
X674562Y497905D01*
X674533Y497812D01*
X674534Y497785D01*
X674528Y497760D01*
X674537Y497663D01*
X674539Y497566D01*
X674548Y497541D01*
X674551Y497515D01*
X674590Y497426D01*
X674624Y497335D01*
X674640Y497314D01*
X674651Y497290D01*
X674717Y497219D01*
X674778Y497143D01*
X674800Y497129D01*
X674817Y497109D01*
X674903Y497062D01*
X674984Y497010D01*
X675010Y497003D01*
X675033Y496991D01*
X675129Y496973D01*
X675223Y496950D01*
X675249Y496952D01*
X675275Y496947D01*
X675371Y496961D01*
X675468Y496969D01*
X675492Y496979D01*
X675518Y496983D01*
X675605Y497027D01*
X675695Y497065D01*
X675720Y497085D01*
X675737Y497094D01*
X675761Y497118D01*
X675826Y497170D01*
X688624Y509969D01*
X691228Y512573D01*
X825025Y512573D01*
X825115Y512587D01*
X825206Y512595D01*
X825236Y512607D01*
X825268Y512612D01*
X825348Y512655D01*
X825432Y512691D01*
X825465Y512717D01*
X825485Y512728D01*
X825507Y512751D01*
X825563Y512796D01*
X827455Y514687D01*
X827466Y514703D01*
X827482Y514716D01*
X827538Y514803D01*
X827598Y514887D01*
X827604Y514906D01*
X827615Y514923D01*
X827640Y515023D01*
X827671Y515122D01*
X827670Y515142D01*
X827675Y515161D01*
X827667Y515264D01*
X827664Y515368D01*
X827657Y515386D01*
X827656Y515406D01*
X827615Y515501D01*
X827580Y515599D01*
X827567Y515614D01*
X827559Y515633D01*
X827455Y515764D01*
X825751Y517467D01*
X824199Y521213D01*
X824199Y525267D01*
X825751Y529013D01*
X827822Y531084D01*
X827864Y531142D01*
X827913Y531194D01*
X827935Y531241D01*
X827965Y531283D01*
X827987Y531352D01*
X828017Y531417D01*
X828022Y531469D01*
X828038Y531519D01*
X828036Y531590D01*
X828044Y531661D01*
X828033Y531712D01*
X828031Y531764D01*
X828007Y531832D01*
X827992Y531902D01*
X827965Y531947D01*
X827947Y531995D01*
X827902Y532051D01*
X827865Y532113D01*
X827826Y532147D01*
X827793Y532187D01*
X827733Y532226D01*
X827678Y532273D01*
X827630Y532292D01*
X827586Y532320D01*
X827517Y532338D01*
X827450Y532365D01*
X827379Y532373D01*
X827348Y532381D01*
X827325Y532379D01*
X827284Y532383D01*
X657700Y532383D01*
X651063Y539020D01*
X650969Y539088D01*
X650875Y539158D01*
X650869Y539160D01*
X650864Y539164D01*
X650753Y539198D01*
X650641Y539234D01*
X650635Y539234D01*
X650629Y539236D01*
X650512Y539233D01*
X650395Y539232D01*
X650388Y539230D01*
X650383Y539230D01*
X650365Y539223D01*
X650234Y539185D01*
X648457Y538449D01*
X644403Y538449D01*
X640657Y540001D01*
X637791Y542867D01*
X636239Y546613D01*
X636239Y550667D01*
X636331Y550889D01*
X636342Y550933D01*
X636361Y550975D01*
X636369Y551052D01*
X636387Y551128D01*
X636383Y551174D01*
X636388Y551219D01*
X636371Y551296D01*
X636364Y551373D01*
X636346Y551415D01*
X636336Y551460D01*
X636296Y551527D01*
X636264Y551598D01*
X636233Y551632D01*
X636210Y551671D01*
X636150Y551722D01*
X636098Y551779D01*
X636058Y551801D01*
X636023Y551831D01*
X635950Y551860D01*
X635882Y551897D01*
X635837Y551906D01*
X635795Y551923D01*
X635659Y551938D01*
X635640Y551941D01*
X635635Y551940D01*
X635628Y551941D01*
X635348Y551941D01*
X632777Y554512D01*
X632703Y554565D01*
X632634Y554625D01*
X632604Y554637D01*
X632578Y554656D01*
X632491Y554683D01*
X632406Y554717D01*
X632365Y554721D01*
X632342Y554728D01*
X632310Y554727D01*
X632239Y554735D01*
X502125Y554735D01*
X502035Y554721D01*
X501944Y554713D01*
X501914Y554701D01*
X501882Y554696D01*
X501802Y554653D01*
X501718Y554617D01*
X501686Y554591D01*
X501665Y554580D01*
X501643Y554557D01*
X501587Y554512D01*
X470886Y523811D01*
X470833Y523737D01*
X470773Y523668D01*
X470761Y523638D01*
X470742Y523612D01*
X470715Y523525D01*
X470681Y523440D01*
X470677Y523399D01*
X470670Y523376D01*
X470671Y523344D01*
X470663Y523273D01*
X470663Y479765D01*
X470674Y479695D01*
X470676Y479623D01*
X470694Y479574D01*
X470702Y479523D01*
X470736Y479459D01*
X470761Y479392D01*
X470793Y479351D01*
X470818Y479305D01*
X470870Y479256D01*
X470914Y479200D01*
X470958Y479172D01*
X470996Y479136D01*
X471061Y479106D01*
X471121Y479067D01*
X471172Y479054D01*
X471219Y479032D01*
X471290Y479024D01*
X471360Y479007D01*
X471412Y479011D01*
X471463Y479005D01*
X471534Y479020D01*
G37*
%LPC*%
G36*
X115933Y403605D02*
X115933Y403605D01*
X113319Y404688D01*
X111318Y406689D01*
X110235Y409303D01*
X110235Y411767D01*
X110221Y411857D01*
X110213Y411948D01*
X110201Y411978D01*
X110196Y412010D01*
X110153Y412090D01*
X110117Y412174D01*
X110091Y412206D01*
X110080Y412227D01*
X110057Y412249D01*
X110012Y412305D01*
X102107Y420210D01*
X102107Y566072D01*
X121252Y585217D01*
X158148Y585217D01*
X160752Y582613D01*
X169989Y573376D01*
X170083Y573308D01*
X170177Y573238D01*
X170183Y573236D01*
X170188Y573232D01*
X170300Y573198D01*
X170411Y573162D01*
X170418Y573162D01*
X170424Y573160D01*
X170540Y573163D01*
X170657Y573164D01*
X170664Y573166D01*
X170669Y573166D01*
X170687Y573172D01*
X170818Y573211D01*
X170963Y573271D01*
X174477Y573271D01*
X177722Y571926D01*
X180206Y569442D01*
X181551Y566197D01*
X181551Y562683D01*
X180206Y559438D01*
X177722Y556954D01*
X174477Y555609D01*
X170963Y555609D01*
X167718Y556954D01*
X165234Y559438D01*
X163889Y562683D01*
X163889Y566197D01*
X164217Y566987D01*
X164225Y567025D01*
X164234Y567043D01*
X164238Y567078D01*
X164243Y567100D01*
X164272Y567214D01*
X164271Y567220D01*
X164273Y567226D01*
X164262Y567342D01*
X164253Y567459D01*
X164250Y567465D01*
X164250Y567471D01*
X164202Y567578D01*
X164156Y567685D01*
X164152Y567691D01*
X164150Y567696D01*
X164137Y567709D01*
X164051Y567816D01*
X155003Y576864D01*
X154929Y576917D01*
X154860Y576977D01*
X154830Y576989D01*
X154804Y577008D01*
X154717Y577035D01*
X154632Y577069D01*
X154591Y577073D01*
X154568Y577080D01*
X154536Y577079D01*
X154465Y577087D01*
X124935Y577087D01*
X124845Y577073D01*
X124754Y577065D01*
X124724Y577053D01*
X124692Y577048D01*
X124612Y577005D01*
X124528Y576969D01*
X124496Y576943D01*
X124475Y576932D01*
X124453Y576909D01*
X124397Y576864D01*
X110460Y562927D01*
X110407Y562853D01*
X110347Y562784D01*
X110335Y562754D01*
X110316Y562728D01*
X110289Y562641D01*
X110255Y562556D01*
X110251Y562515D01*
X110244Y562492D01*
X110245Y562460D01*
X110237Y562389D01*
X110237Y440649D01*
X110248Y440579D01*
X110250Y440507D01*
X110268Y440458D01*
X110276Y440407D01*
X110310Y440343D01*
X110335Y440276D01*
X110367Y440235D01*
X110392Y440189D01*
X110444Y440140D01*
X110488Y440084D01*
X110532Y440056D01*
X110570Y440020D01*
X110635Y439990D01*
X110695Y439951D01*
X110746Y439938D01*
X110793Y439916D01*
X110864Y439908D01*
X110934Y439891D01*
X110986Y439895D01*
X111037Y439889D01*
X111108Y439904D01*
X111179Y439910D01*
X111227Y439930D01*
X111278Y439941D01*
X111339Y439978D01*
X111405Y440006D01*
X111461Y440051D01*
X111489Y440068D01*
X111504Y440085D01*
X111536Y440111D01*
X113319Y441894D01*
X115933Y442977D01*
X118763Y442977D01*
X121377Y441894D01*
X123119Y440152D01*
X123193Y440099D01*
X123263Y440039D01*
X123293Y440027D01*
X123319Y440008D01*
X123406Y439981D01*
X123491Y439947D01*
X123532Y439943D01*
X123554Y439936D01*
X123586Y439937D01*
X123658Y439929D01*
X255049Y439929D01*
X255139Y439943D01*
X255230Y439951D01*
X255260Y439963D01*
X255292Y439968D01*
X255372Y440011D01*
X255456Y440047D01*
X255489Y440073D01*
X255509Y440084D01*
X255531Y440107D01*
X255587Y440152D01*
X259099Y443664D01*
X259168Y443759D01*
X259237Y443853D01*
X259239Y443858D01*
X259243Y443864D01*
X259277Y443975D01*
X259314Y444086D01*
X259314Y444093D01*
X259315Y444099D01*
X259312Y444215D01*
X259311Y444332D01*
X259309Y444340D01*
X259309Y444345D01*
X259303Y444362D01*
X259264Y444493D01*
X259049Y445013D01*
X259049Y449067D01*
X260601Y452813D01*
X263467Y455679D01*
X267213Y457231D01*
X271267Y457231D01*
X275013Y455679D01*
X277879Y452813D01*
X279431Y449067D01*
X279431Y445013D01*
X277879Y441267D01*
X275013Y438401D01*
X271267Y436849D01*
X267213Y436849D01*
X265257Y437660D01*
X265143Y437686D01*
X265029Y437715D01*
X265023Y437714D01*
X265017Y437716D01*
X264901Y437705D01*
X264784Y437696D01*
X264779Y437693D01*
X264772Y437693D01*
X264665Y437645D01*
X264558Y437599D01*
X264552Y437595D01*
X264548Y437593D01*
X264534Y437580D01*
X264427Y437495D01*
X261336Y434403D01*
X258732Y431799D01*
X123658Y431799D01*
X123567Y431785D01*
X123477Y431777D01*
X123447Y431765D01*
X123415Y431760D01*
X123334Y431717D01*
X123250Y431681D01*
X123218Y431655D01*
X123197Y431644D01*
X123175Y431621D01*
X123119Y431576D01*
X121377Y429834D01*
X118763Y428751D01*
X115933Y428751D01*
X113319Y429834D01*
X111536Y431617D01*
X111478Y431659D01*
X111426Y431708D01*
X111379Y431730D01*
X111337Y431760D01*
X111268Y431781D01*
X111203Y431812D01*
X111151Y431817D01*
X111101Y431833D01*
X111030Y431831D01*
X110959Y431839D01*
X110908Y431828D01*
X110856Y431826D01*
X110788Y431802D01*
X110718Y431787D01*
X110673Y431760D01*
X110625Y431742D01*
X110569Y431697D01*
X110507Y431660D01*
X110473Y431621D01*
X110433Y431588D01*
X110394Y431528D01*
X110347Y431473D01*
X110328Y431425D01*
X110300Y431381D01*
X110282Y431312D01*
X110255Y431245D01*
X110247Y431174D01*
X110239Y431143D01*
X110241Y431119D01*
X110237Y431079D01*
X110237Y423893D01*
X110251Y423803D01*
X110259Y423712D01*
X110271Y423682D01*
X110276Y423650D01*
X110319Y423570D01*
X110355Y423486D01*
X110381Y423454D01*
X110392Y423433D01*
X110415Y423411D01*
X110460Y423355D01*
X115761Y418054D01*
X115835Y418001D01*
X115904Y417941D01*
X115934Y417929D01*
X115960Y417910D01*
X116047Y417883D01*
X116132Y417849D01*
X116173Y417845D01*
X116196Y417838D01*
X116228Y417839D01*
X116299Y417831D01*
X118763Y417831D01*
X121377Y416748D01*
X123119Y415006D01*
X123193Y414953D01*
X123263Y414893D01*
X123293Y414881D01*
X123319Y414862D01*
X123406Y414835D01*
X123491Y414801D01*
X123532Y414797D01*
X123554Y414790D01*
X123586Y414791D01*
X123658Y414783D01*
X249461Y414783D01*
X249551Y414797D01*
X249642Y414805D01*
X249672Y414817D01*
X249704Y414822D01*
X249784Y414865D01*
X249868Y414901D01*
X249900Y414927D01*
X249921Y414938D01*
X249943Y414961D01*
X249999Y415006D01*
X258348Y423355D01*
X259217Y424223D01*
X259255Y424277D01*
X259301Y424323D01*
X259341Y424396D01*
X259361Y424423D01*
X259366Y424442D01*
X259382Y424470D01*
X260601Y427413D01*
X263467Y430279D01*
X267213Y431831D01*
X271267Y431831D01*
X275013Y430279D01*
X277879Y427413D01*
X279431Y423667D01*
X279431Y419613D01*
X277879Y415867D01*
X275013Y413001D01*
X271267Y411449D01*
X267213Y411449D01*
X263467Y413001D01*
X262018Y414451D01*
X262001Y414462D01*
X261989Y414478D01*
X261902Y414534D01*
X261818Y414594D01*
X261799Y414600D01*
X261782Y414611D01*
X261682Y414636D01*
X261583Y414667D01*
X261563Y414666D01*
X261543Y414671D01*
X261441Y414663D01*
X261337Y414660D01*
X261318Y414653D01*
X261298Y414652D01*
X261203Y414611D01*
X261106Y414576D01*
X261090Y414563D01*
X261072Y414555D01*
X260941Y414451D01*
X253144Y406653D01*
X123658Y406653D01*
X123567Y406639D01*
X123477Y406631D01*
X123447Y406619D01*
X123415Y406614D01*
X123334Y406571D01*
X123250Y406535D01*
X123218Y406509D01*
X123197Y406498D01*
X123175Y406475D01*
X123119Y406430D01*
X121377Y404688D01*
X118763Y403605D01*
X115933Y403605D01*
G37*
%LPD*%
G36*
X841879Y328183D02*
X841879Y328183D01*
X841970Y328191D01*
X842000Y328203D01*
X842032Y328208D01*
X842112Y328251D01*
X842196Y328287D01*
X842228Y328313D01*
X842249Y328324D01*
X842271Y328347D01*
X842327Y328392D01*
X860615Y346680D01*
X860657Y346738D01*
X860707Y346790D01*
X860729Y346837D01*
X860759Y346879D01*
X860780Y346948D01*
X860810Y347013D01*
X860816Y347065D01*
X860831Y347115D01*
X860829Y347186D01*
X860837Y347257D01*
X860826Y347308D01*
X860825Y347360D01*
X860800Y347428D01*
X860785Y347498D01*
X860758Y347543D01*
X860740Y347591D01*
X860696Y347647D01*
X860659Y347709D01*
X860619Y347743D01*
X860587Y347783D01*
X860526Y347822D01*
X860472Y347869D01*
X860424Y347888D01*
X860380Y347916D01*
X860310Y347934D01*
X860244Y347961D01*
X860172Y347969D01*
X860141Y347977D01*
X860118Y347975D01*
X860077Y347979D01*
X716374Y347979D01*
X713770Y350583D01*
X695736Y368617D01*
X695678Y368659D01*
X695626Y368709D01*
X695579Y368731D01*
X695537Y368761D01*
X695468Y368782D01*
X695403Y368812D01*
X695351Y368818D01*
X695301Y368833D01*
X695230Y368831D01*
X695159Y368839D01*
X695108Y368828D01*
X695056Y368827D01*
X694988Y368802D01*
X694918Y368787D01*
X694873Y368760D01*
X694825Y368742D01*
X694769Y368698D01*
X694707Y368661D01*
X694673Y368621D01*
X694633Y368589D01*
X694594Y368528D01*
X694547Y368474D01*
X694528Y368426D01*
X694500Y368382D01*
X694482Y368312D01*
X694455Y368246D01*
X694447Y368174D01*
X694439Y368143D01*
X694441Y368120D01*
X694437Y368079D01*
X694437Y367393D01*
X693354Y364779D01*
X691353Y362778D01*
X688904Y361764D01*
X688848Y361729D01*
X688788Y361704D01*
X688723Y361652D01*
X688695Y361634D01*
X688683Y361619D01*
X688657Y361599D01*
X663862Y336803D01*
X661670Y336803D01*
X661650Y336800D01*
X661631Y336802D01*
X661529Y336780D01*
X661427Y336764D01*
X661410Y336754D01*
X661390Y336750D01*
X661301Y336697D01*
X661210Y336648D01*
X661196Y336634D01*
X661179Y336624D01*
X661112Y336545D01*
X661040Y336470D01*
X661032Y336452D01*
X661019Y336437D01*
X660980Y336341D01*
X660937Y336247D01*
X660935Y336227D01*
X660927Y336209D01*
X660909Y336042D01*
X660909Y333865D01*
X659826Y331251D01*
X658043Y329468D01*
X658001Y329410D01*
X657952Y329358D01*
X657930Y329311D01*
X657900Y329269D01*
X657879Y329200D01*
X657848Y329135D01*
X657843Y329083D01*
X657827Y329033D01*
X657829Y328962D01*
X657821Y328891D01*
X657832Y328840D01*
X657834Y328788D01*
X657858Y328720D01*
X657873Y328650D01*
X657900Y328605D01*
X657918Y328557D01*
X657963Y328501D01*
X658000Y328439D01*
X658039Y328405D01*
X658072Y328365D01*
X658132Y328326D01*
X658187Y328279D01*
X658235Y328260D01*
X658279Y328232D01*
X658348Y328214D01*
X658415Y328187D01*
X658486Y328179D01*
X658517Y328171D01*
X658541Y328173D01*
X658581Y328169D01*
X841789Y328169D01*
X841879Y328183D01*
G37*
G36*
X826338Y540524D02*
X826338Y540524D01*
X826410Y540526D01*
X826459Y540544D01*
X826510Y540552D01*
X826574Y540586D01*
X826641Y540611D01*
X826682Y540643D01*
X826728Y540668D01*
X826777Y540720D01*
X826833Y540764D01*
X826861Y540808D01*
X826897Y540846D01*
X826927Y540911D01*
X826966Y540971D01*
X826979Y541022D01*
X827001Y541069D01*
X827009Y541140D01*
X827026Y541210D01*
X827022Y541262D01*
X827028Y541313D01*
X827013Y541384D01*
X827007Y541455D01*
X826987Y541503D01*
X826976Y541554D01*
X826939Y541615D01*
X826911Y541681D01*
X826866Y541737D01*
X826849Y541765D01*
X826832Y541780D01*
X826806Y541812D01*
X825751Y542867D01*
X824199Y546613D01*
X824199Y547179D01*
X824185Y547269D01*
X824177Y547360D01*
X824165Y547390D01*
X824160Y547422D01*
X824117Y547502D01*
X824081Y547586D01*
X824055Y547618D01*
X824044Y547639D01*
X824021Y547661D01*
X823976Y547717D01*
X817181Y554512D01*
X817107Y554565D01*
X817038Y554625D01*
X817008Y554637D01*
X816982Y554656D01*
X816895Y554683D01*
X816810Y554717D01*
X816769Y554721D01*
X816746Y554728D01*
X816714Y554727D01*
X816643Y554735D01*
X657700Y554735D01*
X655129Y557306D01*
X655055Y557359D01*
X654986Y557419D01*
X654956Y557431D01*
X654930Y557450D01*
X654843Y557477D01*
X654758Y557511D01*
X654717Y557515D01*
X654694Y557522D01*
X654662Y557521D01*
X654591Y557529D01*
X653790Y557529D01*
X653720Y557518D01*
X653648Y557516D01*
X653599Y557498D01*
X653548Y557490D01*
X653484Y557456D01*
X653417Y557431D01*
X653376Y557399D01*
X653330Y557374D01*
X653281Y557322D01*
X653225Y557278D01*
X653197Y557234D01*
X653161Y557196D01*
X653131Y557131D01*
X653092Y557071D01*
X653079Y557020D01*
X653057Y556973D01*
X653049Y556902D01*
X653032Y556832D01*
X653036Y556780D01*
X653030Y556729D01*
X653045Y556658D01*
X653051Y556587D01*
X653071Y556539D01*
X653082Y556488D01*
X653119Y556427D01*
X653147Y556361D01*
X653192Y556305D01*
X653209Y556277D01*
X653226Y556262D01*
X653252Y556230D01*
X655069Y554413D01*
X656621Y550667D01*
X656621Y546613D01*
X656331Y545914D01*
X656305Y545800D01*
X656276Y545687D01*
X656276Y545680D01*
X656275Y545674D01*
X656286Y545558D01*
X656295Y545442D01*
X656297Y545436D01*
X656298Y545429D01*
X656346Y545322D01*
X656391Y545215D01*
X656396Y545209D01*
X656398Y545205D01*
X656411Y545191D01*
X656496Y545084D01*
X660845Y540736D01*
X660919Y540683D01*
X660988Y540623D01*
X661018Y540611D01*
X661044Y540592D01*
X661131Y540565D01*
X661216Y540531D01*
X661257Y540527D01*
X661280Y540520D01*
X661312Y540521D01*
X661383Y540513D01*
X826268Y540513D01*
X826338Y540524D01*
G37*
G36*
X861437Y356123D02*
X861437Y356123D01*
X861528Y356131D01*
X861558Y356143D01*
X861590Y356148D01*
X861670Y356191D01*
X861754Y356227D01*
X861786Y356253D01*
X861807Y356264D01*
X861829Y356287D01*
X861885Y356332D01*
X873028Y367475D01*
X873081Y367549D01*
X873141Y367618D01*
X873153Y367648D01*
X873172Y367674D01*
X873199Y367761D01*
X873233Y367846D01*
X873237Y367887D01*
X873244Y367910D01*
X873243Y367942D01*
X873251Y368013D01*
X873251Y380779D01*
X873237Y380869D01*
X873229Y380960D01*
X873217Y380990D01*
X873212Y381022D01*
X873169Y381102D01*
X873133Y381186D01*
X873107Y381218D01*
X873096Y381239D01*
X873073Y381261D01*
X873028Y381317D01*
X866692Y387654D01*
X866676Y387665D01*
X866663Y387681D01*
X866576Y387737D01*
X866492Y387797D01*
X866473Y387803D01*
X866456Y387814D01*
X866356Y387839D01*
X866257Y387870D01*
X866237Y387869D01*
X866218Y387874D01*
X866115Y387866D01*
X866011Y387863D01*
X865993Y387856D01*
X865973Y387855D01*
X865878Y387814D01*
X865780Y387779D01*
X865765Y387766D01*
X865746Y387758D01*
X865615Y387654D01*
X865563Y387601D01*
X861817Y386049D01*
X857763Y386049D01*
X854017Y387601D01*
X851933Y389686D01*
X851916Y389697D01*
X851904Y389713D01*
X851822Y389765D01*
X851821Y389767D01*
X851819Y389767D01*
X851817Y389769D01*
X851733Y389829D01*
X851714Y389835D01*
X851697Y389846D01*
X851597Y389871D01*
X851498Y389902D01*
X851478Y389901D01*
X851458Y389906D01*
X851356Y389898D01*
X851252Y389895D01*
X851233Y389888D01*
X851213Y389887D01*
X851118Y389846D01*
X851021Y389811D01*
X851005Y389798D01*
X850987Y389790D01*
X850856Y389686D01*
X848043Y386872D01*
X840944Y379774D01*
X840933Y379758D01*
X840917Y379745D01*
X840861Y379658D01*
X840801Y379574D01*
X840795Y379555D01*
X840784Y379538D01*
X840759Y379438D01*
X840728Y379339D01*
X840729Y379319D01*
X840724Y379300D01*
X840732Y379197D01*
X840735Y379093D01*
X840742Y379075D01*
X840743Y379055D01*
X840784Y378960D01*
X840791Y378940D01*
X840791Y378939D01*
X840819Y378862D01*
X840832Y378847D01*
X840840Y378828D01*
X840910Y378740D01*
X840917Y378729D01*
X840925Y378722D01*
X840944Y378697D01*
X843029Y376613D01*
X844581Y372867D01*
X844581Y368813D01*
X843029Y365067D01*
X840163Y362201D01*
X836417Y360649D01*
X832363Y360649D01*
X828617Y362201D01*
X825751Y365067D01*
X824199Y368813D01*
X824199Y372867D01*
X825751Y376613D01*
X826552Y377414D01*
X826594Y377472D01*
X826643Y377524D01*
X826665Y377571D01*
X826695Y377613D01*
X826717Y377682D01*
X826747Y377747D01*
X826752Y377799D01*
X826768Y377849D01*
X826766Y377920D01*
X826774Y377991D01*
X826763Y378042D01*
X826761Y378094D01*
X826737Y378162D01*
X826722Y378232D01*
X826695Y378277D01*
X826677Y378325D01*
X826632Y378381D01*
X826595Y378443D01*
X826556Y378477D01*
X826523Y378517D01*
X826463Y378556D01*
X826408Y378603D01*
X826360Y378622D01*
X826316Y378650D01*
X826247Y378668D01*
X826180Y378695D01*
X826109Y378703D01*
X826078Y378711D01*
X826055Y378709D01*
X826014Y378713D01*
X823435Y378713D01*
X823345Y378699D01*
X823254Y378691D01*
X823224Y378679D01*
X823192Y378674D01*
X823112Y378631D01*
X823028Y378595D01*
X822996Y378569D01*
X822975Y378558D01*
X822953Y378535D01*
X822897Y378490D01*
X809150Y364743D01*
X712945Y364743D01*
X712874Y364732D01*
X712802Y364730D01*
X712754Y364712D01*
X712702Y364704D01*
X712639Y364670D01*
X712571Y364645D01*
X712531Y364613D01*
X712485Y364588D01*
X712435Y364536D01*
X712379Y364492D01*
X712351Y364448D01*
X712315Y364410D01*
X712285Y364345D01*
X712246Y364285D01*
X712234Y364234D01*
X712212Y364187D01*
X712204Y364116D01*
X712186Y364046D01*
X712190Y363994D01*
X712185Y363943D01*
X712200Y363872D01*
X712206Y363801D01*
X712226Y363753D01*
X712237Y363702D01*
X712274Y363641D01*
X712302Y363575D01*
X712347Y363519D01*
X712363Y363491D01*
X712381Y363476D01*
X712407Y363444D01*
X719519Y356332D01*
X719593Y356279D01*
X719662Y356219D01*
X719692Y356207D01*
X719718Y356188D01*
X719805Y356161D01*
X719890Y356127D01*
X719931Y356123D01*
X719954Y356116D01*
X719986Y356117D01*
X720057Y356109D01*
X861347Y356109D01*
X861437Y356123D01*
G37*
%LPC*%
G36*
X267213Y462249D02*
X267213Y462249D01*
X263467Y463801D01*
X260601Y466667D01*
X259049Y470413D01*
X259049Y472503D01*
X259035Y472593D01*
X259027Y472684D01*
X259015Y472714D01*
X259010Y472746D01*
X258967Y472826D01*
X258931Y472910D01*
X258905Y472942D01*
X258894Y472963D01*
X258871Y472985D01*
X258826Y473041D01*
X188531Y543336D01*
X188457Y543389D01*
X188388Y543449D01*
X188358Y543461D01*
X188332Y543480D01*
X188245Y543507D01*
X188160Y543541D01*
X188119Y543545D01*
X188097Y543552D01*
X188064Y543551D01*
X187993Y543559D01*
X146398Y543559D01*
X133041Y556916D01*
X133025Y556928D01*
X133013Y556944D01*
X132925Y557000D01*
X132842Y557060D01*
X132823Y557066D01*
X132806Y557077D01*
X132705Y557102D01*
X132607Y557132D01*
X132587Y557132D01*
X132567Y557137D01*
X132464Y557128D01*
X132361Y557126D01*
X132342Y557119D01*
X132322Y557117D01*
X132227Y557077D01*
X132130Y557041D01*
X132114Y557029D01*
X132096Y557021D01*
X132021Y556962D01*
X128757Y555609D01*
X125243Y555609D01*
X121998Y556954D01*
X119514Y559438D01*
X118169Y562683D01*
X118169Y566197D01*
X119514Y569442D01*
X121998Y571926D01*
X125243Y573271D01*
X128757Y573271D01*
X132002Y571926D01*
X134486Y569442D01*
X135831Y566197D01*
X135831Y565939D01*
X135846Y565849D01*
X135853Y565758D01*
X135865Y565728D01*
X135870Y565696D01*
X135913Y565616D01*
X135949Y565532D01*
X135975Y565500D01*
X135986Y565479D01*
X136009Y565457D01*
X136054Y565401D01*
X149543Y551912D01*
X149617Y551859D01*
X149686Y551799D01*
X149716Y551787D01*
X149742Y551768D01*
X149829Y551741D01*
X149914Y551707D01*
X149955Y551703D01*
X149978Y551696D01*
X150010Y551697D01*
X150081Y551689D01*
X191676Y551689D01*
X194280Y549085D01*
X262338Y481026D01*
X262354Y481015D01*
X262367Y480999D01*
X262454Y480943D01*
X262538Y480883D01*
X262557Y480877D01*
X262574Y480866D01*
X262674Y480841D01*
X262773Y480810D01*
X262793Y480811D01*
X262812Y480806D01*
X262915Y480814D01*
X263019Y480817D01*
X263037Y480824D01*
X263057Y480825D01*
X263152Y480866D01*
X263250Y480901D01*
X263265Y480914D01*
X263284Y480922D01*
X263415Y481026D01*
X263467Y481079D01*
X267213Y482631D01*
X271267Y482631D01*
X275013Y481079D01*
X277879Y478213D01*
X279431Y474467D01*
X279431Y470413D01*
X277879Y466667D01*
X275013Y463801D01*
X271267Y462249D01*
X267213Y462249D01*
G37*
%LPD*%
%LPC*%
G36*
X292613Y462249D02*
X292613Y462249D01*
X288867Y463801D01*
X286001Y466667D01*
X284449Y470413D01*
X284449Y474467D01*
X286001Y478213D01*
X288867Y481079D01*
X292613Y482631D01*
X296667Y482631D01*
X300413Y481079D01*
X303279Y478213D01*
X303296Y478173D01*
X303320Y478134D01*
X303336Y478091D01*
X303384Y478030D01*
X303425Y477964D01*
X303461Y477934D01*
X303489Y477899D01*
X303555Y477856D01*
X303615Y477807D01*
X303658Y477790D01*
X303696Y477766D01*
X303772Y477747D01*
X303844Y477719D01*
X303890Y477717D01*
X303935Y477706D01*
X304012Y477712D01*
X304090Y477708D01*
X304134Y477721D01*
X304180Y477725D01*
X304252Y477755D01*
X304326Y477777D01*
X304364Y477803D01*
X304406Y477821D01*
X304513Y477906D01*
X304528Y477917D01*
X304532Y477921D01*
X304537Y477926D01*
X316832Y490221D01*
X428277Y490221D01*
X428367Y490235D01*
X428458Y490243D01*
X428488Y490255D01*
X428520Y490260D01*
X428600Y490303D01*
X428684Y490339D01*
X428716Y490365D01*
X428737Y490376D01*
X428759Y490399D01*
X428815Y490444D01*
X433015Y494643D01*
X433083Y494738D01*
X433153Y494832D01*
X433155Y494838D01*
X433159Y494843D01*
X433193Y494954D01*
X433229Y495066D01*
X433229Y495072D01*
X433231Y495078D01*
X433228Y495195D01*
X433227Y495312D01*
X433225Y495319D01*
X433225Y495324D01*
X433218Y495342D01*
X433180Y495473D01*
X433039Y495813D01*
X433039Y499867D01*
X434591Y503613D01*
X437457Y506479D01*
X441203Y508031D01*
X445257Y508031D01*
X449003Y506479D01*
X451869Y503613D01*
X453421Y499867D01*
X453421Y495813D01*
X451869Y492067D01*
X449003Y489201D01*
X445257Y487649D01*
X441203Y487649D01*
X439067Y488534D01*
X438953Y488561D01*
X438840Y488589D01*
X438834Y488589D01*
X438828Y488590D01*
X438711Y488579D01*
X438595Y488570D01*
X438589Y488568D01*
X438583Y488567D01*
X438475Y488519D01*
X438368Y488474D01*
X438363Y488469D01*
X438358Y488467D01*
X438344Y488454D01*
X438237Y488369D01*
X431960Y482091D01*
X320515Y482091D01*
X320425Y482077D01*
X320334Y482069D01*
X320304Y482057D01*
X320272Y482052D01*
X320192Y482009D01*
X320108Y481973D01*
X320076Y481947D01*
X320055Y481936D01*
X320033Y481913D01*
X319977Y481868D01*
X306230Y468121D01*
X304390Y468121D01*
X304275Y468102D01*
X304159Y468085D01*
X304154Y468083D01*
X304147Y468082D01*
X304045Y468027D01*
X303940Y467974D01*
X303936Y467969D01*
X303930Y467966D01*
X303850Y467882D01*
X303768Y467798D01*
X303764Y467792D01*
X303761Y467788D01*
X303753Y467771D01*
X303687Y467651D01*
X303279Y466667D01*
X300413Y463801D01*
X296667Y462249D01*
X292613Y462249D01*
G37*
%LPD*%
%LPC*%
G36*
X292613Y436849D02*
X292613Y436849D01*
X288867Y438401D01*
X286001Y441267D01*
X284449Y445013D01*
X284449Y449067D01*
X286001Y452813D01*
X288867Y455679D01*
X292613Y457231D01*
X296667Y457231D01*
X300413Y455679D01*
X303386Y452706D01*
X303402Y452694D01*
X303415Y452678D01*
X303477Y452639D01*
X303533Y452591D01*
X303562Y452580D01*
X303586Y452562D01*
X303605Y452556D01*
X303622Y452545D01*
X303693Y452527D01*
X303761Y452500D01*
X303792Y452499D01*
X303821Y452490D01*
X303841Y452490D01*
X303860Y452485D01*
X303934Y452491D01*
X304007Y452487D01*
X304037Y452495D01*
X304067Y452496D01*
X304085Y452503D01*
X304106Y452504D01*
X304173Y452533D01*
X304244Y452552D01*
X304270Y452570D01*
X304298Y452580D01*
X304313Y452593D01*
X304332Y452601D01*
X304426Y452676D01*
X304447Y452690D01*
X304453Y452697D01*
X304463Y452705D01*
X314228Y462471D01*
X316832Y465075D01*
X428277Y465075D01*
X428367Y465089D01*
X428458Y465097D01*
X428488Y465109D01*
X428520Y465114D01*
X428600Y465157D01*
X428684Y465193D01*
X428716Y465219D01*
X428737Y465230D01*
X428759Y465253D01*
X428815Y465298D01*
X432941Y469423D01*
X433009Y469517D01*
X433079Y469612D01*
X433081Y469618D01*
X433084Y469623D01*
X433119Y469735D01*
X433155Y469846D01*
X433155Y469852D01*
X433157Y469858D01*
X433154Y469975D01*
X433152Y470092D01*
X433150Y470099D01*
X433150Y470104D01*
X433144Y470121D01*
X433106Y470253D01*
X433039Y470413D01*
X433039Y474467D01*
X434591Y478213D01*
X437457Y481079D01*
X441203Y482631D01*
X445257Y482631D01*
X449003Y481079D01*
X451869Y478213D01*
X453421Y474467D01*
X453421Y470413D01*
X451869Y466667D01*
X449003Y463801D01*
X445257Y462249D01*
X441203Y462249D01*
X438887Y463208D01*
X438774Y463235D01*
X438660Y463264D01*
X438654Y463263D01*
X438648Y463265D01*
X438531Y463254D01*
X438415Y463245D01*
X438409Y463242D01*
X438403Y463241D01*
X438296Y463194D01*
X438189Y463148D01*
X438183Y463144D01*
X438178Y463141D01*
X438165Y463129D01*
X438058Y463043D01*
X431960Y456945D01*
X320515Y456945D01*
X320425Y456931D01*
X320334Y456923D01*
X320304Y456911D01*
X320272Y456906D01*
X320192Y456863D01*
X320108Y456827D01*
X320076Y456801D01*
X320055Y456790D01*
X320033Y456767D01*
X319977Y456722D01*
X306230Y442975D01*
X304495Y442975D01*
X304381Y442956D01*
X304264Y442939D01*
X304259Y442937D01*
X304253Y442936D01*
X304150Y442881D01*
X304045Y442828D01*
X304041Y442823D01*
X304035Y442820D01*
X303955Y442736D01*
X303873Y442652D01*
X303869Y442646D01*
X303866Y442642D01*
X303858Y442625D01*
X303792Y442505D01*
X303279Y441267D01*
X300413Y438401D01*
X296667Y436849D01*
X292613Y436849D01*
G37*
%LPD*%
%LPC*%
G36*
X62847Y448309D02*
X62847Y448309D01*
X60233Y449392D01*
X58232Y451393D01*
X57149Y454007D01*
X57149Y456837D01*
X58232Y459451D01*
X59974Y461193D01*
X60027Y461267D01*
X60087Y461337D01*
X60099Y461367D01*
X60118Y461393D01*
X60145Y461480D01*
X60179Y461565D01*
X60183Y461606D01*
X60190Y461628D01*
X60189Y461660D01*
X60197Y461732D01*
X60197Y549308D01*
X72419Y561529D01*
X72486Y561623D01*
X72557Y561718D01*
X72559Y561724D01*
X72562Y561729D01*
X72596Y561839D01*
X72633Y561952D01*
X72633Y561958D01*
X72635Y561964D01*
X72632Y562081D01*
X72631Y562198D01*
X72628Y562205D01*
X72628Y562210D01*
X72622Y562227D01*
X72584Y562359D01*
X72449Y562683D01*
X72449Y566197D01*
X73794Y569442D01*
X76278Y571926D01*
X79523Y573271D01*
X83037Y573271D01*
X86282Y571926D01*
X88766Y569442D01*
X90111Y566197D01*
X90111Y562683D01*
X88766Y559438D01*
X86282Y556954D01*
X83037Y555609D01*
X79523Y555609D01*
X78913Y555862D01*
X78800Y555889D01*
X78686Y555917D01*
X78680Y555917D01*
X78674Y555918D01*
X78557Y555907D01*
X78441Y555898D01*
X78435Y555896D01*
X78429Y555895D01*
X78321Y555847D01*
X78214Y555802D01*
X78209Y555797D01*
X78204Y555795D01*
X78190Y555782D01*
X78083Y555697D01*
X68550Y546163D01*
X68497Y546089D01*
X68437Y546020D01*
X68425Y545990D01*
X68406Y545964D01*
X68379Y545877D01*
X68345Y545792D01*
X68341Y545751D01*
X68334Y545728D01*
X68335Y545696D01*
X68327Y545625D01*
X68327Y461732D01*
X68341Y461641D01*
X68349Y461551D01*
X68361Y461521D01*
X68366Y461489D01*
X68409Y461408D01*
X68445Y461324D01*
X68471Y461292D01*
X68482Y461271D01*
X68505Y461249D01*
X68550Y461193D01*
X70292Y459451D01*
X71375Y456837D01*
X71375Y454007D01*
X70292Y451393D01*
X68291Y449392D01*
X65677Y448309D01*
X62847Y448309D01*
G37*
%LPD*%
%LPC*%
G36*
X267213Y487649D02*
X267213Y487649D01*
X263467Y489201D01*
X260601Y492067D01*
X259049Y495813D01*
X259049Y497649D01*
X259035Y497739D01*
X259027Y497830D01*
X259015Y497860D01*
X259010Y497892D01*
X258967Y497972D01*
X258931Y498056D01*
X258905Y498088D01*
X258894Y498109D01*
X258871Y498131D01*
X258826Y498187D01*
X222249Y534764D01*
X222249Y551213D01*
X222235Y551303D01*
X222227Y551394D01*
X222215Y551424D01*
X222210Y551456D01*
X222167Y551536D01*
X222131Y551620D01*
X222105Y551652D01*
X222094Y551673D01*
X222071Y551695D01*
X222026Y551751D01*
X218391Y555386D01*
X218317Y555439D01*
X218248Y555499D01*
X218218Y555511D01*
X218192Y555530D01*
X218105Y555557D01*
X218020Y555591D01*
X217990Y555594D01*
X214708Y556954D01*
X212224Y559438D01*
X210879Y562683D01*
X210879Y566197D01*
X212224Y569442D01*
X214708Y571926D01*
X217953Y573271D01*
X221467Y573271D01*
X224712Y571926D01*
X227196Y569442D01*
X228541Y566197D01*
X228541Y562683D01*
X227196Y559438D01*
X227055Y559296D01*
X227043Y559280D01*
X227028Y559268D01*
X226972Y559180D01*
X226911Y559097D01*
X226905Y559077D01*
X226895Y559061D01*
X226869Y558960D01*
X226839Y558861D01*
X226839Y558841D01*
X226834Y558822D01*
X226843Y558719D01*
X226845Y558616D01*
X226852Y558597D01*
X226854Y558577D01*
X226894Y558482D01*
X226930Y558385D01*
X226942Y558369D01*
X226950Y558351D01*
X227055Y558220D01*
X230379Y554896D01*
X230379Y538447D01*
X230393Y538357D01*
X230401Y538266D01*
X230413Y538236D01*
X230418Y538204D01*
X230461Y538124D01*
X230497Y538040D01*
X230523Y538008D01*
X230534Y537987D01*
X230557Y537965D01*
X230602Y537909D01*
X262211Y506299D01*
X262227Y506288D01*
X262240Y506272D01*
X262327Y506216D01*
X262411Y506156D01*
X262430Y506150D01*
X262447Y506139D01*
X262547Y506114D01*
X262646Y506083D01*
X262666Y506084D01*
X262685Y506079D01*
X262788Y506087D01*
X262892Y506090D01*
X262910Y506097D01*
X262930Y506098D01*
X263025Y506139D01*
X263123Y506174D01*
X263138Y506187D01*
X263157Y506195D01*
X263288Y506299D01*
X263467Y506479D01*
X267213Y508031D01*
X271267Y508031D01*
X275013Y506479D01*
X277879Y503613D01*
X279431Y499867D01*
X279431Y495813D01*
X277879Y492067D01*
X275013Y489201D01*
X271267Y487649D01*
X267213Y487649D01*
G37*
%LPD*%
%LPC*%
G36*
X434528Y741649D02*
X434528Y741649D01*
X433039Y743138D01*
X433039Y760542D01*
X434528Y762031D01*
X451932Y762031D01*
X453421Y760542D01*
X453421Y743138D01*
X451932Y741649D01*
X434528Y741649D01*
G37*
%LPD*%
%LPC*%
G36*
X825688Y741649D02*
X825688Y741649D01*
X824199Y743138D01*
X824199Y760542D01*
X825688Y762031D01*
X843092Y762031D01*
X844581Y760542D01*
X844581Y743138D01*
X843092Y741649D01*
X825688Y741649D01*
G37*
%LPD*%
%LPC*%
G36*
X267213Y386049D02*
X267213Y386049D01*
X263467Y387601D01*
X260601Y390467D01*
X259049Y394213D01*
X259049Y398267D01*
X260601Y402013D01*
X263467Y404879D01*
X267213Y406431D01*
X271267Y406431D01*
X275013Y404879D01*
X277879Y402013D01*
X279431Y398267D01*
X279431Y394213D01*
X277879Y390467D01*
X275013Y387601D01*
X271267Y386049D01*
X267213Y386049D01*
G37*
%LPD*%
%LPC*%
G36*
X441203Y411449D02*
X441203Y411449D01*
X437457Y413001D01*
X434591Y415867D01*
X433039Y419613D01*
X433039Y423667D01*
X434591Y427413D01*
X437457Y430279D01*
X441203Y431831D01*
X445257Y431831D01*
X449003Y430279D01*
X451869Y427413D01*
X453421Y423667D01*
X453421Y419613D01*
X451869Y415867D01*
X449003Y413001D01*
X445257Y411449D01*
X441203Y411449D01*
G37*
%LPD*%
%LPC*%
G36*
X832363Y411449D02*
X832363Y411449D01*
X828617Y413001D01*
X825751Y415867D01*
X824199Y419613D01*
X824199Y423667D01*
X825751Y427413D01*
X828617Y430279D01*
X832363Y431831D01*
X836417Y431831D01*
X840163Y430279D01*
X843029Y427413D01*
X844581Y423667D01*
X844581Y419613D01*
X843029Y415867D01*
X840163Y413001D01*
X836417Y411449D01*
X832363Y411449D01*
G37*
%LPD*%
%LPC*%
G36*
X441203Y436849D02*
X441203Y436849D01*
X437457Y438401D01*
X434591Y441267D01*
X433039Y445013D01*
X433039Y449067D01*
X434591Y452813D01*
X437457Y455679D01*
X441203Y457231D01*
X445257Y457231D01*
X449003Y455679D01*
X451869Y452813D01*
X453421Y449067D01*
X453421Y445013D01*
X451869Y441267D01*
X449003Y438401D01*
X445257Y436849D01*
X441203Y436849D01*
G37*
%LPD*%
%LPC*%
G36*
X292613Y487649D02*
X292613Y487649D01*
X288867Y489201D01*
X286001Y492067D01*
X284449Y495813D01*
X284449Y499867D01*
X286001Y503613D01*
X288867Y506479D01*
X292613Y508031D01*
X296667Y508031D01*
X300413Y506479D01*
X303279Y503613D01*
X304831Y499867D01*
X304831Y495813D01*
X303279Y492067D01*
X300413Y489201D01*
X296667Y487649D01*
X292613Y487649D01*
G37*
%LPD*%
%LPC*%
G36*
X857763Y513049D02*
X857763Y513049D01*
X854017Y514601D01*
X851151Y517467D01*
X849599Y521213D01*
X849599Y525267D01*
X851151Y529013D01*
X854017Y531879D01*
X857763Y533431D01*
X861817Y533431D01*
X865563Y531879D01*
X868429Y529013D01*
X869981Y525267D01*
X869981Y521213D01*
X868429Y517467D01*
X865563Y514601D01*
X861817Y513049D01*
X857763Y513049D01*
G37*
%LPD*%
%LPC*%
G36*
X857763Y741649D02*
X857763Y741649D01*
X854017Y743201D01*
X851151Y746067D01*
X849599Y749813D01*
X849599Y753867D01*
X851151Y757613D01*
X854017Y760479D01*
X857763Y762031D01*
X861817Y762031D01*
X865563Y760479D01*
X868429Y757613D01*
X869981Y753867D01*
X869981Y749813D01*
X868429Y746067D01*
X865563Y743201D01*
X861817Y741649D01*
X857763Y741649D01*
G37*
%LPD*%
%LPC*%
G36*
X441203Y716249D02*
X441203Y716249D01*
X437457Y717801D01*
X434591Y720667D01*
X433039Y724413D01*
X433039Y728467D01*
X434591Y732213D01*
X437457Y735079D01*
X441203Y736631D01*
X445257Y736631D01*
X449003Y735079D01*
X451869Y732213D01*
X453421Y728467D01*
X453421Y724413D01*
X451869Y720667D01*
X449003Y717801D01*
X445257Y716249D01*
X441203Y716249D01*
G37*
%LPD*%
%LPC*%
G36*
X832363Y716249D02*
X832363Y716249D01*
X828617Y717801D01*
X825751Y720667D01*
X824199Y724413D01*
X824199Y728467D01*
X825751Y732213D01*
X828617Y735079D01*
X832363Y736631D01*
X836417Y736631D01*
X840163Y735079D01*
X843029Y732213D01*
X844581Y728467D01*
X844581Y724413D01*
X843029Y720667D01*
X840163Y717801D01*
X836417Y716249D01*
X832363Y716249D01*
G37*
%LPD*%
%LPC*%
G36*
X832363Y436849D02*
X832363Y436849D01*
X828617Y438401D01*
X825751Y441267D01*
X824199Y445013D01*
X824199Y449067D01*
X825751Y452813D01*
X828617Y455679D01*
X832363Y457231D01*
X836417Y457231D01*
X840163Y455679D01*
X843029Y452813D01*
X844581Y449067D01*
X844581Y445013D01*
X843029Y441267D01*
X840163Y438401D01*
X836417Y436849D01*
X832363Y436849D01*
G37*
%LPD*%
%LPC*%
G36*
X441203Y690849D02*
X441203Y690849D01*
X437457Y692401D01*
X434591Y695267D01*
X433039Y699013D01*
X433039Y703067D01*
X434591Y706813D01*
X437457Y709679D01*
X441203Y711231D01*
X445257Y711231D01*
X449003Y709679D01*
X451869Y706813D01*
X453421Y703067D01*
X453421Y699013D01*
X451869Y695267D01*
X449003Y692401D01*
X445257Y690849D01*
X441203Y690849D01*
G37*
%LPD*%
%LPC*%
G36*
X832363Y690849D02*
X832363Y690849D01*
X828617Y692401D01*
X825751Y695267D01*
X824199Y699013D01*
X824199Y703067D01*
X825751Y706813D01*
X828617Y709679D01*
X832363Y711231D01*
X836417Y711231D01*
X840163Y709679D01*
X843029Y706813D01*
X844581Y703067D01*
X844581Y699013D01*
X843029Y695267D01*
X840163Y692401D01*
X836417Y690849D01*
X832363Y690849D01*
G37*
%LPD*%
%LPC*%
G36*
X441203Y563849D02*
X441203Y563849D01*
X437457Y565401D01*
X434591Y568267D01*
X433039Y572013D01*
X433039Y576067D01*
X434591Y579813D01*
X437457Y582679D01*
X441203Y584231D01*
X445257Y584231D01*
X449003Y582679D01*
X451869Y579813D01*
X453421Y576067D01*
X453421Y572013D01*
X451869Y568267D01*
X449003Y565401D01*
X445257Y563849D01*
X441203Y563849D01*
G37*
%LPD*%
%LPC*%
G36*
X857763Y563849D02*
X857763Y563849D01*
X854017Y565401D01*
X851151Y568267D01*
X849599Y572013D01*
X849599Y576067D01*
X851151Y579813D01*
X854017Y582679D01*
X857763Y584231D01*
X861817Y584231D01*
X865563Y582679D01*
X868429Y579813D01*
X869981Y576067D01*
X869981Y572013D01*
X868429Y568267D01*
X865563Y565401D01*
X861817Y563849D01*
X857763Y563849D01*
G37*
%LPD*%
%LPC*%
G36*
X441203Y386049D02*
X441203Y386049D01*
X437457Y387601D01*
X434591Y390467D01*
X433039Y394213D01*
X433039Y398267D01*
X434591Y402013D01*
X437457Y404879D01*
X441203Y406431D01*
X445257Y406431D01*
X449003Y404879D01*
X451869Y402013D01*
X453421Y398267D01*
X453421Y394213D01*
X451869Y390467D01*
X449003Y387601D01*
X445257Y386049D01*
X441203Y386049D01*
G37*
%LPD*%
%LPC*%
G36*
X644403Y589249D02*
X644403Y589249D01*
X640657Y590801D01*
X637791Y593667D01*
X636239Y597413D01*
X636239Y601467D01*
X637791Y605213D01*
X640657Y608079D01*
X644403Y609631D01*
X648457Y609631D01*
X652203Y608079D01*
X655069Y605213D01*
X656621Y601467D01*
X656621Y597413D01*
X655069Y593667D01*
X652203Y590801D01*
X648457Y589249D01*
X644403Y589249D01*
G37*
%LPD*%
%LPC*%
G36*
X441203Y589249D02*
X441203Y589249D01*
X437457Y590801D01*
X434591Y593667D01*
X433039Y597413D01*
X433039Y601467D01*
X434591Y605213D01*
X437457Y608079D01*
X441203Y609631D01*
X445257Y609631D01*
X449003Y608079D01*
X451869Y605213D01*
X453421Y601467D01*
X453421Y597413D01*
X451869Y593667D01*
X449003Y590801D01*
X445257Y589249D01*
X441203Y589249D01*
G37*
%LPD*%
%LPC*%
G36*
X441203Y614649D02*
X441203Y614649D01*
X437457Y616201D01*
X434591Y619067D01*
X433039Y622813D01*
X433039Y626867D01*
X434591Y630613D01*
X437457Y633479D01*
X441203Y635031D01*
X445257Y635031D01*
X449003Y633479D01*
X451869Y630613D01*
X453421Y626867D01*
X453421Y622813D01*
X451869Y619067D01*
X449003Y616201D01*
X445257Y614649D01*
X441203Y614649D01*
G37*
%LPD*%
%LPC*%
G36*
X857763Y360649D02*
X857763Y360649D01*
X854017Y362201D01*
X851151Y365067D01*
X849599Y368813D01*
X849599Y372867D01*
X851151Y376613D01*
X854017Y379479D01*
X857763Y381031D01*
X861817Y381031D01*
X865563Y379479D01*
X868429Y376613D01*
X869981Y372867D01*
X869981Y368813D01*
X868429Y365067D01*
X865563Y362201D01*
X861817Y360649D01*
X857763Y360649D01*
G37*
%LPD*%
%LPC*%
G36*
X441203Y360649D02*
X441203Y360649D01*
X437457Y362201D01*
X434591Y365067D01*
X433039Y368813D01*
X433039Y372867D01*
X434591Y376613D01*
X437457Y379479D01*
X441203Y381031D01*
X445257Y381031D01*
X449003Y379479D01*
X451869Y376613D01*
X453421Y372867D01*
X453421Y368813D01*
X451869Y365067D01*
X449003Y362201D01*
X445257Y360649D01*
X441203Y360649D01*
G37*
%LPD*%
%LPC*%
G36*
X267213Y360649D02*
X267213Y360649D01*
X263467Y362201D01*
X260601Y365067D01*
X259049Y368813D01*
X259049Y372867D01*
X260601Y376613D01*
X263467Y379479D01*
X267213Y381031D01*
X271267Y381031D01*
X275013Y379479D01*
X277879Y376613D01*
X279431Y372867D01*
X279431Y368813D01*
X277879Y365067D01*
X275013Y362201D01*
X271267Y360649D01*
X267213Y360649D01*
G37*
%LPD*%
%LPC*%
G36*
X386102Y718565D02*
X386102Y718565D01*
X380745Y723922D01*
X380745Y731498D01*
X386102Y736855D01*
X393678Y736855D01*
X399035Y731498D01*
X399035Y723922D01*
X393678Y718565D01*
X386102Y718565D01*
G37*
%LPD*%
%LPC*%
G36*
X31772Y601725D02*
X31772Y601725D01*
X26415Y607082D01*
X26415Y614658D01*
X31772Y620015D01*
X39348Y620015D01*
X44705Y614658D01*
X44705Y607082D01*
X39348Y601725D01*
X31772Y601725D01*
G37*
%LPD*%
%LPC*%
G36*
X170963Y625609D02*
X170963Y625609D01*
X167718Y626954D01*
X165234Y629438D01*
X163889Y632683D01*
X163889Y636197D01*
X165234Y639442D01*
X167718Y641926D01*
X170963Y643271D01*
X174477Y643271D01*
X177722Y641926D01*
X180206Y639442D01*
X181551Y636197D01*
X181551Y632683D01*
X180206Y629438D01*
X177722Y626954D01*
X174477Y625609D01*
X170963Y625609D01*
G37*
%LPD*%
%LPC*%
G36*
X79523Y625609D02*
X79523Y625609D01*
X76278Y626954D01*
X73794Y629438D01*
X72449Y632683D01*
X72449Y636197D01*
X73794Y639442D01*
X76278Y641926D01*
X79523Y643271D01*
X83037Y643271D01*
X86282Y641926D01*
X88766Y639442D01*
X90111Y636197D01*
X90111Y632683D01*
X88766Y629438D01*
X86282Y626954D01*
X83037Y625609D01*
X79523Y625609D01*
G37*
%LPD*%
%LPC*%
G36*
X125243Y625609D02*
X125243Y625609D01*
X121998Y626954D01*
X119514Y629438D01*
X118169Y632683D01*
X118169Y636197D01*
X119514Y639442D01*
X121998Y641926D01*
X125243Y643271D01*
X128757Y643271D01*
X132002Y641926D01*
X134486Y639442D01*
X135831Y636197D01*
X135831Y632683D01*
X134486Y629438D01*
X132002Y626954D01*
X128757Y625609D01*
X125243Y625609D01*
G37*
%LPD*%
%LPC*%
G36*
X217953Y625609D02*
X217953Y625609D01*
X214708Y626954D01*
X212224Y629438D01*
X210879Y632683D01*
X210879Y636197D01*
X212224Y639442D01*
X214708Y641926D01*
X217953Y643271D01*
X221467Y643271D01*
X224712Y641926D01*
X227196Y639442D01*
X228541Y636197D01*
X228541Y632683D01*
X227196Y629438D01*
X224712Y626954D01*
X221467Y625609D01*
X217953Y625609D01*
G37*
%LPD*%
%LPC*%
G36*
X861313Y677163D02*
X861313Y677163D01*
X861313Y685717D01*
X862176Y685580D01*
X863702Y685084D01*
X865131Y684356D01*
X866429Y683413D01*
X867563Y682279D01*
X868506Y680981D01*
X869234Y679552D01*
X869730Y678026D01*
X869867Y677163D01*
X861313Y677163D01*
G37*
%LPD*%
%LPC*%
G36*
X835913Y677163D02*
X835913Y677163D01*
X835913Y685717D01*
X836776Y685580D01*
X838302Y685084D01*
X839731Y684356D01*
X841029Y683413D01*
X842163Y682279D01*
X843106Y680981D01*
X843834Y679552D01*
X844330Y678026D01*
X844467Y677163D01*
X835913Y677163D01*
G37*
%LPD*%
%LPC*%
G36*
X444753Y677163D02*
X444753Y677163D01*
X444753Y685717D01*
X445616Y685580D01*
X447142Y685084D01*
X448571Y684356D01*
X449869Y683413D01*
X451003Y682279D01*
X451946Y680981D01*
X452674Y679552D01*
X453170Y678026D01*
X453307Y677163D01*
X444753Y677163D01*
G37*
%LPD*%
%LPC*%
G36*
X861313Y702563D02*
X861313Y702563D01*
X861313Y711117D01*
X862176Y710980D01*
X863702Y710484D01*
X865131Y709756D01*
X866429Y708813D01*
X867563Y707679D01*
X868506Y706381D01*
X869234Y704952D01*
X869730Y703426D01*
X869867Y702563D01*
X861313Y702563D01*
G37*
%LPD*%
%LPC*%
G36*
X835913Y674117D02*
X835913Y674117D01*
X844467Y674117D01*
X844330Y673254D01*
X843834Y671728D01*
X843106Y670299D01*
X842163Y669001D01*
X841029Y667867D01*
X839731Y666924D01*
X838302Y666196D01*
X836776Y665700D01*
X835913Y665563D01*
X835913Y674117D01*
G37*
%LPD*%
%LPC*%
G36*
X849713Y677163D02*
X849713Y677163D01*
X849850Y678026D01*
X850346Y679552D01*
X851074Y680981D01*
X852017Y682279D01*
X853151Y683413D01*
X854449Y684356D01*
X855878Y685084D01*
X857404Y685580D01*
X858267Y685717D01*
X858267Y677163D01*
X849713Y677163D01*
G37*
%LPD*%
%LPC*%
G36*
X861313Y699517D02*
X861313Y699517D01*
X869867Y699517D01*
X869730Y698654D01*
X869234Y697128D01*
X868506Y695699D01*
X867563Y694401D01*
X866429Y693267D01*
X865131Y692324D01*
X863702Y691596D01*
X862176Y691100D01*
X861313Y690963D01*
X861313Y699517D01*
G37*
%LPD*%
%LPC*%
G36*
X444753Y674117D02*
X444753Y674117D01*
X453307Y674117D01*
X453170Y673254D01*
X452674Y671728D01*
X451946Y670299D01*
X451003Y669001D01*
X449869Y667867D01*
X448571Y666924D01*
X447142Y666196D01*
X445616Y665700D01*
X444753Y665563D01*
X444753Y674117D01*
G37*
%LPD*%
%LPC*%
G36*
X433153Y677163D02*
X433153Y677163D01*
X433290Y678026D01*
X433786Y679552D01*
X434514Y680981D01*
X435457Y682279D01*
X436591Y683413D01*
X437889Y684356D01*
X439318Y685084D01*
X440844Y685580D01*
X441707Y685717D01*
X441707Y677163D01*
X433153Y677163D01*
G37*
%LPD*%
%LPC*%
G36*
X824313Y677163D02*
X824313Y677163D01*
X824450Y678026D01*
X824946Y679552D01*
X825674Y680981D01*
X826617Y682279D01*
X827751Y683413D01*
X829049Y684356D01*
X830478Y685084D01*
X832004Y685580D01*
X832867Y685717D01*
X832867Y677163D01*
X824313Y677163D01*
G37*
%LPD*%
%LPC*%
G36*
X849713Y702563D02*
X849713Y702563D01*
X849850Y703426D01*
X850346Y704952D01*
X851074Y706381D01*
X852017Y707679D01*
X853151Y708813D01*
X854449Y709756D01*
X855878Y710484D01*
X857404Y710980D01*
X858267Y711117D01*
X858267Y702563D01*
X849713Y702563D01*
G37*
%LPD*%
%LPC*%
G36*
X861313Y674117D02*
X861313Y674117D01*
X869867Y674117D01*
X869730Y673254D01*
X869234Y671728D01*
X868506Y670299D01*
X867563Y669001D01*
X866429Y667867D01*
X865131Y666924D01*
X863702Y666196D01*
X862176Y665700D01*
X861313Y665563D01*
X861313Y674117D01*
G37*
%LPD*%
%LPC*%
G36*
X832004Y665700D02*
X832004Y665700D01*
X830478Y666196D01*
X829049Y666924D01*
X827751Y667867D01*
X826617Y669001D01*
X825674Y670299D01*
X824946Y671728D01*
X824450Y673254D01*
X824313Y674117D01*
X832867Y674117D01*
X832867Y665563D01*
X832004Y665700D01*
G37*
%LPD*%
%LPC*%
G36*
X857404Y691100D02*
X857404Y691100D01*
X855878Y691596D01*
X854449Y692324D01*
X853151Y693267D01*
X852017Y694401D01*
X851074Y695699D01*
X850346Y697128D01*
X849850Y698654D01*
X849713Y699517D01*
X858267Y699517D01*
X858267Y690963D01*
X857404Y691100D01*
G37*
%LPD*%
%LPC*%
G36*
X440844Y665700D02*
X440844Y665700D01*
X439318Y666196D01*
X437889Y666924D01*
X436591Y667867D01*
X435457Y669001D01*
X434514Y670299D01*
X433786Y671728D01*
X433290Y673254D01*
X433153Y674117D01*
X441707Y674117D01*
X441707Y665563D01*
X440844Y665700D01*
G37*
%LPD*%
%LPC*%
G36*
X857404Y665700D02*
X857404Y665700D01*
X855878Y666196D01*
X854449Y666924D01*
X853151Y667867D01*
X852017Y669001D01*
X851074Y670299D01*
X850346Y671728D01*
X849850Y673254D01*
X849713Y674117D01*
X858267Y674117D01*
X858267Y665563D01*
X857404Y665700D01*
G37*
%LPD*%
%LPC*%
G36*
X37083Y586993D02*
X37083Y586993D01*
X37083Y594615D01*
X39348Y594615D01*
X44705Y589258D01*
X44705Y586993D01*
X37083Y586993D01*
G37*
%LPD*%
%LPC*%
G36*
X391413Y703833D02*
X391413Y703833D01*
X391413Y711455D01*
X393678Y711455D01*
X399035Y706098D01*
X399035Y703833D01*
X391413Y703833D01*
G37*
%LPD*%
%LPC*%
G36*
X697483Y575563D02*
X697483Y575563D01*
X697483Y583185D01*
X699748Y583185D01*
X705105Y577828D01*
X705105Y575563D01*
X697483Y575563D01*
G37*
%LPD*%
%LPC*%
G36*
X26415Y586993D02*
X26415Y586993D01*
X26415Y589258D01*
X31772Y594615D01*
X34037Y594615D01*
X34037Y586993D01*
X26415Y586993D01*
G37*
%LPD*%
%LPC*%
G36*
X37083Y576325D02*
X37083Y576325D01*
X37083Y583947D01*
X44705Y583947D01*
X44705Y581682D01*
X39348Y576325D01*
X37083Y576325D01*
G37*
%LPD*%
%LPC*%
G36*
X380745Y703833D02*
X380745Y703833D01*
X380745Y706098D01*
X386102Y711455D01*
X388367Y711455D01*
X388367Y703833D01*
X380745Y703833D01*
G37*
%LPD*%
%LPC*%
G36*
X686815Y575563D02*
X686815Y575563D01*
X686815Y577828D01*
X692172Y583185D01*
X694437Y583185D01*
X694437Y575563D01*
X686815Y575563D01*
G37*
%LPD*%
%LPC*%
G36*
X697483Y564895D02*
X697483Y564895D01*
X697483Y572517D01*
X705105Y572517D01*
X705105Y570252D01*
X699748Y564895D01*
X697483Y564895D01*
G37*
%LPD*%
%LPC*%
G36*
X391413Y693165D02*
X391413Y693165D01*
X391413Y700787D01*
X399035Y700787D01*
X399035Y698522D01*
X393678Y693165D01*
X391413Y693165D01*
G37*
%LPD*%
%LPC*%
G36*
X31772Y576325D02*
X31772Y576325D01*
X26415Y581682D01*
X26415Y583947D01*
X34037Y583947D01*
X34037Y576325D01*
X31772Y576325D01*
G37*
%LPD*%
%LPC*%
G36*
X386102Y693165D02*
X386102Y693165D01*
X380745Y698522D01*
X380745Y700787D01*
X388367Y700787D01*
X388367Y693165D01*
X386102Y693165D01*
G37*
%LPD*%
%LPC*%
G36*
X692172Y564895D02*
X692172Y564895D01*
X686815Y570252D01*
X686815Y572517D01*
X694437Y572517D01*
X694437Y564895D01*
X692172Y564895D01*
G37*
%LPD*%
%LPC*%
G36*
X35559Y585469D02*
X35559Y585469D01*
X35559Y585471D01*
X35561Y585471D01*
X35561Y585469D01*
X35559Y585469D01*
G37*
%LPD*%
%LPC*%
G36*
X859789Y701039D02*
X859789Y701039D01*
X859789Y701041D01*
X859791Y701041D01*
X859791Y701039D01*
X859789Y701039D01*
G37*
%LPD*%
%LPC*%
G36*
X389889Y702309D02*
X389889Y702309D01*
X389889Y702311D01*
X389891Y702311D01*
X389891Y702309D01*
X389889Y702309D01*
G37*
%LPD*%
%LPC*%
G36*
X695959Y574039D02*
X695959Y574039D01*
X695959Y574041D01*
X695961Y574041D01*
X695961Y574039D01*
X695959Y574039D01*
G37*
%LPD*%
%LPC*%
G36*
X859789Y675639D02*
X859789Y675639D01*
X859789Y675641D01*
X859791Y675641D01*
X859791Y675639D01*
X859789Y675639D01*
G37*
%LPD*%
%LPC*%
G36*
X834389Y675639D02*
X834389Y675639D01*
X834389Y675641D01*
X834391Y675641D01*
X834391Y675639D01*
X834389Y675639D01*
G37*
%LPD*%
%LPC*%
G36*
X443229Y675639D02*
X443229Y675639D01*
X443229Y675641D01*
X443231Y675641D01*
X443231Y675639D01*
X443229Y675639D01*
G37*
%LPD*%
D10*
X389890Y727710D03*
X389890Y702310D03*
X695960Y599440D03*
X695960Y574040D03*
D11*
X646430Y650240D03*
D12*
X646430Y624840D03*
X646430Y599440D03*
X646430Y574040D03*
X646430Y548640D03*
X646430Y523240D03*
X646430Y497840D03*
X646430Y472440D03*
X646430Y447040D03*
X646430Y421640D03*
X646430Y396240D03*
X646430Y370840D03*
D11*
X443230Y751840D03*
D12*
X443230Y726440D03*
X443230Y701040D03*
X443230Y675640D03*
X443230Y650240D03*
X443230Y624840D03*
X443230Y599440D03*
X443230Y574040D03*
X443230Y548640D03*
X443230Y523240D03*
X443230Y497840D03*
X443230Y472440D03*
X443230Y447040D03*
X443230Y421640D03*
X443230Y396240D03*
X443230Y370840D03*
X269240Y497840D03*
X294640Y497840D03*
X269240Y472440D03*
X294640Y472440D03*
X269240Y447040D03*
X294640Y447040D03*
X269240Y421640D03*
X294640Y421640D03*
X269240Y396240D03*
X294640Y396240D03*
X269240Y370840D03*
X294640Y370840D03*
D11*
X834390Y751840D03*
D12*
X859790Y751840D03*
X834390Y726440D03*
X859790Y726440D03*
X834390Y701040D03*
X859790Y701040D03*
X834390Y675640D03*
X859790Y675640D03*
X834390Y650240D03*
X859790Y650240D03*
X834390Y624840D03*
X859790Y624840D03*
X834390Y599440D03*
X859790Y599440D03*
X834390Y574040D03*
X859790Y574040D03*
X834390Y548640D03*
X859790Y548640D03*
X834390Y523240D03*
X859790Y523240D03*
X834390Y497840D03*
X859790Y497840D03*
X834390Y472440D03*
X859790Y472440D03*
X834390Y447040D03*
X859790Y447040D03*
X834390Y421640D03*
X859790Y421640D03*
X834390Y396240D03*
X859790Y396240D03*
X834390Y370840D03*
X859790Y370840D03*
D13*
X81280Y564440D03*
X81280Y634440D03*
X127000Y564440D03*
X127000Y634440D03*
X172720Y564440D03*
X172720Y634440D03*
X219710Y564440D03*
X219710Y634440D03*
D10*
X35560Y610870D03*
X35560Y585470D03*
D14*
X111760Y792480D03*
X193040Y701040D03*
X645160Y777240D03*
X695960Y340360D03*
X86360Y421640D03*
X624840Y370840D03*
X693420Y403860D03*
X720090Y400050D03*
X734060Y524510D03*
X722630Y547370D03*
X615950Y547370D03*
X814070Y361950D03*
D15*
X268224Y500126D02*
X262636Y500126D01*
X226314Y536448D01*
X226314Y553212D01*
X220726Y558800D01*
X220726Y564388D01*
X268224Y500126D02*
X269240Y497840D01*
X220726Y564388D02*
X219710Y564440D01*
X659384Y508508D02*
X667766Y500126D01*
X659384Y508508D02*
X653796Y508508D01*
X651002Y511302D01*
X642620Y511302D01*
X639826Y508508D01*
X637032Y511302D01*
X514096Y511302D01*
X477774Y474980D01*
D16*
X667766Y500126D03*
X477774Y474980D03*
D15*
X304546Y447040D02*
X294640Y447040D01*
X304546Y447040D02*
X318516Y461010D01*
X430276Y461010D01*
X441452Y472186D01*
X443230Y472440D01*
X824230Y472186D02*
X832612Y472186D01*
X824230Y472186D02*
X771144Y419100D01*
X832612Y472186D02*
X834390Y472440D01*
D16*
X771144Y419100D03*
D15*
X461010Y667766D02*
X444246Y651002D01*
X461010Y667766D02*
X815848Y667766D01*
X832612Y651002D01*
X444246Y651002D02*
X443230Y650240D01*
X832612Y651002D02*
X834390Y650240D01*
X296164Y393954D02*
X296164Y391160D01*
X304546Y382778D01*
X335280Y382778D01*
X371602Y346456D01*
X449834Y346456D01*
X466598Y363220D01*
X466598Y525272D01*
X443230Y548640D01*
X294640Y396240D02*
X296164Y393954D01*
X827024Y550418D02*
X832612Y550418D01*
X827024Y550418D02*
X818642Y558800D01*
X659384Y558800D01*
X656590Y561594D01*
X642620Y561594D01*
X637032Y556006D01*
X634238Y558800D01*
X500126Y558800D01*
X466598Y525272D01*
X832612Y550418D02*
X834390Y548640D01*
X810260Y651002D02*
X648208Y651002D01*
X810260Y651002D02*
X824230Y637032D01*
X838200Y637032D01*
X840994Y639826D01*
X843788Y637032D01*
X846582Y637032D01*
X854964Y645414D01*
X854964Y648208D01*
X857758Y651002D01*
X648208Y651002D02*
X646430Y650240D01*
X857758Y651002D02*
X859790Y650240D01*
X653796Y623062D02*
X648208Y623062D01*
X653796Y623062D02*
X662178Y614680D01*
X821436Y614680D01*
X824230Y611886D01*
X838200Y611886D01*
X843788Y617474D01*
X852170Y617474D01*
X854964Y620268D01*
X854964Y623062D01*
X857758Y625856D01*
X648208Y623062D02*
X646430Y624840D01*
X857758Y625856D02*
X859790Y624840D01*
X877316Y617474D02*
X860552Y600710D01*
X877316Y617474D02*
X877316Y709676D01*
X860552Y726440D01*
X860552Y600710D02*
X859790Y599440D01*
X859790Y726440D02*
X860552Y726440D01*
X698500Y597916D02*
X698500Y595122D01*
X706882Y586740D01*
X840994Y586740D01*
X843788Y589534D01*
X849376Y589534D01*
X854964Y595122D01*
X854964Y597916D01*
X857758Y600710D01*
X698500Y597916D02*
X695960Y599440D01*
X857758Y600710D02*
X859790Y599440D01*
X659384Y536448D02*
X648208Y547624D01*
X659384Y536448D02*
X838200Y536448D01*
X840994Y533654D01*
X843788Y536448D01*
X846582Y536448D01*
X857758Y547624D01*
X648208Y547624D02*
X646430Y548640D01*
X857758Y547624D02*
X859790Y548640D01*
X656590Y472186D02*
X648208Y472186D01*
X656590Y472186D02*
X692912Y508508D01*
X827024Y508508D01*
X829818Y511302D01*
X838200Y511302D01*
X846582Y502920D01*
X846582Y491744D01*
X849376Y488950D01*
X849376Y486156D01*
X860552Y474980D01*
X648208Y472186D02*
X646430Y472440D01*
X859790Y472440D02*
X860552Y474980D01*
X656590Y396748D02*
X648208Y396748D01*
X656590Y396748D02*
X673354Y379984D01*
X690118Y379984D01*
X718058Y352044D01*
X863346Y352044D01*
X877316Y366014D01*
X877316Y382778D01*
X866140Y393954D01*
X860552Y393954D01*
X648208Y396748D02*
X646430Y396240D01*
X859790Y396240D02*
X860552Y393954D01*
X648208Y346456D02*
X642620Y340868D01*
X648208Y346456D02*
X659384Y346456D01*
X673354Y360426D01*
X673354Y368808D01*
D16*
X642620Y340868D03*
X673354Y368808D03*
D15*
X659384Y340868D02*
X653796Y335280D01*
X659384Y340868D02*
X662178Y340868D01*
X687324Y366014D01*
X687324Y368808D01*
D16*
X653796Y335280D03*
X687324Y368808D03*
D15*
X268224Y474980D02*
X262636Y474980D01*
X189992Y547624D01*
X148082Y547624D01*
X128524Y567182D01*
X268224Y474980D02*
X269240Y472440D01*
X127000Y564440D02*
X128524Y567182D01*
X64262Y547624D02*
X64262Y455422D01*
X64262Y547624D02*
X81026Y564388D01*
X81280Y564440D01*
X257048Y435864D02*
X268224Y447040D01*
X257048Y435864D02*
X117348Y435864D01*
X268224Y447040D02*
X269240Y447040D01*
D16*
X64262Y455422D03*
X117348Y435864D03*
D15*
X117348Y410718D02*
X251460Y410718D01*
X262636Y421894D01*
X268224Y421894D01*
X269240Y421640D01*
X170434Y567182D02*
X156464Y581152D01*
X122936Y581152D01*
X106172Y564388D01*
X106172Y421894D01*
X117348Y410718D01*
X172720Y564440D02*
X170434Y567182D01*
D16*
X117348Y410718D03*
D15*
X296164Y472186D02*
X304546Y472186D01*
X318516Y486156D01*
X430276Y486156D01*
X441452Y497332D01*
X296164Y472186D02*
X294640Y472440D01*
X441452Y497332D02*
X443230Y497840D01*
X715264Y379984D02*
X832612Y497332D01*
X662178Y363220D02*
X651002Y352044D01*
X614680Y352044D01*
X832612Y497332D02*
X834390Y497840D01*
D16*
X715264Y379984D03*
X662178Y363220D03*
X614680Y352044D03*
D15*
X304546Y421894D02*
X296164Y421894D01*
X304546Y421894D02*
X374396Y352044D01*
X447040Y352044D01*
X461010Y366014D01*
X461010Y505714D01*
X444246Y522478D01*
X296164Y421894D02*
X294640Y421640D01*
X443230Y523240D02*
X444246Y522478D01*
X648208Y421894D02*
X656590Y421894D01*
X709676Y368808D01*
X807466Y368808D01*
X821436Y382778D01*
X838200Y382778D01*
X846582Y391160D01*
X846582Y402336D01*
X849376Y405130D01*
X849376Y407924D01*
X860552Y419100D01*
X648208Y421894D02*
X646430Y421640D01*
X859790Y421640D02*
X860552Y419100D01*
X645414Y447040D02*
X603504Y405130D01*
X603504Y349250D01*
X628650Y324104D01*
X843788Y324104D01*
X882904Y363220D01*
X882904Y424688D01*
X860552Y447040D01*
X646430Y447040D02*
X645414Y447040D01*
X859790Y447040D02*
X860552Y447040D01*
M02*
