G04 EAGLE Gerber RS-274X export*
G75*
%MOMM*%
%FSLAX34Y34*%
%LPD*%
%IN*%
%IPPOS*%
%AMOC8*
5,1,8,0,0,1.08239X$1,22.5*%
G01*
%ADD10C,0.254000*%


D10*
X0Y304800D02*
X966980Y303530D01*
X966980Y824130D01*
X0Y825400D01*
X0Y304800D01*
X41400Y799576D02*
X41332Y798531D01*
X41195Y797492D01*
X40990Y796465D01*
X40719Y795453D01*
X40383Y794461D01*
X39982Y793493D01*
X39518Y792554D01*
X38995Y791646D01*
X38413Y790775D01*
X37775Y789944D01*
X37084Y789157D01*
X36343Y788416D01*
X35556Y787725D01*
X34725Y787088D01*
X33854Y786506D01*
X32946Y785982D01*
X32007Y785518D01*
X31039Y785117D01*
X30047Y784781D01*
X29035Y784510D01*
X28008Y784305D01*
X26969Y784169D01*
X25924Y784100D01*
X24876Y784100D01*
X23831Y784169D01*
X22792Y784305D01*
X21765Y784510D01*
X20753Y784781D01*
X19761Y785117D01*
X18793Y785518D01*
X17854Y785982D01*
X16946Y786506D01*
X16075Y787088D01*
X15244Y787725D01*
X14457Y788416D01*
X13716Y789157D01*
X13025Y789944D01*
X12388Y790775D01*
X11806Y791646D01*
X11282Y792554D01*
X10818Y793493D01*
X10417Y794461D01*
X10081Y795453D01*
X9810Y796465D01*
X9605Y797492D01*
X9469Y798531D01*
X9400Y799576D01*
X9400Y800624D01*
X9469Y801669D01*
X9605Y802708D01*
X9810Y803735D01*
X10081Y804747D01*
X10417Y805739D01*
X10818Y806707D01*
X11282Y807646D01*
X11806Y808554D01*
X12388Y809425D01*
X13025Y810256D01*
X13716Y811043D01*
X14457Y811784D01*
X15244Y812475D01*
X16075Y813113D01*
X16946Y813695D01*
X17854Y814218D01*
X18793Y814682D01*
X19761Y815083D01*
X20753Y815419D01*
X21765Y815690D01*
X22792Y815895D01*
X23831Y816032D01*
X24876Y816100D01*
X25924Y816100D01*
X26969Y816032D01*
X28008Y815895D01*
X29035Y815690D01*
X30047Y815419D01*
X31039Y815083D01*
X32007Y814682D01*
X32946Y814218D01*
X33854Y813695D01*
X34725Y813113D01*
X35556Y812475D01*
X36343Y811784D01*
X37084Y811043D01*
X37775Y810256D01*
X38413Y809425D01*
X38995Y808554D01*
X39518Y807646D01*
X39982Y806707D01*
X40383Y805739D01*
X40719Y804747D01*
X40990Y803735D01*
X41195Y802708D01*
X41332Y801669D01*
X41400Y800624D01*
X41400Y799576D01*
X957070Y798306D02*
X957002Y797261D01*
X956865Y796222D01*
X956660Y795195D01*
X956389Y794183D01*
X956053Y793191D01*
X955652Y792223D01*
X955188Y791284D01*
X954665Y790376D01*
X954083Y789505D01*
X953445Y788674D01*
X952754Y787887D01*
X952013Y787146D01*
X951226Y786455D01*
X950395Y785818D01*
X949524Y785236D01*
X948616Y784712D01*
X947677Y784248D01*
X946709Y783847D01*
X945717Y783511D01*
X944705Y783240D01*
X943678Y783035D01*
X942639Y782899D01*
X941594Y782830D01*
X940546Y782830D01*
X939501Y782899D01*
X938462Y783035D01*
X937435Y783240D01*
X936423Y783511D01*
X935431Y783847D01*
X934463Y784248D01*
X933524Y784712D01*
X932616Y785236D01*
X931745Y785818D01*
X930914Y786455D01*
X930127Y787146D01*
X929386Y787887D01*
X928695Y788674D01*
X928058Y789505D01*
X927476Y790376D01*
X926952Y791284D01*
X926488Y792223D01*
X926087Y793191D01*
X925751Y794183D01*
X925480Y795195D01*
X925275Y796222D01*
X925139Y797261D01*
X925070Y798306D01*
X925070Y799354D01*
X925139Y800399D01*
X925275Y801438D01*
X925480Y802465D01*
X925751Y803477D01*
X926087Y804469D01*
X926488Y805437D01*
X926952Y806376D01*
X927476Y807284D01*
X928058Y808155D01*
X928695Y808986D01*
X929386Y809773D01*
X930127Y810514D01*
X930914Y811205D01*
X931745Y811843D01*
X932616Y812425D01*
X933524Y812948D01*
X934463Y813412D01*
X935431Y813813D01*
X936423Y814149D01*
X937435Y814420D01*
X938462Y814625D01*
X939501Y814762D01*
X940546Y814830D01*
X941594Y814830D01*
X942639Y814762D01*
X943678Y814625D01*
X944705Y814420D01*
X945717Y814149D01*
X946709Y813813D01*
X947677Y813412D01*
X948616Y812948D01*
X949524Y812425D01*
X950395Y811843D01*
X951226Y811205D01*
X952013Y810514D01*
X952754Y809773D01*
X953445Y808986D01*
X954083Y808155D01*
X954665Y807284D01*
X955188Y806376D01*
X955652Y805437D01*
X956053Y804469D01*
X956389Y803477D01*
X956660Y802465D01*
X956865Y801438D01*
X957002Y800399D01*
X957070Y799354D01*
X957070Y798306D01*
X41400Y329676D02*
X41332Y328631D01*
X41195Y327592D01*
X40990Y326565D01*
X40719Y325553D01*
X40383Y324561D01*
X39982Y323593D01*
X39518Y322654D01*
X38995Y321746D01*
X38413Y320875D01*
X37775Y320044D01*
X37084Y319257D01*
X36343Y318516D01*
X35556Y317825D01*
X34725Y317188D01*
X33854Y316606D01*
X32946Y316082D01*
X32007Y315618D01*
X31039Y315217D01*
X30047Y314881D01*
X29035Y314610D01*
X28008Y314405D01*
X26969Y314269D01*
X25924Y314200D01*
X24876Y314200D01*
X23831Y314269D01*
X22792Y314405D01*
X21765Y314610D01*
X20753Y314881D01*
X19761Y315217D01*
X18793Y315618D01*
X17854Y316082D01*
X16946Y316606D01*
X16075Y317188D01*
X15244Y317825D01*
X14457Y318516D01*
X13716Y319257D01*
X13025Y320044D01*
X12388Y320875D01*
X11806Y321746D01*
X11282Y322654D01*
X10818Y323593D01*
X10417Y324561D01*
X10081Y325553D01*
X9810Y326565D01*
X9605Y327592D01*
X9469Y328631D01*
X9400Y329676D01*
X9400Y330724D01*
X9469Y331769D01*
X9605Y332808D01*
X9810Y333835D01*
X10081Y334847D01*
X10417Y335839D01*
X10818Y336807D01*
X11282Y337746D01*
X11806Y338654D01*
X12388Y339525D01*
X13025Y340356D01*
X13716Y341143D01*
X14457Y341884D01*
X15244Y342575D01*
X16075Y343213D01*
X16946Y343795D01*
X17854Y344318D01*
X18793Y344782D01*
X19761Y345183D01*
X20753Y345519D01*
X21765Y345790D01*
X22792Y345995D01*
X23831Y346132D01*
X24876Y346200D01*
X25924Y346200D01*
X26969Y346132D01*
X28008Y345995D01*
X29035Y345790D01*
X30047Y345519D01*
X31039Y345183D01*
X32007Y344782D01*
X32946Y344318D01*
X33854Y343795D01*
X34725Y343213D01*
X35556Y342575D01*
X36343Y341884D01*
X37084Y341143D01*
X37775Y340356D01*
X38413Y339525D01*
X38995Y338654D01*
X39518Y337746D01*
X39982Y336807D01*
X40383Y335839D01*
X40719Y334847D01*
X40990Y333835D01*
X41195Y332808D01*
X41332Y331769D01*
X41400Y330724D01*
X41400Y329676D01*
X958340Y329676D02*
X958272Y328631D01*
X958135Y327592D01*
X957930Y326565D01*
X957659Y325553D01*
X957323Y324561D01*
X956922Y323593D01*
X956458Y322654D01*
X955935Y321746D01*
X955353Y320875D01*
X954715Y320044D01*
X954024Y319257D01*
X953283Y318516D01*
X952496Y317825D01*
X951665Y317188D01*
X950794Y316606D01*
X949886Y316082D01*
X948947Y315618D01*
X947979Y315217D01*
X946987Y314881D01*
X945975Y314610D01*
X944948Y314405D01*
X943909Y314269D01*
X942864Y314200D01*
X941816Y314200D01*
X940771Y314269D01*
X939732Y314405D01*
X938705Y314610D01*
X937693Y314881D01*
X936701Y315217D01*
X935733Y315618D01*
X934794Y316082D01*
X933886Y316606D01*
X933015Y317188D01*
X932184Y317825D01*
X931397Y318516D01*
X930656Y319257D01*
X929965Y320044D01*
X929328Y320875D01*
X928746Y321746D01*
X928222Y322654D01*
X927758Y323593D01*
X927357Y324561D01*
X927021Y325553D01*
X926750Y326565D01*
X926545Y327592D01*
X926409Y328631D01*
X926340Y329676D01*
X926340Y330724D01*
X926409Y331769D01*
X926545Y332808D01*
X926750Y333835D01*
X927021Y334847D01*
X927357Y335839D01*
X927758Y336807D01*
X928222Y337746D01*
X928746Y338654D01*
X929328Y339525D01*
X929965Y340356D01*
X930656Y341143D01*
X931397Y341884D01*
X932184Y342575D01*
X933015Y343213D01*
X933886Y343795D01*
X934794Y344318D01*
X935733Y344782D01*
X936701Y345183D01*
X937693Y345519D01*
X938705Y345790D01*
X939732Y345995D01*
X940771Y346132D01*
X941816Y346200D01*
X942864Y346200D01*
X943909Y346132D01*
X944948Y345995D01*
X945975Y345790D01*
X946987Y345519D01*
X947979Y345183D01*
X948947Y344782D01*
X949886Y344318D01*
X950794Y343795D01*
X951665Y343213D01*
X952496Y342575D01*
X953283Y341884D01*
X954024Y341143D01*
X954715Y340356D01*
X955353Y339525D01*
X955935Y338654D01*
X956458Y337746D01*
X956922Y336807D01*
X957323Y335839D01*
X957659Y334847D01*
X957930Y333835D01*
X958135Y332808D01*
X958272Y331769D01*
X958340Y330724D01*
X958340Y329676D01*
M02*
